<?xml version="1.0" encoding="utf-8"?>
<!-- Generator: Adobe Illustrator 16.0.0, SVG Export Plug-In . SVG Version: 6.00 Build 0)  -->
<!DOCTYPE svg PUBLIC "-//W3C//DTD SVG 1.1//EN" "http://www.w3.org/Graphics/SVG/1.1/DTD/svg11.dtd">
<svg version="1.1" id="Capa_1" xmlns="http://www.w3.org/2000/svg" xmlns:xlink="http://www.w3.org/1999/xlink" x="0px" y="0px"
	 width="16.75px" height="20.25px" viewBox="16.5 14.5 16.75 20.25" enable-background="new 16.5 14.5 16.75 20.25"
	 xml:space="preserve">
<g>
	<path fill="#1AA34C" d="M28.469,18.486c0,0.374-0.133,0.88-0.652,0.88c-0.627,0-0.627-0.712-0.627-0.856s0-0.905,0.651-0.905
		C28.42,17.605,28.469,18.269,28.469,18.486L28.469,18.486z M27.178,16.508h-0.422v2.726l-0.013,0.41h0.41l0.012-0.35
		c0.048,0.072,0.097,0.145,0.218,0.229c0.192,0.133,0.397,0.145,0.506,0.145c0.314,0,0.615-0.133,0.797-0.386
		c0.108-0.145,0.217-0.386,0.217-0.833c0-0.494-0.156-0.724-0.266-0.856c-0.205-0.229-0.494-0.289-0.724-0.289
		c-0.519,0-0.688,0.289-0.735,0.386V16.508L27.178,16.508z"/>
	<path fill="#1AA34C" d="M29.639,18.583c0-0.205,0-0.929,0.675-0.929c0.507,0,0.628,0.422,0.628,0.833
		c0,0.168-0.024,0.482-0.182,0.711c-0.145,0.205-0.373,0.217-0.482,0.217C29.687,19.415,29.639,18.86,29.639,18.583L29.639,18.583z
		 M29.24,20.525h0.422v-1.122c0.121,0.205,0.374,0.338,0.699,0.338c0.543,0,1.038-0.374,1.038-1.218c0-0.845-0.471-1.17-0.953-1.17
		c-0.181,0-0.555,0.048-0.772,0.41l-0.012-0.374h-0.434c0.012,0.217,0.012,0.266,0.012,0.374V20.525L29.24,20.525z"/>
	<path fill="#1AA34C" d="M25.862,22.081c-0.325-0.76-0.711-1.339-0.868-1.568c-0.157,0.229-0.555,0.808-0.869,1.568
		c0.313,0.337,0.627,0.736,0.869,1.182C25.247,22.817,25.549,22.418,25.862,22.081L25.862,22.081z"/>
	<path fill="#1AA34C" d="M24.125,31.924c0.313,0.76,0.712,1.34,0.869,1.568c0.157-0.229,0.543-0.809,0.868-1.568
		c-0.313-0.338-0.627-0.736-0.868-1.182C24.753,31.188,24.439,31.586,24.125,31.924L24.125,31.924z"/>
	<path fill="#1AA34C" d="M24.125,22.081c-0.555-0.604-1.122-1.014-1.351-1.17c-0.072,0.277-0.241,0.953-0.277,1.773
		c0.41,0.205,0.832,0.47,1.218,0.82C23.8,22.985,23.957,22.503,24.125,22.081L24.125,22.081z"/>
	<path fill="#1AA34C" d="M25.862,31.924c0.556,0.604,1.122,1.014,1.351,1.17c0.061-0.277,0.242-0.953,0.277-1.773
		c-0.409-0.205-0.832-0.482-1.218-0.82C26.2,31.02,26.043,31.502,25.862,31.924L25.862,31.924z"/>
	<path fill="#1AA34C" d="M22.497,22.684c-0.724-0.374-1.399-0.567-1.665-0.64c0.036,0.278,0.096,0.978,0.337,1.761
		c0.458,0.061,0.953,0.157,1.423,0.35C22.497,23.637,22.473,23.143,22.497,22.684L22.497,22.684z"/>
	<path fill="#1AA34C" d="M27.49,31.333c0.736,0.374,1.4,0.567,1.678,0.64c-0.037-0.277-0.097-0.978-0.338-1.762
		c-0.459-0.061-0.953-0.168-1.424-0.35C27.503,30.367,27.516,30.875,27.49,31.333L27.49,31.333z"/>
	<path fill="#1AA34C" d="M21.761,25.145c-0.266-0.447-0.458-0.905-0.591-1.339c-0.82-0.096-1.508-0.048-1.785-0.036
		c0.121,0.253,0.422,0.881,0.917,1.532C20.748,25.193,21.243,25.121,21.761,25.145L21.761,25.145z"/>
	<path fill="#1AA34C" d="M28.238,28.872c0.266,0.435,0.459,0.905,0.592,1.339c0.82,0.097,1.508,0.049,1.785,0.037
		c-0.121-0.254-0.422-0.881-0.917-1.533C29.252,28.813,28.746,28.885,28.238,28.872L28.238,28.872z"/>
	<path fill="#1AA34C" d="M20.302,25.302c-0.796,0.181-1.436,0.47-1.689,0.579c0.205,0.193,0.7,0.676,1.387,1.121
		c0.386-0.24,0.833-0.482,1.315-0.65C20.917,26.037,20.579,25.664,20.302,25.302L20.302,25.302z"/>
	<path fill="#1AA34C" d="M30,27.002c-0.387,0.254-0.832,0.482-1.314,0.652c0.397,0.325,0.735,0.699,1.013,1.061
		c0.796-0.181,1.436-0.471,1.688-0.578C31.182,27.943,30.688,27.449,30,27.002L30,27.002z"/>
	<path fill="#1AA34C" d="M21.315,27.654c-0.482-0.17-0.929-0.398-1.315-0.652c-0.688,0.447-1.194,0.941-1.387,1.123
		c0.253,0.107,0.893,0.397,1.689,0.578C20.579,28.354,20.917,27.979,21.315,27.654L21.315,27.654z"/>
	<path fill="#1AA34C" d="M28.674,26.352c0.482,0.168,0.928,0.397,1.314,0.65c0.688-0.445,1.193-0.928,1.387-1.121
		c-0.254-0.109-0.893-0.398-1.688-0.579C29.421,25.664,29.083,26.037,28.674,26.352L28.674,26.352z"/>
	<path fill="#1AA34C" d="M20.302,28.715c-0.495,0.652-0.796,1.279-0.917,1.532c0.277,0.013,0.977,0.073,1.785-0.036
		c0.133-0.434,0.326-0.904,0.591-1.339C21.243,28.885,20.748,28.813,20.302,28.715L20.302,28.715z"/>
	<path fill="#1AA34C" d="M29.698,25.302c0.495-0.651,0.796-1.279,0.917-1.532c-0.277-0.012-0.977-0.072-1.785,0.036
		c-0.133,0.435-0.326,0.905-0.592,1.339C28.746,25.121,29.252,25.193,29.698,25.302L29.698,25.302z"/>
	<path fill="#1AA34C" d="M22.593,29.861c-0.47,0.193-0.965,0.289-1.423,0.35c-0.241,0.784-0.313,1.484-0.337,1.762
		c0.265-0.085,0.941-0.266,1.665-0.64C22.473,30.875,22.497,30.367,22.593,29.861L22.593,29.861z"/>
	<path fill="#1AA34C" d="M27.395,24.144c0.482-0.181,0.977-0.29,1.424-0.35c0.24-0.784,0.313-1.484,0.338-1.761
		c-0.266,0.084-0.941,0.265-1.678,0.639C27.516,23.143,27.503,23.637,27.395,24.144L27.395,24.144z"/>
	<path fill="#1AA34C" d="M22.497,31.333c0.036,0.82,0.217,1.495,0.277,1.772c0.229-0.168,0.796-0.566,1.351-1.17
		c-0.181-0.422-0.326-0.904-0.41-1.41C23.329,30.851,22.907,31.128,22.497,31.333L22.497,31.333z"/>
	<path fill="#1AA34C" d="M27.49,22.684c-0.035-0.82-0.217-1.496-0.277-1.773c-0.229,0.169-0.795,0.579-1.351,1.17
		c0.181,0.422,0.338,0.904,0.41,1.411C26.658,23.154,27.093,22.889,27.49,22.684L27.49,22.684z"/>
	<path fill="#85BA44" d="M24.548,24.481c0.084-0.435,0.241-0.845,0.446-1.218c-0.241-0.446-0.555-0.845-0.869-1.182
		c-0.181,0.422-0.326,0.904-0.41,1.411C24.041,23.77,24.318,24.107,24.548,24.481L24.548,24.481z"/>
	<path fill="#85BA44" d="M25.44,29.523c-0.084,0.435-0.241,0.844-0.446,1.219c0.241,0.445,0.555,0.844,0.868,1.182
		c0.181-0.422,0.338-0.904,0.41-1.411C25.959,30.235,25.67,29.91,25.44,29.523L25.44,29.523z"/>
	<path fill="#85BA44" d="M22.593,24.144c0.398,0.157,0.772,0.362,1.122,0.651c-0.072-0.434-0.061-0.88,0-1.291
		c-0.386-0.338-0.808-0.604-1.218-0.82C22.473,23.143,22.497,23.637,22.593,24.144L22.593,24.144z"/>
	<path fill="#85BA44" d="M27.395,29.861c-0.387-0.145-0.771-0.361-1.122-0.639c0.073,0.434,0.061,0.867,0,1.29
		c0.386,0.338,0.809,0.603,1.218,0.82C27.516,30.875,27.503,30.367,27.395,29.861L27.395,29.861z"/>
	<path fill="#85BA44" d="M23.04,25.362c-0.217-0.386-0.362-0.808-0.447-1.218c-0.47-0.181-0.965-0.29-1.423-0.35
		c0.133,0.434,0.326,0.904,0.591,1.339C22.183,25.145,22.618,25.217,23.04,25.362L23.04,25.362z"/>
	<path fill="#85BA44" d="M26.96,28.654c0.218,0.387,0.362,0.797,0.435,1.219c0.482,0.193,0.977,0.289,1.424,0.35
		c-0.133-0.434-0.326-0.904-0.592-1.338C27.816,28.859,27.383,28.8,26.96,28.654L26.96,28.654z"/>
	<path fill="#85BA44" d="M21.315,26.352c0.398-0.133,0.832-0.218,1.267-0.229c-0.338-0.29-0.615-0.627-0.833-0.989
		c-0.506-0.012-1.013,0.06-1.459,0.157C20.579,25.664,20.917,26.037,21.315,26.352L21.315,26.352z"/>
	<path fill="#85BA44" d="M28.674,27.654c-0.398,0.133-0.833,0.217-1.279,0.229c0.338,0.289,0.615,0.627,0.832,1.002
		c0.52,0.012,1.014-0.061,1.46-0.157C29.421,28.354,29.083,27.979,28.674,27.654L28.674,27.654z"/>
	<path fill="#85BA44" d="M22.437,27.002c-0.422-0.156-0.784-0.386-1.122-0.65c-0.482,0.168-0.929,0.397-1.315,0.65
		c0.386,0.254,0.833,0.482,1.315,0.652C21.653,27.389,22.015,27.159,22.437,27.002L22.437,27.002z"/>
	<path fill="#85BA44" d="M27.563,27.002c0.422,0.157,0.784,0.387,1.122,0.652c0.482-0.17,0.928-0.398,1.314-0.652
		c-0.387-0.24-0.832-0.482-1.314-0.65C28.348,26.616,27.974,26.846,27.563,27.002L27.563,27.002z"/>
	<path fill="#85BA44" d="M21.761,28.872c0.217-0.362,0.495-0.7,0.832-1.001c-0.446,0-0.868-0.097-1.278-0.229
		c-0.398,0.325-0.736,0.7-1.013,1.062C20.748,28.813,21.243,28.885,21.761,28.872L21.761,28.872z"/>
	<path fill="#85BA44" d="M28.238,25.145c-0.217,0.362-0.494,0.699-0.832,0.989c0.447,0,0.869,0.097,1.279,0.229
		c0.397-0.314,0.735-0.688,1.013-1.062C29.252,25.193,28.746,25.121,28.238,25.145L28.238,25.145z"/>
	<path fill="#85BA44" d="M23.04,28.654c-0.422,0.146-0.857,0.218-1.279,0.218c-0.266,0.435-0.458,0.905-0.591,1.339
		c0.458-0.061,0.953-0.168,1.423-0.35C22.678,29.451,22.811,29.041,23.04,28.654L23.04,28.654z"/>
	<path fill="#85BA44" d="M26.96,25.362c0.423-0.145,0.856-0.217,1.278-0.217c0.266-0.447,0.459-0.905,0.592-1.339
		c-0.459,0.061-0.953,0.157-1.424,0.35C27.311,24.554,27.178,24.976,26.96,25.362L26.96,25.362z"/>
	<path fill="#85BA44" d="M24.548,29.523c-0.229,0.387-0.519,0.712-0.833,0.989c0.072,0.507,0.229,0.989,0.41,1.411
		c0.313-0.338,0.627-0.736,0.869-1.182C24.789,30.367,24.632,29.97,24.548,29.523L24.548,29.523z"/>
	<path fill="#85BA44" d="M23.715,29.223c-0.35,0.277-0.736,0.494-1.122,0.639c-0.096,0.506-0.121,1.014-0.096,1.472
		c0.41-0.205,0.832-0.482,1.218-0.82C23.655,30.103,23.643,29.668,23.715,29.223L23.715,29.223z"/>
	<path fill="#85BA44" d="M25.44,24.481c0.229-0.386,0.519-0.712,0.832-0.989c-0.072-0.507-0.229-0.989-0.41-1.411
		c-0.313,0.337-0.627,0.736-0.868,1.182C25.199,23.637,25.356,24.047,25.44,24.481L25.44,24.481z"/>
	<path fill="#85BA44" d="M26.272,24.783c0.351-0.277,0.724-0.495,1.122-0.651c0.096-0.506,0.121-1.001,0.096-1.459
		c-0.409,0.205-0.832,0.471-1.218,0.82C26.346,23.915,26.346,24.349,26.272,24.783L26.272,24.783z"/>
	<path fill="#FFFFFF" d="M24.548,25.797c-0.229-0.411-0.519-0.736-0.833-1.002c0.061,0.41,0.205,0.82,0.446,1.23
		c-0.35-0.302-0.736-0.519-1.134-0.651c0.205,0.362,0.482,0.7,0.844,1.001c-0.434-0.168-0.869-0.229-1.291-0.229
		c0.313,0.265,0.688,0.494,1.134,0.65c-0.471-0.012-0.893,0.072-1.291,0.218c0.386,0.145,0.82,0.229,1.291,0.229
		c-0.446,0.156-0.82,0.386-1.134,0.65c0.41,0,0.844-0.06,1.291-0.229c-0.362,0.301-0.639,0.639-0.844,1.001
		c0.398-0.145,0.772-0.35,1.134-0.651c-0.241,0.41-0.386,0.82-0.446,1.23c0.326-0.266,0.603-0.592,0.833-1.002
		c-0.084,0.459-0.073,0.894,0,1.304c0.217-0.362,0.374-0.772,0.446-1.23c0.072,0.458,0.229,0.868,0.446,1.23
		c0.072-0.41,0.085-0.845,0-1.304c0.229,0.41,0.519,0.736,0.832,1.002c-0.072-0.41-0.205-0.82-0.446-1.23
		c0.35,0.302,0.736,0.519,1.134,0.651c-0.204-0.362-0.482-0.7-0.845-1.001c0.436,0.169,0.869,0.229,1.291,0.229
		c-0.313-0.265-0.688-0.494-1.134-0.65c0.471,0.012,0.893-0.072,1.291-0.229c-0.386-0.146-0.82-0.229-1.291-0.218
		c0.446-0.156,0.82-0.386,1.134-0.65c-0.41,0-0.844,0.061-1.291,0.229c0.362-0.289,0.641-0.639,0.845-1.001
		c-0.397,0.133-0.772,0.35-1.134,0.651c0.241-0.398,0.387-0.82,0.446-1.23c-0.325,0.266-0.603,0.591-0.832,1.002
		c0.085-0.459,0.072-0.894,0-1.304c-0.217,0.362-0.374,0.772-0.446,1.23c-0.073-0.458-0.229-0.868-0.446-1.23
		C24.475,24.892,24.463,25.326,24.548,25.797L24.548,25.797z"/>
	<path fill="#FFDA00" d="M24.548,25.797c-0.084-0.459-0.073-0.894,0-1.304c-0.229-0.386-0.519-0.711-0.833-0.989
		c-0.061,0.422-0.072,0.856,0,1.291C24.041,25.048,24.318,25.386,24.548,25.797L24.548,25.797z"/>
	<path fill="#FFDA00" d="M25.44,28.221c0.085,0.459,0.072,0.893,0,1.303c0.229,0.387,0.519,0.712,0.832,0.989
		c0.061-0.423,0.073-0.856,0-1.29C25.959,28.957,25.67,28.631,25.44,28.221L25.44,28.221z"/>
	<path fill="#FFDA00" d="M23.715,24.783c-0.35-0.277-0.736-0.495-1.122-0.651c0.084,0.41,0.217,0.833,0.447,1.218
		c0.398,0.133,0.772,0.35,1.134,0.652C23.92,25.615,23.788,25.205,23.715,24.783L23.715,24.783z"/>
	<path fill="#FFDA00" d="M26.272,29.223c0.351,0.277,0.724,0.494,1.122,0.639c-0.084-0.41-0.217-0.832-0.435-1.219
		c-0.397-0.145-0.772-0.35-1.134-0.65C26.067,28.402,26.213,28.813,26.272,29.223L26.272,29.223z"/>
	<path fill="#FFDA00" d="M23.872,26.363c-0.362-0.289-0.639-0.64-0.844-1.001c-0.422-0.145-0.856-0.217-1.279-0.217
		c0.217,0.362,0.495,0.699,0.833,0.989C23.003,26.122,23.438,26.194,23.872,26.363L23.872,26.363z"/>
	<path fill="#FFDA00" d="M26.115,27.654c0.362,0.301,0.641,0.639,0.845,1c0.423,0.146,0.856,0.218,1.278,0.23
		c-0.217-0.362-0.494-0.7-0.832-1.002C26.984,27.883,26.563,27.822,26.115,27.654L26.115,27.654z"/>
	<path fill="#FFDA00" d="M23.715,26.785c-0.446-0.156-0.82-0.386-1.134-0.651c-0.446,0-0.869,0.097-1.279,0.229
		c0.326,0.266,0.7,0.494,1.122,0.651C22.823,26.857,23.257,26.773,23.715,26.785L23.715,26.785z"/>
	<path fill="#FFDA00" d="M26.272,27.231c0.446,0.157,0.82,0.386,1.134,0.651c0.447,0,0.869-0.096,1.279-0.229
		c-0.326-0.266-0.7-0.495-1.122-0.652C27.165,27.146,26.743,27.231,26.272,27.231L26.272,27.231z"/>
	<path fill="#FFDA00" d="M22.437,27.002c-0.422,0.157-0.784,0.387-1.122,0.652c0.398,0.133,0.832,0.217,1.267,0.229
		c0.313-0.266,0.688-0.494,1.134-0.651C23.257,27.231,22.823,27.146,22.437,27.002L22.437,27.002z"/>
	<path fill="#FFDA00" d="M27.563,27.002c0.422-0.156,0.784-0.386,1.122-0.65c-0.398-0.133-0.832-0.218-1.279-0.229
		c-0.313,0.265-0.688,0.494-1.134,0.651C26.743,26.773,27.165,26.857,27.563,27.002L27.563,27.002z"/>
	<path fill="#FFDA00" d="M23.872,27.654c-0.434,0.168-0.869,0.229-1.291,0.229c-0.338,0.289-0.615,0.627-0.833,1.002
		c0.422-0.013,0.856-0.072,1.279-0.218C23.233,28.293,23.51,27.943,23.872,27.654L23.872,27.654z"/>
	<path fill="#FFDA00" d="M26.115,26.363c0.436-0.169,0.869-0.229,1.291-0.229c0.338-0.29,0.615-0.627,0.832-0.989
		c-0.422,0.012-0.855,0.072-1.278,0.217C26.756,25.724,26.478,26.062,26.115,26.363L26.115,26.363z"/>
	<path fill="#FFDA00" d="M24.548,29.523c0.084,0.435,0.241,0.844,0.446,1.219c0.205-0.375,0.362-0.772,0.446-1.219
		c-0.217-0.361-0.374-0.771-0.446-1.23C24.921,28.764,24.765,29.174,24.548,29.523L24.548,29.523z"/>
	<path fill="#FFDA00" d="M24.548,28.221c-0.229,0.41-0.519,0.736-0.833,1.002c-0.072,0.434-0.061,0.867,0,1.29
		c0.313-0.277,0.603-0.603,0.833-0.989C24.475,29.113,24.463,28.68,24.548,28.221L24.548,28.221z"/>
	<path fill="#FFDA00" d="M23.04,28.654c-0.217,0.387-0.362,0.797-0.447,1.219c0.398-0.145,0.772-0.361,1.122-0.639
		c0.061-0.41,0.205-0.82,0.446-1.23C23.812,28.305,23.426,28.51,23.04,28.654L23.04,28.654z"/>
	<path fill="#FFDA00" d="M25.44,24.481c-0.084-0.435-0.241-0.845-0.446-1.218c-0.205,0.374-0.362,0.772-0.446,1.218
		c0.217,0.362,0.374,0.772,0.446,1.23C25.079,25.253,25.223,24.843,25.44,24.481L25.44,24.481z"/>
	<path fill="#FFDA00" d="M25.44,25.797c0.229-0.411,0.519-0.736,0.832-1.002c0.073-0.434,0.061-0.88,0-1.291
		c-0.313,0.277-0.603,0.603-0.832,0.989C25.513,24.892,25.525,25.326,25.44,25.797L25.44,25.797z"/>
	<path fill="#FFDA00" d="M26.96,25.362c0.218-0.386,0.362-0.808,0.435-1.218c-0.387,0.157-0.771,0.362-1.122,0.651
		c-0.072,0.41-0.205,0.82-0.446,1.23C26.188,25.712,26.563,25.495,26.96,25.362L26.96,25.362z"/>
</g>
</svg>
