<?xml version="1.0" standalone="no"?>
<!DOCTYPE svg PUBLIC "-//W3C//DTD SVG 1.1//EN" "http://www.w3.org/Graphics/SVG/1.1/DTD/svg11.dtd" >
<svg xmlns="http://www.w3.org/2000/svg">
<metadata></metadata>
<defs>
<font id="bankinter_textregular" horiz-adv-x="1187" >
<font-face units-per-em="2048" ascent="1638" descent="-410" />
<missing-glyph horiz-adv-x="593" />
<glyph unicode="&#xfb01;" horiz-adv-x="1327" d="M37 850l18 133h160v160q0 184 71.5 272t219.5 88q66 0 111 -5t141 -23l-19 -119q-95 10 -180 10q-100 0 -138 -50.5t-38 -182.5v-150h289l-19 -133h-270v-528q0 -128 6 -199l256 -21v-102h-582v98l146 25q6 65 6 180v547h-178zM758 0v98l176 25q10 88 10 160v354 q0 169 -10 240l-164 8v98l350 25q-8 -200 -8 -332v-393q0 -66 8 -160l178 -25v-98h-540zM934 1188v219h172v-219h-172z" />
<glyph unicode="&#xfb02;" horiz-adv-x="1329" d="M35 850l18 133h160v160q0 186 71.5 273t225.5 87q64 0 111.5 -4t218.5 -24q62 -9 125 -9q21 0 153 9q-8 -219 -8 -342v-850q0 -103 8 -162l166 -23v-98h-516v98l166 23q8 61 8 162v778q0 129 -8 256q-246 49 -383 49q-95 0 -132.5 -51t-37.5 -182v-150h291l-21 -133h-270 v-528q0 -66 6 -201l231 -19v-102h-557v98l146 23q6 89 6 182v547h-178z" />
<glyph horiz-adv-x="2048" />
<glyph horiz-adv-x="2048" />
<glyph unicode="&#xd;" horiz-adv-x="2048" />
<glyph unicode=" "  horiz-adv-x="593" />
<glyph unicode="&#x09;" horiz-adv-x="593" />
<glyph unicode="&#xa0;" horiz-adv-x="593" />
<glyph unicode="!" horiz-adv-x="696" d="M254 0v219h188v-219h-188zM254 1503h188l-30 -1097h-127z" />
<glyph unicode="&#x22;" horiz-adv-x="559" d="M53 1516h172l-24 -551h-123zM334 1516h172l-25 -551h-123z" />
<glyph unicode="#" d="M117 442l18 144h193l28 217h-190l18 143h191l47 352h147l-45 -352h207l45 352h150l-45 -352h190l-18 -143h-191l-28 -217h188l-18 -144h-189l-43 -336h-149l43 336h-207l-43 -336h-150l45 336h-194zM477 586h207l29 217h-207z" />
<glyph unicode="$" d="M111 43l18 141q196 -67 414 -73v551q-169 52 -234 90q-157 89 -157 301q0 277 223 354q64 21 168 29v159h98v-159q146 -11 301 -62l-16 -139q-154 50 -285 59v-485q169 -47 259.5 -98.5t128.5 -123.5t38 -186q0 -334 -260 -407q-64 -18 -166 -23v-166h-98v166 q-237 3 -432 72zM330 1067q0 -100 42 -145.5t171 -85.5v460q-112 -9 -162.5 -63.5t-50.5 -165.5zM641 113q64 6 98 15.5t60 29.5q90 68 90 219q0 79 -27.5 128.5t-89.5 80.5q-19 10 -131 49v-522z" />
<glyph unicode="%" horiz-adv-x="1687" d="M82 1071q0 200 70.5 282.5t242.5 82.5q166 0 236.5 -83.5t70.5 -279.5q0 -198 -71 -281t-238 -83q-170 0 -240.5 82t-70.5 280zM221 1073q0 -151 36 -206.5t134 -55.5q100 0 136 55.5t36 206.5q0 149 -36.5 204.5t-133.5 55.5q-100 0 -136 -54.5t-36 -205.5zM424 0 l704 1407h134l-703 -1407h-135zM985 334q0 200 70.5 282t242.5 82q166 0 237 -83t71 -279q0 -198 -70.5 -281.5t-239.5 -83.5q-170 0 -240.5 83t-70.5 280zM1124 336q0 -150 37 -206t135 -56q97 0 133.5 56t36.5 206q0 149 -36.5 204.5t-133.5 55.5q-100 0 -136 -54.5 t-36 -205.5z" />
<glyph unicode="&#x26;" horiz-adv-x="1452" d="M113 381q0 118 39 198t122 134q44 27 146 71q-69 100 -94 168.5t-25 159.5q0 324 334 324q183 0 269.5 -70.5t86.5 -218.5q0 -111 -37 -187.5t-118 -130.5q-33 -22 -156 -79l326 -420q70 129 116 340l-184 16v98h494v-98l-150 -16q-61 -279 -174 -451l84 -108l199 -15 v-96h-316l-86 96q-88 -66 -192 -95.5t-250 -29.5q-223 0 -328.5 99.5t-105.5 310.5zM291 387q0 -145 69.5 -211.5t221.5 -66.5q193 0 313 94l-387 483q-134 -65 -175.5 -122t-41.5 -177zM469 1133q0 -71 25 -129t98 -154q126 47 178.5 114.5t52.5 180.5q0 83 -42 118 t-142 35q-90 0 -130 -39t-40 -126z" />
<glyph unicode="'" horiz-adv-x="278" d="M53 1516h172l-24 -551h-123z" />
<glyph unicode="(" horiz-adv-x="890" d="M315 598q0 544 258 967l115 -62q-94 -189 -144 -423t-50 -482t50 -482t144 -423l-115 -62q-258 423 -258 967z" />
<glyph unicode=")" horiz-adv-x="890" d="M203 -307q94 187 144 422t50 483t-50 482t-144 423l114 62q258 -426 258 -967t-258 -967z" />
<glyph unicode="*" d="M186 1206l45 160l301 -117l-30 340h184l-14 -340l286 117l46 -160l-304 -71l209 -301l-149 -84l-158 301l-172 -301l-149 84l221 301z" />
<glyph unicode="+" d="M129 580l10 137h385v432h140v-432h395l-10 -137h-385v-433h-140v433h-395z" />
<glyph unicode="," horiz-adv-x="593" d="M176 -279l43 498h205l-100 -498h-148z" />
<glyph unicode="-" horiz-adv-x="688" d="M80 578l12 143h516l-10 -143h-518z" />
<glyph unicode="." horiz-adv-x="593" d="M188 0v219h218v-219h-218z" />
<glyph unicode="/" horiz-adv-x="532" d="M39 0l297 1407h156l-295 -1407h-158z" />
<glyph unicode="0" d="M96 702q0 200 26.5 331.5t86.5 223.5q58 94 151.5 136.5t239.5 42.5q262 0 377 -170.5t115 -560.5q0 -394 -115.5 -564t-382.5 -170t-382.5 169.5t-115.5 561.5zM274 702q0 -176 14.5 -286t52.5 -179.5t97.5 -96.5t155.5 -27q76 0 128.5 18t90.5 57t59.5 110t31 168 t9.5 239q0 141 -9.5 237.5t-30.5 166.5t-59 109.5t-89.5 57.5t-126.5 18q-98 0 -158.5 -26.5t-98.5 -96.5t-52.5 -180t-14.5 -289z" />
<glyph unicode="1" d="M158 0v113l399 18q6 171 6 330v557q-3 172 -6 231l-334 -82l-33 119l410 129h141q-10 -228 -10 -397v-598q0 -190 6 -289l375 -18v-113h-954z" />
<glyph unicode="2" d="M125 0v147l455 492q90 101 165 211q70 103 70 221q0 123 -54 173t-186 50q-137 0 -258 -55l-16 -205h-131v309q200 93 422 93q205 0 303 -88t98 -273q0 -132 -57 -236t-234 -298l-368 -404h563l16 215h131v-352h-919z" />
<glyph unicode="3" d="M111 47v305h131l16 -192q121 -47 303 -47q180 0 242.5 60.5t62.5 232.5q0 85 -12 135t-47.5 81.5t-91.5 42.5t-152 11h-153v137h182q129 0 183 51.5t54 171.5q0 148 -55.5 203t-206.5 55q-137 0 -270 -55l-16 -205h-131v320q207 82 434 82q222 0 323 -94t101 -298 q0 -112 -37.5 -175.5t-134.5 -114.5q114 -52 161 -133t47 -222q0 -226 -109 -327t-353 -101q-262 0 -471 76z" />
<glyph unicode="4" d="M84 381v156l242 477q71 139 71 295v118h152v-137q0 -102 -21.5 -180t-81.5 -199l-194 -393h493v635h164v-635h207l-8 -137h-199v-96q0 -109 6 -164l166 -23v-98h-563v98l221 23q6 99 6 155v105h-661z" />
<glyph unicode="5" d="M158 47v305h131l16 -192q66 -26 128.5 -36.5t154.5 -10.5q89 0 144 15t90 54.5t48 102t13 164.5q0 172 -56.5 236.5t-205.5 64.5q-96 0 -160 -23t-142 -86l-122 25l18 741h758v-137h-598l-8 -457q70 43 130.5 60.5t145.5 17.5q218 0 318 -107t100 -340 q0 -250 -106.5 -361.5t-344.5 -111.5q-252 0 -452 76z" />
<glyph unicode="6" d="M145 539v198q0 177 12 282t40 181q44 123 153 179.5t301 56.5q138 0 295 -23l-12 -141q-148 22 -272 22q-122 0 -193.5 -28.5t-103.5 -91.5q-52 -96 -52 -310v-80q44 54 58 68q80 74 252 74q227 0 334.5 -115.5t107.5 -361.5q0 -244 -112 -361t-347 -117q-292 0 -393 183 q-37 69 -52.5 156t-15.5 229zM324 449q0 -182 64.5 -259t217.5 -77q152 0 216.5 77t64.5 259q0 186 -62.5 260.5t-216.5 74.5q-160 0 -222 -73.5t-62 -261.5z" />
<glyph unicode="7" d="M178 1049v358h914v-102l-381 -930q-117 -292 -144 -375h-209q66 139 187 418l364 852h-581l-19 -221h-131z" />
<glyph unicode="8" d="M98 369q0 141 51.5 224t174.5 142q-100 56 -138.5 121t-38.5 182q0 206 107.5 302t339.5 96q230 0 337 -96t107 -302q0 -117 -38 -182t-138 -121q123 -58 174 -141.5t51 -224.5q0 -214 -114 -306t-379 -92q-267 0 -381.5 92t-114.5 306zM276 373q0 -152 65.5 -206 t250.5 -54q186 0 251.5 54t65.5 206q0 169 -65 230t-248 61q-187 0 -253.5 -60.5t-66.5 -230.5zM326 1034q0 -132 58 -182.5t208 -50.5q151 0 209.5 50.5t58.5 182.5q0 145 -59 202.5t-207 57.5q-151 0 -209.5 -57t-58.5 -203z" />
<glyph unicode="9" d="M121 979q0 233 112 345t347 112q292 0 393 -176q37 -66 52 -150t15 -221v-219q0 -194 -9 -294t-32 -167q-86 -238 -471 -238q-164 0 -342 29l13 143q177 -30 331 -30q228 0 297 120q45 74 45 259v172q-42 -51 -57 -66q-82 -76 -252 -76q-227 0 -334.5 111t-107.5 346z M299 979q0 -175 62.5 -245t220.5 -70q155 0 217.5 70t62.5 245q0 169 -64 242t-214 73q-155 0 -220 -71.5t-65 -243.5z" />
<glyph unicode=":" horiz-adv-x="593" d="M213 0v219h217v-219h-217zM213 760v223h217v-223h-217z" />
<glyph unicode=";" horiz-adv-x="593" d="M176 -279l43 498h205l-100 -498h-148zM213 760v223h217v-223h-217z" />
<glyph unicode="&#x3c;" d="M137 584v129l873 436v-156l-697 -344l697 -346v-156z" />
<glyph unicode="=" d="M129 414l10 137h920l-10 -137h-920zM129 745l10 140h920l-10 -140h-920z" />
<glyph unicode="&#x3e;" d="M178 147v156l696 344l-696 346v156l873 -436v-129z" />
<glyph unicode="?" horiz-adv-x="872" d="M127 1425q162 78 342 78q170 0 257 -78.5t87 -230.5q0 -100 -34 -170.5t-148 -208.5q-89 -106 -107 -147t-18 -129v-133h-152v149q0 101 18 147.5t89 131.5q108 131 141 196t33 148q0 94 -48 135t-155 41q-127 0 -282 -64zM344 0v219h172v-219h-172z" />
<glyph unicode="@" horiz-adv-x="1736" d="M109 389q0 233 71 453.5t187 345.5q95 103 221.5 150.5t304.5 47.5q390 0 571 -202q156 -179 156 -465q0 -253 -117 -403t-315 -150q-88 0 -134 27.5t-71 93.5q-109 -121 -244 -121q-104 0 -158.5 63t-54.5 183q0 74 17.5 170t44.5 174q71 196 256 196q62 0 110 -20 t103 -68l51 86h109l-76 -538q-6 -39 -6 -56q0 -88 86 -88q112 0 179.5 120.5t67.5 320.5q0 277 -144.5 417t-430.5 140q-173 0 -284.5 -56t-186.5 -180q-68 -113 -110 -289t-42 -352q0 -164 37.5 -263.5t120.5 -158.5q137 -96 424 -96q277 0 565 68l13 -127 q-281 -62 -570 -62q-404 0 -577.5 147.5t-173.5 491.5zM688 397q0 -66 23.5 -97.5t72.5 -31.5q52 0 94.5 28.5t92.5 96.5l57 400q-76 57 -149 57q-57 0 -89.5 -34t-54.5 -116q-17 -62 -32 -159.5t-15 -143.5z" />
<glyph unicode="A" horiz-adv-x="1425" d="M-92 0v98l147 11q23 38 90 194l330 778q54 133 82 209l-178 19v98h467q52 -153 98 -279l318 -825q23 -55 84 -194l151 -11v-98h-522v98l178 11q-25 77 -55 159l-66 172h-653l-57 -137q-52 -133 -64 -194l160 -11v-98h-510zM430 578h551l-268 702z" />
<glyph unicode="B" horiz-adv-x="1368" d="M72 0v98l172 23q6 99 6 291v585q0 190 -6 289l-172 23v98h708q224 0 327 -79t103 -251q0 -83 -27 -154.5t-73 -111.5q-26 -23 -49.5 -34t-97.5 -34q73 -12 94.5 -17t52.5 -19q78 -35 119 -116t41 -198q0 -225 -146 -323q-106 -70 -313 -70h-739zM418 428q0 -127 4 -291 h342q175 0 251.5 60t76.5 198q0 182 -109 244q-40 22 -97.5 30.5t-164.5 8.5h-303v-250zM418 809h280q107 0 162.5 9t91.5 34q90 62 90 207q0 120 -63 165.5t-227 45.5h-330q-4 -164 -4 -287v-174z" />
<glyph unicode="C" horiz-adv-x="1161" d="M119 674q0 398 135 580t430 182q166 0 360 -62l-18 -143q-167 63 -319 63q-154 0 -242 -60t-128 -193.5t-40 -366.5q0 -164 20 -269t70.5 -171.5t130 -93.5t203.5 -27q165 0 328 63l20 -145q-172 -60 -371 -60q-328 0 -458 164q-63 79 -92 209.5t-29 329.5z" />
<glyph unicode="D" horiz-adv-x="1433" d="M72 0v98l172 23q6 99 6 291v585q0 190 -6 289l-172 23v98h698q130 0 219.5 -33.5t155.5 -105.5q170 -188 170 -563q0 -366 -160 -549q-70 -83 -164.5 -119.5t-234.5 -36.5h-684zM418 426q0 -184 6 -289h321q198 0 295 142t97 432q0 352 -146 483q-48 43 -108 59.5 t-172 16.5h-287q-6 -102 -6 -287v-557z" />
<glyph unicode="E" horiz-adv-x="1304" d="M72 0v98l172 23q6 99 6 291v585q0 190 -6 289l-172 23v98h1102v-322h-115l-25 185h-610q-6 -102 -6 -287v-172h586l-11 -137h-575v-248q0 -184 6 -289h635l24 193h115v-330h-1126z" />
<glyph unicode="F" horiz-adv-x="1202" d="M59 1309v98h1061v-322h-114l-25 185h-557q-6 -105 -6 -291v-186h518l-10 -138h-508v-245q0 -187 6 -289l250 -23v-98h-602v98l172 23q6 94 6 289v585q0 192 -6 291z" />
<glyph unicode="G" horiz-adv-x="1359" d="M119 696q0 378 147.5 559t456.5 181q211 0 430 -76l-18 -146q-198 80 -394 80q-244 0 -348 -139q-51 -71 -73.5 -180t-22.5 -291q0 -169 20 -275.5t71 -174.5t131.5 -94.5t207.5 -26.5q82 0 143 8.5t150 32.5v129q0 193 -6 288l-230 23v98h527v-98l-117 -23 q-6 -222 -6 -288v-234q-205 -78 -475 -78q-318 0 -456 168.5t-138 556.5z" />
<glyph unicode="H" horiz-adv-x="1566" d="M72 0v98l172 23q6 94 6 291v585q0 195 -6 289l-172 23v98h524v-98l-172 -23q-6 -102 -6 -289v-192h733v192q0 195 -6 289l-172 23v98h524v-98l-172 -23q-6 -102 -6 -289v-585q0 -189 6 -291l172 -23v-98h-524v98l172 23q6 95 6 291v256h-733v-256q0 -189 6 -291l172 -23 v-98h-524z" />
<glyph unicode="I" horiz-adv-x="665" d="M72 0v98l172 23q6 94 6 289v587q0 190 -6 289l-172 23v98h524v-98l-172 -23q-6 -105 -6 -289v-587q0 -187 6 -289l172 -23v-98h-524z" />
<glyph unicode="J" horiz-adv-x="1062" d="M37 39v291h115l22 -178q104 -43 236 -43q61 0 101 12t68.5 39.5t43.5 81.5t21.5 127.5t6.5 187.5v440q0 190 -6 289l-248 23v98h600v-98l-172 -23q-6 -105 -6 -289v-411q0 -189 -11.5 -284.5t-43.5 -162.5q-41 -89 -115.5 -128.5t-199.5 -39.5q-208 0 -412 68z" />
<glyph unicode="K" horiz-adv-x="1427" d="M84 0v98l172 23q6 99 6 291v583q0 192 -6 291l-172 23v98h524v-98l-172 -23q-6 -105 -6 -291v-196h215l250 321q23 30 50 65.5t32 41.5q26 33 39 53l8 10l-150 19v98h490v-98l-137 -19q-107 -120 -137 -157l-308 -375l369 -461q21 -25 72.5 -88.5t74.5 -91.5l142 -19v-98 h-504v98l154 19q-17 25 -91 121l-340 430h-229v-256q0 -189 6 -291l172 -23v-98h-524z" />
<glyph unicode="L" horiz-adv-x="1193" d="M72 0v98l172 23q6 99 6 289v587q0 190 -6 289l-172 23v98h546v-98l-194 -23q-6 -105 -6 -289v-571q0 -184 6 -289h573l25 193h115v-330h-1065z" />
<glyph unicode="M" horiz-adv-x="1910" d="M27 0v98l174 21q4 21 18 178l57 778l7 119q1 23 4 100l-156 15v98h428q16 -70 90 -277l242 -737q59 -189 70 -248q18 87 71 248l240 731q66 197 84 283h432v-98l-152 -15q7 -172 11 -219l57 -786q5 -73 18 -170l162 -21v-98h-528v98l184 21q0 59 -6 164l-70 989 l-411 -1272h-185l-428 1272l-67 -965q-2 -9 -6 -102l-2 -78v-8l188 -21v-98h-526z" />
<glyph unicode="N" horiz-adv-x="1560" d="M70 0v98l172 23q6 94 6 289v587q0 112 -6 289l-172 23v98h434q53 -104 158 -287l520 -921v798q0 190 -6 289l-172 23v98h503v-98l-164 -23q-6 -105 -6 -289v-997h-225q-10 21 -53 98l-86 148l-570 993v-829q0 -170 7 -289l174 -23v-98h-514z" />
<glyph unicode="O" horiz-adv-x="1462" d="M119 702q0 198 33 332t104 223q74 94 188 136.5t295 42.5q322 0 463 -170.5t141 -560.5q0 -393 -142 -563.5t-470 -170.5t-470 169.5t-142 561.5zM297 702q0 -177 19.5 -286.5t71 -179.5t132.5 -96.5t211 -26.5t211 27t132.5 97t71 180.5t19.5 287.5q0 176 -19.5 285.5 t-70.5 179.5t-131.5 97t-208.5 27q-105 0 -177 -17.5t-124.5 -57t-81.5 -110t-42 -167.5t-13 -240z" />
<glyph unicode="P" horiz-adv-x="1255" d="M70 0v98l172 23q6 94 6 289v587q0 190 -6 289l-172 23v98h622q285 0 387 -111q99 -110 99 -315q0 -250 -136 -352q-101 -76 -350 -76h-276v-143q0 -187 6 -289l252 -23v-98h-604zM416 690h258q192 0 256 58q69 60 69 233q0 170 -69 233q-65 56 -256 56h-252 q-6 -105 -6 -287v-293z" />
<glyph unicode="Q" horiz-adv-x="1462" d="M119 705q0 393 141.5 562t470.5 169q328 0 470 -169.5t142 -561.5q0 -242 -50.5 -393t-159.5 -236q-61 -45 -125.5 -68t-165.5 -33q2 -86 9 -134t29 -78.5t55 -40t93 -9.5h105v-116h-105q-107 0 -169.5 14.5t-103.5 58.5t-56.5 113.5t-20.5 189.5q-299 12 -429 182 t-130 550zM297 702q0 -177 19.5 -286.5t71 -179.5t132.5 -96.5t211 -26.5t211 27t132.5 97t71 180.5t19.5 287.5q0 176 -19.5 285.5t-70.5 179.5t-131.5 97t-208.5 27q-105 0 -177 -17.5t-124.5 -57t-81.5 -110t-42 -167.5t-13 -240z" />
<glyph unicode="R" horiz-adv-x="1310" d="M70 0v98l172 23q6 94 6 289v585q0 192 -6 291l-172 23v98h630q286 0 385 -102q99 -107 99 -297q0 -131 -46.5 -222.5t-131.5 -126.5q-55 -22 -160 -38q46 -39 66 -67.5t75 -133.5l92 -172q51 -98 78 -135l146 -15v-98h-283l-29 61q-3 7 -47 99l-100 196q-37 71 -54.5 105 t-41 68.5t-34 45t-33.5 20.5t-39 10.5t-52 0.5h-174v-196q0 -187 6 -289l172 -23v-98h-524zM416 743h266q189 0 255.5 55t66.5 210q0 156 -68 211q-66 51 -254 51h-260q-6 -102 -6 -287v-240z" />
<glyph unicode="S" horiz-adv-x="1196" d="M80 55l22 158q214 -100 465 -100q178 0 261 62t83 196q0 95 -47 145q-34 34 -84 58.5t-196 78.5q-147 53 -221 89t-123 77q-103 83 -103 244q0 183 112 278t329 95q187 0 389 -62l-17 -143q-189 63 -356 63q-148 0 -216.5 -53.5t-68.5 -169.5q0 -105 72 -156 q36 -24 80.5 -42.5t208.5 -79.5q130 -48 206.5 -86.5t125.5 -86t66 -100.5t17 -133q0 -215 -121 -315.5t-380 -100.5q-254 0 -504 84z" />
<glyph unicode="T" horiz-adv-x="1255" d="M66 1085v322h1124v-322h-115l-24 185h-334q-6 -102 -6 -287v-573q0 -187 6 -289l227 -23v-98h-633v98l226 23q6 102 6 289v573q0 185 -6 287h-332l-25 -185h-114z" />
<glyph unicode="U" horiz-adv-x="1454" d="M70 1309v98h497v-98l-172 -23q-6 -99 -6 -289v-538q0 -104 12 -162.5t41 -93.5q77 -90 285 -90q241 0 305 123q33 62 33 223v538q0 106 -6 289l-172 23v98h497v-98l-145 -23q-6 -164 -6 -289v-555q0 -123 -15.5 -191.5t-54.5 -121.5q-57 -75 -171 -116.5t-265 -41.5 q-173 0 -293 53t-170 150q-25 49 -34 106.5t-9 161.5v555q0 178 -6 289z" />
<glyph unicode="V" horiz-adv-x="1415" d="M8 1309v98h494v-98l-174 -9q14 -73 59 -188l318 -885l313 885q36 100 59 188l-194 9v98h524v-98l-147 -9q-26 -59 -86 -213l-404 -1087h-139l-410 1087q-43 112 -84 213z" />
<glyph unicode="W" horiz-adv-x="2084" d="M29 1309v98h501v-98l-188 -11q19 -96 49 -204l225 -838l342 1151h164l336 -1151l223 823q46 175 56 224l-181 6v98h500v-98l-139 -6q-48 -141 -72 -224l-319 -1079h-152l-338 1180l-346 -1180h-153l-320 1087q-36 129 -67 216z" />
<glyph unicode="X" horiz-adv-x="1386" d="M-16 0v98l161 11q48 54 144 188l303 444l-236 375q-94 148 -116 184l-144 9v98h484v-98l-144 -9q51 -90 84 -143l185 -295l188 303q58 96 74 135l-136 9v98h480v-98l-140 -9q-39 -49 -122 -174l-267 -385l297 -471q81 -125 111 -161l184 -11v-98h-553v98l160 11 q-41 85 -90 155l-219 350l-226 -358q-44 -76 -84 -147l136 -11v-98h-514z" />
<glyph unicode="Y" horiz-adv-x="1294" d="M-16 1309v98h501v-98l-149 -11q20 -49 86 -178l225 -440l225 455l41 79q9 18 25 54l16 30l-145 11v98h491v-98l-159 -11q-45 -71 -107 -174l-309 -565v-149q0 -194 6 -289l211 -23v-98h-602v98l211 23q6 171 6 289v149l-283 504q-71 131 -137 235z" />
<glyph unicode="Z" horiz-adv-x="1220" d="M63 0v115q62 77 82 104q25 25 43 55l86 123l629 873h-602l-25 -185h-114v322h950l12 -121q-106 -130 -206 -268l-637 -881h720l25 193h115v-330h-1078z" />
<glyph unicode="[" horiz-adv-x="890" d="M350 -352v1900h326v-112h-158v-1676h158v-112h-326z" />
<glyph unicode="\" horiz-adv-x="532" d="M39 1407h158l295 -1407h-156z" />
<glyph unicode="]" horiz-adv-x="890" d="M215 -240h158v1676h-158v112h326v-1900h-326v112z" />
<glyph unicode="^" d="M129 688l436 744h60l436 -744h-189l-276 504l-279 -504h-188z" />
<glyph unicode="_" d="M49 -221h1088v-119h-1088v119z" />
<glyph unicode="`" horiz-adv-x="1024" d="M303 1434h213l84 -283h-121z" />
<glyph unicode="a" horiz-adv-x="1159" d="M94 264q0 181 117 256q60 38 181.5 56.5t379.5 29.5v66q0 70 -5.5 106.5t-27.5 60t-56.5 29.5t-100.5 6q-92 0 -174 -14t-201 -49l-23 125q206 76 416 76q115 0 184 -24t107 -77q30 -42 39.5 -93t9.5 -171v-342q0 -97 6 -199l154 -8v-98l-297 -25l-19 131 q-74 -78 -150.5 -106.5t-215.5 -28.5q-173 0 -248.5 68t-75.5 225zM268 262q0 -91 39.5 -122t153.5 -31q204 0 278 100q19 26 26 63t7 107v102q-121 -6 -194.5 -12t-135.5 -17t-92 -24t-51 -38t-26 -53.5t-5 -74.5z" />
<glyph unicode="b" horiz-adv-x="1165" d="M0 1380v99l344 37q-12 -216 -12 -342v-281q94 66 169 92.5t169 26.5q188 0 284 -101q58 -60 81.5 -153t23.5 -266t-23 -265.5t-82 -152.5q-100 -103 -301 -103q-111 0 -185 27.5t-167 103.5l-16 -102h-135q14 158 14 301v834q0 111 -6 237zM332 219q67 -64 130 -87 t167 -23q92 0 143.5 21.5t77.5 70.5q20 38 27.5 100.5t7.5 190.5t-7.5 190t-27.5 102q-49 90 -211 90q-177 0 -307 -112v-543z" />
<glyph unicode="c" horiz-adv-x="927" d="M106 481q0 276 103 403.5t326 127.5q171 0 317 -60l-23 -135q-142 57 -274 57q-157 0 -215.5 -85.5t-58.5 -313.5q0 -76 5.5 -129.5t19 -96t35 -68.5t56 -42.5t78.5 -23t107 -6.5q138 0 264 53l20 -135q-134 -56 -311 -56q-132 0 -216 24.5t-137 85.5t-74.5 156 t-21.5 244z" />
<glyph unicode="d" horiz-adv-x="1228" d="M106 475q0 172 23 264.5t80 157.5q103 115 307 115q96 0 169 -24t157 -83v230q0 104 -8 237l-152 8v99l334 37q-6 -252 -6 -342v-898q0 -26 6 -167l155 -11v-98l-299 -27l-14 125q-82 -71 -156.5 -99t-179.5 -28q-202 0 -309 99q-60 58 -83.5 147.5t-23.5 257.5zM281 477 q0 -128 7.5 -186t28.5 -94q28 -47 81.5 -67.5t150.5 -20.5q102 0 164.5 23.5t128.5 86.5v543q-115 112 -299 112q-169 0 -221 -94q-24 -42 -32.5 -105t-8.5 -198z" />
<glyph unicode="e" horiz-adv-x="1114" d="M106 451q0 287 111 424t344 137q240 0 342 -126.5t109 -436.5h-731v-25q0 -97 14.5 -155.5t54 -95.5t101.5 -50.5t165 -13.5q182 0 334 45l21 -134q-177 -49 -373 -49q-273 0 -382.5 107t-109.5 373zM283 582h555q-7 160 -70.5 226t-208.5 66t-207.5 -66t-68.5 -226z" />
<glyph unicode="f" horiz-adv-x="704" d="M35 850l18 133h160v160q0 186 71.5 273t223.5 87q106 0 246 -28l-19 -127q-111 18 -182 18q-97 0 -134.5 -51t-37.5 -182v-150h289l-19 -133h-270v-528q0 -128 6 -199l256 -21v-102h-582v98l146 25q6 65 6 180v547h-178z" />
<glyph unicode="g" horiz-adv-x="1193" d="M106 461q0 167 25 269t82 165q108 117 311 117q101 0 171.5 -27t152.5 -96l16 94h252v-98l-117 -25q-8 -86 -8 -186v-498q0 -192 -9 -291t-32 -168q-85 -239 -461 -239q-152 0 -290 33l18 131q141 -27 258 -27q235 0 303 125q45 74 45 260v98q-74 -63 -147 -88.5 t-172 -25.5q-94 0 -170.5 25t-122.5 71q-58 54 -81.5 139.5t-23.5 241.5zM281 453q0 -108 7 -161.5t27 -86.5q49 -84 207 -84q99 0 167 25.5t134 86.5v533q-66 59 -130 83.5t-150 24.5q-108 0 -162.5 -36t-77 -124t-22.5 -261z" />
<glyph unicode="h" horiz-adv-x="1292" d="M53 0v98l164 23q6 78 6 162v852q0 114 -6 237l-156 8v99l342 37q-12 -216 -12 -342v-353q182 191 397 191q82 0 144.5 -26.5t95.5 -74.5q45 -67 45 -266v-362q0 -97 6 -162l164 -23v-98h-502v98l158 23q6 80 6 162v348q0 137 -22 182q-34 61 -135 61q-98 0 -182 -47.5 t-175 -154.5v-389q0 -60 6 -162l158 -23v-98h-502z" />
<glyph unicode="i" horiz-adv-x="626" d="M53 0v98l176 23q11 97 11 162v354q0 162 -11 240l-163 8v98l350 25q-8 -200 -8 -332v-393q0 -64 8 -162l178 -23v-98h-541zM229 1188v219h172v-219h-172z" />
<glyph unicode="j" horiz-adv-x="581" d="M-76 -502l21 129q61 -12 102 -12q67 0 102.5 40.5t50.5 135t15 272.5v574q0 145 -6 240l-174 8v98l354 25q-8 -172 -8 -293v-621q0 -185 -10.5 -284.5t-36.5 -163.5q-34 -87 -96 -127.5t-162 -40.5q-65 0 -152 20zM199 1188v219h182v-219h-182z" />
<glyph unicode="k" horiz-adv-x="1148" d="M53 0v98l164 23q6 78 6 162v852q0 114 -6 237l-156 8v99l342 37q-12 -216 -12 -342v-564h162l117 162q45 66 61 94l-123 19v98h463v-98l-147 -25q-18 -19 -56.5 -62t-58.5 -65l-117 -143l219 -336q63 -92 97 -135l112 -21v-98h-235q-8 15 -24 40.5t-19 29.5q-3 5 -68 108 l-190 299h-193v-194q0 -60 6 -162l158 -23v-98h-502z" />
<glyph unicode="l" horiz-adv-x="622" d="M53 0v98l168 23q6 78 6 162v852q0 114 -6 237l-155 8v99l342 37q-13 -247 -13 -342v-891q0 -57 6 -162l168 -23v-98h-516z" />
<glyph unicode="m" horiz-adv-x="1908" d="M70 0v98l163 23q7 100 7 162v354q0 140 -7 240l-151 8v98l313 25l8 -174q99 98 182.5 138t186.5 40q75 0 133.5 -23.5t89.5 -66.5q25 -38 41 -115q107 110 199 157.5t201 47.5q152 0 211 -103q39 -63 39 -264v-362q0 -27 6 -162l163 -23v-98h-503v98l159 23q7 89 7 162 v348q0 149 -24 196t-101 47q-119 0 -234 -92q-35 -33 -112 -123v-376q0 -27 6 -162l159 -23v-98h-499v98l159 23q7 89 7 162v348q0 133 -21 180q-34 63 -129 63q-88 0 -165 -44t-156 -140v-407q0 -27 6 -162l159 -23v-98h-503z" />
<glyph unicode="n" horiz-adv-x="1308" d="M70 0v98l163 23q7 100 7 162v354q0 140 -7 240l-151 8v98l313 25l8 -189q104 103 198 148t204 45q82 0 144 -26.5t95 -74.5q46 -68 46 -266v-362q0 -91 6 -162l159 -23v-98h-501v98l161 23q7 100 7 162v348q0 135 -23 182q-34 61 -135 61q-100 0 -180.5 -46t-175.5 -158 v-387q0 -27 6 -162l159 -23v-98h-503z" />
<glyph unicode="o" horiz-adv-x="1136" d="M106 492q0 164 23.5 254.5t83.5 154.5q54 59 137.5 85t222.5 26q131 0 215 -26.5t136 -84.5q60 -63 83 -153.5t23 -255.5q0 -166 -23 -256.5t-83 -153.5q-54 -59 -138 -85t-219 -26q-133 0 -216.5 26t-137.5 85q-60 63 -83.5 154t-23.5 256zM281 492q0 -118 8 -181.5 t28 -101.5q28 -52 87.5 -76t162.5 -24q104 0 164 24t88 76q20 38 28.5 101.5t8.5 181.5t-8.5 181t-28.5 101q-53 100 -246 100q-108 0 -168 -23t-88 -77q-20 -38 -28 -101t-8 -181z" />
<glyph unicode="p" horiz-adv-x="1200" d="M20 -403l164 22q6 86 6 162v856q0 155 -6 240l-151 8v98l313 25l4 -119q95 68 173 95.5t173 27.5q195 0 291 -101q60 -60 83.5 -151t23.5 -266q0 -173 -23.5 -266t-83.5 -154q-100 -103 -305 -103q-100 0 -172.5 25t-151.5 88v-303q0 -5 7 -162l213 -22v-99h-558v99z M358 219q65 -62 129.5 -86t165.5 -24q97 0 150.5 21.5t79.5 70.5q22 40 29.5 101.5t7.5 193.5q0 129 -7.5 188.5t-29.5 99.5q-49 90 -219 90t-306 -112v-543z" />
<glyph unicode="q" horiz-adv-x="1191" d="M106 477q0 172 24 265t85 159q107 113 313 113q100 0 177 -28.5t157 -94.5l27 117h127q-6 -179 -6 -228v-999q0 -95 6 -162l164 -22v-99h-559v99l215 22q6 135 6 162v305q-78 -63 -153 -89t-177 -26q-200 0 -299 99q-60 60 -83.5 149t-23.5 258zM281 477q0 -127 7 -184.5 t29 -95.5q49 -88 215 -88q101 0 170.5 25t139.5 87v543q-66 60 -134.5 86.5t-156.5 26.5q-169 0 -227 -95q-25 -43 -34 -108t-9 -197z" />
<glyph unicode="r" horiz-adv-x="851" d="M70 0v98l163 23q7 100 7 162v354q0 140 -7 240l-151 8v98l313 25l13 -234q75 138 132 186t146 48q85 0 156 -39l-43 -133q-73 22 -127 22q-61 0 -110.5 -33.5t-96.5 -107.5q-35 -58 -57 -127v-307q0 -27 6 -162l223 -23v-98h-567z" />
<glyph unicode="s" horiz-adv-x="942" d="M59 43l19 139q169 -73 393 -73q120 0 174.5 36.5t54.5 118.5q0 63 -45 94q-22 14 -50 23t-161 47q-191 53 -254 92q-96 59 -96 203q0 136 86 212.5t240 76.5q181 0 368 -68l-20 -131q-200 61 -336 61q-174 0 -174 -143q0 -69 51 -98q27 -16 62 -27.5t151 -42.5 q125 -33 175 -52.5t94 -51.5q73 -56 73 -180q0 -158 -93 -233t-290 -75q-222 0 -422 72z" />
<glyph unicode="t" horiz-adv-x="753" d="M37 848l18 135h150l12 225l156 56v-281h317l-18 -135h-299v-506q0 -144 12 -176q19 -57 107 -57q110 0 206 49l19 -125q-127 -62 -275 -62q-135 0 -186 63t-51 232v582h-168z" />
<glyph unicode="u" horiz-adv-x="1236" d="M59 885v98l336 25q-8 -175 -8 -332v-326q0 -149 24 -195t101 -46q173 0 338 155v373q0 151 -6 240l-152 8v98l334 25q-8 -145 -8 -332v-330q0 -152 8 -240l162 -8v-98l-318 -23l-10 156q-104 -86 -195.5 -124t-197.5 -38q-154 0 -209 101q-39 66 -39 264v301 q0 151 -6 240z" />
<glyph unicode="v" horiz-adv-x="1097" d="M-41 885v98h479v-98l-145 -17q3 -10 16 -48t19 -58q19 -54 37 -103l194 -509l186 509q28 74 74 209l-131 17v98h442v-98l-120 -17q-84 -186 -105 -237l-256 -631h-188l-266 631q-13 28 -34.5 76t-27.5 61q-22 43 -45 100z" />
<glyph unicode="w" horiz-adv-x="1607" d="M-16 885v98h467v-98l-146 -17q20 -102 68 -266l119 -440l256 821h118l250 -827l125 454q4 15 49 189q12 58 17 69l-148 17v98h457v-98l-129 -17q-15 -39 -94 -272l-193 -596h-174l-219 721l-221 -721h-187l-192 596q-5 16 -38 111.5t-56 160.5z" />
<glyph unicode="x" horiz-adv-x="1134" d="M-20 0v98l131 17q64 59 141 147l209 252l-150 203q-30 40 -72 88.5t-55 58.5l-125 21v98h437v-98l-105 -13q12 -16 31 -45q19 -40 49 -73l115 -152l121 168q11 19 47 70q9 12 20 32l-100 13v98h399v-98l-108 -21q-53 -53 -58 -59l-76 -92l-172 -209l170 -228 q57 -73 134 -161l172 -17v-98h-521v98l144 17l-6 12l-31 43q-33 42 -51 68l-129 174l-142 -189q-42 -63 -71 -108l143 -17v-98h-491z" />
<glyph unicode="y" horiz-adv-x="1210" d="M59 885v98l336 25q-8 -175 -8 -332v-326q0 -148 25.5 -194.5t107.5 -46.5q177 0 340 163v365q0 151 -6 240l-152 8v98l334 25q-8 -175 -8 -332v-500q0 -191 -9 -289.5t-34 -167.5q-85 -241 -475 -241q-169 0 -311 39l18 129q140 -31 279 -31q211 0 287.5 81t76.5 304v131 q-4 -2 -18 -16q-171 -144 -367 -144q-155 0 -215 101q-41 69 -41 264v301q0 151 -6 240z" />
<glyph unicode="z" horiz-adv-x="1046" d="M57 129l80 78q13 13 66 71t63 70l443 502h-457l-23 -186h-110v319h809l10 -129q-17 -16 -38.5 -37t-43.5 -43l-57 -59q-16 -18 -45 -47l-473 -535h540l25 197h110v-330h-890z" />
<glyph unicode="{" horiz-adv-x="890" d="M195 614v70h14q88 0 135 47q23 26 28 59.5t5 161.5v191q0 173 11.5 237t51.5 105q35 35 87 49t151 14h84v-102h-31q-43 0 -70.5 -4t-49.5 -18t-34 -35t-19.5 -61t-10 -88.5t-2.5 -125.5v-139q0 -159 -7 -203t-36 -76q-15 -18 -35 -28t-61 -19q41 -9 61 -19t35 -28 q30 -34 36.5 -77t6.5 -203v-240q0 -77 2.5 -125.5t10 -88.5t19.5 -61t34 -35t49.5 -18t70.5 -4h31v-102h-84q-111 0 -166.5 18.5t-87.5 67.5q-29 41 -38 101.5t-9 217.5v293q0 128 -5 161t-28 58q-46 49 -135 49h-14z" />
<glyph unicode="|" horiz-adv-x="593" d="M215 -352v1900h152v-1900h-152z" />
<glyph unicode="}" horiz-adv-x="890" d="M129 -250h31q43 0 70.5 4t49.5 18t34 35t19.5 61t10 88.5t2.5 125.5v240q0 160 6.5 203t36.5 77q15 18 35 28t61 19q-41 9 -61 19t-35 28q-29 32 -36 76t-7 203v139q0 77 -2.5 125.5t-10 88.5t-19.5 61t-34 35t-49.5 18t-70.5 4h-31v102h84q111 0 166.5 -18.5t87.5 -67.5 q29 -41 38 -101.5t9 -217.5v-191q0 -128 5 -161.5t28 -59.5q47 -47 135 -47h14v-70h-14q-89 0 -135 -49q-23 -25 -28 -58t-5 -161v-293q0 -173 -11.5 -237t-51.5 -105q-35 -35 -87 -49t-151 -14h-84v102z" />
<glyph unicode="~" d="M133 528q38 141 108 209t177 68q60 0 107 -19t114 -71q59 -44 85 -57t60 -13q57 0 94 35.5t68 118.5l109 -35q-41 -125 -68 -168q-70 -104 -199 -104q-61 0 -103 16t-124 72q-67 45 -96.5 58t-63.5 13q-57 0 -94.5 -37.5t-62.5 -117.5z" />
<glyph unicode="&#xa1;" horiz-adv-x="696" d="M254 0l31 999h127l30 -999h-188zM254 1188v219h188v-219h-188z" />
<glyph unicode="&#xa2;" d="M176 862q0 187 47.5 303.5t147.5 173.5q76 46 217 54v202h98v-202q148 -12 268 -66l-16 -127q-119 47 -252 57v-765q132 3 268 53l19 -135q-134 -49 -287 -56v-231h-98v231q-161 9 -248.5 58.5t-125.5 154.5t-38 295zM354 856q0 -229 68 -303q23 -26 60 -38.5t106 -20.5 v761q-60 -8 -87 -16.5t-50 -28.5q-51 -40 -74 -123.5t-23 -230.5z" />
<glyph unicode="&#xa3;" d="M158 645l12 137h166v293q0 184 89 272.5t275 88.5q147 0 328 -45l-18 -142q-134 45 -267 45t-186 -53.5t-53 -185.5v-273h254l-10 -137h-244v-508h575l-10 -137h-899l10 137h156v508h-178z" />
<glyph unicode="&#xa4;" d="M111 219l116 133q-38 60 -52.5 127t-14.5 189t14 188.5t53 126.5l-116 133l86 92l122 -139q58 37 117 51.5t158 14.5t159.5 -14.5t116.5 -51.5l121 139l88 -92l-118 -133q36 -62 48.5 -126.5t12.5 -188.5q0 -122 -13 -188t-48 -128l118 -133l-88 -90l-121 137 q-55 -37 -115.5 -51t-160.5 -14t-160 14t-115 51l-122 -137zM328 668q0 -104 7 -157.5t27 -86.5q25 -46 80 -66t152 -20t151.5 20t79.5 66q20 33 27.5 87t7.5 157q0 102 -7.5 155t-27.5 88q-48 86 -227 86q-101 0 -156 -20t-80 -66q-20 -35 -27 -87t-7 -156z" />
<glyph unicode="&#xa5;" d="M-25 1309v98h471v-98l-133 -11q28 -76 74 -178l199 -442l213 457q3 4 22 47t23 53q8 23 24 63l-129 11v98h459v-98l-143 -11q-10 -19 -94 -174l-228 -442h285l-10 -113h-338v-153h348l-10 -113h-338q0 -87 6 -182l213 -23v-98h-602v98l209 23q3 43 6 182h-348l10 113h338 v153h-348l10 113h264l-207 416q-14 37 -112 200z" />
<glyph unicode="&#xa6;" horiz-adv-x="593" d="M217 0v510h152v-510h-152zM217 864v543h152v-543h-152z" />
<glyph unicode="&#xa7;" d="M127 567q0 98 47 164.5t154 122.5q-121 81 -121 248q0 160 101 247t288 87q148 0 313 -50l-18 -135q-125 43 -277 43q-98 0 -149 -26q-40 -22 -63 -62.5t-23 -89.5q0 -76 51 -121q31 -27 79.5 -47t149.5 -47q125 -34 184.5 -60t100.5 -65q80 -74 80 -203 q0 -101 -48.5 -166.5t-166.5 -123.5q103 -52 141.5 -106.5t38.5 -145.5q0 -92 -41 -167t-112 -112q-119 -61 -322 -61q-206 0 -371 57l23 137q156 -53 340 -53q163 0 237 43.5t74 138.5q0 87 -78 140q-33 23 -81.5 39.5t-165.5 46.5q-121 31 -186.5 60.5t-106.5 72.5 q-72 78 -72 194zM299 604q0 -88 45.5 -129.5t185.5 -81.5q88 -25 164 -49q88 35 123 77.5t35 113.5q0 75 -45 120q-26 26 -64.5 42.5t-132.5 43.5q-38 10 -180 52q-70 -34 -100.5 -77.5t-30.5 -111.5z" />
<glyph unicode="&#xa8;" horiz-adv-x="1024" d="M264 1188v219h164v-219h-164zM596 1188v219h164v-219h-164z" />
<glyph unicode="&#xa9;" horiz-adv-x="1761" d="M102 745q0 150 48 285.5t139 239.5q219 256 604 256q163 0 305 -59t243.5 -161.5t159.5 -247t58 -310.5q0 -148 -47.5 -283t-138.5 -240q-215 -256 -592 -256t-592 256q-91 106 -139 240t-48 280zM197 745q0 -200 87.5 -359.5t244 -249t352.5 -89.5q299 0 491.5 197 t192.5 504q0 199 -87 359t-241.5 250.5t-345.5 90.5q-339 0 -535 -236q-159 -191 -159 -467zM545 737q0 211 88 311.5t274 100.5q113 0 236 -45l-15 -105q-68 28 -109.5 38t-92.5 10q-132 0 -187 -71.5t-55 -242.5q0 -155 57.5 -219.5t192.5 -64.5q97 0 209 45l12 -105 q-105 -43 -240 -43q-193 0 -281.5 93.5t-88.5 297.5z" />
<glyph unicode="&#xaa;" horiz-adv-x="778" d="M78 985q0 154 139 184q94 19 270 27h17v29q0 70 -19 89t-90 19q-103 0 -243 -41l-19 99q139 45 277 45q135 0 179 -44.5t44 -181.5v-202v-105l98 -6v-80l-203 -14l-6 82q-47 -50 -94 -67t-135 -17q-117 0 -166 41.5t-49 142.5zM217 983q0 -44 22 -62t76 -18q110 0 160 47 q17 17 23 38t6 65v49q-82 -5 -127.5 -9.5t-81.5 -11.5t-50.5 -20.5t-21 -31t-6.5 -46.5z" />
<glyph unicode="&#xab;" horiz-adv-x="864" d="M63 573v25l330 352l70 -51l-193 -313l193 -314l-70 -51zM389 573v25l330 352l69 -51l-192 -313l192 -314l-69 -51z" />
<glyph unicode="&#xac;" d="M178 580v137h799v-567h-139v430h-660z" />
<glyph unicode="&#xad;" horiz-adv-x="688" d="M80 578l12 143h516l-10 -143h-518z" />
<glyph unicode="&#xae;" horiz-adv-x="1273" d="M82 1139q0 248 156.5 402.5t406.5 154.5q238 0 392.5 -157t154.5 -400t-156 -399t-399 -156t-399 156t-156 399zM170 1139q0 -211 130.5 -344t336.5 -133q207 0 337 133t130 344q0 210 -130 344.5t-331 134.5q-212 0 -342.5 -132t-130.5 -347zM410 885v51l65 8q0 10 2 33 v18l-2 43v215l2 35v21q-2 14 -2 39l-65 8v51h254q107 0 152.5 -35.5t45.5 -118.5q0 -65 -25 -98t-85 -45q2 -3 18 -31q1 -3 4 -8.5t5.5 -10.5l4.5 -9l66 -107l57 -8v-51h-131l-71 129q-36 65 -47.5 76.5t-41.5 11.5h-51v-64v-34l2 -29v-17q0 -8 -2 -14l84 -8v-51h-239z M565 1169h90q64 0 88.5 18.5t24.5 65.5q0 49 -24 67.5t-89 18.5h-90v-88v-82z" />
<glyph unicode="&#xaf;" horiz-adv-x="1024" d="M250 1227v137h524v-137h-524z" />
<glyph unicode="&#xb0;" horiz-adv-x="593" d="M-6 1159q0 140 78 221q43 44 96.5 64t132.5 20q140 0 219.5 -81.5t79.5 -223.5q0 -135 -78 -219q-41 -44 -95.5 -64t-135.5 -20q-138 0 -217.5 81t-79.5 222zM121 1159q0 -192 176 -192t176 192q0 195 -172 195q-92 0 -136 -47.5t-44 -147.5z" />
<glyph unicode="&#xb1;" d="M129 0l10 137h920l-10 -137h-920zM129 621l10 137h385v422h140v-422h395l-10 -137h-385v-383h-140v383h-395z" />
<glyph unicode="&#xb2;" horiz-adv-x="778" d="M82 559v103l289 290q145 148 145 246q0 64 -32 93.5t-101 29.5q-81 0 -152 -35l-10 -121h-110v203q131 55 278 55q139 0 202.5 -52.5t63.5 -168.5q0 -87 -32 -144t-152 -181l-207 -215h309l13 122h100v-225h-604z" />
<glyph unicode="&#xb3;" horiz-adv-x="778" d="M72 575v209h110l11 -125q76 -18 172 -18q106 0 143 34.5t37 131.5q0 87 -35 117t-137 30h-113v103h125q71 0 104 29t33 92q0 80 -33 111.5t-116 31.5q-79 0 -156 -35l-12 -121h-109v209q134 49 287 49q149 0 214 -56.5t65 -186.5q0 -67 -17 -99t-74 -73q65 -37 89 -81 t24 -126q0 -141 -70.5 -201.5t-236.5 -60.5q-169 0 -305 36z" />
<glyph unicode="&#xb4;" horiz-adv-x="1024" d="M440 1151l84 283h213l-174 -283h-123z" />
<glyph unicode="&#xb5;" d="M27 885v98l323 21q-6 -260 -6 -293v-361q0 -103 11 -152.5t39 -69t85 -19.5q93 0 176 37t172 118v369v244l-137 8v98l314 21q-9 -283 -9 -293v-365q0 -146 9 -240l161 -8v-98l-319 -23l-8 156q-105 -87 -194.5 -124.5t-190.5 -37.5q-53 0 -109 13v-463l-174 -37 q6 314 6 422v727q0 158 -6 244z" />
<glyph unicode="&#xb6;" horiz-adv-x="1222" d="M20 989q0 130 49 232.5t132 146.5q49 28 94 33.5t213 5.5h641v-98l-158 -23q-6 -120 -6 -311v-1067q0 -178 6 -289l158 -22v-99h-889v99l199 22q6 105 6 289v663h-78q-86 0 -121.5 8t-79.5 37q-78 54 -122 153t-44 220zM625 -92q0 -180 8 -289h184q8 101 8 289v1345h-200 v-1345z" />
<glyph unicode="&#xb7;" horiz-adv-x="593" d="M188 539v219h218v-219h-218z" />
<glyph unicode="&#xb8;" horiz-adv-x="1024" d="M317 -473l37 80q71 -35 127 -35q50 0 78.5 27.5t28.5 74.5q0 61 -39.5 84.5t-149.5 28.5l-8 27l111 190h106l-86 -139l21 -2l12 -2q106 -12 150.5 -52.5t44.5 -125.5q0 -92 -60.5 -146.5t-163.5 -54.5q-113 0 -209 45z" />
<glyph unicode="&#xb9;" horiz-adv-x="778" d="M141 555v90l215 10v635l-172 -49l-26 92l227 78h98v-756l207 -10v-90h-549z" />
<glyph unicode="&#xba;" horiz-adv-x="778" d="M96 1118q0 103 14.5 158.5t51.5 93.5q36 36 88.5 51t142.5 15q166 0 228.5 -68.5t62.5 -249.5q0 -183 -63 -250t-232 -67q-168 0 -230.5 67.5t-62.5 249.5zM236 1118q0 -132 29.5 -173.5t123.5 -41.5q95 0 125.5 41.5t30.5 173.5t-29.5 173.5t-122.5 41.5 q-98 0 -127.5 -41t-29.5 -174z" />
<glyph unicode="&#xbb;" horiz-adv-x="864" d="M74 272l192 314l-192 313l69 51l330 -352v-25l-330 -352zM399 272l193 314l-193 313l70 51l330 -352v-25l-330 -352z" />
<glyph unicode="&#xbc;" horiz-adv-x="1720" d="M129 555v90l203 10v635l-172 -49l-27 92l227 78h99v-756l176 -10v-90h-506zM426 0l698 1407h133l-696 -1407h-135zM944 225v111l152 280q45 77 45 164v82h127v-90q0 -62 -13.5 -106t-56.5 -127l-111 -211h265v372h129v-372h131l-8 -103h-123v-47v-86l108 -14v-78h-372v78 l135 14q-2 8 -2 19q0 12 2 26v37v51h-408z" />
<glyph unicode="&#xbd;" horiz-adv-x="1720" d="M127 1333l227 78h99v-756l170 -10v-90h-484v90l187 10v635l-172 -49zM414 0l696 1407h135l-696 -1407h-135zM993 0v102l289 295q76 79 110.5 137t34.5 109q0 64 -32 93.5t-101 29.5q-75 0 -151 -33l-10 -123h-111v201q125 57 278 57q140 0 203.5 -53t63.5 -168 q0 -88 -32 -144.5t-153 -183.5l-206 -217h309l12 127h100v-229h-604z" />
<glyph unicode="&#xbe;" horiz-adv-x="1720" d="M78 575v209h110l11 -125q76 -18 172 -18q106 0 143 34.5t37 131.5q0 87 -35 117t-137 30h-113v103h125q71 0 104 29t33 92q0 80 -33 111.5t-116 31.5q-79 0 -156 -35l-12 -121h-109v209q134 49 287 49q149 0 214 -56.5t65 -186.5q0 -68 -16.5 -99.5t-73.5 -72.5 q64 -37 88 -81t24 -126q0 -141 -70.5 -201.5t-236.5 -60.5q-169 0 -305 36zM451 0l696 1407h135l-698 -1407h-133zM948 225v111l152 280q45 77 45 164v82h127v-90q0 -62 -13.5 -106t-56.5 -127l-110 -211h266v372h129v-372h129l-8 -103h-121v-47v-86l106 -14v-78h-372v78 l137 14q-2 8 -2 19q0 12 2 26v37v51h-410z" />
<glyph unicode="&#xbf;" horiz-adv-x="872" d="M80 281q0 99 34 169.5t148 208.5q88 106 106.5 147t18.5 130v63h152v-79q0 -101 -18 -147.5t-89 -131.5q-108 -131 -141 -196t-33 -148q0 -94 48 -135t155 -41q129 0 282 63l23 -135q-176 -78 -342 -78q-170 0 -257 78.5t-87 231.5zM377 1188v219h172v-219h-172z" />
<glyph unicode="&#xc0;" horiz-adv-x="1425" d="M-92 0v98l147 11q23 38 90 194l330 778q54 133 82 209l-178 19v98h467q52 -153 98 -279l318 -825q23 -55 84 -194l151 -11v-98h-522v98l178 11q-25 77 -55 159l-66 172h-653l-57 -137q-52 -133 -64 -194l160 -11v-98h-510zM430 578h551l-268 702zM504 1815h213l84 -281 h-121z" />
<glyph unicode="&#xc1;" horiz-adv-x="1425" d="M-92 0v98l147 11q23 38 90 194l330 778q54 133 82 209l-178 19v98h467q52 -153 98 -279l318 -825q23 -55 84 -194l151 -11v-98h-522v98l178 11q-25 77 -55 159l-66 172h-653l-57 -137q-52 -133 -64 -194l160 -11v-98h-510zM430 578h551l-268 702zM645 1534l84 281h213 l-174 -281h-123z" />
<glyph unicode="&#xc2;" horiz-adv-x="1425" d="M-92 0v98l147 11q23 38 90 194l330 778q54 133 82 209l-178 19v98h467q52 -153 98 -279l318 -825q23 -55 84 -194l151 -11v-98h-522v98l178 11q-25 77 -55 159l-66 172h-653l-57 -137q-52 -133 -64 -194l160 -11v-98h-510zM358 1534l222 281h202l213 -281h-166l-147 166 l-160 -166h-164zM430 578h551l-268 702z" />
<glyph unicode="&#xc3;" horiz-adv-x="1425" d="M-92 0v98l147 11q23 38 90 194l330 778q54 133 82 209l-178 19v98h467q52 -153 98 -279l318 -825q23 -55 84 -194l151 -11v-98h-522v98l178 11q-25 77 -55 159l-66 172h-653l-57 -137q-52 -133 -64 -194l160 -11v-98h-510zM309 1554q28 121 87 184.5t145 63.5 q88 0 172 -69q43 -36 62.5 -46t45.5 -10q35 0 62.5 30t40.5 85h129q-23 -129 -77.5 -190.5t-146.5 -61.5q-47 0 -84.5 14.5t-97.5 57.5q-75 53 -112 53q-32 0 -55 -26.5t-42 -84.5h-129zM430 578h551l-268 702z" />
<glyph unicode="&#xc4;" horiz-adv-x="1425" d="M-92 0v98l147 11q23 38 90 194l330 778q54 133 82 209l-178 19v98h467q52 -153 98 -279l318 -825q23 -55 84 -194l151 -11v-98h-522v98l178 11q-25 77 -55 159l-66 172h-653l-57 -137q-52 -133 -64 -194l160 -11v-98h-510zM399 1561v219h164v-219h-164zM430 578h551 l-268 702zM788 1561v219h164v-219h-164z" />
<glyph unicode="&#xc5;" horiz-adv-x="1425" d="M-92 0v98l147 11q23 38 90 194l330 778q54 133 82 209l-178 19v98h467q52 -153 98 -279l318 -825q23 -55 84 -194l151 -11v-98h-522v98l178 11q-25 77 -55 159l-66 172h-653l-57 -137q-52 -133 -64 -194l160 -11v-98h-510zM430 578h551l-268 702zM487 1694q0 103 61 163 t165 60q98 0 157.5 -61t59.5 -162t-60 -161t-161 -60t-161.5 60.5t-60.5 160.5zM596 1694q0 -57 30.5 -90t82.5 -33t82 33t30 92q0 56 -29.5 89.5t-80.5 33.5q-54 0 -84.5 -33t-30.5 -92z" />
<glyph unicode="&#xc6;" horiz-adv-x="1916" d="M-78 0v98l154 11q17 23 112 198l449 791q58 101 104 192l-163 19v98h1208v-322h-131l-17 185h-559q-6 -102 -6 -287v-172h543l-10 -137h-533v-248q0 -184 6 -289h584l16 193h131v-330h-1083v98l172 23q6 99 6 289v30h-459l-73 -133q-61 -122 -92 -198l159 -11v-98h-518z M520 578h385v708z" />
<glyph unicode="&#xc7;" horiz-adv-x="1161" d="M119 674q0 398 135 580t430 182q166 0 360 -62l-18 -143q-167 63 -319 63q-154 0 -242 -60t-128 -193.5t-40 -366.5q0 -164 20 -269t70.5 -171.5t130 -93.5t203.5 -27q165 0 328 63l20 -145q-172 -60 -371 -60h-34l-68 -106q96 -11 141 -29q86 -39 86 -153 q0 -92 -60 -146.5t-163 -54.5q-113 0 -209 45l37 80q71 -35 127 -35q50 0 78.5 27.5t28.5 74.5q0 61 -39.5 84.5t-149.5 28.5l-8 27l96 166q-168 25 -262.5 99t-137 215t-42.5 380z" />
<glyph unicode="&#xc8;" horiz-adv-x="1304" d="M72 0v98l172 23q6 99 6 291v585q0 190 -6 289l-172 23v98h1102v-322h-115l-25 185h-610q-6 -102 -6 -287v-172h586l-11 -137h-575v-248q0 -184 6 -289h635l24 193h115v-330h-1126zM479 1815h213l84 -281h-121z" />
<glyph unicode="&#xc9;" horiz-adv-x="1304" d="M72 0v98l172 23q6 99 6 291v585q0 190 -6 289l-172 23v98h1102v-322h-115l-25 185h-610q-6 -102 -6 -287v-172h586l-11 -137h-575v-248q0 -184 6 -289h635l24 193h115v-330h-1126zM610 1534l84 281h213l-174 -281h-123z" />
<glyph unicode="&#xca;" horiz-adv-x="1304" d="M72 0v98l172 23q6 99 6 291v585q0 190 -6 289l-172 23v98h1102v-322h-115l-25 185h-610q-6 -102 -6 -287v-172h586l-11 -137h-575v-248q0 -184 6 -289h635l24 193h115v-330h-1126zM358 1534l222 281h202l213 -281h-166l-147 166l-160 -166h-164z" />
<glyph unicode="&#xcb;" horiz-adv-x="1304" d="M72 0v98l172 23q6 99 6 291v585q0 190 -6 289l-172 23v98h1102v-322h-115l-25 185h-610q-6 -102 -6 -287v-172h586l-11 -137h-575v-248q0 -184 6 -289h635l24 193h115v-330h-1126zM399 1561v219h164v-219h-164zM788 1561v219h164v-219h-164z" />
<glyph unicode="&#xcc;" horiz-adv-x="665" d="M72 0v98l172 23q6 94 6 289v587q0 190 -6 289l-172 23v98h524v-98l-172 -23q-6 -105 -6 -289v-587q0 -187 6 -289l172 -23v-98h-524zM125 1815h213l84 -281h-121z" />
<glyph unicode="&#xcd;" horiz-adv-x="665" d="M72 0v98l172 23q6 94 6 289v587q0 190 -6 289l-172 23v98h524v-98l-172 -23q-6 -105 -6 -289v-587q0 -187 6 -289l172 -23v-98h-524zM268 1534l84 281h213l-174 -281h-123z" />
<glyph unicode="&#xce;" horiz-adv-x="665" d="M14 1534l222 281h202l213 -281h-166l-147 166l-160 -166h-164zM70 0v98l172 23q6 94 6 289v587q0 190 -6 289l-172 23v98h524v-98l-172 -23q-6 -105 -6 -289v-587q0 -187 6 -289l172 -23v-98h-524z" />
<glyph unicode="&#xcf;" horiz-adv-x="665" d="M57 1561v219h164v-219h-164zM72 0v98l172 23q6 94 6 289v587q0 190 -6 289l-172 23v98h524v-98l-172 -23q-6 -105 -6 -289v-587q0 -187 6 -289l172 -23v-98h-524zM446 1561v219h164v-219h-164z" />
<glyph unicode="&#xd0;" horiz-adv-x="1431" d="M70 0v98l172 23q6 99 6 291v256h-168l10 137h158v190q0 192 -6 291l-172 23v98h698q130 0 219.5 -33.5t155.5 -105.5q83 -92 126.5 -236.5t43.5 -326.5q0 -366 -160 -549q-70 -83 -164.5 -119.5t-234.5 -36.5h-684zM416 428q0 -186 6 -291h321q198 0 295 142t97 432 q0 352 -146 483q-48 43 -108 59.5t-172 16.5h-287q-6 -102 -6 -287v-178h344l-10 -137h-334v-240z" />
<glyph unicode="&#xd1;" horiz-adv-x="1560" d="M70 0v98l172 23q6 94 6 289v587q0 112 -6 289l-172 23v98h434q53 -104 158 -287l520 -921v798q0 190 -6 289l-172 23v98h503v-98l-164 -23q-6 -105 -6 -289v-997h-225q-10 21 -53 98l-86 148l-570 993v-829q0 -170 7 -289l174 -23v-98h-514zM426 1554q28 121 86.5 184.5 t144.5 63.5q88 0 172 -69q43 -35 63 -45.5t46 -10.5q35 0 62 30t40 85h129q-23 -129 -77 -190.5t-146 -61.5q-47 0 -84.5 14.5t-97.5 57.5q-75 53 -113 53q-32 0 -54.5 -26.5t-41.5 -84.5h-129z" />
<glyph unicode="&#xd2;" horiz-adv-x="1462" d="M119 702q0 198 33 332t104 223q74 94 188 136.5t295 42.5q322 0 463 -170.5t141 -560.5q0 -393 -142 -563.5t-470 -170.5t-470 169.5t-142 561.5zM297 702q0 -177 19.5 -286.5t71 -179.5t132.5 -96.5t211 -26.5t211 27t132.5 97t71 180.5t19.5 287.5q0 176 -19.5 285.5 t-70.5 179.5t-131.5 97t-208.5 27q-105 0 -177 -17.5t-124.5 -57t-81.5 -110t-42 -167.5t-13 -240zM541 1815h213l84 -281h-121z" />
<glyph unicode="&#xd3;" horiz-adv-x="1462" d="M119 702q0 198 33 332t104 223q74 94 188 136.5t295 42.5q322 0 463 -170.5t141 -560.5q0 -393 -142 -563.5t-470 -170.5t-470 169.5t-142 561.5zM297 702q0 -177 19.5 -286.5t71 -179.5t132.5 -96.5t211 -26.5t211 27t132.5 97t71 180.5t19.5 287.5q0 176 -19.5 285.5 t-70.5 179.5t-131.5 97t-208.5 27q-105 0 -177 -17.5t-124.5 -57t-81.5 -110t-42 -167.5t-13 -240zM666 1534l84 281h213l-175 -281h-122z" />
<glyph unicode="&#xd4;" horiz-adv-x="1462" d="M119 702q0 198 33 332t104 223q74 94 188 136.5t295 42.5q322 0 463 -170.5t141 -560.5q0 -393 -142 -563.5t-470 -170.5t-470 169.5t-142 561.5zM297 702q0 -177 19.5 -286.5t71 -179.5t132.5 -96.5t211 -26.5t211 27t132.5 97t71 180.5t19.5 287.5q0 176 -19.5 285.5 t-70.5 179.5t-131.5 97t-208.5 27q-105 0 -177 -17.5t-124.5 -57t-81.5 -110t-42 -167.5t-13 -240zM414 1534l221 281h203l213 -281h-166l-148 166l-159 -166h-164z" />
<glyph unicode="&#xd5;" horiz-adv-x="1462" d="M119 702q0 198 33 332t104 223q74 94 188 136.5t295 42.5q322 0 463 -170.5t141 -560.5q0 -393 -142 -563.5t-470 -170.5t-470 169.5t-142 561.5zM297 702q0 -177 19.5 -286.5t71 -179.5t132.5 -96.5t211 -26.5t211 27t132.5 97t71 180.5t19.5 287.5q0 176 -19.5 285.5 t-70.5 179.5t-131.5 97t-208.5 27q-105 0 -177 -17.5t-124.5 -57t-81.5 -110t-42 -167.5t-13 -240zM358 1554q28 121 87 184.5t145 63.5q88 0 172 -69q43 -36 62.5 -46t45.5 -10q35 0 62.5 30t40.5 85h129q-23 -129 -77 -190.5t-146 -61.5q-48 0 -85.5 15t-97.5 57 q-75 53 -112 53q-32 0 -55 -26.5t-42 -84.5h-129z" />
<glyph unicode="&#xd6;" horiz-adv-x="1462" d="M119 702q0 198 33 332t104 223q74 94 188 136.5t295 42.5q322 0 463 -170.5t141 -560.5q0 -393 -142 -563.5t-470 -170.5t-470 169.5t-142 561.5zM297 702q0 -177 19.5 -286.5t71 -179.5t132.5 -96.5t211 -26.5t211 27t132.5 97t71 180.5t19.5 287.5q0 176 -19.5 285.5 t-70.5 179.5t-131.5 97t-208.5 27q-105 0 -177 -17.5t-124.5 -57t-81.5 -110t-42 -167.5t-13 -240zM455 1561v219h163v-219h-163zM844 1561v219h164v-219h-164z" />
<glyph unicode="&#xd7;" d="M197 313l307 336l-307 334l96 96l309 -334l299 334l96 -96l-299 -334l299 -336l-96 -96l-299 336l-309 -336z" />
<glyph unicode="&#xd8;" horiz-adv-x="1462" d="M119 702q0 393 142 563.5t470 170.5q141 0 233.5 -24.5t170.5 -82.5l90 115l106 -84l-102 -133q60 -89 87 -214t27 -308q0 -393 -141.5 -563.5t-468.5 -170.5q-141 0 -234 24t-169 81l-88 -113l-111 84l102 133q-60 89 -87 214t-27 308zM297 702q0 -142 10.5 -229 t36.5 -154l696 891q-54 45 -125.5 64.5t-183.5 19.5q-130 0 -211 -27t-132.5 -97t-71 -180.5t-19.5 -287.5zM424 197q97 -84 305 -84q105 0 177 17.5t124 57t80.5 110.5t41.5 168.5t13 240.5q0 263 -47 378z" />
<glyph unicode="&#xd9;" horiz-adv-x="1454" d="M70 1309v98h497v-98l-172 -23q-6 -99 -6 -289v-538q0 -104 12 -162.5t41 -93.5q77 -90 285 -90q241 0 305 123q33 62 33 223v538q0 106 -6 289l-172 23v98h497v-98l-145 -23q-6 -164 -6 -289v-555q0 -123 -15.5 -191.5t-54.5 -121.5q-57 -75 -171 -116.5t-265 -41.5 q-173 0 -293 53t-170 150q-25 49 -34 106.5t-9 161.5v555q0 178 -6 289zM518 1815h213l84 -281h-121z" />
<glyph unicode="&#xda;" horiz-adv-x="1454" d="M70 1309v98h497v-98l-172 -23q-6 -99 -6 -289v-538q0 -104 12 -162.5t41 -93.5q77 -90 285 -90q241 0 305 123q33 62 33 223v538q0 106 -6 289l-172 23v98h497v-98l-145 -23q-6 -164 -6 -289v-555q0 -123 -15.5 -191.5t-54.5 -121.5q-57 -75 -171 -116.5t-265 -41.5 q-173 0 -293 53t-170 150q-25 49 -34 106.5t-9 161.5v555q0 178 -6 289zM672 1534l84 281h213l-174 -281h-123z" />
<glyph unicode="&#xdb;" horiz-adv-x="1454" d="M70 1309v98h497v-98l-172 -23q-6 -99 -6 -289v-538q0 -104 12 -162.5t41 -93.5q77 -90 285 -90q241 0 305 123q33 62 33 223v538q0 106 -6 289l-172 23v98h497v-98l-145 -23q-6 -164 -6 -289v-555q0 -123 -15.5 -191.5t-54.5 -121.5q-57 -75 -171 -116.5t-265 -41.5 q-173 0 -293 53t-170 150q-25 49 -34 106.5t-9 161.5v555q0 178 -6 289zM410 1534l221 281h203l213 -281h-166l-148 166l-160 -166h-163z" />
<glyph unicode="&#xdc;" horiz-adv-x="1454" d="M70 1309v98h497v-98l-172 -23q-6 -99 -6 -289v-538q0 -104 12 -162.5t41 -93.5q77 -90 285 -90q241 0 305 123q33 62 33 223v538q0 106 -6 289l-172 23v98h497v-98l-145 -23q-6 -164 -6 -289v-555q0 -123 -15.5 -191.5t-54.5 -121.5q-57 -75 -171 -116.5t-265 -41.5 q-173 0 -293 53t-170 150q-25 49 -34 106.5t-9 161.5v555q0 178 -6 289zM451 1561v219h163v-219h-163zM840 1561v219h164v-219h-164z" />
<glyph unicode="&#xdd;" horiz-adv-x="1294" d="M-16 1309v98h501v-98l-149 -11q20 -49 86 -178l225 -440l225 455l41 79q9 18 25 54l16 30l-145 11v98h491v-98l-159 -11q-45 -71 -107 -174l-309 -565v-149q0 -194 6 -289l211 -23v-98h-602v98l211 23q6 171 6 289v149l-283 504q-71 131 -137 235zM598 1534l84 281h213 l-174 -281h-123z" />
<glyph unicode="&#xde;" horiz-adv-x="1251" d="M70 0v98l172 23q6 99 6 289v585q0 192 -6 291l-172 23v98h524v-98l-172 -23q-1 -22 -3 -66.5t-3 -58.5h276q289 0 387 -110q99 -110 99 -316q0 -250 -136 -352q-101 -76 -350 -76h-276q2 -131 6 -186l252 -23v-98h-604zM416 444h258q192 0 256 58q69 60 69 233 q0 171 -69 234q-64 55 -256 55h-258v-580z" />
<glyph unicode="&#xdf;" horiz-adv-x="1286" d="M70 0v98l163 23q7 98 7 162v565h-156l8 135h148v25q0 253 106.5 374t329.5 121q207 0 309 -76.5t102 -232.5q0 -82 -30 -138.5t-103 -111.5q-57 -42 -72.5 -65.5t-15.5 -65.5q0 -40 18.5 -65.5t65.5 -53.5q110 -63 159.5 -110.5t68 -108.5t18.5 -172q0 -179 -63.5 -254.5 t-214.5 -75.5q-101 0 -203 27l18 129q73 -18 162 -18q71 0 99 39t28 137q0 102 -22.5 142t-112.5 99q-114 73 -149.5 124.5t-35.5 140.5q0 72 25.5 119.5t93.5 103.5q62 51 82.5 87.5t20.5 94.5q0 91 -57.5 129.5t-192.5 38.5q-107 0 -164.5 -39t-79.5 -125 q-22 -101 -22 -303v-616q0 -53 6 -162l137 -23v-98h-481z" />
<glyph unicode="&#xe0;" horiz-adv-x="1159" d="M94 264q0 181 117 256q60 38 181.5 56.5t379.5 29.5v66q0 70 -5.5 106.5t-27.5 60t-56.5 29.5t-100.5 6q-92 0 -174 -14t-201 -49l-23 125q206 76 416 76q115 0 184 -24t107 -77q30 -42 39.5 -93t9.5 -171v-342q0 -97 6 -199l154 -8v-98l-297 -25l-19 131 q-74 -78 -150.5 -106.5t-215.5 -28.5q-173 0 -248.5 68t-75.5 225zM268 262q0 -91 39.5 -122t153.5 -31q204 0 278 100q19 26 26 63t7 107v102q-121 -6 -194.5 -12t-135.5 -17t-92 -24t-51 -38t-26 -53.5t-5 -74.5zM383 1434h213l84 -283h-121z" />
<glyph unicode="&#xe1;" horiz-adv-x="1159" d="M94 264q0 181 117 256q60 38 181.5 56.5t379.5 29.5v66q0 70 -5.5 106.5t-27.5 60t-56.5 29.5t-100.5 6q-92 0 -174 -14t-201 -49l-23 125q206 76 416 76q115 0 184 -24t107 -77q30 -42 39.5 -93t9.5 -171v-342q0 -97 6 -199l154 -8v-98l-297 -25l-19 131 q-74 -78 -150.5 -106.5t-215.5 -28.5q-173 0 -248.5 68t-75.5 225zM268 262q0 -91 39.5 -122t153.5 -31q204 0 278 100q19 26 26 63t7 107v102q-121 -6 -194.5 -12t-135.5 -17t-92 -24t-51 -38t-26 -53.5t-5 -74.5zM508 1151l84 283h213l-174 -283h-123z" />
<glyph unicode="&#xe2;" horiz-adv-x="1159" d="M94 264q0 181 117 256q60 38 181.5 56.5t379.5 29.5v66q0 70 -5.5 106.5t-27.5 60t-56.5 29.5t-100.5 6q-92 0 -174 -14t-201 -49l-23 125q206 76 416 76q115 0 184 -24t107 -77q30 -42 39.5 -93t9.5 -171v-342q0 -97 6 -199l154 -8v-98l-297 -25l-19 131 q-74 -78 -150.5 -106.5t-215.5 -28.5q-173 0 -248.5 68t-75.5 225zM250 1151l221 283h203l213 -283h-166l-148 168l-159 -168h-164zM268 262q0 -91 39.5 -122t153.5 -31q204 0 278 100q19 26 26 63t7 107v102q-121 -6 -194.5 -12t-135.5 -17t-92 -24t-51 -38t-26 -53.5 t-5 -74.5z" />
<glyph unicode="&#xe3;" horiz-adv-x="1159" d="M94 264q0 181 117 256q60 38 181.5 56.5t379.5 29.5v66q0 70 -5.5 106.5t-27.5 60t-56.5 29.5t-100.5 6q-92 0 -174 -14t-201 -49l-23 125q206 76 416 76q115 0 184 -24t107 -77q30 -42 39.5 -93t9.5 -171v-342q0 -97 6 -199l154 -8v-98l-297 -25l-19 131 q-74 -78 -150.5 -106.5t-215.5 -28.5q-173 0 -248.5 68t-75.5 225zM178 1184q28 120 87.5 184t142.5 64q89 0 174 -70q45 -36 63.5 -45.5t44.5 -9.5q36 0 63.5 30.5t39.5 83.5h129q-22 -129 -77 -190.5t-147 -61.5q-47 0 -84.5 14.5t-97.5 57.5q-75 53 -113 53 q-60 0 -96 -110h-129zM268 262q0 -91 39.5 -122t153.5 -31q204 0 278 100q19 26 26 63t7 107v102q-121 -6 -194.5 -12t-135.5 -17t-92 -24t-51 -38t-26 -53.5t-5 -74.5z" />
<glyph unicode="&#xe4;" horiz-adv-x="1159" d="M94 264q0 181 117 256q60 38 181.5 56.5t379.5 29.5v66q0 70 -5.5 106.5t-27.5 60t-56.5 29.5t-100.5 6q-92 0 -174 -14t-201 -49l-23 125q206 76 416 76q115 0 184 -24t107 -77q30 -42 39.5 -93t9.5 -171v-342q0 -97 6 -199l154 -8v-98l-297 -25l-19 131 q-74 -78 -150.5 -106.5t-215.5 -28.5q-173 0 -248.5 68t-75.5 225zM268 262q0 -91 39.5 -122t153.5 -31q204 0 278 100q19 26 26 63t7 107v102q-121 -6 -194.5 -12t-135.5 -17t-92 -24t-51 -38t-26 -53.5t-5 -74.5zM332 1188v219h164v-219h-164zM664 1188v219h163v-219h-163 z" />
<glyph unicode="&#xe5;" horiz-adv-x="1159" d="M94 264q0 181 117 256q60 38 181.5 56.5t379.5 29.5v66q0 70 -5.5 106.5t-27.5 60t-56.5 29.5t-100.5 6q-92 0 -174 -14t-201 -49l-23 125q206 76 416 76q115 0 184 -24t107 -77q30 -42 39.5 -93t9.5 -171v-342q0 -97 6 -199l154 -8v-98l-297 -25l-19 131 q-74 -78 -150.5 -106.5t-215.5 -28.5q-173 0 -248.5 68t-75.5 225zM268 262q0 -91 39.5 -122t153.5 -31q204 0 278 100q19 26 26 63t7 107v102q-121 -6 -194.5 -12t-135.5 -17t-92 -24t-51 -38t-26 -53.5t-5 -74.5zM377 1343q0 102 60.5 162t164.5 60q98 0 157.5 -61 t59.5 -161q0 -101 -60 -161t-161 -60t-161 60t-60 161zM485 1343q0 -57 30 -89.5t83 -32.5t83 32.5t30 89.5q0 56 -30 89.5t-81 33.5q-54 0 -84.5 -33t-30.5 -90z" />
<glyph unicode="&#xe6;" horiz-adv-x="1714" d="M94 260q0 141 71 208.5t243 90.5q118 16 342 23v88q0 70 -5.5 106.5t-26.5 60t-54 29.5t-97 6q-169 0 -358 -61l-23 127q206 72 400 72q124 0 189 -32.5t99 -109.5q63 80 135 112t189 32q212 0 310 -132t104 -423h-688q2 -118 7 -160t25 -82q28 -57 90.5 -81.5 t176.5 -24.5q181 0 327 45l21 -134q-168 -49 -363 -49q-158 0 -243 37.5t-142 132.5q-73 -94 -166 -132t-245 -38q-170 0 -244 67.5t-74 221.5zM268 256q0 -86 38.5 -116.5t144.5 -30.5q194 0 268 100q18 27 24.5 63t6.5 107v78q-242 -11 -340 -31q-82 -15 -112 -51 t-30 -119zM926 582h510q-6 158 -63 225t-183 67q-135 0 -196.5 -67.5t-67.5 -224.5z" />
<glyph unicode="&#xe7;" horiz-adv-x="927" d="M106 481q0 276 103 403.5t326 127.5q171 0 317 -60l-23 -135q-142 57 -274 57q-157 0 -215.5 -85.5t-58.5 -313.5q0 -76 5.5 -129.5t19 -96t35 -68.5t56 -42.5t78.5 -23t107 -6.5q138 0 264 53l20 -135q-134 -56 -309 -56h-16l-68 -106l21 -2l12 -2q106 -12 150 -52.5 t44 -125.5q0 -92 -60 -146.5t-163 -54.5q-113 0 -209 45l37 80q71 -35 127 -35q50 0 78.5 27.5t28.5 74.5q0 61 -39.5 84.5t-149.5 28.5l-8 27l96 163q-128 17 -199 69t-102 154.5t-31 280.5z" />
<glyph unicode="&#xe8;" horiz-adv-x="1114" d="M106 451q0 287 111 424t344 137q240 0 342 -126.5t109 -436.5h-731v-25q0 -97 14.5 -155.5t54 -95.5t101.5 -50.5t165 -13.5q182 0 334 45l21 -134q-177 -49 -373 -49q-273 0 -382.5 107t-109.5 373zM283 582h555q-7 160 -70.5 226t-208.5 66t-207.5 -66t-68.5 -226z M367 1434h213l84 -283h-121z" />
<glyph unicode="&#xe9;" horiz-adv-x="1114" d="M106 451q0 287 111 424t344 137q240 0 342 -126.5t109 -436.5h-731v-25q0 -97 14.5 -155.5t54 -95.5t101.5 -50.5t165 -13.5q182 0 334 45l21 -134q-177 -49 -373 -49q-273 0 -382.5 107t-109.5 373zM283 582h555q-7 160 -70.5 226t-208.5 66t-207.5 -66t-68.5 -226z M498 1151l84 283h213l-174 -283h-123z" />
<glyph unicode="&#xea;" horiz-adv-x="1114" d="M106 451q0 287 111 424t344 137q240 0 342 -126.5t109 -436.5h-731v-25q0 -97 14.5 -155.5t54 -95.5t101.5 -50.5t165 -13.5q182 0 334 45l21 -134q-177 -49 -373 -49q-273 0 -382.5 107t-109.5 373zM252 1151l221 283h203l213 -283h-166l-148 168l-159 -168h-164z M283 582h555q-7 160 -70.5 226t-208.5 66t-207.5 -66t-68.5 -226z" />
<glyph unicode="&#xeb;" horiz-adv-x="1114" d="M106 451q0 287 111 424t344 137q240 0 342 -126.5t109 -436.5h-731v-25q0 -97 14.5 -155.5t54 -95.5t101.5 -50.5t165 -13.5q182 0 334 45l21 -134q-177 -49 -373 -49q-273 0 -382.5 107t-109.5 373zM283 582h555q-7 160 -70.5 226t-208.5 66t-207.5 -66t-68.5 -226z M328 1188v219h164v-219h-164zM659 1188v219h164v-219h-164z" />
<glyph unicode="&#xec;" horiz-adv-x="626" d="M53 0v98l176 23q11 97 11 162v354q0 162 -11 240l-163 8v98l350 25q-8 -200 -8 -332v-393q0 -64 8 -162l178 -23v-98h-541zM80 1434h213l84 -283h-121z" />
<glyph unicode="&#xed;" horiz-adv-x="626" d="M53 0v98l176 23q11 97 11 162v354q0 162 -11 240l-163 8v98l350 25q-8 -200 -8 -332v-393q0 -64 8 -162l178 -23v-98h-541zM242 1151l84 283h213l-174 -283h-123z" />
<glyph unicode="&#xee;" horiz-adv-x="626" d="M-29 1151l222 283h202l213 -283h-166l-147 168l-160 -168h-164zM53 0v98l176 23q11 97 11 162v354q0 162 -11 240l-163 8v98l350 25q-8 -200 -8 -332v-393q0 -64 8 -162l178 -23v-98h-541z" />
<glyph unicode="&#xef;" horiz-adv-x="626" d="M29 1188v219h164v-219h-164zM53 0v98l176 23q11 97 11 162v354q0 162 -11 240l-163 8v98l350 25q-8 -200 -8 -332v-393q0 -64 8 -162l178 -23v-98h-541zM360 1188v219h164v-219h-164z" />
<glyph unicode="&#xf0;" horiz-adv-x="1105" d="M106 494q0 162 22.5 253t78.5 154q49 58 128 84.5t202 26.5q99 0 158.5 -21.5t113.5 -75.5l16 -14v51q0 129 -27 209.5t-87 124.5l-199 -162l-66 88l152 123q-100 26 -289 33l17 121q162 -9 242 -20.5t149 -36.5l135 108l70 -86l-97 -74q84 -60 121 -157 q26 -69 35.5 -161t9.5 -288v-295q0 -284 -97 -395t-345 -111q-129 0 -209 26t-131 85q-57 65 -80 155.5t-23 254.5zM281 492q0 -121 7 -183t27 -98q47 -100 234 -100q96 0 152 23.5t81 74.5q20 38 27.5 101t7.5 182t-7.5 181t-27.5 101q-49 100 -235 100q-184 0 -232 -98 q-20 -39 -27 -100.5t-7 -183.5z" />
<glyph unicode="&#xf1;" horiz-adv-x="1308" d="M70 0v98l163 23q7 100 7 162v354q0 140 -7 240l-151 8v98l313 25l8 -189q104 103 198 148t204 45q82 0 144 -26.5t95 -74.5q46 -68 46 -266v-362q0 -91 6 -162l159 -23v-98h-501v98l161 23q7 100 7 162v348q0 135 -23 182q-34 61 -135 61q-100 0 -180.5 -46t-175.5 -158 v-387q0 -27 6 -162l159 -23v-98h-503zM258 1184q28 120 87 184t142 64q90 0 175 -70q45 -36 63.5 -45.5t44.5 -9.5q36 0 63 30t39 84h129q-22 -129 -76.5 -190.5t-146.5 -61.5q-47 0 -84.5 14.5t-97.5 57.5q-75 53 -113 53q-60 0 -96 -110h-129z" />
<glyph unicode="&#xf2;" horiz-adv-x="1136" d="M106 492q0 164 23.5 254.5t83.5 154.5q54 59 137.5 85t222.5 26q131 0 215 -26.5t136 -84.5q60 -63 83 -153.5t23 -255.5q0 -166 -23 -256.5t-83 -153.5q-54 -59 -138 -85t-219 -26q-133 0 -216.5 26t-137.5 85q-60 63 -83.5 154t-23.5 256zM281 492q0 -118 8 -181.5 t28 -101.5q28 -52 87.5 -76t162.5 -24q104 0 164 24t88 76q20 38 28.5 101.5t8.5 181.5t-8.5 181t-28.5 101q-53 100 -246 100q-108 0 -168 -23t-88 -77q-20 -38 -28 -101t-8 -181zM358 1434h213l84 -283h-120z" />
<glyph unicode="&#xf3;" horiz-adv-x="1136" d="M106 492q0 164 23.5 254.5t83.5 154.5q54 59 137.5 85t222.5 26q131 0 215 -26.5t136 -84.5q60 -63 83 -153.5t23 -255.5q0 -166 -23 -256.5t-83 -153.5q-54 -59 -138 -85t-219 -26q-133 0 -216.5 26t-137.5 85q-60 63 -83.5 154t-23.5 256zM281 492q0 -118 8 -181.5 t28 -101.5q28 -52 87.5 -76t162.5 -24q104 0 164 24t88 76q20 38 28.5 101.5t8.5 181.5t-8.5 181t-28.5 101q-53 100 -246 100q-108 0 -168 -23t-88 -77q-20 -38 -28 -101t-8 -181zM496 1151l84 283h213l-175 -283h-122z" />
<glyph unicode="&#xf4;" horiz-adv-x="1136" d="M106 492q0 164 23.5 254.5t83.5 154.5q54 59 137.5 85t222.5 26q131 0 215 -26.5t136 -84.5q60 -63 83 -153.5t23 -255.5q0 -166 -23 -256.5t-83 -153.5q-54 -59 -138 -85t-219 -26q-133 0 -216.5 26t-137.5 85q-60 63 -83.5 154t-23.5 256zM250 1151l221 283h203 l213 -283h-166l-148 168l-159 -168h-164zM281 492q0 -118 8 -181.5t28 -101.5q28 -52 87.5 -76t162.5 -24q104 0 164 24t88 76q20 38 28.5 101.5t8.5 181.5t-8.5 181t-28.5 101q-53 100 -246 100q-108 0 -168 -23t-88 -77q-20 -38 -28 -101t-8 -181z" />
<glyph unicode="&#xf5;" horiz-adv-x="1136" d="M106 492q0 164 23.5 254.5t83.5 154.5q54 59 137.5 85t222.5 26q131 0 215 -26.5t136 -84.5q60 -63 83 -153.5t23 -255.5q0 -166 -23 -256.5t-83 -153.5q-54 -59 -138 -85t-219 -26q-133 0 -216.5 26t-137.5 85q-60 63 -83.5 154t-23.5 256zM197 1184q28 120 87 184 t142 64q89 0 174 -70q45 -36 64 -45.5t45 -9.5q36 0 63 30t39 84h129q-22 -129 -76.5 -190.5t-146.5 -61.5q-47 0 -84.5 14.5t-97.5 57.5q-75 53 -113 53q-60 0 -96 -110h-129zM281 492q0 -118 8 -181.5t28 -101.5q28 -52 87.5 -76t162.5 -24q104 0 164 24t88 76 q20 38 28.5 101.5t8.5 181.5t-8.5 181t-28.5 101q-53 100 -246 100q-108 0 -168 -23t-88 -77q-20 -38 -28 -101t-8 -181z" />
<glyph unicode="&#xf6;" horiz-adv-x="1136" d="M106 492q0 164 23.5 254.5t83.5 154.5q54 59 137.5 85t222.5 26q131 0 215 -26.5t136 -84.5q60 -63 83 -153.5t23 -255.5q0 -166 -23 -256.5t-83 -153.5q-54 -59 -138 -85t-219 -26q-133 0 -216.5 26t-137.5 85q-60 63 -83.5 154t-23.5 256zM281 492q0 -118 8 -181.5 t28 -101.5q28 -52 87.5 -76t162.5 -24q104 0 164 24t88 76q20 38 28.5 101.5t8.5 181.5t-8.5 181t-28.5 101q-53 100 -246 100q-108 0 -168 -23t-88 -77q-20 -38 -28 -101t-8 -181zM322 1188v219h163v-219h-163zM653 1188v219h164v-219h-164z" />
<glyph unicode="&#xf7;" d="M129 580l10 137h920l-10 -137h-920zM510 195v194h168v-194h-168zM510 907v195h168v-195h-168z" />
<glyph unicode="&#xf8;" horiz-adv-x="1146" d="M106 23l82 100q-43 66 -59 146t-16 223q0 165 23 255t81 154q54 59 137 85t219 26q193 0 291 -62l72 88l92 -80l-72 -88q47 -68 65.5 -150t18.5 -231q0 -164 -23 -254t-81 -153q-54 -59 -137.5 -85t-216.5 -26q-108 0 -178 15.5t-125 52.5l-78 -96zM287 500 q0 -170 18 -248l457 584q-43 23 -83 30.5t-110 7.5q-100 0 -159.5 -24t-85.5 -76q-37 -67 -37 -274zM381 154q43 -26 85 -35.5t116 -9.5q101 0 160 24t87 76q20 38 28.5 101.5t8.5 181.5q0 166 -22 253z" />
<glyph unicode="&#xf9;" horiz-adv-x="1236" d="M59 885v98l336 25q-8 -175 -8 -332v-326q0 -149 24 -195t101 -46q173 0 338 155v373q0 151 -6 240l-152 8v98l334 25q-8 -145 -8 -332v-330q0 -152 8 -240l162 -8v-98l-318 -23l-10 156q-104 -86 -195.5 -124t-197.5 -38q-154 0 -209 101q-39 66 -39 264v301 q0 151 -6 240zM397 1434h213l84 -283h-121z" />
<glyph unicode="&#xfa;" horiz-adv-x="1236" d="M59 885v98l336 25q-8 -175 -8 -332v-326q0 -149 24 -195t101 -46q173 0 338 155v373q0 151 -6 240l-152 8v98l334 25q-8 -145 -8 -332v-330q0 -152 8 -240l162 -8v-98l-318 -23l-10 156q-104 -86 -195.5 -124t-197.5 -38q-154 0 -209 101q-39 66 -39 264v301 q0 151 -6 240zM547 1151l84 283h213l-174 -283h-123z" />
<glyph unicode="&#xfb;" horiz-adv-x="1236" d="M59 885v98l336 25q-8 -175 -8 -332v-326q0 -149 24 -195t101 -46q173 0 338 155v373q0 151 -6 240l-152 8v98l334 25q-8 -145 -8 -332v-330q0 -152 8 -240l162 -8v-98l-318 -23l-10 156q-104 -86 -195.5 -124t-197.5 -38q-154 0 -209 101q-39 66 -39 264v301 q0 151 -6 240zM289 1151l221 283h203l213 -283h-166l-148 168l-159 -168h-164z" />
<glyph unicode="&#xfc;" horiz-adv-x="1236" d="M59 885v98l336 25q-8 -175 -8 -332v-326q0 -149 24 -195t101 -46q173 0 338 155v373q0 151 -6 240l-152 8v98l334 25q-8 -145 -8 -332v-330q0 -152 8 -240l162 -8v-98l-318 -23l-10 156q-104 -86 -195.5 -124t-197.5 -38q-154 0 -209 101q-39 66 -39 264v301 q0 151 -6 240zM371 1188v219h164v-219h-164zM702 1188v219h164v-219h-164z" />
<glyph unicode="&#xfd;" horiz-adv-x="1210" d="M59 885v98l336 25q-8 -175 -8 -332v-326q0 -148 25.5 -194.5t107.5 -46.5q177 0 340 163v365q0 151 -6 240l-152 8v98l334 25q-8 -175 -8 -332v-500q0 -191 -9 -289.5t-34 -167.5q-85 -241 -475 -241q-169 0 -311 39l18 129q140 -31 279 -31q211 0 287.5 81t76.5 304v131 q-4 -2 -18 -16q-171 -144 -367 -144q-155 0 -215 101q-41 69 -41 264v301q0 151 -6 240zM532 1151l84 283h213l-174 -283h-123z" />
<glyph unicode="&#xfe;" horiz-adv-x="1200" d="M2 -403l164 22q6 86 6 162v1354q0 111 -6 237l-158 8v99l344 37q-12 -216 -12 -342v-279q90 63 167.5 90t170.5 27q195 0 291 -101q60 -61 83 -153t23 -266t-23 -266t-83 -152q-100 -103 -305 -103q-100 0 -172.5 25t-151.5 88v-303q0 -27 6 -162l213 -22v-99h-557v99z M340 219q65 -62 129.5 -86t165.5 -24q97 0 150 21.5t79 70.5q22 38 29.5 99t7.5 192q0 130 -7.5 190.5t-29.5 101.5q-49 90 -219 90q-169 0 -305 -112v-543z" />
<glyph unicode="&#xff;" horiz-adv-x="1210" d="M59 885v98l336 25q-8 -175 -8 -332v-326q0 -148 25.5 -194.5t107.5 -46.5q177 0 340 163v365q0 151 -6 240l-152 8v98l334 25q-8 -175 -8 -332v-500q0 -191 -9 -289.5t-34 -167.5q-85 -241 -475 -241q-169 0 -311 39l18 129q140 -31 279 -31q211 0 287.5 81t76.5 304v131 q-4 -2 -18 -16q-171 -144 -367 -144q-155 0 -215 101q-41 69 -41 264v301q0 151 -6 240zM356 1188v219h164v-219h-164zM688 1188v219h164v-219h-164z" />
<glyph unicode="&#x152;" horiz-adv-x="2121" d="M119 705q0 392 134.5 561.5t446.5 169.5q152 0 251 -36t169 -118v125h871v-322h-131l-17 185h-561q-6 -102 -6 -287v-172h545l-11 -137h-534v-248q0 -184 6 -289h586l16 193h131v-330h-895v125q-72 -83 -169 -118.5t-251 -35.5q-312 0 -446.5 170.5t-134.5 563.5z M297 705q0 -118 8 -204t27.5 -154t49 -111t76 -71.5t105 -40t139.5 -11.5q97 0 163.5 18t115 57t75.5 110t39.5 168t12.5 239q0 141 -12 237.5t-39 166.5t-75 109.5t-113.5 57.5t-161.5 18q-82 0 -141.5 -11.5t-106.5 -39t-77 -70.5t-49.5 -110.5t-27.5 -153.5t-8 -204z" />
<glyph unicode="&#x153;" horiz-adv-x="1814" d="M106 489q0 166 23 256.5t82 155.5q53 59 134.5 85t211.5 26q163 0 245 -41t144 -152q62 106 139.5 149.5t204.5 43.5q149 0 240.5 -60.5t138.5 -191.5q37 -99 43 -303h-696q1 -112 7.5 -156t27.5 -86q29 -56 94.5 -81t183.5 -25q173 0 322 45l20 -136q-174 -47 -354 -47 q-153 0 -235 36.5t-136 129.5q-57 -91 -142.5 -128.5t-234.5 -37.5q-137 0 -220 25.5t-138 85.5q-58 63 -81.5 153.5t-23.5 253.5zM281 489q0 -117 8 -179.5t28 -102.5q50 -98 244 -98t244 98q20 40 28.5 103.5t8.5 181.5t-8.5 181t-28.5 101q-51 100 -240 100 q-103 0 -162.5 -24t-85.5 -76q-20 -38 -28 -101t-8 -184zM1016 582h520q-7 160 -64 226t-186 66q-137 0 -200 -68t-70 -224z" />
<glyph unicode="&#x178;" horiz-adv-x="1294" d="M-16 1309v98h501v-98l-149 -11q20 -49 86 -178l225 -440l225 455l41 79q9 18 25 54l16 30l-145 11v98h491v-98l-159 -11q-45 -71 -107 -174l-309 -565v-149q0 -194 6 -289l211 -23v-98h-602v98l211 23q6 171 6 289v149l-283 504q-71 131 -137 235zM371 1561v219h164v-219 h-164zM760 1561v219h164v-219h-164z" />
<glyph unicode="&#x2c6;" horiz-adv-x="1024" d="M195 1151l221 283h202l213 -283h-165l-148 168l-160 -168h-163z" />
<glyph unicode="&#x2dc;" horiz-adv-x="1024" d="M139 1184q28 120 87.5 184t142.5 64q89 0 174 -70q45 -36 63.5 -45.5t44.5 -9.5q36 0 63.5 30.5t39.5 83.5h129q-22 -129 -77 -190.5t-147 -61.5q-47 0 -84.5 14.5t-97.5 57.5q-75 53 -112 53q-61 0 -97 -110h-129z" />
<glyph unicode="&#x2000;" horiz-adv-x="958" />
<glyph unicode="&#x2001;" horiz-adv-x="1917" />
<glyph unicode="&#x2002;" horiz-adv-x="958" />
<glyph unicode="&#x2003;" horiz-adv-x="1917" />
<glyph unicode="&#x2004;" horiz-adv-x="639" />
<glyph unicode="&#x2005;" horiz-adv-x="479" />
<glyph unicode="&#x2006;" horiz-adv-x="319" />
<glyph unicode="&#x2007;" horiz-adv-x="319" />
<glyph unicode="&#x2008;" horiz-adv-x="239" />
<glyph unicode="&#x2009;" horiz-adv-x="383" />
<glyph unicode="&#x200a;" horiz-adv-x="106" />
<glyph unicode="&#x2010;" horiz-adv-x="688" d="M80 578l12 143h516l-10 -143h-518z" />
<glyph unicode="&#x2011;" horiz-adv-x="688" d="M80 578l12 143h516l-10 -143h-518z" />
<glyph unicode="&#x2012;" horiz-adv-x="688" d="M80 578l12 143h516l-10 -143h-518z" />
<glyph unicode="&#x2013;" d="M166 580l10 137h844l-10 -137h-844z" />
<glyph unicode="&#x2014;" d="M-96 580v137h1378v-137h-1378z" />
<glyph unicode="&#x2018;" horiz-adv-x="378" d="M63 1020l97 496h131l-39 -496h-189z" />
<glyph unicode="&#x2019;" horiz-adv-x="378" d="M88 1020l41 496h186l-96 -496h-131z" />
<glyph unicode="&#x201a;" horiz-adv-x="378" d="M88 -287l41 496h186l-96 -496h-131z" />
<glyph unicode="&#x201c;" horiz-adv-x="661" d="M63 1020l105 496h133l-49 -496h-189zM336 1020l104 496h131l-49 -496h-186z" />
<glyph unicode="&#x201d;" horiz-adv-x="661" d="M88 1020l49 496h189l-107 -496h-131zM360 1020l50 496h186l-104 -496h-132z" />
<glyph unicode="&#x201e;" horiz-adv-x="661" d="M88 -287l49 496h189l-107 -496h-131zM360 -287l50 496h186l-104 -496h-132z" />
<glyph unicode="&#x2022;" d="M342 393v510h508v-510h-508z" />
<glyph unicode="&#x2026;" horiz-adv-x="1781" d="M188 0v219h218v-219h-218zM782 0v219h217v-219h-217zM1376 0v219h217v-219h-217z" />
<glyph unicode="&#x202f;" horiz-adv-x="383" />
<glyph unicode="&#x2039;" horiz-adv-x="532" d="M63 573v25l324 352l70 -51l-187 -313l187 -314l-70 -51z" />
<glyph unicode="&#x203a;" horiz-adv-x="532" d="M74 272l186 314l-186 313l69 51l324 -352v-25l-324 -352z" />
<glyph unicode="&#x205f;" horiz-adv-x="479" />
<glyph unicode="&#x20ac;" d="M61 471l43 113h127q-2 23 -2 104q0 31 2 49h-170l43 113h132q8 97 35 196t63 160q69 118 178.5 175t269.5 57q137 0 312 -52l-17 -139q-143 49 -272 49q-192 0 -283 -103.5t-108 -342.5h520l-43 -113h-483v-69v-84h428l-41 -113h-377q20 -189 114.5 -273.5t284.5 -84.5 q141 0 277 47l14 -142q-139 -47 -315 -47q-249 0 -385.5 124t-165.5 376h-181z" />
<glyph unicode="&#x2122;" horiz-adv-x="1644" d="M41 1237v170h580v-170h-78l-13 84h-141v-41q-2 -16 -2 -33l2 -37v-270l-2 -41q0 -18 2 -41v-41l105 -10v-66h-324v66l102 10v123v270v111h-139l-14 -84h-78zM647 741v66l96 6q6 26 9 78l22 356v53v17v16l-63 6v68h237q10 -43 37 -133l141 -410l146 410q22 63 43 133h233 v-68l-71 -6q4 -54 4 -86l28 -362q2 -43 4 -58l3 -14l92 -6v-66h-310v66l99 6q2 6 2 12v13q-2 8 -2 18v21l-29 393l-188 -529h-111l-192 529l-21 -379v-33l-2 -16v-13q0 -10 2 -16l100 -6v-66h-309z" />
<glyph unicode="&#x25fc;" horiz-adv-x="983" d="M0 0v983h983v-983h-983z" />
</font>
</defs>
</svg>
