<?xml version="1.0" standalone="no"?>
<!DOCTYPE svg PUBLIC "-//W3C//DTD SVG 1.1//EN" "http://www.w3.org/Graphics/SVG/1.1/DTD/svg11.dtd" >
<svg>
<metadata>
Created by FontForge 20110222 at Thu Nov 14 23:23:55 2013
 By Orthosie Webhosting
2006 by (URW)++ Design &#38; Development
</metadata>
<defs>
<font id="" horiz-adv-x="1319" vert-adv-y="2048" >
  <font-face 
    font-family=""
    font-weight="700"
    font-stretch="normal"
    units-per-em="2048"
    panose-1="0 0 0 0 0 0 0 0 0 0"
    ascent="1536"
    descent="-512"
    x-height="995"
    cap-height="1407"
    bbox="-317 -516 2594 1958"
    underline-thickness="197"
    underline-position="-398"
    unicode-range="U+0020-FB02"
  />
<missing-glyph horiz-adv-x="492" vert-adv-y="2458" 
d="M49 0v1407h394v-1407h-394zM98 49h296v1309h-296v-1309z" />
    <glyph glyph-name=".notdef" horiz-adv-x="492" vert-adv-y="2458" 
d="M49 0v1407h394v-1407h-394zM98 49h296v1309h-296v-1309z" />
    <glyph glyph-name="glyph1" horiz-adv-x="0" vert-adv-y="0" 
 />
    <glyph glyph-name="glyph2" horiz-adv-x="492" vert-adv-y="2458" 
 />
    <glyph glyph-name="space" unicode=" " horiz-adv-x="492" vert-adv-y="2458" 
 />
    <glyph glyph-name="exclam" unicode="!" horiz-adv-x="779" vert-adv-y="2458" 
d="M251 0v277h280v-277h-280zM253 1489h275l-29 -1068h-217z" />
    <glyph glyph-name="quotedbl" unicode="&#x22;" horiz-adv-x="692" vert-adv-y="2458" 
d="M46 1466h254l-27 -591h-200zM392 1466h253l-26 -591h-201z" />
    <glyph glyph-name="numbersign" unicode="#" vert-adv-y="2458" 
d="M111 423l25 187h204l26 172h-199l25 187h200l54 380h221l-54 -380h173l54 380h221l-54 -380h200l-24 -187h-202l-26 -172h197l-26 -187h-196l-53 -367h-221l52 367h-173l-52 -367h-221l52 367h-203zM561 610h173l26 172h-173z" />
    <glyph glyph-name="dollar" unicode="$" vert-adv-y="2458" 
d="M109 51l28 211q225 -72 430 -87v464q-172 51 -241 89q-85 47 -122 117q-43 82 -43 193q0 267 216 353q69 27 190 40v155h193v-156q153 -12 322 -63l-25 -203q-180 47 -297 63v-398l8 -2q205 -58 278 -103q79 -50 114 -112q43 -78 43 -200q0 -193 -86 -299
q-98 -119 -357 -138v-160h-193v160q-166 10 -260 26q-102 17 -198 50zM418 1053q0 -106 107 -154q21 -10 42 -15v341q-149 -34 -149 -172zM760 182q73 16 113 45q73 53 73 163q0 89 -51 130q-43 35 -135 64v-402z" />
    <glyph glyph-name="percent" unicode="%" horiz-adv-x="1870" vert-adv-y="2458" 
d="M82 1061q0 211 97 297q87 78 269 78q201 0 287 -96q79 -87 79 -283q0 -214 -97 -302q-86 -78 -270 -78q-187 0 -275 84q-90 86 -90 300zM314 1068q0 -125 30 -178q26 -46 106 -46q75 0 104 50q27 47 27 170q0 139 -45 178q-30 27 -89 27q-65 0 -95 -34q-38 -43 -38 -167z
M449 0l769 1407h212l-769 -1407h-212zM1065 355q0 212 97 298q87 77 269 77q201 0 287 -96q79 -88 79 -285q0 -214 -97 -300q-87 -78 -269 -78q-200 0 -287 95q-79 87 -79 289zM1297 364q0 -127 28 -176q28 -50 106 -50t106 50q28 48 28 170q0 138 -45 178q-30 27 -89 27
q-66 0 -95 -33q-39 -44 -39 -166z" />
    <glyph glyph-name="ampersand" unicode="&#x26;" horiz-adv-x="1604" vert-adv-y="2458" 
d="M108 399q0 221 157 324q44 28 144 69q-34 52 -59 97q-48 88 -48 201q0 169 101 259q98 87 286 87q415 0 415 -314q0 -115 -53 -202q-58 -97 -278 -184l302 -319q49 97 84 226l-146 14v143h556v-143l-167 -15q-73 -261 -171 -390l77 -81l219 -14v-157h-375l-85 89l-28 -17
q-172 -101 -434 -101q-211 0 -327 66q-170 97 -170 362zM377 406q0 -122 62 -177q65 -58 197 -58q162 0 285 69l-383 399q-54 -26 -93 -59q-68 -56 -68 -174zM563 1097q0 -68 38 -133q18 -32 45 -67l11 -14l10 5q1 1 5 3q83 41 113 73q58 62 58 152q0 124 -140 124
t-140 -143z" />
    <glyph glyph-name="quotesingle" unicode="'" horiz-adv-x="370" vert-adv-y="2458" 
d="M52 1466h266l-27 -591h-212z" />
    <glyph glyph-name="parenleft" unicode="(" horiz-adv-x="913" vert-adv-y="2458" 
d="M264 597q0 543 314 980l172 -105q-71 -130 -115 -261q-101 -301 -101 -614q0 -358 127 -687q33 -87 89 -188l-172 -104q-314 436 -314 979z" />
    <glyph glyph-name="parenright" unicode=")" horiz-adv-x="913" vert-adv-y="2458" 
d="M163 -278q72 130 116 261q101 302 101 614q0 359 -127 688q-34 86 -90 187l173 105q314 -438 314 -980t-314 -979z" />
    <glyph glyph-name="asterisk" unicode="*" vert-adv-y="2458" 
d="M190 1158l66 231l296 -105l-21 297h255l-19 -297l296 105l67 -231l-311 -64l219 -276l-222 -130l-156 252l-156 -252l-222 130l217 276z" />
    <glyph glyph-name="plus" unicode="+" vert-adv-y="2458" 
d="M126 552l16 197h401v413h233v-413h417l-16 -197h-401v-411h-233v411h-417z" />
    <glyph glyph-name="comma" unicode="," horiz-adv-x="659" vert-adv-y="2458" 
d="M150 -294l69 588h300l-131 -588h-238z" />
    <glyph glyph-name="hyphen" unicode="-" horiz-adv-x="808" vert-adv-y="2458" 
d="M78 548l17 205h635l-17 -205h-635z" />
    <glyph glyph-name="period" unicode="." horiz-adv-x="659" vert-adv-y="2458" 
d="M177 0v294h305v-294h-305z" />
    <glyph glyph-name="slash" unicode="/" horiz-adv-x="657" vert-adv-y="2458" 
d="M35 0l335 1407h253l-335 -1407h-253z" />
    <glyph glyph-name="zero" unicode="0" vert-adv-y="2458" 
d="M98 714q0 245 49 401q60 188 223 269q106 52 289 52q166 0 264 -41q152 -63 228 -229q69 -152 69 -462t-69 -463q-76 -166 -228 -229q-97 -41 -265 -41q-166 0 -263 41q-152 64 -228 229q-69 153 -69 473zM368 714q0 -251 31 -353q32 -102 92 -145q60 -44 169 -44
q162 0 224 109q37 65 47 137q19 127 19 286q0 239 -31 342q-31 101 -92 145q-60 44 -167 44q-163 0 -226 -109q-37 -65 -48 -137q-18 -129 -18 -275z" />
    <glyph glyph-name="one" unicode="1" vert-adv-y="2458" 
d="M158 0v176l426 16v986l-350 -78l-49 180l462 135h195v-1223l402 -16v-176h-1086z" />
    <glyph glyph-name="two" unicode="2" vert-adv-y="2458" 
d="M126 0v194l480 474q132 132 195 234q45 74 45 155q0 80 -40 126q-45 52 -162 52q-144 0 -268 -46l-17 -205h-190v352q213 100 484 100q202 0 313 -63q149 -84 149 -308q0 -170 -100 -301q-81 -106 -225 -243l-332 -316h511l16 197h190v-402h-1049z" />
    <glyph glyph-name="three" unicode="3" vert-adv-y="2458" 
d="M112 54v348h190l16 -192q132 -38 294 -38q186 0 242 64q52 59 52 189q0 146 -74 189q-51 29 -189 29h-204v197h200q111 0 160 29q66 40 66 151q0 107 -38 155q-48 60 -186 60q-139 0 -283 -46l-16 -205h-191v362q237 90 501 90q245 0 360 -89q123 -95 123 -314
q0 -156 -72 -228q-23 -23 -68 -54q68 -37 106 -80q75 -84 75 -256q0 -226 -120 -333q-123 -111 -421 -111t-523 83z" />
    <glyph glyph-name="four" unicode="4" vert-adv-y="2458" 
d="M76 369v197l253 456q72 130 72 257v147h237v-162q0 -115 -32 -209q-24 -68 -81 -172l-175 -316h429v504h248v-504h226l-15 -198h-211v-71q0 -60 4 -127l182 -21v-150h-672v150l233 21q5 66 5 119v79h-703z" />
    <glyph glyph-name="five" unicode="5" vert-adv-y="2458" 
d="M158 54v348h190l17 -192q127 -38 282 -38q165 0 219 63q54 62 54 225q0 117 -33 171q-48 82 -200 82q-116 0 -208 -51q-42 -23 -93 -60l-185 38l19 767h885v-205h-635l-9 -342q111 54 263 54q258 0 372 -126q94 -104 94 -331q0 -258 -115 -369q-122 -117 -405 -117
q-284 0 -512 83z" />
    <glyph glyph-name="six" unicode="6" vert-adv-y="2458" 
d="M147 546v190q0 299 45 421q65 180 219 237q115 42 293 42q167 0 379 -35l-20 -195q-204 30 -341 30q-210 0 -268 -103q-31 -55 -42 -157q-4 -39 -8 -120q110 94 306 94q261 0 383 -136q103 -116 103 -353q0 -263 -132 -379q-125 -111 -391 -111q-174 0 -277 42
q-146 60 -206 207q-43 106 -43 326zM415 465q0 -145 50 -216q54 -77 206 -77q151 0 205 77q50 71 50 212t-50 211q-55 77 -205 77q-151 0 -206 -77q-50 -71 -50 -207z" />
    <glyph glyph-name="seven" unicode="7" vert-adv-y="2458" 
d="M178 999v408h1042v-145l-398 -891q-116 -261 -158 -371h-313q89 172 219 450l349 743h-510l-19 -194h-212z" />
    <glyph glyph-name="eight" unicode="8" vert-adv-y="2458" 
d="M99 376q0 178 83 265q51 54 138 96q-51 28 -81 57q-80 80 -80 238q0 246 152 334q119 70 348 70q154 0 243 -25q151 -44 206 -143q52 -94 52 -237q0 -157 -80 -237q-30 -30 -80 -57q86 -42 137 -96q83 -87 83 -265q0 -230 -142 -323q-125 -82 -419 -82q-322 0 -445 102
q-115 95 -115 303zM369 404q0 -127 60 -179q62 -53 230 -53q184 0 243 65q48 53 48 165q0 124 -60 176q-62 53 -231 53q-183 0 -242 -65q-48 -53 -48 -162zM429 1034q0 -112 50 -159q49 -47 182 -47q130 0 180 47q49 47 49 157t-49 156q-51 47 -181 47q-132 0 -181 -47
q-50 -47 -50 -154z" />
    <glyph glyph-name="nine" unicode="9" vert-adv-y="2458" 
d="M129 967q0 239 133 359q120 110 386 110q294 0 416 -136q60 -67 84 -160q24 -96 24 -259v-210q0 -301 -42 -421q-64 -180 -227 -238q-117 -41 -294 -41q-189 0 -428 43l20 196q240 -39 400 -39q137 0 211 51q103 71 103 343v27q-42 -37 -78 -54q-84 -40 -224 -40
q-230 0 -344 95q-46 38 -73 79q-67 106 -67 295zM399 970q0 -124 44 -188q57 -83 208 -83q152 0 209 83q44 64 44 185q0 122 -44 185q-58 83 -208 83q-151 0 -209 -83q-44 -63 -44 -182z" />
    <glyph glyph-name="colon" unicode=":" horiz-adv-x="659" vert-adv-y="2458" 
d="M207 0v294h305v-294h-305zM207 706v294h305v-294h-305z" />
    <glyph glyph-name="semicolon" unicode=";" horiz-adv-x="659" vert-adv-y="2458" 
d="M145 -294l69 588h300l-131 -588h-238zM213 706v294h305v-294h-305z" />
    <glyph glyph-name="less" unicode="&#x3c;" vert-adv-y="2458" 
d="M139 567v168l999 460v-238l-684 -306l684 -306v-239z" />
    <glyph glyph-name="equal" unicode="=" vert-adv-y="2458" 
d="M126 372l16 197h1050l-16 -197h-1050zM126 732l16 197h1050l-16 -197h-1050z" />
    <glyph glyph-name="greater" unicode="&#x3e;" vert-adv-y="2458" 
d="M180 106v239l684 306l-684 306v238l999 -460v-168z" />
    <glyph glyph-name="question" unicode="?" horiz-adv-x="992" vert-adv-y="2458" 
d="M162 1445q177 61 373 61q171 0 265 -53q134 -75 134 -263q0 -133 -62 -226q-51 -79 -144 -173q-93 -93 -116 -146q-11 -27 -11 -90v-134h-242v148q0 109 20 158q20 52 104 135q119 120 153 188q29 60 29 118q0 137 -166 137q-130 0 -313 -49zM350 0v277h280v-277h-280z
" />
    <glyph glyph-name="at" unicode="@" horiz-adv-x="1954" vert-adv-y="2458" 
d="M106 478q0 290 80 481q126 302 399 409q165 64 406 64q288 0 470 -83q229 -104 329 -328q58 -132 58 -302q0 -260 -133 -410q-141 -158 -391 -158q-143 0 -206 64q-18 19 -38 52q-109 -110 -256 -110q-245 0 -245 258q0 155 49 306q46 142 124 198q75 55 191 55
q125 0 215 -74l36 72h197l-85 -535q-9 -54 -9 -74q0 -60 70 -60q86 0 157 81q49 56 78 157q23 80 23 173q0 163 -72 291q-138 244 -562 244q-300 0 -459 -144q-200 -181 -200 -622q0 -198 43 -312q62 -163 235 -225q130 -46 349 -46q313 0 637 64l20 -180q-291 -67 -642 -67
q-311 0 -489 67q-239 91 -326 322q-53 142 -53 372zM833 390q0 -78 70 -78q71 0 140 97l60 368q-59 42 -111 42q-58 0 -80 -48q-40 -92 -62 -227q-17 -105 -17 -154z" />
    <glyph glyph-name="A" unicode="A" horiz-adv-x="1586" vert-adv-y="2458" 
d="M-57 0v156l162 10q26 50 73 163l327 771q23 52 52 135l-158 16v156h561q61 -166 126 -321l312 -746q33 -78 79 -175l161 -9v-156h-628v156l182 10q-23 66 -40 109l-47 118h-649l-47 -118q-26 -65 -41 -110l166 -9v-156h-591zM533 589h494l-247 622z" />
    <glyph glyph-name="B" unicode="B" horiz-adv-x="1456" vert-adv-y="2458" 
d="M53 0v156l186 22q5 122 5 245v560q0 123 -5 246l-186 22v156h784q233 0 339 -58q152 -82 152 -286q0 -230 -201 -314q100 -26 160 -78q103 -88 103 -267q0 -176 -90 -274q-77 -86 -226 -115q-79 -15 -204 -15h-817zM502 432q0 -156 5 -235h317q132 0 208 40q36 18 57 57
q31 54 31 124q0 146 -104 195q-61 29 -227 29h-287v-210zM502 838h264q161 0 213 30q87 49 87 167q0 110 -79 149q-50 26 -176 26h-304q-5 -135 -5 -236v-136z" />
    <glyph glyph-name="C" unicode="C" horiz-adv-x="1244" vert-adv-y="2458" 
d="M102 681q0 440 195 617q153 138 438 138q188 0 410 -73l-26 -203q-201 76 -371 76q-154 0 -238 -72q-88 -77 -119 -235q-19 -96 -19 -245q0 -203 38 -307q50 -137 173 -178q84 -27 190 -27q162 0 370 77l28 -208q-178 -70 -426 -70q-339 0 -489 164q-154 168 -154 546z
" />
    <glyph glyph-name="D" unicode="D" horiz-adv-x="1538" vert-adv-y="2458" 
d="M53 0v156l186 22q5 122 5 247v557q0 124 -5 247l-186 22v156h761q201 0 323 -60q140 -68 214 -220q86 -176 86 -422q0 -370 -175 -550q-91 -94 -227 -130q-91 -25 -235 -25h-747zM502 426q0 -75 4 -229h264q127 0 195 35q104 54 151 175q51 130 51 306q0 276 -114 405
q-51 57 -131 77q-58 15 -154 15h-262q-4 -102 -4 -226v-558z" />
    <glyph glyph-name="E" unicode="E" horiz-adv-x="1404" vert-adv-y="2458" 
d="M53 0v156l186 22q5 122 5 247v558q0 123 -5 246l-186 22v156h1237v-356h-179l-21 159h-584q-4 -127 -4 -227v-145h560l-16 -197h-544v-216q0 -97 4 -228h611l19 168h179v-365h-1262z" />
    <glyph glyph-name="F" unicode="F" horiz-adv-x="1296" vert-adv-y="2458" 
d="M53 0v156l186 21q5 123 5 247v559q0 123 -5 246l-186 22v156h1183v-356h-179l-21 159h-529q-5 -135 -5 -227v-161h521l-15 -197h-506v-201q0 -131 5 -247l266 -21v-156h-720z" />
    <glyph glyph-name="G" unicode="G" horiz-adv-x="1463" vert-adv-y="2458" 
d="M102 686q0 430 193 602q166 148 475 148q257 0 499 -93l-19 -197q-269 89 -455 89q-285 0 -373 -197q-50 -113 -50 -355q0 -253 65 -366q39 -68 93 -96q90 -49 240 -49q132 0 272 34v95q0 108 -5 248l-246 21v156h641v-156l-127 -21q-5 -129 -5 -248v-244
q-232 -86 -542 -86q-258 0 -399 81q-102 58 -164 167q-93 162 -93 467z" />
    <glyph glyph-name="H" unicode="H" horiz-adv-x="1678" vert-adv-y="2458" 
d="M53 0v156l186 21q5 123 5 247v558q0 125 -5 248l-186 21v156h639v-156l-185 -21q-5 -123 -5 -248v-150h675v150q0 125 -5 248l-186 21v156h640v-156l-186 -21q-5 -144 -5 -248v-558q0 -104 5 -247l186 -21v-156h-640v156l186 21q5 123 5 247v211h-675v-211q0 -124 5 -247
l185 -21v-156h-639z" />
    <glyph glyph-name="I" unicode="I" horiz-adv-x="744" vert-adv-y="2458" 
d="M53 0v156l186 21q5 123 5 247v559q0 124 -5 247l-186 21v156h639v-156l-185 -21q-5 -123 -5 -247v-559q0 -124 5 -247l185 -21v-156h-639z" />
    <glyph glyph-name="J" unicode="J" horiz-adv-x="1170" vert-adv-y="2458" 
d="M20 47v318h187l17 -163q113 -34 220 -34q151 0 192 100q36 87 36 296v351q0 192 -9 315l-262 21v156h720v-156l-186 -21q-5 -123 -5 -247v-391q0 -155 -11 -264q-22 -226 -169 -305q-98 -52 -260 -52q-249 0 -470 76z" />
    <glyph glyph-name="K" unicode="K" horiz-adv-x="1527" vert-adv-y="2458" 
d="M53 0v156l186 20q5 123 5 247v559q0 125 -5 248l-186 21v156h639v-156l-185 -21q-5 -123 -5 -248v-154h171l232 285q46 56 97 125l-125 13v156h597v-156l-159 -19l-132 -145l-288 -333l350 -414l146 -166l174 -18v-156h-637v156l141 13q-52 71 -96 124l-280 339h-191
v-209q0 -124 5 -247l185 -20v-156h-639z" />
    <glyph glyph-name="L" unicode="L" horiz-adv-x="1292" vert-adv-y="2458" 
d="M53 0v156l186 22q5 122 5 247v557q0 125 -5 248l-186 21v156h639v-156l-185 -21q-5 -116 -5 -248v-557q0 -93 5 -228h550l19 196h177v-393h-1200z" />
    <glyph glyph-name="M" unicode="M" horiz-adv-x="1990" vert-adv-y="2458" 
d="M0 0v156l179 12q11 86 17 156l59 741q2 24 5 112l3 60l-165 14v156h553q24 -99 81 -279l234 -741q0 -2 11 -30l9 -29l22 58l241 736q52 161 85 285h557v-156l-160 -14q6 -142 8 -172l58 -750q5 -57 17 -148l164 -11v-156h-631v156l197 12q-2 75 -6 128l-61 850
l-377 -1146h-236l-373 1147l-64 -850q-5 -64 -6 -129l201 -12v-156h-622z" />
    <glyph glyph-name="N" unicode="N" horiz-adv-x="1681" vert-adv-y="2458" 
d="M61 0v156l186 21q5 123 5 247v559q0 124 -5 247l-186 21v156h553q90 -186 164 -323l424 -785v684q0 136 -5 247l-186 21v156h614v-156l-180 -21q-5 -123 -5 -247v-983h-342q-87 190 -198 392l-410 745v-713q0 -124 5 -247l186 -21v-156h-620z" />
    <glyph glyph-name="O" unicode="O" horiz-adv-x="1567" vert-adv-y="2458" 
d="M102 717q0 236 58 392q67 178 241 261q137 66 383 66q271 0 421 -85q105 -61 168 -170q93 -162 93 -473q0 -391 -148 -559q-89 -100 -229 -143q-115 -35 -304 -35q-220 0 -346 49q-202 78 -278 278q-59 153 -59 419zM372 719q0 -193 26 -299q35 -145 140 -201
q86 -47 246 -47q227 0 315 103q46 54 66 124q31 105 31 305q0 241 -46 345q-54 122 -165 160q-77 26 -201 26q-228 0 -315 -103q-45 -53 -66 -124q-31 -106 -31 -289z" />
    <glyph glyph-name="P" unicode="P" horiz-adv-x="1349" vert-adv-y="2458" 
d="M53 0v155l186 21q5 123 5 247v561q0 123 -5 247l-186 21v155h696q308 0 427 -102q120 -102 120 -337q0 -227 -116 -336q-110 -104 -431 -104h-247v-106q0 -126 5 -247l226 -21v-154h-680zM502 724h229q196 0 246 60q49 59 49 183q0 139 -59 194q-53 49 -236 49h-224
q-5 -142 -5 -229v-257z" />
    <glyph glyph-name="Q" unicode="Q" horiz-adv-x="1567" vert-adv-y="2458" 
d="M102 700q0 431 183 594q95 86 234 118q105 24 265 24q271 0 420 -85q106 -61 168 -170q93 -162 93 -474q0 -339 -104 -500q-99 -153 -286 -205q-50 -14 -137 -23q0 -7 1 -11q8 -117 39 -145q32 -29 117 -29h159v-180h-159q-265 0 -350 128q-39 59 -54 167q-4 22 -8 65
q-85 7 -147 18q-155 28 -263 134q-79 77 -115 179q-56 155 -56 395zM372 718q0 -195 25 -298q36 -145 140 -201q87 -47 247 -47q227 0 314 103q46 54 66 124q31 105 31 305q0 241 -46 345q-54 122 -165 160q-76 26 -201 26q-227 0 -314 -103q-46 -53 -66 -124
q-31 -104 -31 -290z" />
    <glyph glyph-name="R" unicode="R" horiz-adv-x="1416" vert-adv-y="2458" 
d="M53 0v155l186 21q5 124 5 248v561q0 124 -5 247l-186 21v154h698q206 0 342 -47q96 -33 152 -130q53 -92 53 -235q0 -178 -87 -281q-64 -77 -227 -109q52 -53 107 -149l94 -165q45 -77 74 -119l166 -16v-156h-374q-38 88 -86 173l-100 179q-93 162 -122 194
q-31 33 -98 33h-143v-155q0 -123 5 -248l228 -21v-155h-682zM502 776h234q187 0 237 50q55 54 55 164q0 128 -62 177q-55 44 -237 44h-222q-5 -137 -5 -228v-207z" />
    <glyph glyph-name="S" unicode="S" horiz-adv-x="1257" vert-adv-y="2458" 
d="M69 70l28 211q258 -105 509 -105q138 0 206 36q94 50 94 180q0 90 -55 131q-38 29 -105 48q-58 18 -137 40q-172 49 -248 84q-128 60 -174 141q-48 84 -48 196q0 120 55 219q104 185 420 185q212 0 441 -73l-25 -202q-236 75 -402 75q-226 0 -226 -188q0 -82 47 -119
q40 -31 101 -50q68 -20 178 -49q169 -46 246 -86q105 -55 149 -130q49 -82 49 -212q0 -161 -75 -266q-118 -165 -466 -165q-288 0 -562 99z" />
    <glyph glyph-name="T" unicode="T" horiz-adv-x="1357" vert-adv-y="2458" 
d="M48 1034v373h1260v-373h-167l-28 177h-302q-4 -96 -4 -223v-566q0 -132 5 -246l227 -21v-155h-722v155l227 21q5 129 5 246v566q0 83 -4 223h-302l-28 -177h-167z" />
    <glyph glyph-name="U" unicode="U" horiz-adv-x="1571" vert-adv-y="2458" 
d="M57 1251v156h612v-156l-186 -21q-5 -130 -5 -248v-512q0 -182 65 -235q38 -31 112 -49q62 -14 131 -14q124 0 215 44q43 21 61 59q32 68 32 195v512q0 118 -5 248l-187 21v156h613v-156l-158 -21q-5 -113 -5 -248v-528q0 -137 -21 -210q-77 -273 -545 -273
q-395 0 -514 198q-52 86 -52 285v528q0 138 -5 248z" />
    <glyph glyph-name="V" unicode="V" horiz-adv-x="1526" vert-adv-y="2458" 
d="M-9 1251v156h616v-156l-179 -11q13 -37 48 -129l291 -758l291 758q33 86 48 129l-179 11v156h608v-156l-151 -10q-51 -109 -84 -191l-429 -1050h-215l-431 1051q-34 84 -83 190z" />
    <glyph glyph-name="W" unicode="W" horiz-adv-x="2218" vert-adv-y="2458" 
d="M11 1251v156h616v-156l-193 -11q21 -88 38 -150l200 -759l317 1076h226l319 -1066l196 735q28 103 43 165l-183 10v156h616v-156l-158 -10q-44 -123 -66 -196l-317 -1045h-266l-301 1036l-303 -1036h-268l-315 1052q-25 84 -62 189z" />
    <glyph glyph-name="X" unicode="X" horiz-adv-x="1505" vert-adv-y="2458" 
d="M-20 0v156l166 12q74 87 121 150l323 434l-221 322l-119 167l-170 10v156h598v-156l-135 -10q54 -87 71 -111l157 -229l156 234q24 36 66 106l-135 10v156h588v-156l-164 -11q-55 -69 -121 -161l-264 -363l277 -403q46 -67 105 -145l219 -12v-156h-664v156l155 9l-78 118
l-192 281l-198 -280q-31 -44 -78 -119l129 -9v-156h-592z" />
    <glyph glyph-name="Y" unicode="Y" horiz-adv-x="1404" vert-adv-y="2458" 
d="M-4 1251v156h586v-156l-140 -10q24 -46 66 -120l194 -339l202 353l57 106l-140 10v156h574v-156l-146 -11l-36 -55l-65 -102l-323 -531v-128q0 -126 5 -247l226 -21v-156h-721v156l227 21q5 109 5 247v128l-309 506l-116 182z" />
    <glyph glyph-name="Z" unicode="Z" horiz-adv-x="1322" vert-adv-y="2458" 
d="M53 165l187 228l652 818h-552l-21 -175h-176v371h1073l15 -164l-9 -11q-121 -143 -181 -220l-652 -816h678l19 196h176v-392h-1205z" />
    <glyph glyph-name="bracketleft" unicode="[" horiz-adv-x="913" vert-adv-y="2458" 
d="M307 -336v1878h393v-176h-135v-1526h135v-176h-393z" />
    <glyph glyph-name="backslash" unicode="\" horiz-adv-x="657" vert-adv-y="2458" 
d="M35 1407h253l335 -1407h-253z" />
    <glyph glyph-name="bracketright" unicode="]" horiz-adv-x="913" vert-adv-y="2458" 
d="M213 -160h135v1526h-135v176h393v-1878h-393v176z" />
    <glyph glyph-name="asciicircum" unicode="^" vert-adv-y="2458" 
d="M98 656l495 774h132l495 -774h-297l-264 420l-264 -420h-297z" />
    <glyph glyph-name="underscore" unicode="_" vert-adv-y="2458" 
d="M48 -273h1223v-180h-1223v180z" />
    <glyph glyph-name="grave" unicode="`" horiz-adv-x="1024" vert-adv-y="2458" 
d="M223 1465h314l119 -322h-204z" />
    <glyph glyph-name="a" unicode="a" horiz-adv-x="1244" vert-adv-y="2458" 
d="M77 279q0 159 84 235q78 69 298 95q129 15 316 22v39q0 90 -20 119q-29 43 -159 43q-156 0 -404 -78l-35 185q243 85 477 85q248 0 333 -95q52 -57 63 -164q3 -25 3 -118v-322q0 -79 5 -161l170 -8v-156l-381 -28l-16 136q-56 -57 -104 -83q-101 -54 -274 -54
q-198 0 -282 80q-31 30 -50 85q-24 68 -24 143zM343 280q0 -65 37 -90q35 -25 117 -25q118 0 201 48q42 24 57 54q20 41 20 125v72q-284 -16 -353 -42q-79 -31 -79 -142z" />
    <glyph glyph-name="b" unicode="b" horiz-adv-x="1250" vert-adv-y="2458" 
d="M6 1329v148l426 48q-9 -246 -9 -365v-232q148 100 332 100q249 0 337 -158q40 -73 55 -178q9 -68 9 -192q0 -184 -27 -276q-41 -144 -166 -204q-100 -49 -250 -49q-146 0 -241 51q-37 20 -90 63l-11 -85h-223q17 212 17 318v805q0 89 -7 198zM423 256q39 -33 73 -50
q72 -38 194 -38q104 0 147 47q28 31 39 85q11 57 11 190q0 163 -14 217q-32 124 -185 124q-143 0 -265 -91v-484z" />
    <glyph glyph-name="c" unicode="c" horiz-adv-x="1008" vert-adv-y="2458" 
d="M94 482q0 296 136 432q113 114 335 114q212 0 364 -78l-24 -183q-167 65 -303 65q-119 0 -167 -59q-72 -88 -72 -292q0 -155 56 -232q58 -78 216 -78q122 0 284 61l33 -190q-148 -68 -355 -68q-261 0 -380 114q-123 119 -123 394z" />
    <glyph glyph-name="d" unicode="d" horiz-adv-x="1295" vert-adv-y="2458" 
d="M94 482q0 241 50 351q88 195 365 195q178 0 318 -100v195q0 93 -7 198l-152 8v148l426 48q-9 -250 -9 -365v-865q0 -47 5 -130l170 -8v-157l-383 -28l-17 112q-56 -45 -101 -68q-91 -45 -229 -45q-219 0 -326 100q-69 65 -94 186q-16 75 -16 225zM363 473q0 -158 19 -209
q23 -61 79 -82q35 -14 99 -14q132 0 214 50q25 15 53 38v485q-118 90 -261 90q-125 0 -167 -75q-23 -42 -28 -92q-8 -83 -8 -191z" />
    <glyph glyph-name="e" unicode="e" horiz-adv-x="1185" vert-adv-y="2458" 
d="M93 464q0 276 127 422q64 74 148 103q99 35 224 35q228 0 344 -97q80 -67 115 -167q40 -112 45 -330h-739q2 -101 19 -145q20 -50 56 -75q61 -43 202 -43q194 0 402 51l28 -191q-201 -56 -431 -56q-315 0 -430 114q-110 107 -110 379zM362 607h471q-9 72 -34 123
q-49 103 -196 103q-154 0 -208 -107q-25 -50 -33 -119z" />
    <glyph glyph-name="f" unicode="f" horiz-adv-x="796" vert-adv-y="2458" 
d="M16 807l30 188h165v135q0 153 50 242q76 134 280 134q122 0 279 -40l-26 -177q-116 26 -189 26q-96 0 -121 -79q-15 -50 -15 -136v-105h309l-29 -188h-280v-468q0 -70 5 -163l270 -19v-157h-696v156l158 24q5 64 5 144v483h-195z" />
    <glyph glyph-name="g" unicode="g" horiz-adv-x="1276" vert-adv-y="2458" 
d="M94 471q0 197 27 292q78 265 397 265q153 0 262 -58q34 -17 73 -46l16 71h339v-156l-130 -21q-5 -65 -5 -153v-485q0 -308 -32 -417q-38 -128 -136 -194q-126 -85 -377 -85q-189 0 -368 46l25 194q165 -48 319 -48q194 0 263 99q48 68 48 240v34q-113 -78 -281 -78
q-261 0 -361 134q-49 64 -67 162q-12 71 -12 204zM363 479q0 -150 14 -201q16 -55 52 -80q43 -30 135 -30q122 0 202 47q23 14 49 34v499q-115 83 -240 83q-130 0 -175 -78q-23 -39 -28 -85q-9 -81 -9 -189z" />
    <glyph glyph-name="h" unicode="h" horiz-adv-x="1394" vert-adv-y="2458" 
d="M41 0v156l170 21q6 76 6 129v817q0 91 -6 198l-152 8v148l425 47l-1 -44q-8 -223 -8 -320v-293q49 39 92 66q153 95 317 95q199 0 269 -112q47 -76 47 -270v-340q0 -72 5 -129l168 -21v-156h-584v156l148 21q5 62 5 128v327q0 98 -19 142q-22 50 -107 50
q-169 0 -341 -170v-349q0 -47 5 -128l149 -21v-156h-588z" />
    <glyph glyph-name="i" unicode="i" horiz-adv-x="696" vert-adv-y="2458" 
d="M32 0v156l192 21q5 88 5 129v325q0 135 -5 200l-165 8v156l436 27q-8 -213 -8 -350v-367q0 -42 2 -128l187 -21v-156h-644zM213 1163v277h276v-277h-276z" />
    <glyph glyph-name="j" unicode="j" horiz-adv-x="670" vert-adv-y="2458" 
d="M-87 -487l29 182q85 -20 137 -20q93 0 122 98q26 86 26 301v557q0 145 -5 200l-154 8v156l424 27l-1 -40l-2 -82q-4 -158 -4 -193v-606q0 -234 -22 -352q-30 -160 -138 -222q-75 -43 -195 -43q-103 0 -217 29zM211 1163v277h276v-277h-276z" />
    <glyph glyph-name="k" unicode="k" horiz-adv-x="1280" vert-adv-y="2458" 
d="M44 0v156l172 21q4 38 4 130v814q0 144 -4 200l-154 8v148l425 47q-2 -73 -4 -130q-5 -149 -5 -187v-564h118l123 147l33 42l-116 12v151h561v-156l-171 -18q-57 -56 -115 -119l-111 -118l216 -289q49 -65 101 -123l134 -16v-156h-322q-69 111 -118 181l-194 279h-139
v-154q0 -88 4 -129l158 -21v-156h-596z" />
    <glyph glyph-name="l" unicode="l" horiz-adv-x="711" vert-adv-y="2458" 
d="M47 0v156l175 21q5 38 5 129v817q0 93 -6 198l-154 8v148l427 48q-9 -249 -9 -365v-855q0 -88 4 -128l175 -21v-156h-617z" />
    <glyph glyph-name="m" unicode="m" horiz-adv-x="2063" vert-adv-y="2458" 
d="M44 0v156l180 21q5 75 5 129v325q0 120 -5 200l-153 8v156l398 28l6 -158q75 61 138 96q123 67 264 67q234 0 280 -170q199 170 412 170q142 0 217 -65q61 -52 75 -182q6 -47 6 -135v-340q0 -72 5 -129l170 -21v-156h-585v156l147 21q5 63 5 128v327q0 113 -19 148
q-24 44 -89 44q-166 0 -324 -161v-357q0 -74 4 -129l150 -21v-156h-564v156l147 21q5 64 5 128v327q0 113 -19 148q-24 44 -90 44q-165 0 -323 -161v-358q0 -47 5 -128l149 -21v-156h-597z" />
    <glyph glyph-name="n" unicode="n" horiz-adv-x="1398" vert-adv-y="2458" 
d="M44 0v156l180 21q5 75 5 130v325q0 119 -5 200l-153 8v155l398 28l6 -158q60 48 108 78q141 85 302 85q193 0 265 -101q53 -75 53 -281v-339q0 -73 5 -130l168 -21v-156h-584v156l148 21q5 63 5 129v326q0 97 -19 142q-21 50 -106 50q-173 0 -333 -161v-357q0 -48 5 -129
l149 -21v-156h-597z" />
    <glyph glyph-name="o" unicode="o" horiz-adv-x="1232" vert-adv-y="2458" 
d="M94 504q0 181 37 284q57 156 218 205q104 31 268 31t268 -31q161 -49 218 -205q37 -103 37 -290q0 -188 -37 -291q-57 -156 -218 -205q-103 -31 -268 -31t-268 31q-161 49 -218 205q-26 74 -32 151q-5 62 -5 146zM363 502q0 -141 14 -201q21 -88 104 -120q46 -18 136 -18
q151 0 207 67q31 37 40 114q7 54 7 154q0 136 -14 196q-22 88 -104 120q-46 18 -136 18q-151 0 -207 -66q-31 -37 -40 -115q-7 -54 -7 -149z" />
    <glyph glyph-name="p" unicode="p" horiz-adv-x="1253" vert-adv-y="2458" 
d="M-17 -340l180 22q5 37 5 128v821q0 117 -5 200l-153 8v156l397 28l7 -103q157 108 336 108q256 0 345 -157q41 -74 56 -181q9 -68 9 -192q0 -162 -19 -243q-35 -150 -138 -215q-108 -69 -284 -69q-179 0 -293 82v-243q0 -89 4 -128l233 -22v-156h-680v156zM426 256
q33 -27 62 -43q80 -45 205 -45q105 0 148 47q28 31 39 85q11 57 11 190q0 163 -14 217q-32 124 -184 124q-148 0 -267 -91v-484z" />
    <glyph glyph-name="q" unicode="q" horiz-adv-x="1270" vert-adv-y="2458" 
d="M94 473q0 160 17 245q34 165 141 239q106 72 275 72q155 0 270 -66q23 -13 57 -38l23 94h214q-6 -160 -6 -244v-965q0 -67 6 -129l180 -21v-156h-700v156l251 21q5 66 5 128v245l-4 -3q-41 -26 -75 -41q-88 -39 -216 -39q-242 0 -346 117q-60 67 -79 178q-13 72 -13 207z
M363 473q0 -158 19 -209q23 -61 79 -82q35 -14 98 -14q130 0 217 53q24 15 51 36v483q-108 92 -249 92q-134 0 -179 -80q-23 -41 -28 -89q-8 -83 -8 -190z" />
    <glyph glyph-name="r" unicode="r" horiz-adv-x="938" vert-adv-y="2458" 
d="M44 0v156l180 21q5 73 5 129v325q0 93 -5 200l-153 8v156l403 27q8 -117 14 -179q31 48 62 83q43 50 83 72q45 25 108 25q85 0 185 -44l-60 -185q-83 26 -137 26q-72 0 -137 -66q-68 -70 -105 -172v-277q0 -54 6 -128l239 -21v-156h-688z" />
    <glyph glyph-name="s" unicode="s" horiz-adv-x="1056" vert-adv-y="2458" 
d="M55 58l27 197q241 -87 452 -87q187 0 187 122q0 37 -25 59q-31 26 -123 44q-241 46 -329 87q-148 70 -148 241q0 176 137 253q89 51 236 51q199 0 429 -70l-30 -185q-217 63 -373 63q-141 0 -141 -106q0 -36 19 -57q26 -28 108 -44q281 -56 362 -95q73 -36 105 -89
q35 -60 35 -149q0 -186 -136 -262q-106 -60 -304 -60q-275 0 -488 87z" />
    <glyph glyph-name="t" unicode="t" horiz-adv-x="890" vert-adv-y="2458" 
d="M33 807l29 188h150l13 208l245 87v-295h373l-29 -188h-344v-438q0 -115 10 -149q15 -51 87 -51q113 0 265 59l27 -185q-159 -72 -356 -72q-128 0 -191 36q-75 44 -92 166q-8 55 -8 155v479h-179z" />
    <glyph glyph-name="u" unicode="u" horiz-adv-x="1316" vert-adv-y="2458" 
d="M24 839v156l419 28l-1 -31l-3 -108q-5 -142 -5 -176v-347q0 -131 35 -160q30 -26 83 -26q155 0 304 144v312q0 145 -5 200l-147 8v156l419 28l-1 -31l-3 -108q-5 -147 -5 -176v-344q0 -121 5 -200l163 -8v-155l-402 -28l-12 147q-53 -42 -94 -67q-135 -82 -291 -82
q-150 0 -227 66q-60 52 -75 178q-5 46 -5 133v283q0 145 -5 200z" />
    <glyph glyph-name="v" unicode="v" horiz-adv-x="1191" vert-adv-y="2458" 
d="M-58 839v156h589v-156l-152 -15q29 -85 56 -154l171 -434l166 434q24 64 55 155l-137 14v156h551v-156l-139 -16q-35 -71 -96 -213l-259 -610h-298l-262 611q-60 140 -97 215z" />
    <glyph glyph-name="w" unicode="w" horiz-adv-x="1712" vert-adv-y="2458" 
d="M-33 839v156h578v-156l-153 -16q19 -93 51 -207l93 -332l223 711h197l230 -714l91 343q28 106 47 199l-154 16v156h568v-156l-147 -16q-32 -80 -84 -243l-189 -580h-262l-199 624l-198 -624h-272l-189 581q-46 141 -84 242z" />
    <glyph glyph-name="x" unicode="x" horiz-adv-x="1225" vert-adv-y="2458" 
d="M-50 0v156l140 15q67 66 135 140l208 228l-134 148l-126 131l-147 21v156h532v-152l-95 -12l14 -18l34 -38l123 -138l111 140q20 26 39 54l-70 12v152h473v-156l-131 -22q-42 -42 -122 -131l-171 -191l159 -178q68 -76 137 -142l173 -19v-156h-582v152l114 17
q-30 38 -55 65l-145 160l-141 -168l-44 -56l121 -18v-152h-550z" />
    <glyph glyph-name="y" unicode="y" horiz-adv-x="1299" vert-adv-y="2458" 
d="M24 839v156l419 28l-1 -31q-8 -248 -8 -290v-341q0 -130 35 -160q31 -26 85 -26q152 0 302 144v312q0 119 -5 200l-147 8v156l419 28q-9 -269 -9 -355v-488q0 -307 -33 -414q-37 -121 -128 -185q-139 -97 -409 -97q-197 0 -382 45l25 192q180 -45 346 -45q193 0 259 79
q64 76 64 256v100q-59 -46 -114 -77q-115 -63 -257 -63q-151 0 -229 67q-60 51 -75 177q-5 46 -5 133v283q0 146 -5 200z" />
    <glyph glyph-name="z" unicode="z" horiz-adv-x="1156" vert-adv-y="2458" 
d="M53 162q15 16 55 54l168 167l426 430h-369l-32 -184h-194v366h934l15 -162l-197 -192l-459 -459h456l33 193h194v-375h-1021z" />
    <glyph glyph-name="braceleft" unicode="{" horiz-adv-x="913" vert-adv-y="2458" 
d="M146 592v118h69q45 0 80 29q30 24 34 86q1 16 1 106v159q0 147 5.5 201.5t23.5 100.5q28 68 69 99q69 51 240 51h162v-135h-84q-89 0 -128 -65q-18 -31 -22 -62q-8 -59 -8 -155v-163q0 -128 -5.5 -168.5t-27.5 -74.5q-25 -39 -82 -68q63 -31 88 -78q21 -39 26 -108
q1 -17 1 -125v-260q0 -138 14 -181q33 -101 144 -101h84v-134h-162q-203 0 -267 78q-54 64 -66 180q-5 47 -5 193v256q0 97 -2.5 123.5t-13.5 47.5q-9 17 -34 32q-30 18 -65 18h-69z" />
    <glyph glyph-name="bar" unicode="|" vert-adv-y="2458" 
d="M533 -478v1885h248v-1885h-248z" />
    <glyph glyph-name="braceright" unicode="}" horiz-adv-x="913" vert-adv-y="2458" 
d="M82 -202h84q89 0 128 65q18 31 22 62q8 58 8 155v260q0 132 6 168q18 98 109 143q-63 32 -88 79q-21 38 -26 107q-1 19 -1 125v163q0 138 -14 181q-33 101 -144 101h-84v135h162q204 0 268 -78q53 -66 65 -180q5 -48 5 -194v-159q0 -97 2.5 -123t13.5 -48q9 -17 34 -32
q30 -18 65 -18h69v-118h-69q-30 0 -59 -15t-40 -35q-15 -29 -16 -82v-89v-256q0 -146 -5 -193q-12 -116 -65 -180q-65 -78 -268 -78h-162v134z" />
    <glyph glyph-name="asciitilde" unicode="~" vert-adv-y="2458" 
d="M124 519q41 139 104 217q79 99 234 99q147 0 294 -99q94 -62 142 -62q43 0 69 28q40 41 76 136l153 -61q-45 -137 -81 -191q-81 -120 -237 -120q-136 0 -294 98q-101 64 -153 64q-94 0 -151 -165z" />
    <glyph glyph-name="uni00A0" unicode="&#xa0;" horiz-adv-x="492" vert-adv-y="2458" 
 />
    <glyph glyph-name="exclamdown" unicode="&#xa1;" horiz-adv-x="779" vert-adv-y="2458" 
d="M251 1163v277h280v-277h-280zM252 -49l30 1068h217l29 -1068h-276z" />
    <glyph glyph-name="cent" unicode="&#xa2;" vert-adv-y="2458" 
d="M143 850q0 372 221 481q96 47 240 60v195h193v-196q162 -18 289 -72l-26 -197q-151 53 -263 69v-653q136 16 278 69l31 -205q-132 -47 -309 -62v-223h-193v224q-197 16 -296 73q-96 55 -135 184q-30 99 -30 253zM412 847q0 -178 59 -241q42 -46 133 -61v640
q-97 -24 -139 -84q-53 -75 -53 -254z" />
    <glyph glyph-name="sterling" unicode="&#xa3;" vert-adv-y="2458" 
d="M154 616l14 197h173v245q0 192 95 281q104 97 330 97q179 0 389 -57l-24 -196q-199 52 -326 52q-141 0 -179 -69q-27 -49 -27 -128v-225h274l-15 -197h-259v-412h610l-15 -204h-1029l16 204h160v412h-187z" />
    <glyph glyph-name="currency" unicode="&#xa4;" vert-adv-y="2458" 
d="M93 242l127 131l-24 49q-32 72 -32 246q0 180 36 257q7 16 20 41l-127 131l149 156l140 -147q104 42 276 42q176 0 279 -42l140 147l149 -156l-127 -131q22 -40 30 -66q26 -75 26 -230q0 -178 -35 -256l-21 -41l127 -131l-149 -156l-140 147q-101 -42 -279 -42
q-174 0 -276 42l-140 -147zM425 691q0 -131 14 -185q20 -78 92 -104q44 -15 128 -15q141 0 188 53q25 27 34 68q12 52 12 162q0 137 -20 186q-24 58 -85 80q-43 16 -129 16q-108 0 -160 -30q-30 -18 -42 -43q-32 -64 -32 -188z" />
    <glyph glyph-name="yen" unicode="&#xa5;" vert-adv-y="2458" 
d="M-1 1251v156h541v-156l-119 -10q23 -49 60 -120l179 -339l186 353q21 39 53 106l-120 10v156h529v-156l-122 -11l-33 -55l-63 -102l-188 -326h258l-20 -170h-336l-21 -36v-59h377l-20 -170h-356q0 -44 4 -145l226 -21v-156h-721v156l227 21q3 63 4 145h-377l20 170h358
v59l-21 36h-357l20 170h238l-174 300l-110 183z" />
    <glyph glyph-name="brokenbar" unicode="&#xa6;" vert-adv-y="2458" 
d="M533 0v552h248v-552h-248zM533 824v583h248v-583h-248z" />
    <glyph glyph-name="section" unicode="&#xa7;" vert-adv-y="2458" 
d="M190 612q0 110 62 174q40 42 124 83q-116 87 -116 237q0 134 77 221q101 113 347 113q168 0 357 -57l-27 -193q-176 53 -290 53q-103 0 -156 -27q-55 -28 -55 -97q0 -52 39 -83q36 -29 83 -45q55 -18 130 -36q153 -38 217 -68q172 -82 172 -258q0 -108 -61 -170
q-41 -42 -132 -84q62 -34 95 -67q64 -65 64 -180q0 -127 -76 -213q-110 -125 -438 -125q-223 0 -414 53l29 193q199 -50 393 -50q253 0 253 131q0 54 -39 85t-94 45q-36 10 -159 39q-197 47 -284 110q-101 72 -101 216zM443 654q0 -87 100 -127q30 -12 258 -70
q100 47 100 131q0 79 -89 117q-34 15 -285 77q-84 -51 -84 -128z" />
    <glyph glyph-name="dieresis" unicode="&#xa8;" horiz-adv-x="1024" vert-adv-y="2458" 
d="M200 1163v277h253v-277h-253zM571 1163v277h253v-277h-253z" />
    <glyph glyph-name="copyright" unicode="&#xa9;" horiz-adv-x="1778" vert-adv-y="2458" 
d="M111 760q0 213 108 398q103 175 260 264q177 102 410 102q367 0 583 -245q195 -222 195 -531q0 -224 -108 -410q-211 -367 -677 -367q-362 0 -576 245q-195 222 -195 544zM219 756q0 -286 166 -477q190 -218 505 -218q189 0 344 87q149 83 231 232q94 170 94 368
q0 203 -94 367q-87 151 -231 232q-154 87 -346 87q-307 0 -497 -212q-172 -192 -172 -466zM527 738q0 413 387 413q131 0 264 -46l-16 -121q-133 47 -228 47q-135 0 -194 -65q-58 -65 -58 -229q0 -124 35 -183q54 -92 218 -92q116 0 243 46l15 -121q-112 -45 -255 -45
q-250 0 -345 129q-66 88 -66 267z" />
    <glyph glyph-name="ordfeminine" unicode="&#xaa;" horiz-adv-x="798" vert-adv-y="2458" 
d="M40 957q0 127 79 174q81 48 361 57v25q0 51 -12 66q-14 16 -69 16q-104 0 -283 -52l-29 135q162 58 320 58q178 0 232 -67q29 -37 35 -99q1 -14 1 -71v-222q0 -42 2 -82l108 -4v-117l-259 -19l-12 75q-79 -74 -250 -74q-224 0 -224 201zM242 964q0 -66 76 -66
q104 0 141 40q21 22 21 81v37q-139 -7 -182 -19q-56 -15 -56 -73z" />
    <glyph glyph-name="guillemotleft" unicode="&#xab;" horiz-adv-x="1059" vert-adv-y="2458" 
d="M72 561v60l363 377l132 -101l-215 -306l215 -306l-132 -101zM496 561v60l363 377l132 -101l-215 -306l215 -306l-132 -101z" />
    <glyph glyph-name="logicalnot" unicode="&#xac;" vert-adv-y="2458" 
d="M181 552v197h924v-608h-233v411h-691z" />
    <glyph glyph-name="uni00AD" unicode="&#xad;" horiz-adv-x="808" vert-adv-y="2458" 
d="M78 548l17 205h635l-17 -205h-635z" />
    <glyph glyph-name="registered" unicode="&#xae;" horiz-adv-x="1251" vert-adv-y="2458" 
d="M82 1142q0 156 75 289q70 124 190 191q125 70 278 70q251 0 405 -173q139 -155 139 -384q0 -160 -75 -296q-68 -123 -190 -191q-125 -70 -279 -70q-250 0 -405 173q-138 156 -138 391zM187 1143q0 -237 145 -368q118 -106 290 -106q206 0 328 137q60 69 91 171
q23 79 23 158q0 227 -146 360q-116 106 -293 106q-201 0 -323 -138q-53 -59 -84 -145t-31 -175zM373 875v67l76 7v16v9v34v28v210v28v34v9v16l-76 8v66h283q140 0 182 -50q35 -42 35 -109q0 -122 -117 -147q22 -28 34 -49l38 -61q16 -26 27 -42l69 -7v-68h-152q-7 19 -34 64
l-41 70q-40 66 -55 76q-9 6 -35 6h-54v-54q0 -45 2 -69v-6q0 -4 -2 -12l96 -7v-67h-276zM553 1172h96q83 0 101 22q16 18 16 54q0 40 -19 57q-20 18 -98 18h-96q2 -16 2 -21l-2 -59v-71z" />
    <glyph glyph-name="macron" unicode="&#xaf;" horiz-adv-x="1024" vert-adv-y="2458" 
d="M193 1202v197h637v-197h-637z" />
    <glyph glyph-name="degree" unicode="&#xb0;" horiz-adv-x="659" vert-adv-y="2458" 
d="M-3 1158q0 142 87 231q86 90 246 90q159 0 245 -90q87 -90 87 -234t-87 -235q-85 -90 -245 -90q-161 0 -246 90q-87 91 -87 238zM180 1157q0 -168 149 -168q150 0 150 166q0 165 -150 165q-149 0 -149 -163z" />
    <glyph glyph-name="plusminus" unicode="&#xb1;" vert-adv-y="2458" 
d="M126 0l16 197h1050l-16 -197h-1050zM126 622l16 197h401v370h233v-370h417l-16 -197h-401v-335h-233v335h-417z" />
    <glyph glyph-name="uni00B2" unicode="&#xb2;" horiz-adv-x="879" vert-adv-y="2458" 
d="M87 550v137l305 282q79 74 114 125.5t35 95.5q0 88 -115 88q-76 0 -158 -24l-11 -106h-143v214q152 62 333 62q180 0 246 -75q50 -56 50 -156q0 -94 -47 -165q-40 -62 -161 -169l-180 -161h273l10 95h143v-243h-694z" />
    <glyph glyph-name="uni00B3" unicode="&#xb3;" horiz-adv-x="879" vert-adv-y="2458" 
d="M78 581v212h142l11 -97q81 -18 182 -18q106 0 137 37q28 33 28 103q0 71 -42 94q-29 17 -108 17h-117v144h136q105 0 105 95q0 60 -28 85t-101 25q-82 0 -167 -25l-10 -105h-143v220q156 56 329 56q150 0 224 -43q99 -56 99 -206q0 -91 -45 -134q-16 -15 -47 -33
q48 -24 72 -50q46 -51 46 -153q0 -182 -134 -239q-80 -34 -223 -34q-192 0 -346 49z" />
    <glyph glyph-name="acute" unicode="&#xb4;" horiz-adv-x="1024" vert-adv-y="2458" 
d="M385 1143l120 322h313l-229 -322h-204z" />
    <glyph glyph-name="uni00B5" unicode="&#xb5;" vert-adv-y="2458" 
d="M12 843v152l422 32l-1 -33l-3 -108q-5 -147 -5 -176v-343q0 -120 21 -157q22 -40 77 -40q160 0 331 134v333q0 144 -5 197l-150 9v152l422 32l-1 -33l-3 -108q-5 -147 -5 -176v-347q0 -121 5 -198l171 -7v-154l-415 -29l-5 103q-87 -48 -142 -64q-67 -18 -182 -34
q-48 -7 -71 -7q-16 0 -48 3v-425l-264 -57q6 292 6 450v693q0 144 -6 197z" />
    <glyph glyph-name="paragraph" unicode="&#xb6;" horiz-adv-x="1415" vert-adv-y="2458" 
d="M20 975q0 172 81 289q89 128 276 140q42 3 199 3h758v-158l-170 -21q-5 -115 -5 -267v-1015q0 -148 5 -247l170 -21v-156h-1067v156l214 21q5 110 5 247v598h-35q-119 0 -164 13q-118 34 -186 132q-81 116 -81 286zM735 -54q0 -121 5 -244h165q5 120 5 244v1246h-175
v-1246z" />
    <glyph glyph-name="periodcentered" unicode="&#xb7;" horiz-adv-x="659" vert-adv-y="2458" 
d="M177 503v294h305v-294h-305z" />
    <glyph glyph-name="cedilla" unicode="&#xb8;" horiz-adv-x="1024" vert-adv-y="2458" 
d="M309 -461l30 133q112 -28 196 -28q80 0 80 70q0 41 -28 54q-44 21 -169 24l-22 52l122 211h173l-81 -148q114 -15 170 -49q64 -39 64 -148q0 -107 -63 -163q-64 -56 -189 -56q-132 0 -283 48z" />
    <glyph glyph-name="uni00B9" unicode="&#xb9;" horiz-adv-x="879" vert-adv-y="2458" 
d="M148 550v130l228 10v550l-177 -45l-39 133l264 84h147v-722l212 -10v-130h-635z" />
    <glyph glyph-name="ordmasculine" unicode="&#xba;" horiz-adv-x="798" vert-adv-y="2458" 
d="M56 1102q0 108 19 165q33 95 117 136q67 33 206 33q203 0 277 -84q46 -52 60 -135q7 -41 7 -121q0 -113 -20 -170q-32 -95 -115 -136q-68 -33 -208 -33q-195 0 -269 76q-51 53 -67 141q-7 41 -7 128zM258 1103q0 -113 26 -158q27 -47 118 -47q85 0 114 50q24 41 24 149
t-24 148q-30 50 -117 50q-88 0 -117 -50q-24 -41 -24 -142z" />
    <glyph glyph-name="guillemotright" unicode="&#xbb;" horiz-adv-x="1059" vert-adv-y="2458" 
d="M68 285l215 306l-215 306l132 101l363 -377v-60l-363 -377zM491 285l215 306l-215 306l132 101l363 -377v-60l-363 -377z" />
    <glyph glyph-name="onequarter" unicode="&#xbc;" horiz-adv-x="2092" vert-adv-y="2458" 
d="M125 550v130l228 10v550l-177 -45l-39 133l264 84h147v-722l212 -10v-130h-635zM544 0l769 1407h200l-768 -1407h-201zM1210 199v142l161 280q44 78 44 147v101h175v-109q0 -76 -21 -137q-14 -42 -51 -107l-97 -169h231v336h189v-336h144l-12 -148h-132v-10q0 -8 1 -21
l32 -3v-165h-264v165l41 3q1 16 1 20v11h-442z" />
    <glyph glyph-name="onehalf" unicode="&#xbd;" horiz-adv-x="2092" vert-adv-y="2458" 
d="M112 550v130l228 10v550l-177 -45l-39 133l264 84h147v-722l212 -10v-130h-635zM520 0l769 1407h200l-769 -1407h-200zM1265 0v137l304 283q101 94 138 166q11 21 11 55q0 88 -115 88q-76 0 -158 -25l-11 -105h-142v213q151 63 332 63q180 0 246 -75q50 -57 50 -156
q0 -94 -47 -165q-39 -61 -161 -169l-180 -162h273l11 96h142v-244h-693z" />
    <glyph glyph-name="threequarters" unicode="&#xbe;" horiz-adv-x="2092" vert-adv-y="2458" 
d="M110 581v212h142l11 -97q81 -18 182 -18q106 0 137 37q28 33 28 103q0 71 -42 94q-29 17 -108 17h-117v144h136q105 0 105 95q0 60 -28 85t-101 25q-82 0 -167 -25l-10 -105h-143v220q156 56 329 56q150 0 224 -43q99 -56 99 -206q0 -91 -45 -134q-16 -15 -47 -33
q48 -24 72 -50q46 -51 46 -153q0 -182 -134 -239q-80 -34 -223 -34q-192 0 -346 49zM588 0l768 1407h201l-769 -1407h-200zM1238 199v142l160 280q44 78 44 147v101h175v-109q0 -75 -21 -137q-14 -42 -51 -107l-97 -169h231v336h189v-336h145l-12 -148h-133v-10q0 -13 1 -21
l33 -3v-165h-265v165l41 3q1 10 1 20v11h-441z" />
    <glyph glyph-name="questiondown" unicode="&#xbf;" horiz-adv-x="992" vert-adv-y="2458" 
d="M111 248q0 134 62 227q51 78 144 172q93 95 115 147q12 28 12 90v135h242v-149q0 -109 -20 -158q-20 -52 -104 -136q-119 -120 -153 -188q-29 -60 -29 -118q0 -137 163 -137q130 0 316 50l24 -191q-177 -60 -372 -60q-172 0 -266 53q-134 75 -134 263zM417 1163v277h280
v-277h-280z" />
    <glyph glyph-name="Agrave" unicode="&#xc0;" horiz-adv-x="1586" vert-adv-y="2458" 
d="M-57 0v156l162 10q26 50 73 163l327 771q23 52 52 135l-158 16v156h561q61 -166 126 -321l312 -746q33 -78 79 -175l161 -9v-156h-628v156l182 10q-23 66 -40 109l-47 118h-649l-47 -118q-26 -65 -41 -110l166 -9v-156h-591zM533 589h494l-247 622zM456 1851h314
l119 -322h-204z" />
    <glyph glyph-name="Aacute" unicode="&#xc1;" horiz-adv-x="1586" vert-adv-y="2458" 
d="M-57 0v156l162 10q26 50 73 163l327 771q23 52 52 135l-158 16v156h561q61 -166 126 -321l312 -746q33 -78 79 -175l161 -9v-156h-628v156l182 10q-23 66 -40 109l-47 118h-649l-47 -118q-26 -65 -41 -110l166 -9v-156h-591zM533 589h494l-247 622zM668 1529l120 322h313
l-229 -322h-204z" />
    <glyph glyph-name="Acircumflex" unicode="&#xc2;" horiz-adv-x="1586" vert-adv-y="2458" 
d="M-57 0v156l162 10q26 50 73 163l327 771q23 52 52 135l-158 16v156h561q61 -166 126 -321l312 -746q33 -78 79 -175l161 -9v-156h-628v156l182 10q-23 66 -40 109l-47 118h-649l-47 -118q-26 -65 -41 -110l166 -9v-156h-591zM533 589h494l-247 622zM342 1529l282 322h241
l282 -322h-242l-161 154l-160 -154h-242z" />
    <glyph glyph-name="Atilde" unicode="&#xc3;" horiz-adv-x="1586" vert-adv-y="2458" 
d="M-57 0v156l162 10q26 50 73 163l327 771q23 52 52 135l-158 16v156h561q61 -166 126 -321l312 -746q33 -78 79 -175l161 -9v-156h-628v156l182 10q-23 66 -40 109l-47 118h-649l-47 -118q-26 -65 -41 -110l166 -9v-156h-591zM533 589h494l-247 622zM303 1551
q30 127 88 201q66 85 197 85q117 0 227 -74q57 -39 86 -39q55 0 82 103h191q-20 -131 -72 -207q-57 -83 -193 -83q-119 0 -236 73q-64 40 -102 40q-49 0 -77 -99h-191z" />
    <glyph glyph-name="Adieresis" unicode="&#xc4;" horiz-adv-x="1586" vert-adv-y="2458" 
d="M-57 0v156l162 10q26 50 73 163l327 771q23 52 52 135l-158 16v156h561q61 -166 126 -321l312 -746q33 -78 79 -175l161 -9v-156h-628v156l182 10q-23 66 -40 109l-47 118h-649l-47 -118q-26 -65 -41 -110l166 -9v-156h-591zM414 1547v277h253v-277h-253zM533 589h494
l-247 622zM822 1547v277h253v-277h-253z" />
    <glyph glyph-name="Aring" unicode="&#xc5;" horiz-adv-x="1586" vert-adv-y="2458" 
d="M-57 0v156l162 10q26 50 73 163l327 771q23 52 52 135l-158 16v156h561q61 -166 126 -321l312 -746q33 -78 79 -175l161 -9v-156h-628v156l182 10q-23 66 -40 109l-47 118h-649l-47 -118q-26 -65 -41 -110l166 -9v-156h-591zM533 589h494l-247 622zM540 1732
q0 106 71 170q61 56 169 56q111 0 174 -71q55 -62 55 -157q0 -109 -71 -172q-61 -55 -162 -55q-118 0 -181 71q-55 63 -55 158zM673 1732q0 -57 32 -86q27 -24 69 -24q50 0 77 31q25 29 25 78q0 55 -32 84q-27 24 -68 24q-44 0 -71 -24q-32 -29 -32 -83z" />
    <glyph glyph-name="AE" unicode="&#xc6;" horiz-adv-x="2045" vert-adv-y="2458" 
d="M-122 0v156l160 11q49 72 104 163l463 772q48 81 76 133l-182 16v156h1432v-356h-179l-21 159h-543q-4 -123 -4 -228v-144h519l-16 -197h-503v-216q0 -101 4 -228h570l19 168h179v-365h-1173v156l137 21q1 14 1 27l1 47q2 56 2 79l1 47v4h-494l-62 -107q-26 -43 -59 -107
l130 -11v-156h-562zM538 568h387v673z" />
    <glyph glyph-name="Ccedilla" unicode="&#xc7;" horiz-adv-x="1244" vert-adv-y="2458" 
d="M102 681q0 440 195 617q153 138 438 138q188 0 410 -73l-26 -203q-201 76 -371 76q-154 0 -238 -72q-88 -77 -119 -235q-19 -96 -19 -245q0 -203 38 -307q50 -137 173 -178q84 -27 190 -27q162 0 370 77l28 -208q-165 -65 -397 -69l-36 -65q115 -15 171 -49
q64 -39 64 -148q0 -106 -64 -163q-63 -56 -188 -56q-133 0 -284 48l30 133q112 -28 197 -28q80 0 80 70q0 41 -28 54q-44 21 -169 24l-23 52l79 136q-152 19 -247 75q-145 86 -206 266q-48 139 -48 360z" />
    <glyph glyph-name="Egrave" unicode="&#xc8;" horiz-adv-x="1404" vert-adv-y="2458" 
d="M53 0v156l186 22q5 122 5 247v558q0 123 -5 246l-186 22v156h1237v-356h-179l-21 159h-584q-4 -127 -4 -227v-145h560l-16 -197h-544v-216q0 -97 4 -228h611l19 168h179v-365h-1262zM444 1851h314l119 -322h-204z" />
    <glyph glyph-name="Eacute" unicode="&#xc9;" horiz-adv-x="1404" vert-adv-y="2458" 
d="M53 0v156l186 22q5 122 5 247v558q0 123 -5 246l-186 22v156h1237v-356h-179l-21 159h-584q-4 -127 -4 -227v-145h560l-16 -197h-544v-216q0 -97 4 -228h611l19 168h179v-365h-1262zM613 1529l120 322h313l-229 -322h-204z" />
    <glyph glyph-name="Ecircumflex" unicode="&#xca;" horiz-adv-x="1404" vert-adv-y="2458" 
d="M53 0v156l186 22q5 122 5 247v558q0 123 -5 246l-186 22v156h1237v-356h-179l-21 159h-584q-4 -127 -4 -227v-145h560l-16 -197h-544v-216q0 -97 4 -228h611l19 168h179v-365h-1262zM300 1529l282 322h241l282 -322h-242l-161 154l-160 -154h-242z" />
    <glyph glyph-name="Edieresis" unicode="&#xcb;" horiz-adv-x="1404" vert-adv-y="2458" 
d="M53 0v156l186 22q5 122 5 247v558q0 123 -5 246l-186 22v156h1237v-356h-179l-21 159h-584q-4 -127 -4 -227v-145h560l-16 -197h-544v-216q0 -97 4 -228h611l19 168h179v-365h-1262zM390 1547v277h253v-277h-253zM798 1547v277h253v-277h-253z" />
    <glyph glyph-name="Igrave" unicode="&#xcc;" horiz-adv-x="744" vert-adv-y="2458" 
d="M53 0v156l186 21q5 123 5 247v559q0 124 -5 247l-186 21v156h639v-156l-185 -21q-5 -123 -5 -247v-559q0 -124 5 -247l185 -21v-156h-639zM66 1851h314l119 -322h-204z" />
    <glyph glyph-name="Iacute" unicode="&#xcd;" horiz-adv-x="744" vert-adv-y="2458" 
d="M53 0v156l186 21q5 123 5 247v559q0 124 -5 247l-186 21v156h639v-156l-185 -21q-5 -123 -5 -247v-559q0 -124 5 -247l185 -21v-156h-639zM271 1529l120 322h313l-229 -322h-204z" />
    <glyph glyph-name="Icircumflex" unicode="&#xce;" horiz-adv-x="744" vert-adv-y="2458" 
d="M53 0v156l186 21q5 123 5 247v559q0 124 -5 247l-186 21v156h639v-156l-185 -21q-5 -123 -5 -247v-559q0 -124 5 -247l185 -21v-156h-639zM-30 1529l282 322h241l282 -322h-242l-161 154l-160 -154h-242z" />
    <glyph glyph-name="Idieresis" unicode="&#xcf;" horiz-adv-x="744" vert-adv-y="2458" 
d="M53 0v156l186 21q5 123 5 247v559q0 124 -5 247l-186 21v156h639v-156l-185 -21q-5 -123 -5 -247v-559q0 -124 5 -247l185 -21v-156h-639zM42 1547v277h253v-277h-253zM450 1547v277h253v-277h-253z" />
    <glyph glyph-name="Eth" unicode="&#xd0;" horiz-adv-x="1494" vert-adv-y="2458" 
d="M33 634l15 199h195v149q0 124 -5 247l-185 22v156h759q202 0 324 -60q140 -68 214 -220q86 -176 86 -422q0 -370 -175 -550q-92 -94 -227 -130q-91 -25 -236 -25h-745v156l185 22q5 122 5 246v210h-210zM501 425q0 -97 4 -228h263q127 0 195 35q105 53 152 175
q51 130 51 305q0 277 -115 406q-50 57 -130 77q-58 15 -154 15h-262q-4 -101 -4 -227v-150h335l-16 -199h-319v-209z" />
    <glyph glyph-name="Ntilde" unicode="&#xd1;" horiz-adv-x="1681" vert-adv-y="2458" 
d="M61 0v156l186 21q5 123 5 247v559q0 124 -5 247l-186 21v156h553q90 -186 164 -323l424 -785v684q0 136 -5 247l-186 21v156h614v-156l-180 -21q-5 -123 -5 -247v-983h-342q-87 190 -198 392l-410 745v-713q0 -124 5 -247l186 -21v-156h-620zM435 1551q30 127 88 201
q66 85 197 85q117 0 227 -74q57 -39 86 -39q55 0 82 103h191q-20 -131 -72 -207q-57 -83 -193 -83q-119 0 -236 73q-64 40 -102 40q-49 0 -77 -99h-191z" />
    <glyph glyph-name="Ograve" unicode="&#xd2;" horiz-adv-x="1567" vert-adv-y="2458" 
d="M102 717q0 236 58 392q67 178 241 261q137 66 383 66q271 0 421 -85q105 -61 168 -170q93 -162 93 -473q0 -391 -148 -559q-89 -100 -229 -143q-115 -35 -304 -35q-220 0 -346 49q-202 78 -278 278q-59 153 -59 419zM372 719q0 -193 26 -299q35 -145 140 -201
q86 -47 246 -47q227 0 315 103q46 54 66 124q31 105 31 305q0 241 -46 345q-54 122 -165 160q-77 26 -201 26q-228 0 -315 -103q-45 -53 -66 -124q-31 -106 -31 -289zM495 1851h314l119 -322h-204z" />
    <glyph glyph-name="Oacute" unicode="&#xd3;" horiz-adv-x="1567" vert-adv-y="2458" 
d="M102 717q0 236 58 392q67 178 241 261q137 66 383 66q271 0 421 -85q105 -61 168 -170q93 -162 93 -473q0 -391 -148 -559q-89 -100 -229 -143q-115 -35 -304 -35q-220 0 -346 49q-202 78 -278 278q-59 153 -59 419zM372 719q0 -193 26 -299q35 -145 140 -201
q86 -47 246 -47q227 0 315 103q46 54 66 124q31 105 31 305q0 241 -46 345q-54 122 -165 160q-77 26 -201 26q-228 0 -315 -103q-45 -53 -66 -124q-31 -106 -31 -289zM670 1529l120 322h313l-229 -322h-204z" />
    <glyph glyph-name="Ocircumflex" unicode="&#xd4;" horiz-adv-x="1567" vert-adv-y="2458" 
d="M102 717q0 236 58 392q67 178 241 261q137 66 383 66q271 0 421 -85q105 -61 168 -170q93 -162 93 -473q0 -391 -148 -559q-89 -100 -229 -143q-115 -35 -304 -35q-220 0 -346 49q-202 78 -278 278q-59 153 -59 419zM372 719q0 -193 26 -299q35 -145 140 -201
q86 -47 246 -47q227 0 315 103q46 54 66 124q31 105 31 305q0 241 -46 345q-54 122 -165 160q-77 26 -201 26q-228 0 -315 -103q-45 -53 -66 -124q-31 -106 -31 -289zM381 1529l282 322h241l282 -322h-242l-161 154l-160 -154h-242z" />
    <glyph glyph-name="Otilde" unicode="&#xd5;" horiz-adv-x="1567" vert-adv-y="2458" 
d="M102 717q0 236 58 392q67 178 241 261q137 66 383 66q271 0 421 -85q105 -61 168 -170q93 -162 93 -473q0 -391 -148 -559q-89 -100 -229 -143q-115 -35 -304 -35q-220 0 -346 49q-202 78 -278 278q-59 153 -59 419zM372 719q0 -193 26 -299q35 -145 140 -201
q86 -47 246 -47q227 0 315 103q46 54 66 124q31 105 31 305q0 241 -46 345q-54 122 -165 160q-77 26 -201 26q-228 0 -315 -103q-45 -53 -66 -124q-31 -106 -31 -289zM348 1551q30 127 88 201q66 85 197 85q117 0 227 -74q57 -39 86 -39q55 0 82 103h191q-20 -131 -72 -207
q-57 -83 -193 -83q-119 0 -236 73q-64 40 -102 40q-49 0 -77 -99h-191z" />
    <glyph glyph-name="Odieresis" unicode="&#xd6;" horiz-adv-x="1567" vert-adv-y="2458" 
d="M102 717q0 236 58 392q67 178 241 261q137 66 383 66q271 0 421 -85q105 -61 168 -170q93 -162 93 -473q0 -391 -148 -559q-89 -100 -229 -143q-115 -35 -304 -35q-220 0 -346 49q-202 78 -278 278q-59 153 -59 419zM372 719q0 -193 26 -299q35 -145 140 -201
q86 -47 246 -47q227 0 315 103q46 54 66 124q31 105 31 305q0 241 -46 345q-54 122 -165 160q-77 26 -201 26q-228 0 -315 -103q-45 -53 -66 -124q-31 -106 -31 -289zM453 1547v277h253v-277h-253zM861 1547v277h253v-277h-253z" />
    <glyph glyph-name="multiply" unicode="&#xd7;" vert-adv-y="2458" 
d="M182 332l322 319l-322 319l159 159l323 -319l321 318l160 -158l-322 -319l322 -319l-159 -158l-322 319l-322 -319z" />
    <glyph glyph-name="Oslash" unicode="&#xd8;" horiz-adv-x="1568" vert-adv-y="2458" 
d="M90 53l123 145q-111 162 -111 506q0 317 93 477q94 162 284 220q115 35 305 35q201 0 323 -43q43 -15 89 -39l102 120l159 -120l-112 -131q122 -169 122 -519q0 -317 -93 -478q-94 -162 -284 -220q-115 -35 -304 -35q-208 0 -331 44q-48 18 -95 45l-106 -126zM372 702
q0 -186 26 -286l649 762q-89 57 -257 57q-130 0 -206 -26q-112 -38 -166 -161q-46 -102 -46 -346zM509 236q88 -64 272 -64q169 0 255 50q101 57 135 198q26 104 26 284q0 197 -32 305z" />
    <glyph glyph-name="Ugrave" unicode="&#xd9;" horiz-adv-x="1571" vert-adv-y="2458" 
d="M57 1251v156h612v-156l-186 -21q-5 -130 -5 -248v-512q0 -182 65 -235q38 -31 112 -49q62 -14 131 -14q124 0 215 44q43 21 61 59q32 68 32 195v512q0 118 -5 248l-187 21v156h613v-156l-158 -21q-5 -113 -5 -248v-528q0 -137 -21 -210q-77 -273 -545 -273
q-395 0 -514 198q-52 86 -52 285v528q0 138 -5 248zM491 1851h314l119 -322h-204z" />
    <glyph glyph-name="Uacute" unicode="&#xda;" horiz-adv-x="1571" vert-adv-y="2458" 
d="M57 1251v156h612v-156l-186 -21q-5 -130 -5 -248v-512q0 -182 65 -235q38 -31 112 -49q62 -14 131 -14q124 0 215 44q43 21 61 59q32 68 32 195v512q0 118 -5 248l-187 21v156h613v-156l-158 -21q-5 -113 -5 -248v-528q0 -137 -21 -210q-77 -273 -545 -273
q-395 0 -514 198q-52 86 -52 285v528q0 138 -5 248zM679 1529l120 322h313l-229 -322h-204z" />
    <glyph glyph-name="Ucircumflex" unicode="&#xdb;" horiz-adv-x="1571" vert-adv-y="2458" 
d="M57 1251v156h612v-156l-186 -21q-5 -130 -5 -248v-512q0 -182 65 -235q38 -31 112 -49q62 -14 131 -14q124 0 215 44q43 21 61 59q32 68 32 195v512q0 118 -5 248l-187 21v156h613v-156l-158 -21q-5 -113 -5 -248v-528q0 -137 -21 -210q-77 -273 -545 -273
q-395 0 -514 198q-52 86 -52 285v528q0 138 -5 248zM384 1529l282 322h241l282 -322h-242l-161 154l-160 -154h-242z" />
    <glyph glyph-name="Udieresis" unicode="&#xdc;" horiz-adv-x="1571" vert-adv-y="2458" 
d="M57 1251v156h612v-156l-186 -21q-5 -130 -5 -248v-512q0 -182 65 -235q38 -31 112 -49q62 -14 131 -14q124 0 215 44q43 21 61 59q32 68 32 195v512q0 118 -5 248l-187 21v156h613v-156l-158 -21q-5 -113 -5 -248v-528q0 -137 -21 -210q-77 -273 -545 -273
q-395 0 -514 198q-52 86 -52 285v528q0 138 -5 248zM455 1547v277h253v-277h-253zM864 1547v277h253v-277h-253z" />
    <glyph glyph-name="Yacute" unicode="&#xdd;" horiz-adv-x="1404" vert-adv-y="2458" 
d="M-4 1251v156h586v-156l-140 -10q24 -46 66 -120l194 -339l202 353l57 106l-140 10v156h574v-156l-146 -11l-36 -55l-65 -102l-323 -531v-128q0 -126 5 -247l226 -21v-156h-721v156l227 21q5 109 5 247v128l-309 506l-116 182zM594 1529l120 322h313l-229 -322h-204z" />
    <glyph glyph-name="Thorn" unicode="&#xde;" horiz-adv-x="1342" vert-adv-y="2458" 
d="M53 0v156l186 21q5 123 5 247v558q0 124 -5 247l-186 22v156h611v-156l-157 -22q-2 -65 -3 -88h239q220 0 347 -52q98 -41 151 -149q44 -89 44 -220q0 -205 -111 -309q-40 -36 -84 -54q-122 -47 -349 -47h-238q1 -57 4 -133l226 -21v-156h-680zM502 512h212q202 0 253 62
q46 55 46 153q0 109 -56 163q-53 50 -238 50h-217v-428z" />
    <glyph glyph-name="germandbls" unicode="&#xdf;" horiz-adv-x="1364" vert-adv-y="2458" 
d="M59 808l28 187h146v79q0 217 102 316q119 116 375 116q469 0 469 -333q0 -180 -163 -285q-55 -36 -72 -63q-7 -12 -7 -33q0 -27 17 -45q20 -20 103 -64q111 -59 159 -112q38 -43 53 -88q22 -66 22 -160q0 -178 -70 -257q-81 -91 -267 -91q-129 0 -246 32l22 178
q101 -22 184 -22q71 0 95 36q21 32 21 116q0 70 -21 102q-21 31 -109 81q-130 74 -167 115q-49 55 -49 149q0 81 29 133q31 54 114 118q59 45 73 66q25 37 25 86q0 69 -40 103q-47 41 -165 41q-103 0 -153 -36q-55 -39 -69 -157q-7 -64 -7 -141v-668q0 -47 5 -130l99 -21
v-156h-516v156l149 21q5 76 5 130v501h-174z" />
    <glyph glyph-name="agrave" unicode="&#xe0;" horiz-adv-x="1244" vert-adv-y="2458" 
d="M77 279q0 159 84 235q78 69 298 95q129 15 316 22v39q0 90 -20 119q-29 43 -159 43q-156 0 -404 -78l-35 185q243 85 477 85q248 0 333 -95q52 -57 63 -164q3 -25 3 -118v-322q0 -79 5 -161l170 -8v-156l-381 -28l-16 136q-56 -57 -104 -83q-101 -54 -274 -54
q-198 0 -282 80q-31 30 -50 85q-24 68 -24 143zM343 280q0 -65 37 -90q35 -25 117 -25q118 0 201 48q42 24 57 54q20 41 20 125v72q-284 -16 -353 -42q-79 -31 -79 -142zM333 1465h314l119 -322h-204z" />
    <glyph glyph-name="aacute" unicode="&#xe1;" horiz-adv-x="1244" vert-adv-y="2458" 
d="M77 279q0 159 84 235q78 69 298 95q129 15 316 22v39q0 90 -20 119q-29 43 -159 43q-156 0 -404 -78l-35 185q243 85 477 85q248 0 333 -95q52 -57 63 -164q3 -25 3 -118v-322q0 -79 5 -161l170 -8v-156l-381 -28l-16 136q-56 -57 -104 -83q-101 -54 -274 -54
q-198 0 -282 80q-31 30 -50 85q-24 68 -24 143zM343 280q0 -65 37 -90q35 -25 117 -25q118 0 201 48q42 24 57 54q20 41 20 125v72q-284 -16 -353 -42q-79 -31 -79 -142zM495 1143l120 322h313l-229 -322h-204z" />
    <glyph glyph-name="acircumflex" unicode="&#xe2;" horiz-adv-x="1244" vert-adv-y="2458" 
d="M77 279q0 159 84 235q78 69 298 95q129 15 316 22v39q0 90 -20 119q-29 43 -159 43q-156 0 -404 -78l-35 185q243 85 477 85q248 0 333 -95q52 -57 63 -164q3 -25 3 -118v-322q0 -79 5 -161l170 -8v-156l-381 -28l-16 136q-56 -57 -104 -83q-101 -54 -274 -54
q-198 0 -282 80q-31 30 -50 85q-24 68 -24 143zM343 280q0 -65 37 -90q35 -25 117 -25q118 0 201 48q42 24 57 54q20 41 20 125v72q-284 -16 -353 -42q-79 -31 -79 -142zM195 1143l282 322h241l282 -322h-242l-161 154l-160 -154h-242z" />
    <glyph glyph-name="atilde" unicode="&#xe3;" horiz-adv-x="1244" vert-adv-y="2458" 
d="M77 279q0 159 84 235q78 69 298 95q129 15 316 22v39q0 90 -20 119q-29 43 -159 43q-156 0 -404 -78l-35 185q243 85 477 85q248 0 333 -95q52 -57 63 -164q3 -25 3 -118v-322q0 -79 5 -161l170 -8v-156l-381 -28l-16 136q-56 -57 -104 -83q-101 -54 -274 -54
q-198 0 -282 80q-31 30 -50 85q-24 68 -24 143zM343 280q0 -65 37 -90q35 -25 117 -25q118 0 201 48q42 24 57 54q20 41 20 125v72q-284 -16 -353 -42q-79 -31 -79 -142zM156 1168q30 127 88 201q66 85 197 85q117 0 227 -74q57 -39 87 -39q55 0 81 103h191
q-20 -131 -72 -207q-57 -83 -193 -83q-119 0 -236 73q-64 40 -102 40q-49 0 -77 -99h-191z" />
    <glyph glyph-name="adieresis" unicode="&#xe4;" horiz-adv-x="1244" vert-adv-y="2458" 
d="M77 279q0 159 84 235q78 69 298 95q129 15 316 22v39q0 90 -20 119q-29 43 -159 43q-156 0 -404 -78l-35 185q243 85 477 85q248 0 333 -95q52 -57 63 -164q3 -25 3 -118v-322q0 -79 5 -161l170 -8v-156l-381 -28l-16 136q-56 -57 -104 -83q-101 -54 -274 -54
q-198 0 -282 80q-31 30 -50 85q-24 68 -24 143zM343 280q0 -65 37 -90q35 -25 117 -25q118 0 201 48q42 24 57 54q20 41 20 125v72q-284 -16 -353 -42q-79 -31 -79 -142zM292 1163v277h253v-277h-253zM663 1163v277h253v-277h-253z" />
    <glyph glyph-name="aring" unicode="&#xe5;" horiz-adv-x="1244" vert-adv-y="2458" 
d="M77 279q0 159 84 235q78 69 298 95q129 15 316 22v39q0 90 -20 119q-29 43 -159 43q-156 0 -404 -78l-35 185q243 85 477 85q248 0 333 -95q52 -57 63 -164q3 -25 3 -118v-322q0 -79 5 -161l170 -8v-156l-381 -28l-16 136q-56 -57 -104 -83q-101 -54 -274 -54
q-198 0 -282 80q-31 30 -50 85q-24 68 -24 143zM343 280q0 -65 37 -90q35 -25 117 -25q118 0 201 48q42 24 57 54q20 41 20 125v72q-284 -16 -353 -42q-79 -31 -79 -142zM390 1338q0 106 71 170q61 56 169 56q111 0 174 -71q55 -62 55 -157q0 -109 -71 -172
q-61 -55 -162 -55q-118 0 -181 72q-55 62 -55 157zM523 1338q0 -58 32 -86q27 -24 69 -24q50 0 77 31q25 29 25 78q0 55 -32 84q-26 24 -68 24q-44 0 -71 -24q-32 -29 -32 -83z" />
    <glyph glyph-name="ae" unicode="&#xe6;" horiz-adv-x="1820" vert-adv-y="2458" 
d="M77 270q0 182 119 251q85 50 264 68q116 12 292 18v63q0 114 -27 136q-31 26 -117 26q-133 0 -281 -38q-55 -15 -135 -40l-35 180q233 90 464 90q229 0 304 -107q41 36 77 57q90 51 236 51q256 0 369 -128q86 -98 110 -271q11 -80 14 -196h-716q3 -107 19 -146
q20 -51 55 -76q59 -41 197 -41q184 0 385 51l29 -191q-196 -56 -415 -56q-201 0 -314 53q-61 28 -105 88q-49 -48 -96 -75q-113 -66 -317 -66q-179 0 -269 52q-107 62 -107 247zM346 273q0 -57 27 -81q28 -24 106 -24q167 0 233 69q25 26 32 56q8 32 8 99v39q-14 -1 -20 -1
q-283 -14 -338 -48q-48 -29 -48 -109zM1020 607h448q-12 94 -48 153q-45 74 -169 74q-134 0 -183 -78q-35 -57 -48 -149z" />
    <glyph glyph-name="ccedilla" unicode="&#xe7;" horiz-adv-x="1008" vert-adv-y="2458" 
d="M94 482q0 296 136 432q113 114 335 114q212 0 364 -78l-24 -183q-167 65 -303 65q-119 0 -167 -59q-72 -88 -72 -292q0 -155 56 -232q58 -78 216 -78q122 0 284 61l33 -190q-140 -64 -330 -68l-37 -67q114 -15 170 -49q64 -39 64 -148q0 -106 -63 -163q-64 -56 -189 -56
q-133 0 -283 48l29 133q111 -29 197 -29q80 0 80 70q0 42 -28 55q-44 21 -169 24l-23 52l82 141q-151 24 -235 103q-123 118 -123 394z" />
    <glyph glyph-name="egrave" unicode="&#xe8;" horiz-adv-x="1185" vert-adv-y="2458" 
d="M93 464q0 276 127 422q64 74 148 103q99 35 224 35q228 0 344 -97q80 -67 115 -167q40 -112 45 -330h-739q2 -101 19 -145q20 -50 56 -75q61 -43 202 -43q194 0 402 51l28 -191q-201 -56 -431 -56q-315 0 -430 114q-110 107 -110 379zM362 607h471q-9 72 -34 123
q-49 103 -196 103q-154 0 -208 -107q-25 -50 -33 -119zM316 1465h314l119 -322h-204z" />
    <glyph glyph-name="eacute" unicode="&#xe9;" horiz-adv-x="1185" vert-adv-y="2458" 
d="M93 464q0 276 127 422q64 74 148 103q99 35 224 35q228 0 344 -97q80 -67 115 -167q40 -112 45 -330h-739q2 -101 19 -145q20 -50 56 -75q61 -43 202 -43q194 0 402 51l28 -191q-201 -56 -431 -56q-315 0 -430 114q-110 107 -110 379zM362 607h471q-9 72 -34 123
q-49 103 -196 103q-154 0 -208 -107q-25 -50 -33 -119zM477 1143l120 322h313l-229 -322h-204z" />
    <glyph glyph-name="ecircumflex" unicode="&#xea;" horiz-adv-x="1185" vert-adv-y="2458" 
d="M93 464q0 276 127 422q64 74 148 103q99 35 224 35q228 0 344 -97q80 -67 115 -167q40 -112 45 -330h-739q2 -101 19 -145q20 -50 56 -75q61 -43 202 -43q194 0 402 51l28 -191q-201 -56 -431 -56q-315 0 -430 114q-110 107 -110 379zM362 607h471q-9 72 -34 123
q-49 103 -196 103q-154 0 -208 -107q-25 -50 -33 -119zM202 1143l282 322h241l282 -322h-242l-161 154l-160 -154h-242z" />
    <glyph glyph-name="edieresis" unicode="&#xeb;" horiz-adv-x="1185" vert-adv-y="2458" 
d="M93 464q0 276 127 422q64 74 148 103q99 35 224 35q228 0 344 -97q80 -67 115 -167q40 -112 45 -330h-739q2 -101 19 -145q20 -50 56 -75q61 -43 202 -43q194 0 402 51l28 -191q-201 -56 -431 -56q-315 0 -430 114q-110 107 -110 379zM362 607h471q-9 72 -34 123
q-49 103 -196 103q-154 0 -208 -107q-25 -50 -33 -119zM292 1163v277h253v-277h-253zM663 1163v277h253v-277h-253z" />
    <glyph glyph-name="igrave" unicode="&#xec;" horiz-adv-x="696" vert-adv-y="2458" 
d="M32 0v156l192 21q5 88 5 129v325q0 135 -5 200l-165 8v156l436 27q-8 -213 -8 -350v-367q0 -42 2 -128l187 -21v-156h-644zM35 1465h314l119 -322h-204z" />
    <glyph glyph-name="iacute" unicode="&#xed;" horiz-adv-x="696" vert-adv-y="2458" 
d="M32 0v156l192 21q5 88 5 129v325q0 135 -5 200l-165 8v156l436 27q-8 -213 -8 -350v-367q0 -42 2 -128l187 -21v-156h-644zM221 1143l120 322h313l-229 -322h-204z" />
    <glyph glyph-name="icircumflex" unicode="&#xee;" horiz-adv-x="696" vert-adv-y="2458" 
d="M32 0v156l192 21q5 88 5 129v325q0 135 -5 200l-165 8v156l436 27q-8 -213 -8 -350v-367q0 -42 2 -128l187 -21v-156h-644zM-91 1143l282 322h241l282 -322h-242l-161 154l-160 -154h-242z" />
    <glyph glyph-name="idieresis" unicode="&#xef;" horiz-adv-x="696" vert-adv-y="2458" 
d="M32 0v156l192 21q5 88 5 129v325q0 135 -5 200l-165 8v156l436 27q-8 -213 -8 -350v-367q0 -42 2 -128l187 -21v-156h-644zM18 1163v277h253v-277h-253zM389 1163v277h253v-277h-253z" />
    <glyph glyph-name="eth" unicode="&#xf0;" horiz-adv-x="1204" vert-adv-y="2458" 
d="M90 500q0 147 17 226q36 174 172 247q106 57 317 57q134 0 229 -31q-9 84 -35 133q-12 24 -59 75l-196 -146l-119 125l117 88q-56 6 -214 12l-34 1l27 193q175 -8 273 -16q65 -6 168 -27l178 132l124 -122l-118 -88q92 -82 116 -131q46 -93 56 -251q5 -71 5 -211v-278
q0 -169 -31 -269q-51 -165 -218 -217q-99 -31 -263 -31t-263 31q-166 52 -218 217q-31 98 -31 281zM389 503q0 -179 31 -239q42 -80 185 -80t185 79q31 61 31 239t-32 241q-40 80 -181 80q-147 0 -188 -80q-31 -60 -31 -240z" />
    <glyph glyph-name="ntilde" unicode="&#xf1;" horiz-adv-x="1398" vert-adv-y="2458" 
d="M44 0v156l180 21q5 75 5 130v325q0 119 -5 200l-153 8v155l398 28l6 -158q60 48 108 78q141 85 302 85q193 0 265 -101q53 -75 53 -281v-339q0 -73 5 -130l168 -21v-156h-584v156l148 21q5 63 5 129v326q0 97 -19 142q-21 50 -106 50q-173 0 -333 -161v-357q0 -48 5 -129
l149 -21v-156h-597zM232 1168q30 127 88 201q66 85 197 85q117 0 227 -74q57 -39 87 -39q55 0 81 103h191q-20 -131 -72 -207q-57 -83 -193 -83q-119 0 -236 73q-64 40 -102 40q-49 0 -77 -99h-191z" />
    <glyph glyph-name="ograve" unicode="&#xf2;" horiz-adv-x="1232" vert-adv-y="2458" 
d="M94 504q0 181 37 284q57 156 218 205q104 31 268 31t268 -31q161 -49 218 -205q37 -103 37 -290q0 -188 -37 -291q-57 -156 -218 -205q-103 -31 -268 -31t-268 31q-161 49 -218 205q-26 74 -32 151q-5 62 -5 146zM363 502q0 -141 14 -201q21 -88 104 -120q46 -18 136 -18
q151 0 207 67q31 37 40 114q7 54 7 154q0 136 -14 196q-22 88 -104 120q-46 18 -136 18q-151 0 -207 -66q-31 -37 -40 -115q-7 -54 -7 -149zM316 1465h314l119 -322h-204z" />
    <glyph glyph-name="oacute" unicode="&#xf3;" horiz-adv-x="1232" vert-adv-y="2458" 
d="M94 504q0 181 37 284q57 156 218 205q104 31 268 31t268 -31q161 -49 218 -205q37 -103 37 -290q0 -188 -37 -291q-57 -156 -218 -205q-103 -31 -268 -31t-268 31q-161 49 -218 205q-26 74 -32 151q-5 62 -5 146zM363 502q0 -141 14 -201q21 -88 104 -120q46 -18 136 -18
q151 0 207 67q31 37 40 114q7 54 7 154q0 136 -14 196q-22 88 -104 120q-46 18 -136 18q-151 0 -207 -66q-31 -37 -40 -115q-7 -54 -7 -149zM490 1143l120 322h313l-229 -322h-204z" />
    <glyph glyph-name="ocircumflex" unicode="&#xf4;" horiz-adv-x="1232" vert-adv-y="2458" 
d="M94 504q0 181 37 284q57 156 218 205q104 31 268 31t268 -31q161 -49 218 -205q37 -103 37 -290q0 -188 -37 -291q-57 -156 -218 -205q-103 -31 -268 -31t-268 31q-161 49 -218 205q-26 74 -32 151q-5 62 -5 146zM363 502q0 -141 14 -201q21 -88 104 -120q46 -18 136 -18
q151 0 207 67q31 37 40 114q7 54 7 154q0 136 -14 196q-22 88 -104 120q-46 18 -136 18q-151 0 -207 -66q-31 -37 -40 -115q-7 -54 -7 -149zM214 1143l282 322h241l282 -322h-242l-161 154l-160 -154h-242z" />
    <glyph glyph-name="otilde" unicode="&#xf5;" horiz-adv-x="1232" vert-adv-y="2458" 
d="M94 504q0 181 37 284q57 156 218 205q104 31 268 31t268 -31q161 -49 218 -205q37 -103 37 -290q0 -188 -37 -291q-57 -156 -218 -205q-103 -31 -268 -31t-268 31q-161 49 -218 205q-26 74 -32 151q-5 62 -5 146zM363 502q0 -141 14 -201q21 -88 104 -120q46 -18 136 -18
q151 0 207 67q31 37 40 114q7 54 7 154q0 136 -14 196q-22 88 -104 120q-46 18 -136 18q-151 0 -207 -66q-31 -37 -40 -115q-7 -54 -7 -149zM181 1168q30 127 88 201q66 85 197 85q117 0 227 -74q57 -39 87 -39q55 0 81 103h191q-20 -131 -72 -207q-57 -83 -193 -83
q-119 0 -236 73q-64 40 -102 40q-49 0 -77 -99h-191z" />
    <glyph glyph-name="odieresis" unicode="&#xf6;" horiz-adv-x="1232" vert-adv-y="2458" 
d="M94 504q0 181 37 284q57 156 218 205q104 31 268 31t268 -31q161 -49 218 -205q37 -103 37 -290q0 -188 -37 -291q-57 -156 -218 -205q-103 -31 -268 -31t-268 31q-161 49 -218 205q-26 74 -32 151q-5 62 -5 146zM363 502q0 -141 14 -201q21 -88 104 -120q46 -18 136 -18
q151 0 207 67q31 37 40 114q7 54 7 154q0 136 -14 196q-22 88 -104 120q-46 18 -136 18q-151 0 -207 -66q-31 -37 -40 -115q-7 -54 -7 -149zM305 1163v277h253v-277h-253zM676 1163v277h253v-277h-253z" />
    <glyph glyph-name="divide" unicode="&#xf7;" vert-adv-y="2458" 
d="M126 552l16 197h1050l-16 -197h-1050zM529 170v252h262v-252h-262zM529 879v252h262v-252h-262z" />
    <glyph glyph-name="oslash" unicode="&#xf8;" horiz-adv-x="1232" vert-adv-y="2458" 
d="M86 28l86 99q-34 49 -50 104q-29 97 -29 267q0 173 28 265q40 127 139 189q114 72 356 72q186 0 295 -41l87 101l136 -117l-79 -92q38 -53 56 -112q28 -95 28 -264q0 -175 -28 -266q-47 -150 -182 -213q-103 -49 -313 -49q-187 0 -300 45l-90 -105zM357 488q0 -84 8 -135
l401 461q-54 22 -153 22q-144 0 -202 -61q-30 -32 -41 -84q-13 -65 -13 -203zM463 188q59 -25 158 -25q143 0 200 61q30 32 41 85q13 63 13 188q0 107 -10 156z" />
    <glyph glyph-name="ugrave" unicode="&#xf9;" horiz-adv-x="1316" vert-adv-y="2458" 
d="M24 839v156l419 28l-1 -31l-3 -108q-5 -142 -5 -176v-347q0 -131 35 -160q30 -26 83 -26q155 0 304 144v312q0 145 -5 200l-147 8v156l419 28l-1 -31l-3 -108q-5 -147 -5 -176v-344q0 -121 5 -200l163 -8v-155l-402 -28l-12 147q-53 -42 -94 -67q-135 -82 -291 -82
q-150 0 -227 66q-60 52 -75 178q-5 46 -5 133v283q0 145 -5 200zM351 1465h314l119 -322h-204z" />
    <glyph glyph-name="uacute" unicode="&#xfa;" horiz-adv-x="1316" vert-adv-y="2458" 
d="M24 839v156l419 28l-1 -31l-3 -108q-5 -142 -5 -176v-347q0 -131 35 -160q30 -26 83 -26q155 0 304 144v312q0 145 -5 200l-147 8v156l419 28l-1 -31l-3 -108q-5 -147 -5 -176v-344q0 -121 5 -200l163 -8v-155l-402 -28l-12 147q-53 -42 -94 -67q-135 -82 -291 -82
q-150 0 -227 66q-60 52 -75 178q-5 46 -5 133v283q0 145 -5 200zM531 1143l120 322h313l-229 -322h-204z" />
    <glyph glyph-name="ucircumflex" unicode="&#xfb;" horiz-adv-x="1316" vert-adv-y="2458" 
d="M24 839v156l419 28l-1 -31l-3 -108q-5 -142 -5 -176v-347q0 -131 35 -160q30 -26 83 -26q155 0 304 144v312q0 145 -5 200l-147 8v156l419 28l-1 -31l-3 -108q-5 -147 -5 -176v-344q0 -121 5 -200l163 -8v-155l-402 -28l-12 147q-53 -42 -94 -67q-135 -82 -291 -82
q-150 0 -227 66q-60 52 -75 178q-5 46 -5 133v283q0 145 -5 200zM231 1143l282 322h241l282 -322h-242l-161 154l-160 -154h-242z" />
    <glyph glyph-name="udieresis" unicode="&#xfc;" horiz-adv-x="1316" vert-adv-y="2458" 
d="M24 839v156l419 28l-1 -31l-3 -108q-5 -142 -5 -176v-347q0 -131 35 -160q30 -26 83 -26q155 0 304 144v312q0 145 -5 200l-147 8v156l419 28l-1 -31l-3 -108q-5 -147 -5 -176v-344q0 -121 5 -200l163 -8v-155l-402 -28l-12 147q-53 -42 -94 -67q-135 -82 -291 -82
q-150 0 -227 66q-60 52 -75 178q-5 46 -5 133v283q0 145 -5 200zM332 1163v277h253v-277h-253zM703 1163v277h253v-277h-253z" />
    <glyph glyph-name="yacute" unicode="&#xfd;" horiz-adv-x="1299" vert-adv-y="2458" 
d="M24 839v156l419 28l-1 -31q-8 -248 -8 -290v-341q0 -130 35 -160q31 -26 85 -26q152 0 302 144v312q0 119 -5 200l-147 8v156l419 28q-9 -269 -9 -355v-488q0 -307 -33 -414q-37 -121 -128 -185q-139 -97 -409 -97q-197 0 -382 45l25 192q180 -45 346 -45q193 0 259 79
q64 76 64 256v100q-59 -46 -114 -77q-115 -63 -257 -63q-151 0 -229 67q-60 51 -75 177q-5 46 -5 133v283q0 146 -5 200zM523 1143l120 322h313l-229 -322h-204z" />
    <glyph glyph-name="thorn" unicode="&#xfe;" horiz-adv-x="1281" vert-adv-y="2458" 
d="M-1 -344l180 21q5 37 5 129v1317q0 90 -6 198l-167 8v148l440 48q-9 -246 -9 -365v-203q147 69 313 69q248 0 354 -141q52 -69 70 -199q9 -65 9 -188q0 -251 -59 -354q-100 -173 -398 -173q-147 0 -247 43q-18 8 -42 20v-229q0 -88 4 -128l233 -21v-152h-680v152z
M442 257q56 -45 114 -66q63 -23 152 -23q74 0 108 14q59 23 83 87q20 53 20 233q0 159 -15 212q-17 56 -52 82q-43 33 -126 33q-160 0 -284 -89v-483z" />
    <glyph glyph-name="ydieresis" unicode="&#xff;" horiz-adv-x="1299" vert-adv-y="2458" 
d="M24 839v156l419 28l-1 -31q-8 -248 -8 -290v-341q0 -130 35 -160q31 -26 85 -26q152 0 302 144v312q0 119 -5 200l-147 8v156l419 28q-9 -269 -9 -355v-488q0 -307 -33 -414q-37 -121 -128 -185q-139 -97 -409 -97q-197 0 -382 45l25 192q180 -45 346 -45q193 0 259 79
q64 76 64 256v100q-59 -46 -114 -77q-115 -63 -257 -63q-151 0 -229 67q-60 51 -75 177q-5 46 -5 133v283q0 146 -5 200zM334 1163v277h253v-277h-253zM705 1163v277h253v-277h-253z" />
    <glyph glyph-name="Dcroat" unicode="&#x110;" horiz-adv-x="1494" vert-adv-y="2458" 
d="M33 634l15 199h195v149q0 124 -5 247l-185 22v156h759q202 0 324 -60q140 -68 214 -220q86 -176 86 -422q0 -370 -175 -550q-92 -94 -227 -130q-91 -25 -236 -25h-745v156l185 22q5 122 5 246v210h-210zM501 425q0 -97 4 -228h263q127 0 195 35q105 53 152 175
q51 130 51 305q0 277 -115 406q-50 57 -130 77q-58 15 -154 15h-262q-4 -101 -4 -227v-150h335l-16 -199h-319v-209z" />
    <glyph glyph-name="dotlessi" unicode="&#x131;" horiz-adv-x="696" vert-adv-y="2458" 
d="M32 0v156l192 21q5 88 5 129v325q0 135 -5 200l-165 8v156l436 27q-8 -213 -8 -350v-367q0 -42 2 -128l187 -21v-156h-644z" />
    <glyph glyph-name="OE" unicode="&#x152;" horiz-adv-x="2249" vert-adv-y="2458" 
d="M102 703q0 325 94 487q92 159 273 214q106 32 260 32q224 0 351 -76q33 -21 76 -55v102h980v-356h-179l-21 159h-545q-4 -127 -4 -228v-144h569l-16 -197h-553v-216q0 -97 4 -228h572l19 168h179v-365h-1005v102q-56 -46 -100 -70q-112 -61 -326 -61q-234 0 -367 78
q-152 89 -211 266q-50 152 -50 388zM372 706q0 -233 36 -333q35 -97 97 -142q80 -59 242 -59q194 0 273 79q58 57 82 141q28 102 28 302q0 246 -35 342q-33 92 -95 137q-84 62 -253 62q-200 0 -279 -95q-62 -73 -83 -204q-13 -85 -13 -230z" />
    <glyph glyph-name="oe" unicode="&#x153;" horiz-adv-x="1923" vert-adv-y="2458" 
d="M94 498q0 175 28 267q39 125 137 189q110 70 341 70q180 0 280 -44q65 -29 119 -97q34 40 70 68q96 73 284 73q244 0 356 -128q87 -99 111 -270q11 -80 14 -196h-716q3 -107 19 -146q20 -51 55 -76q59 -41 197 -41q183 0 385 51l29 -191q-197 -56 -419 -56
q-177 0 -284 43q-66 27 -116 81q-46 -53 -110 -80q-102 -44 -270 -44q-223 0 -330 62q-108 62 -148 184q-32 99 -32 281zM362 533q0 -162 14 -227q20 -91 104 -122q43 -16 125 -16q136 0 190 57q30 32 40 84q13 63 13 191q0 163 -21 222q-25 66 -95 93q-43 17 -126 17
q-103 0 -156 -30q-38 -22 -53 -51q-35 -70 -35 -218zM1123 607h448q-11 93 -48 153q-46 73 -169 73q-133 0 -183 -78q-37 -58 -48 -148z" />
    <glyph glyph-name="Scaron" unicode="&#x160;" horiz-adv-x="1257" vert-adv-y="2458" 
d="M69 70l28 211q258 -105 509 -105q138 0 206 36q94 50 94 180q0 90 -55 131q-38 29 -105 48q-58 18 -137 40q-172 49 -248 84q-128 60 -174 141q-48 84 -48 196q0 120 55 219q104 185 420 185q212 0 441 -73l-25 -202q-236 75 -402 75q-226 0 -226 -188q0 -82 47 -119
q40 -31 101 -50q68 -20 178 -49q169 -46 246 -86q105 -55 149 -130q49 -82 49 -212q0 -161 -75 -266q-118 -165 -466 -165q-288 0 -562 99zM251 1851h242l161 -154l160 154h242l-282 -322h-241z" />
    <glyph glyph-name="scaron" unicode="&#x161;" horiz-adv-x="1056" vert-adv-y="2458" 
d="M55 58l27 197q241 -87 452 -87q187 0 187 122q0 37 -25 59q-31 26 -123 44q-241 46 -329 87q-148 70 -148 241q0 176 137 253q89 51 236 51q199 0 429 -70l-30 -185q-217 63 -373 63q-141 0 -141 -106q0 -36 19 -57q26 -28 108 -44q281 -56 362 -95q73 -36 105 -89
q35 -60 35 -149q0 -186 -136 -262q-106 -60 -304 -60q-275 0 -488 87zM126 1465h242l161 -154l160 154h242l-282 -322h-241z" />
    <glyph glyph-name="Ydieresis" unicode="&#x178;" horiz-adv-x="1404" vert-adv-y="2458" 
d="M-4 1251v156h586v-156l-140 -10q24 -46 66 -120l194 -339l202 353l57 106l-140 10v156h574v-156l-146 -11l-36 -55l-65 -102l-323 -531v-128q0 -126 5 -247l226 -21v-156h-721v156l227 21q5 109 5 247v128l-309 506l-116 182zM371 1547v277h253v-277h-253zM779 1547v277
h253v-277h-253z" />
    <glyph glyph-name="Zcaron" unicode="&#x17d;" horiz-adv-x="1322" vert-adv-y="2458" 
d="M53 165l187 228l652 818h-552l-21 -175h-176v371h1073l15 -164l-9 -11q-121 -143 -181 -220l-652 -816h678l19 196h176v-392h-1205zM283 1851h242l161 -154l160 154h242l-282 -322h-241z" />
    <glyph glyph-name="zcaron" unicode="&#x17e;" horiz-adv-x="1156" vert-adv-y="2458" 
d="M53 162q15 16 55 54l168 167l426 430h-369l-32 -184h-194v366h934l15 -162l-197 -192l-459 -459h456l33 193h194v-375h-1021zM187 1465h242l161 -154l160 154h242l-282 -322h-241z" />
    <glyph glyph-name="florin" unicode="&#x192;" vert-adv-y="2458" 
d="M-18 -395l55 183q92 -28 155 -28q55 0 90 48q39 55 65 215l119 744h-229l43 196h216l26 160q30 188 140 271q90 69 249 69q142 0 318 -37l-55 -181q-132 22 -227 22q-68 0 -103 -31q-50 -46 -71 -173l-16 -100h312l-45 -196h-298l-130 -815q-34 -214 -134 -308
q-35 -32 -65 -46q-75 -33 -188 -33q-119 0 -227 40z" />
    <glyph glyph-name="afii57929" unicode="&#x2bc;" horiz-adv-x="495" vert-adv-y="2458" 
d="M86 929l63 537h285l-125 -537h-223z" />
    <glyph glyph-name="circumflex" unicode="&#x2c6;" horiz-adv-x="1024" vert-adv-y="2458" 
d="M109 1143l282 322h241l282 -322h-242l-161 154l-160 -154h-242z" />
    <glyph glyph-name="caron" unicode="&#x2c7;" horiz-adv-x="1024" vert-adv-y="2458" 
d="M109 1465h242l161 -154l160 154h242l-282 -322h-241z" />
    <glyph glyph-name="uni02C9" unicode="&#x2c9;" horiz-adv-x="1024" vert-adv-y="2458" 
d="M193 1202v197h637v-197h-637z" />
    <glyph glyph-name="breve" unicode="&#x2d8;" horiz-adv-x="1024" vert-adv-y="2458" 
d="M166 1469h208q6 -53 22 -78q13 -19 40 -33q35 -19 76 -19q53 0 94 30q36 27 44 100h208q-8 -330 -346 -330q-336 0 -346 330z" />
    <glyph glyph-name="dotaccent" unicode="&#x2d9;" horiz-adv-x="1024" vert-adv-y="2458" 
d="M374 1163v277h276v-277h-276z" />
    <glyph glyph-name="ring" unicode="&#x2da;" horiz-adv-x="1024" vert-adv-y="2458" 
d="M277 1338q0 106 71 170q61 56 169 56q111 0 174 -71q55 -62 55 -157q0 -109 -71 -172q-61 -55 -162 -55q-118 0 -181 72q-55 62 -55 157zM410 1338q0 -58 32 -86q27 -24 69 -24q50 0 77 31q25 29 25 78q0 55 -32 84q-26 24 -68 24q-44 0 -71 -24q-32 -29 -32 -83z" />
    <glyph glyph-name="ogonek" unicode="&#x2db;" horiz-adv-x="1024" vert-adv-y="2458" 
d="M362 -278q0 131 128 249l74 65h148q-121 -171 -121 -289q0 -103 107 -103q63 0 150 25l34 -142q-98 -36 -212 -36q-128 0 -205 44q-103 58 -103 187z" />
    <glyph glyph-name="tilde" unicode="&#x2dc;" horiz-adv-x="1024" vert-adv-y="2458" 
d="M76 1168q30 127 88 201q66 85 197 85q117 0 227 -74q57 -39 87 -39q55 0 81 103h191q-20 -131 -72 -207q-57 -83 -193 -83q-119 0 -236 73q-64 40 -102 40q-49 0 -77 -99h-191z" />
    <glyph glyph-name="hungarumlaut" unicode="&#x2dd;" horiz-adv-x="1024" vert-adv-y="2458" 
d="M228 1143l91 322h289l-201 -322h-179zM595 1143l91 322h289l-201 -322h-179z" />
    <glyph glyph-name="anoteleia" unicode="&#x387;" horiz-adv-x="659" vert-adv-y="2458" 
d="M177 503v294h305v-294h-305z" />
    <glyph glyph-name="uni2011" unicode="&#x2011;" horiz-adv-x="808" vert-adv-y="2458" 
d="M78 548l17 205h635l-17 -205h-635z" />
    <glyph glyph-name="figuredash" unicode="&#x2012;" vert-adv-y="2458" 
d="M165 552l16 197h972l-17 -197h-971z" />
    <glyph glyph-name="endash" unicode="&#x2013;" vert-adv-y="2458" 
d="M165 552l16 197h972l-17 -197h-971z" />
    <glyph glyph-name="emdash" unicode="&#x2014;" vert-adv-y="2458" 
d="M-102 552v197h1523v-197h-1523z" />
    <glyph glyph-name="afii00208" unicode="&#x2015;" vert-adv-y="2458" 
d="M-102 552v197h1523v-197h-1523z" />
    <glyph glyph-name="quoteleft" unicode="&#x2018;" horiz-adv-x="495" vert-adv-y="2458" 
d="M61 929l125 537h223l-64 -537h-284z" />
    <glyph glyph-name="quoteright" unicode="&#x2019;" horiz-adv-x="495" vert-adv-y="2458" 
d="M86 929l63 537h285l-125 -537h-223z" />
    <glyph glyph-name="quotesinglbase" unicode="&#x201a;" horiz-adv-x="495" vert-adv-y="2458" 
d="M86 -272l63 555h285l-125 -555h-223z" />
    <glyph glyph-name="quotedblleft" unicode="&#x201c;" horiz-adv-x="862" vert-adv-y="2458" 
d="M61 929l125 537h211l-64 -537h-272zM440 929l124 537h211l-63 -537h-272z" />
    <glyph glyph-name="quotedblright" unicode="&#x201d;" horiz-adv-x="862" vert-adv-y="2458" 
d="M86 929l63 537h273l-125 -537h-211zM465 929l63 537h272l-125 -537h-210z" />
    <glyph glyph-name="quotedblbase" unicode="&#x201e;" horiz-adv-x="862" vert-adv-y="2458" 
d="M86 -247l63 538h273l-125 -538h-211zM465 -247l63 538h272l-125 -538h-210z" />
    <glyph glyph-name="dagger" unicode="&#x2020;" vert-adv-y="2458" 
d="M187 766l14 205h329v436h258v-436h344l-15 -205h-329v-1148h-258v1148h-343z" />
    <glyph glyph-name="daggerdbl" unicode="&#x2021;" vert-adv-y="2458" 
d="M187 133l14 205h329v428h-343l14 205h329v436h258v-436h344l-15 -205h-329v-428h344l-15 -205h-329v-515h-258v515h-343z" />
    <glyph glyph-name="bullet" unicode="&#x2022;" vert-adv-y="2458" 
d="M401 389v520h518v-520h-518z" />
    <glyph glyph-name="ellipsis" unicode="&#x2026;" horiz-adv-x="1978" vert-adv-y="2458" 
d="M165 0v294h305v-294h-305zM837 0v294h305v-294h-305zM1509 0v294h305v-294h-305z" />
    <glyph glyph-name="perthousand" unicode="&#x2030;" horiz-adv-x="2662" vert-adv-y="2458" 
d="M76 1061q0 212 97 298q86 77 265 77q199 0 284 -95q79 -87 79 -282q0 -217 -97 -305q-85 -77 -266 -77q-185 0 -272 82q-90 86 -90 302zM308 1071q0 -131 28 -179q27 -48 103 -48q75 0 103 48q27 48 27 173q0 139 -45 178q-29 26 -86 26q-63 0 -92 -32q-38 -43 -38 -166z
M430 0l768 1407h212l-768 -1407h-212zM1039 355q0 212 97 298q86 77 266 77q197 0 283 -95q79 -88 79 -285q0 -216 -97 -302q-86 -77 -266 -77q-197 0 -283 95q-79 87 -79 289zM1271 365q0 -130 28 -179q27 -48 102 -48t103 48q27 48 27 173q0 139 -44 178q-29 26 -86 26
q-63 0 -92 -32q-38 -43 -38 -166zM1869 355q0 212 97 298q86 77 266 77q197 0 283 -95q79 -87 79 -284q0 -215 -97 -303q-85 -77 -266 -77q-184 0 -271 82q-91 86 -91 302zM2101 365q0 -130 28 -179q27 -48 103 -48q74 0 102 48q27 48 27 173q0 139 -44 178q-29 26 -86 26
q-63 0 -92 -32q-38 -43 -38 -166z" />
    <glyph glyph-name="guilsinglleft" unicode="&#x2039;" horiz-adv-x="635" vert-adv-y="2458" 
d="M72 561v60l363 377l132 -101l-215 -306l215 -306l-132 -101z" />
    <glyph glyph-name="guilsinglright" unicode="&#x203a;" horiz-adv-x="635" vert-adv-y="2458" 
d="M68 285l215 306l-215 306l132 101l363 -377v-60l-363 -377z" />
    <glyph glyph-name="uni203E" unicode="&#x203e;" vert-adv-y="2458" 
d="M48 1606v186h1223v-186h-1223z" />
    <glyph glyph-name="fraction" unicode="&#x2044;" horiz-adv-x="335" vert-adv-y="2458" 
d="M-317 0l769 1407h200l-768 -1407h-201z" />
    <glyph glyph-name="uni2070" unicode="&#x2070;" horiz-adv-x="879" vert-adv-y="2458" 
d="M64 985q0 189 60 292q53 93 156 127q62 20 160 20q194 0 282 -100q93 -103 93 -347q0 -196 -59 -297q-55 -94 -157 -127q-62 -20 -159 -20q-182 0 -271 86q-105 103 -105 366zM267 983q0 -170 37 -236q39 -68 136 -68q96 0 135 68q37 65 37 231q0 168 -37 232
q-40 68 -135 68q-97 0 -136 -68q-37 -65 -37 -227z" />
    <glyph glyph-name="uni2074" unicode="&#x2074;" horiz-adv-x="879" vert-adv-y="2458" 
d="M47 748v142l161 281q44 77 44 146v101h175v-109q0 -76 -21 -137q-14 -42 -51 -107l-97 -169h231v336h189v-336h145l-13 -148h-132v-198h-189v198h-442z" />
    <glyph glyph-name="uni2075" unicode="&#x2075;" horiz-adv-x="879" vert-adv-y="2458" 
d="M107 582v211h152l10 -97q76 -18 163 -18q95 0 126 36q29 35 29 117q0 84 -33 113q-31 27 -95 27q-94 0 -185 -69l-141 27l14 478h590v-148h-401l-6 -171q73 29 157 29q205 0 269 -114q34 -60 34 -170q0 -163 -76 -231q-79 -70 -269 -70q-187 0 -338 50z" />
    <glyph glyph-name="uni2076" unicode="&#x2076;" horiz-adv-x="879" vert-adv-y="2458" 
d="M100 885v112q0 160 19 228q27 97 91 142q81 57 254 57q124 0 260 -22l-16 -144q-149 21 -237 21q-114 0 -145 -56q-23 -43 -30 -131q67 45 170 45q172 0 252 -76q75 -72 75 -225q0 -193 -119 -259q-82 -45 -227 -45q-200 0 -279 88q-38 42 -52 101q-16 60 -16 164z
M302 835q0 -90 39 -126q34 -31 105 -31q79 0 111 38q33 37 33 116q0 93 -39 129q-33 30 -103 30q-82 0 -114 -38q-32 -37 -32 -118z" />
    <glyph glyph-name="uni2077" unicode="&#x2077;" horiz-adv-x="879" vert-adv-y="2458" 
d="M120 1139v268h689v-107l-251 -526q-70 -147 -102 -224h-239q69 125 151 288l208 415h-279l-12 -114h-165z" />
    <glyph glyph-name="uni2078" unicode="&#x2078;" horiz-adv-x="879" vert-adv-y="2458" 
d="M70 791q0 89 47 141q32 36 99 67q-43 22 -64 47q-44 50 -44 137q0 98 56 161q73 80 278 80q151 0 225 -42q105 -60 105 -199q0 -98 -56 -150q-19 -16 -53 -34q66 -31 99 -67q47 -51 47 -142q0 -149 -101 -208q-85 -49 -270 -49q-163 0 -245 38q-55 25 -83 64
q-40 55 -40 156zM273 799q0 -62 32 -89q34 -31 126 -31t133 24q42 24 42 97q0 62 -33 91q-34 31 -133 31q-108 0 -141 -37q-26 -30 -26 -86zM311 1170q0 -56 28 -80q27 -25 95 -25q67 0 99 19q36 21 36 87q0 56 -29 82q-27 25 -100 25q-80 0 -106 -30q-23 -27 -23 -78z" />
    <glyph glyph-name="uni2079" unicode="&#x2079;" horiz-adv-x="879" vert-adv-y="2458" 
d="M88 1136q0 142 81 217q78 71 261 71q203 0 282 -87q36 -41 51 -95q15 -58 15 -159v-124q0 -162 -18 -228q-26 -96 -89 -140q-84 -59 -260 -59q-146 0 -292 28l15 144q168 -27 271 -27q95 0 136 45q42 46 42 159v17q-31 -25 -54 -35q-47 -20 -124 -20q-165 0 -243 72
q-74 69 -74 221zM291 1136q0 -82 37 -116q34 -31 104 -31q81 0 114 38q30 35 30 106q0 80 -38 114q-34 31 -105 31q-142 0 -142 -142z" />
    <glyph glyph-name="uni2080" unicode="&#x2080;" horiz-adv-x="879" vert-adv-y="2458" 
d="M64 435q0 190 60 292q53 93 156 127q62 20 160 20q193 0 282 -100q93 -103 93 -347q0 -196 -59 -297q-55 -94 -157 -127q-62 -20 -159 -20q-182 0 -271 86q-105 103 -105 366zM267 437q0 -171 40 -245q34 -63 131 -63q98 0 137 68q37 65 37 231q0 168 -37 232
q-40 68 -135 68q-98 0 -136 -68q-37 -66 -37 -223z" />
    <glyph glyph-name="uni2081" unicode="&#x2081;" horiz-adv-x="879" vert-adv-y="2458" 
d="M148 0v130l228 10v550l-177 -45l-39 133l264 84h147v-722l212 -10v-130h-635z" />
    <glyph glyph-name="uni2082" unicode="&#x2082;" horiz-adv-x="879" vert-adv-y="2458" 
d="M87 0v137l305 283q100 94 138 166q11 21 11 55q0 88 -115 88q-77 0 -158 -25l-11 -105h-143v213q153 63 333 63t246 -75q50 -56 50 -156q0 -94 -47 -165q-39 -60 -161 -169l-180 -162h273l10 96h143v-244h-694z" />
    <glyph glyph-name="uni2083" unicode="&#x2083;" horiz-adv-x="879" vert-adv-y="2458" 
d="M78 32v212h142l11 -97q81 -18 182 -18q106 0 137 37q28 33 28 103q0 71 -42 94q-29 17 -108 17h-117v143h136q105 0 105 96q0 60 -28 85t-101 25q-82 0 -167 -25l-10 -105h-143v220q153 56 329 56q150 0 224 -43q99 -56 99 -205q0 -93 -45 -135q-16 -16 -47 -34
q48 -23 71 -49q47 -51 47 -153q0 -182 -134 -239q-80 -34 -223 -34q-193 0 -346 49z" />
    <glyph glyph-name="uni2084" unicode="&#x2084;" horiz-adv-x="879" vert-adv-y="2458" 
d="M47 199v142l161 280q44 78 44 147v101h175v-109q0 -76 -21 -137q-14 -42 -51 -107l-97 -169h231v336h189v-336h145l-13 -148h-132v-199h-189v199h-442z" />
    <glyph glyph-name="uni2085" unicode="&#x2085;" horiz-adv-x="879" vert-adv-y="2458" 
d="M107 32v212h152l10 -97q75 -18 163 -18q95 0 126 36q29 35 29 117q0 83 -33 113q-30 26 -95 26q-94 0 -185 -68l-141 27l14 477h590v-148h-401l-6 -171q74 29 157 29q205 0 269 -113q34 -60 34 -170q0 -163 -76 -231q-79 -70 -269 -70q-189 0 -338 49z" />
    <glyph glyph-name="uni2086" unicode="&#x2086;" horiz-adv-x="879" vert-adv-y="2458" 
d="M100 336v112q0 160 19 228q27 96 90 141q81 57 255 57q127 0 260 -22l-16 -144q-144 21 -237 21q-114 0 -145 -56q-23 -42 -30 -131q68 46 170 46q172 0 252 -76q75 -72 75 -225q0 -193 -119 -259q-82 -45 -227 -45q-200 0 -279 88q-38 42 -52 100q-16 61 -16 165z
M302 286q0 -90 39 -126q34 -31 106 -31q78 0 110 38q33 38 33 114q0 74 -26 114q-29 47 -120 47q-78 0 -110 -38q-32 -37 -32 -118z" />
    <glyph glyph-name="uni2087" unicode="&#x2087;" horiz-adv-x="879" vert-adv-y="2458" 
d="M120 589v268h689v-107l-251 -526q-71 -148 -102 -224h-239q71 128 151 288l208 415h-279l-12 -114h-165z" />
    <glyph glyph-name="uni2088" unicode="&#x2088;" horiz-adv-x="879" vert-adv-y="2458" 
d="M70 241q0 89 47 141q32 36 99 67q-43 23 -64 47q-44 51 -44 137q0 98 56 161q72 80 278 80q152 0 225 -42q105 -60 105 -198q0 -99 -56 -150q-19 -17 -53 -35q67 -31 99 -67q47 -51 47 -141q0 -150 -101 -209q-85 -49 -270 -49q-163 0 -245 38q-55 25 -83 64
q-40 56 -40 156zM273 249q0 -61 31 -89q34 -31 131 -31q114 0 146 37q25 29 25 82q0 65 -33 94q-34 31 -134 31q-107 0 -140 -37q-26 -31 -26 -87zM311 620q0 -55 28 -80q27 -24 98 -24q84 0 110 30q22 26 22 73q0 59 -29 84q-27 25 -100 25q-80 0 -106 -30q-23 -27 -23 -78
z" />
    <glyph glyph-name="uni2089" unicode="&#x2089;" horiz-adv-x="879" vert-adv-y="2458" 
d="M88 586q0 142 81 217q78 71 261 71q204 0 282 -87q36 -40 51 -95q15 -58 15 -158v-124q0 -162 -18 -228q-26 -96 -89 -140q-84 -59 -260 -59q-140 0 -292 28l15 143q174 -26 271 -26q96 0 136 45q42 46 42 159v17q-31 -25 -54 -35q-48 -20 -124 -20q-165 0 -243 72
q-74 69 -74 220zM291 586q0 -81 37 -115q34 -31 104 -31q82 0 114 38q30 35 30 106q0 79 -38 113q-34 31 -105 31q-142 0 -142 -142z" />
    <glyph glyph-name="Euro" unicode="&#x20ac;" vert-adv-y="2458" 
d="M40 424l66 170h137v8l-1 55v49v9h-181l62 170h130q38 307 205 437q147 114 404 114q189 0 374 -57l-24 -201q-199 58 -340 58q-191 0 -269 -115q-64 -94 -82 -236h571l-62 -170h-520v-17q0 -2 1 -90v-14h472l-61 -170h-388q20 -86 67 -146q82 -106 296 -106q160 0 330 55
l24 -199q-43 -16 -94 -26q-149 -31 -287 -31q-352 0 -501 193q-63 81 -94 208q-4 20 -11 52h-224z" />
    <glyph glyph-name="trademark" unicode="&#x2122;" horiz-adv-x="1761" vert-adv-y="2458" 
d="M40 1221v186h639v-186h-99l-14 82h-139q-3 -68 -3 -100v-270q0 -64 3 -113l115 -6v-83h-365v83l114 6q3 49 3 113v270q0 32 -3 100h-138l-14 -82h-99zM701 731v84l98 5q5 37 8 68l30 353q3 37 4 76l-84 7v83h259q12 -44 48 -136l148 -384l153 383q36 91 50 137h257v-83
l-81 -7q2 -52 4 -76l29 -354q2 -26 8 -68l90 -4v-84h-324v84l99 5v25v31l-29 346l-197 -491h-122l-194 491l-30 -346q-2 -22 -2 -32q0 -8 1 -24l101 -5v-84h-324z" />
    <glyph glyph-name="uni2126" unicode="&#x2126;" horiz-adv-x="1519" vert-adv-y="2458" 
d="M74 0v169h297q-109 76 -168 149q-129 160 -129 477q0 378 215 574q97 88 220 122q106 30 251 30q192 0 314 -52q212 -90 308 -320q64 -155 64 -354q0 -231 -70 -382q-59 -126 -227 -244h297v-169h-590v183q110 54 181 139q59 70 81 133q41 117 41 303q0 258 -79 404
q-88 163 -320 163q-231 0 -320 -163q-79 -146 -79 -405q0 -245 68 -359q83 -140 235 -215v-183h-590z" />
    <glyph glyph-name="partialdiff" unicode="&#x2202;" vert-adv-y="2458" 
d="M149 501q0 222 48 325q39 84 103 128q109 77 322 77q146 0 228 -40q23 -11 56 -34q-14 169 -39 218q-26 53 -66 79q-70 48 -215 48q-131 0 -290 -32l-26 195q158 33 318 33q329 0 461 -143q75 -81 97 -229q16 -101 16 -356v-282q0 -197 -42 -297q-39 -95 -123 -149
q-108 -70 -340 -70q-214 0 -328 61q-107 57 -148 186q-32 98 -32 282zM417 478q0 -198 52 -249q58 -57 189 -57q134 0 188 57q29 31 39 82q13 62 13 182q0 170 -21 228q-25 66 -94 93q-43 17 -125 17q-161 0 -206 -80q-35 -61 -35 -273z" />
    <glyph glyph-name="uni2206" unicode="&#x2206;" horiz-adv-x="1566" vert-adv-y="2458" 
d="M-52 0v157l137 10q37 71 77 162l339 771q13 29 57 137q51 127 67 170h318q54 -143 131 -321l322 -745q34 -78 81 -174l137 -10v-157h-1666zM380 197h802q-14 37 -31 77l-370 890l-365 -877q-21 -50 -36 -90z" />
    <glyph glyph-name="product" unicode="&#x220f;" horiz-adv-x="1433" vert-adv-y="2458" 
d="M2 -322l171 21q5 124 5 247v1194q0 124 -5 248l-171 21v156h1430v-156l-171 -21q-5 -112 -5 -248v-1194q0 -136 5 -247l171 -21v-156h-625v156l186 21q5 122 5 247v1178q0 133 -5 244h-552q-5 -222 -5 -244v-1178q0 -125 5 -247l186 -21v-156h-625v156z" />
    <glyph glyph-name="summation" unicode="&#x2211;" vert-adv-y="2458" 
d="M84 -267l453 842l-430 770v220h1115v-371h-212l-21 169q-105 5 -200 5h-394l442 -786l-470 -863h454q145 0 238 5l19 190h212v-392h-1206v211z" />
    <glyph glyph-name="minus" unicode="&#x2212;" vert-adv-y="2458" 
d="M126 552l16 197h1050l-16 -197h-1050z" />
    <glyph glyph-name="radical" unicode="&#x221a;" vert-adv-y="2458" 
d="M71 579v203h382l89 -331q2 -8 8 -28q2 -10 12 -48q47 191 154 560l230 788h594v-204h-390l-445 -1519h-296l-164 579h-174z" />
    <glyph glyph-name="infinity" unicode="&#x221e;" horiz-adv-x="1593" vert-adv-y="2458" 
d="M67 653q0 176 105 270q94 84 252 84q166 0 290 -110q39 -35 83 -92q59 77 117 120q110 82 255 82q179 0 273 -105q84 -94 84 -249q0 -177 -106 -271q-94 -83 -250 -83q-167 0 -291 111q-38 34 -82 91q-60 -77 -118 -120q-111 -82 -255 -82q-179 0 -272 105
q-85 94 -85 249zM286 653q0 -86 53 -133q42 -37 97 -37q72 0 148 61q23 18 84 90l17 19l-15 18q-68 79 -107 107q-66 45 -126 45q-65 0 -108 -48q-43 -46 -43 -122zM908 653l17 -19q70 -81 108 -107q64 -44 123 -44q65 0 108 47t43 123q0 85 -53 133q-42 37 -98 37
q-66 0 -134 -52q-37 -27 -99 -100z" />
    <glyph glyph-name="integral" unicode="&#x222b;" horiz-adv-x="819" vert-adv-y="2458" 
d="M37 -481l21 209q71 -17 120 -17q59 0 80 38q11 19 13 38q5 45 5 160v1144q0 265 30 331q71 155 290 155q83 0 188 -23l-28 -205q-78 11 -115 11q-58 0 -81 -41q-11 -20 -13 -37q-5 -32 -5 -105v-1195q0 -203 -8 -252q-21 -129 -98 -180q-82 -56 -217 -56q-90 0 -182 25z
" />
    <glyph glyph-name="approxequal" unicode="&#x2248;" vert-adv-y="2458" 
d="M124 320q41 139 104 217q79 99 234 99q146 0 294 -99q94 -63 142 -63q43 0 69 28q39 41 76 137l153 -61q-45 -138 -81 -192q-81 -120 -237 -120q-136 0 -294 99q-101 64 -153 64t-85 -39q-37 -44 -66 -127zM124 718q41 139 104 218q78 98 234 98q146 0 294 -98
q95 -63 142 -63q43 0 69 28q39 41 76 137l153 -62q-45 -138 -81 -191q-81 -120 -237 -120q-136 0 -294 98q-101 64 -153 64q-94 0 -151 -165z" />
    <glyph glyph-name="notequal" unicode="&#x2260;" vert-adv-y="2458" 
d="M126 372l16 197h380l77 163h-473l16 197h549l114 243l195 -87l-73 -156h265l-16 -197h-340l-77 -163h433l-16 -197h-509l-114 -243l-196 87l73 156h-304z" />
    <glyph glyph-name="lessequal" unicode="&#x2264;" vert-adv-y="2458" 
d="M129 0v221h872l-872 403v179l1020 472v-265l-662 -296l662 -297v-417h-1020z" />
    <glyph glyph-name="greaterequal" unicode="&#x2265;" vert-adv-y="2458" 
d="M170 0v417l662 297l-662 296v265l1020 -472v-179l-872 -403h872v-221h-1020z" />
    <glyph glyph-name="dotmath" unicode="&#x22c5;" horiz-adv-x="659" vert-adv-y="2458" 
d="M177 503v294h305v-294h-305z" />
    <glyph glyph-name="lozenge" unicode="&#x25ca;" vert-adv-y="2458" 
d="M38 704l622 797l621 -797l-621 -798zM357 704l303 -380l302 380l-302 380z" />
    <glyph glyph-name="uniE000" unicode="&#xe000;" horiz-adv-x="995" vert-adv-y="1989" 
d="M0 995h995v-995h-995v995z" />
    <glyph glyph-name="uniEA3F" unicode="&#xea3f;" horiz-adv-x="495" vert-adv-y="2458" 
d="M86 929l63 537h285l-125 -537h-223z" />
    <glyph glyph-name="uniEA4F" unicode="&#xea4f;" horiz-adv-x="1024" vert-adv-y="2458" 
d="M336 1143l229 322h204l-120 -322h-313z" />
    <glyph glyph-name="uniEA66" unicode="&#xea66;" horiz-adv-x="1024" vert-adv-y="2458" 
d="M338 -489l89 322h314l-199 -322h-204z" />
    <glyph glyph-name="uniEA67" unicode="&#xea67;" horiz-adv-x="1024" vert-adv-y="2458" 
d="M350 929l63 537h285l-125 -537h-223z" />
    <glyph glyph-name="uniEA69" unicode="&#xea69;" horiz-adv-x="1024" vert-adv-y="2458" 
d="M338 -489l89 322h314l-199 -322h-204z" />
    <glyph glyph-name="uniEFED" unicode="&#xefed;" horiz-adv-x="1024" vert-adv-y="2458" 
d="M374 1547v277h276v-277h-276z" />
    <glyph glyph-name="uniEFEE" unicode="&#xefee;" horiz-adv-x="1024" vert-adv-y="2458" 
d="M166 1852h208q6 -53 22 -78q13 -19 40 -33q35 -19 76 -19q54 0 94 30q36 27 44 100h208q-8 -330 -346 -330q-336 0 -346 330z" />
    <glyph glyph-name="uniEFF1" unicode="&#xeff1;" horiz-adv-x="1024" vert-adv-y="2458" 
d="M362 -278q0 131 128 249l74 65h148q-121 -171 -121 -289q0 -103 107 -103q63 0 150 25l34 -142q-98 -36 -212 -36q-128 0 -205 44q-103 58 -103 187z" />
    <glyph glyph-name="uniEFF2" unicode="&#xeff2;" horiz-adv-x="1024" vert-adv-y="2458" 
d="M309 -461l30 133q112 -28 196 -28q80 0 80 70q0 41 -28 54q-44 21 -169 24l-22 52l122 211h173l-81 -148q114 -15 170 -49q64 -39 64 -148q0 -107 -63 -163q-64 -56 -189 -56q-132 0 -283 48z" />
    <glyph glyph-name="uniEFF3" unicode="&#xeff3;" horiz-adv-x="1024" vert-adv-y="2458" 
d="M277 1732q0 106 71 170q61 56 169 56q111 0 174 -71q55 -62 55 -157q0 -109 -71 -172q-61 -55 -162 -55q-118 0 -181 71q-55 63 -55 158zM410 1732q0 -57 32 -86q27 -24 69 -24q50 0 77 31q25 29 25 78q0 55 -32 84q-27 24 -68 24q-44 0 -71 -24q-32 -29 -32 -83z" />
    <glyph glyph-name="uniEFF5" unicode="&#xeff5;" horiz-adv-x="1024" vert-adv-y="2458" 
d="M76 1551q30 127 88 201q66 85 197 85q117 0 227 -74q57 -39 86 -39q55 0 82 103h191q-20 -131 -72 -207q-57 -83 -193 -83q-119 0 -236 73q-64 40 -102 40q-49 0 -77 -99h-191z" />
    <glyph glyph-name="uniEFF7" unicode="&#xeff7;" horiz-adv-x="1024" vert-adv-y="2458" 
d="M109 1529l282 322h241l282 -322h-242l-161 154l-160 -154h-242z" />
    <glyph glyph-name="uniF6C9" unicode="&#xf6c9;" horiz-adv-x="1024" vert-adv-y="2458" 
d="M387 1529l120 322h313l-229 -322h-204z" />
    <glyph glyph-name="uniF6CA" unicode="&#xf6ca;" horiz-adv-x="1024" vert-adv-y="2458" 
d="M109 1851h242l161 -154l160 154h242l-282 -322h-241z" />
    <glyph glyph-name="uniF6CB" unicode="&#xf6cb;" horiz-adv-x="1024" vert-adv-y="2458" 
d="M181 1547v277h253v-277h-253zM589 1547v277h253v-277h-253z" />
    <glyph glyph-name="uniF6CE" unicode="&#xf6ce;" horiz-adv-x="1024" vert-adv-y="2458" 
d="M223 1851h314l119 -322h-204z" />
    <glyph glyph-name="uniF6CF" unicode="&#xf6cf;" horiz-adv-x="1024" vert-adv-y="2458" 
d="M226 1529l91 322h289l-201 -322h-179zM593 1529l91 322h289l-201 -322h-179z" />
    <glyph glyph-name="uniF6D0" unicode="&#xf6d0;" horiz-adv-x="1024" vert-adv-y="2458" 
d="M181 1585v197h660v-197h-660z" />
    <glyph glyph-name="uniFB01" unicode="&#xfb01;" horiz-adv-x="1465" vert-adv-y="2458" 
d="M16 807l30 188h165v135q0 153 50 242q76 134 280 134q122 0 279 -40l-26 -177q-116 26 -189 26q-96 0 -121 -79q-15 -50 -15 -136v-105h288l-29 -188h-259v-468q0 -70 5 -163l209 -19v-157h-635v156l158 24q5 64 5 144v483h-195zM817 0v156l176 21q5 88 5 129v325
q0 135 -5 200l-165 8v156l436 27q-8 -213 -8 -350v-367q0 -42 1 -128l188 -21v-156h-628zM982 1163v277h276v-277h-276z" />
    <glyph glyph-name="uniFB02" unicode="&#xfb02;" horiz-adv-x="1440" vert-adv-y="2458" 
d="M16 807l30 188h165v106q0 176 49 261q35 62 99 98q81 46 234 46q89 0 233 -17q118 -14 261 -14q80 0 147 10q-9 -232 -9 -365v-815q0 -87 1 -128l188 -21v-156h-623v156l171 21q5 64 5 129v760q0 104 -6 207q-189 42 -320 42q-95 0 -133 -44q-39 -46 -39 -168v-108h287
l-28 -188h-259v-468q0 -70 5 -163l197 -19v-157h-623v156l158 24q5 64 5 144v483h-195z" />
    <glyph glyph-name="glyph155" horiz-adv-x="492" vert-adv-y="2458" 
 />
    <glyph glyph-name="glyph172" vert-adv-y="1319" 
 />
    <glyph glyph-name="glyph210" horiz-adv-x="492" vert-adv-y="2458" 
 />
    <glyph glyph-name="glyph291" horiz-adv-x="492" vert-adv-y="2458" 
 />
    </font>
</defs>
</svg>
