<svg id="fondo" xmlns="http://www.w3.org/2000/svg" height="25px" viewBox="0 0 25 25" width="25px">
<rect id="rect3" width="25" height="25" fill="#E8E8E8"/>
<path id="path5" d="M12.5,25h0.3c0-0.1-0.1-0.1-0.1-0.2,0,0-0.1,0.1-0.2,0.2z" fill="#E2E2E2"/>
<path id="path7" d="M24.8,8.2h0.2v-0.4c-0.1,0.1-0.1,0.1-0.2,0.2v0.2z" fill="#E2E2E2"/>
<path id="path9" fill="#e2e2e2" d="m23.9,18.476c-0.1-0.2-0.1-0.3-0.1-0.4h-0.5c-0.1-0.2-0.2-0.3-0.4-0.5v0.8c0.1,0,0.2,0,0.3,0.1v0.6c-0.1,0-0.2,0.1-0.3,0.1v0.3h0.6c0-0.2,0-0.4,0.1-0.6h0.8c-0.2,0.2-0.3,0.3-0.5,0.4v0.4c0.2,0.2,0.4,0.3,0.6,0.5v1.8c0.1,0.1,0.3,0.2,0.5,0.3-0.2,0.1-0.3,0.1-0.5,0.2v0.6h-0.6c-0.1-0.1-0.1-0.3,0.1-0.3,0.1,0,0.1-0.1,0.3-0.3-0.3,0-0.6-0.1-0.9-0.1,0.3-0.3,0.5-0.5,0.7-0.8v-1.3c-0.2,0.2-0.4,0.4-0.6,0.6v0.4c-0.3,0.3-0.5,0.5-0.8,0.8h-0.5v-0.2c0.1,0,0.2-0.1,0.3-0.1v-0.6h-1.3v-0.3h0.9c0.2-0.2,0.3-0.4,0.5-0.6-0.3,0-0.5-0.1-0.6-0.1-0.1,0.2-0.2,0.3-0.4,0.5v-0.8h1.3v-0.3h-0.6v-0.6c0.2-0.1,0.3-0.2,0.5-0.4-0.4,0-0.6-0.1-0.8-0.1v0.8c-0.2-0.2-0.3-0.2-0.5-0.4h-0.4c-0.1,0.1-0.2,0.2-0.4,0.5v-1.1c0.1-0.1,0.3-0.1,0.3,0.2,0,0.1,0.1,0.1,0.3,0.2v-1c-0.1,0-0.2-0.1-0.4-0.1,0.1-0.1,0.2-0.2,0.4-0.4v-0.5h-0.3c0,0.1-0.1,0.2-0.1,0.3h-0.5c-0.1,0.1-0.1,0.3-0.2,0.4h-0.3v0.6c0.1,0,0.2,0.1,0.3,0.1v0.6h-0.6v1.3h0.8c0.1,0,0.1,0.1,0.1,0.1v0.6h-0.3c-0.1-0.1-0.1-0.2-0.2-0.4-0.2,0.2-0.4,0.4-0.7,0.7,0.3,0,0.5,0.1,0.8,0.1v0.6h1v0.3h-0.7v0.6c0.1,0,0.2,0.1,0.3,0.1v0.9c-0.1,0-0.2,0-0.3,0.1v0.6h-0.3v-0.8c-0.3-0.3-0.5-0.5-0.9-0.8h0.8c0.2-0.4-0.1-0.3-0.3-0.4v-0.4l-0.8-0.8h-0.8v0.3h0.3c0,0.2,0,0.4,0.1,0.6,0.1,0,0.2,0.1,0.4,0.2-0.2,0.2-0.4,0.2-0.6,0.4,0.2,0.1,0.3,0.2,0.5,0.3-0.2,0.2-0.3,0.3-0.5,0.5-0.1,0-0.3,0-0.6,0.1,0.2,0.4,0.6,0.5,0.8,0.9h-1.3v-0.9c0.1-0.1,0.2-0.1,0.3-0.2s0.1-0.2,0.3-0.4v-0.4c0.1-0.1,0.2-0.2,0.5-0.4-0.4,0-0.6-0.1-0.8-0.1v-0.3c0.2,0,0.4,0,0.6-0.1v-0.3h-0.9c0-0.1,0-0.2-0.1-0.3l-0.3-0.1v1.7h-0.3v-1.3h-0.3v0.9h-1v-0.6c0.1,0,0.2-0.1,0.4-0.2-0.2-0.1-0.3-0.2-0.4-0.3v-0.4c0.3-0.3,0.6-0.6,0.9-0.9,0.1,0.1,0.2,0.3,0.3,0.5,0.1-0.2,0.2-0.3,0.3-0.4h0.5c0,0.1,0.1,0.2,0.1,0.3h0.5c0.2-0.2,0.3-0.3,0.5-0.5v-0.4l-1.3-1.3v-0.5h-0.3c0,0.2,0,0.4-0.1,0.6-0.1,0-0.2,0-0.3,0.1v0.6h-0.6c0,0.1,0,0.1-0.1,0.3h-0.6v-0.9c-0.1,0-0.2-0.1-0.3-0.1v-0.7l0.9,0.9c0-0.3,0-0.5,0.1-0.7,0.1-0.1,0.2-0.1,0.4-0.2l-0.6-0.6c-0.1,0.1-0.1,0.2-0.2,0.2-0.1,0.1-0.1,0.1-0.2,0.2-0.2-0.1-0.2-0.2-0.1-1.1,0.2,0.2,0.3,0.3,0.6,0.5v-1.1h0.7v-0.6c-0.2-0.1-0.2-0.1-0.4,0.3h-0.5c0,0.1-0.1,0.2-0.1,0.4-0.2-0.2-0.4-0.3-0.6-0.5,0.1-0.1,0.3-0.3,0.5-0.5h0.5v-0.6c-0.1,0-0.3,0.2-0.4,0.3h-0.5c-0.1,0.1-0.1,0.2-0.1,0.3h-0.8l-0.8-0.8v0.6,0.5c0.1,0,0.2,0,0.3,0.1v0.5l0.6,0.6c0-0.3,0.1-0.5,0.1-0.8,0.2,0.2,0.4,0.3,0.6,0.5v0.6h-0.6c0,0.1,0.2,0.4,0.3,0.4v0.9c-0.1,0-0.2,0.1-0.4,0.1l0.5,0.5c-0.2,0.1-0.3,0.1-0.4,0.1v0.6h0.3c0,0.2,0,0.4,0.1,0.6h0.6v1c-0.1,0-0.1,0-0.3,0.1v0.8c-0.2,0.2-0.4,0.3-0.6,0.5,0-0.3-0.1-0.5-0.1-0.7,0.1,0,0.2-0.1,0.3-0.1v-0.9c0.1,0,0.2-0.1,0.3-0.1v-0.2h-0.6c0,0.2,0,0.4-0.1,0.6h-0.9c-0.1-0.1-0.2-0.2-0.4-0.5v-0.4c0.1-0.1,0.2-0.2,0.5-0.4h0.8v-0.3h-0.3c0-0.1-0.1-0.2-0.1-0.3h-0.5c-0.1-0.2-0.2-0.3-0.4-0.4-0.1,0.2-0.1,0.3-0.1,0.4h-0.6v0.9c-0.4,0.2-0.3-0.1-0.4-0.2h-0.5c-0.1,0.1-0.2,0.2-0.3,0.4-0.2-0.4-0.1-0.8-0.1-1.1h-0.3c0,0.1-0.1,0.2-0.1,0.3h-0.6c0-0.1-0.1-0.2-0.1-0.3h-0.9v0.3c-0.1,0-0.2,0.1-0.3,0.1v0.6h1.6c0-0.1,0.1-0.2,0.1-0.3h0.2v0.6h-0.6c0,0.1-0.1,0.2-0.1,0.3h-1.2l-0.4-0.4v0.8c-0.3,0-0.5,0-0.8,0.1l0.8,0.8c-0.2,0.1-0.3,0.2-0.5,0.3,0.2,0.1,0.3,0.2,0.5,0.3-0.2,0.1-0.3,0.3-0.5,0.5h1.5v0.7c-0.2,0-0.4,0-0.6,0.1v0.3h1v0.8c0.4-0.5,0.8-0.8,1.2-1.2l0.6,0.6c-0.2,0.1-0.3,0.1-0.4,0.1v0.5l0.3,0.3h0.7c0.1-0.2-0.3-0.1-0.3-0.4,0.1-0.1,0.3-0.3,0.5-0.5h0.5v-0.6c-0.1,0-0.2-0.1-0.3-0.1v-0.5c-0.1-0.1-0.3-0.1-0.4-0.2,0.1-0.1,0.3-0.1,0.3-0.2,0.1-0.1,0.1-0.2,0.2-0.3h0.7c-0.2,0.2-0.3,0.4-0.5,0.6,0.3,0,0.5,0.1,0.7,0.1,0,0.1,0,0.1,0.1,0.3,0.2,0,0.4,0,0.8,0.1-0.2,0.2-0.4,0.4-0.6,0.6h0.6,0.5v0.8l-0.6-0.6v0.8h0.6v0.2h3.7v-0.2h0.2c0,0.1,0.1,0.1,0.1,0.2h0.3c0.4-0.4,0.8-0.8,1.3-1.3v0.9c0.1,0.2,0.2,0.3,0.3,0.4h0.3c0-0.1,0.1-0.1,0.1-0.2h0.5v0.2h0.4c0-0.1,0.1-0.1,0.1-0.2,0.1-0.1,0.2-0.1,0.2-0.2,0.1-0.1,0.1-0.1,0.2-0.3,0.1,0.2,0.1,0.3,0.2,0.5h0.9v0.2h1.6v-6.9h-0.4c-0.2-0.1-0.4,0.2-0.7,0.4z"/>
<path id="path11" d="M24.4,4.5c0.1-0.2,0.2-0.3,0.4-0.4,0.1,0.2,0.1,0.3,0.1,0.4h0.1v-4.3h-0.2v-0.2h-1.1v0.5h-1.7c0.2,0.3,0.4,0.4,0.6,0.6h0.5c0.1-0.1,0.2-0.2,0.4-0.5,0,0.4,0.1,0.6,0.1,0.8h0.6v0.6h-0.9c0-0.1,0-0.2-0.1-0.3h-1v0.6c-0.1,0-0.2,0.1-0.3,0.1v0.2c0.1,0,0.2,0.1,0.3,0.1v0.7c-0.5-0.5-0.9-0.8-1.3-1.2v-0.5h-0.3v0.6h-0.6c-0.1-0.1-0.2-0.2-0.3-0.4-0.2,0.4-0.1,0.7-0.1,1,0.1,0.1,0.3,0.2,0.5,0.4h-0.7l-0.5-0.5c0.1-0.1,0.2-0.1,0.4-0.2v-0.9c0.1,0,0.2-0.1,0.4-0.1l-0.4-0.4v-0.6c-0.2,0.1-0.3,0.1-0.3,0.1,0,0.2-0.1,0.3-0.4,0.2v-0.6c-0.3-0.1-0.3,0.2-0.4,0.3-0.3,0.2-0.4,0.4-0.8,0.7h-0.4v0.5c-0.2,0.1-0.3,0.2-0.5,0.4h1.5v0.3h-1v0.6c-0.1,0.1-0.2,0.2-0.4,0.3,0.4,0.2,0.7,0.1,1.1,0.1,0,0.1,0,0.1,0.1,0.3-0.2,0-0.4,0-0.7,0.1,0,0.1-0.1,0.2-0.1,0.3h-0.5c-0.3-0.3-0.6-0.6-0.9-1h-0.5v-0.3h0.9c0,0.1,0.1,0.2,0.1,0.3h0.3v-1c-0.4-0.2-0.2,0.3-0.5,0.3-0.1-0.1-0.2-0.2-0.3-0.4-0.1,0.1-0.2,0.3-0.2,0.4h-0.9c0-0.1,0-0.2-0.1-0.3h-0.9c-0.1,0.2-0.3,0.4-0.5,0.6h-0.5v-0.6h0.7c-0.2-0.3-0.4-0.4-0.6-0.7h-0.9v-1h-0.8c0.2,0.2,0.4,0.4,0.5,0.6-0.2,0.1-0.3,0.1-0.4,0.2,0,0.1,0,0.2,0.1,0.2,0.2,0.1,0.4,0,0.3,0.4h0.7v1.3h-0.6c-0.1,0.2-0.1,0.3-0.1,0.3h-0.5c0-0.1-0.1-0.2-0.1-0.3h-0.2c0,0.1-0.1,0.2-0.1,0.3h-0.9c0-0.1,0-0.1-0.1-0.3,0.2,0,0.5-0.1,0.7-0.1v-0.3c-0.2,0-0.4,0-0.6-0.1v-0.5c-0.6,0.3-0.7,0.2-0.8,0.5,0,0.1-0.1,0.1-0.3,0.3,0-0.4,0-0.7-0.1-1.1h-0.2c0,0.1-0.1,0.2-0.1,0.4h-0.7l0.5,0.5v0.5c0.1-0.1,0.1-0.1,0.2-0.1v0.5c0.3,0.2,0.5,0.4,0.7,0.6,0,0.1-0.1,0.2-0.3,0.3,0,0.1,0,0.3-0.1,0.5h-0.6v-0.5l-0.8-0.8h-1.7l-0.3-0.3-0.3-0.3h-0.5v-0.3h0.8c-0.3-0.3-0.4-0.5-0.6-0.7,0.3,0,0.5-0.1,0.7-0.1,0.2-0.3,0.4-0.5,0.7-0.8,0.1,0.5,0,1,0.1,1.4h1.3v-0.6h-0.5c-0.2-0.1-0.4-0.3-0.6-0.4,0-0.1,0.1-0.1,0.1-0.2h0.2v-1.1c-0.2,0.2-0.3,0.3-0.5,0.5-0.2-0.3,0-0.6-0.1-0.9h-0.3v1.1h-1c0-0.2,0-0.4-0.1-0.6-0.1,0-0.2-0.1-0.4-0.3,0.4,0,0.6-0.1,0.8-0.1v0.7h0.3v-0.8h-2c0,0.1-0.1,0.1-0.1,0.2h-0.4c0,0.1-0.1,0.2-0.1,0.3h-0.5l-0.5-0.5h-1v0.5c-0.1,0-0.2,0-0.3,0.1v0.9h-0.2v1.4h0.4c0.2,0.1,0.3,0.3,0.6,0.6h-1v1h0.1c0.1,0.3,0.4,0.5,0.7,0.8v-1.1h0.8c-0.1,0.1-0.2,0.2-0.2,0.3-0.1,0.1-0.2,0.1-0.3,0.3h0.7c0.1-0.1,0.2-0.3,0.4-0.5-0.1-0.1-0.3-0.2-0.5-0.4,0.3,0,0.5-0.1,0.8-0.1v-0.7c-0.2,0.1-0.3,0.2-0.5,0.4h-0.5v-1.1l0.3,0.3c0.1,0.1,0.2,0.1,0.3,0.2,0-0.3,0-0.5,0.1-0.7h0.6c0.1,0.1,0.1,0.3-0.1,0.3-0.1,0-0.1,0.1-0.3,0.3,0.3,0,0.6,0.1,0.8,0.1v0.2c-0.1,0-0.2,0.1-0.3,0.1v0.5l0.6,0.6v0.8c0.2,0.1,0.3,0.2,0.5,0.3-0.4,0-0.6,0.1-0.8,0.1,0,0.1,0,0.1-0.1,0.3-0.2,0-0.4,0-0.6,0.1v0.2c0.1,0.1,0.2,0.1,0.4,0.2-0.3,0.2-0.5,0.5-0.8,0.8,0.4,0.1,0.7,0,0.9,0.1l0.7,0.7c0.2,0,0.1,0.1,0.1,0.3h0.3c0-0.1,0.1-0.2,0.2-0.3h0.3v-0.6c-0.2-0.1-0.3-0.2-0.5-0.2,0.2-0.2,0.3-0.3,0.5-0.5h-0.8v-0.3h1.3c0,0.1,0.1,0.2,0.2,0.4,0.1-0.3,0.3-0.4,0.5-0.7v1c0.1,0,0.2,0.1,0.4,0.1v0.6h1c0,0.1,0,0.2,0.1,0.3h1.3v-0.3h-0.6c0-0.1-0.1-0.2-0.1-0.3-0.1,0-0.2-0.1-0.3-0.1v-0.8c0.2,0.5,0.4,0.7,0.5,0.9s0.2,0.1,0.3,0.1v-0.9c-0.1-0.2-0.4-0.4-0.6-0.6,0.1-0.1,0.3-0.3,0.5-0.5h0.5c0-0.1,0.1-0.2,0.1-0.4h0.7c-0.2-0.1-0.3-0.2-0.4-0.4v-0.5h0.2c0.2,0.3,0.5,0.5,0.8,0.8-0.1,0.1-0.2,0.2-0.4,0.3v0.5h0.6c0-0.2,0-0.4,0.1-0.8l0.6,0.6v0.5c-0.1,0-0.2,0.1-0.3,0.1v0.3h0.6c0-0.1,0.1-0.2,0.2-0.4,0.2,0.2,0.2,0.4,0.4,0.6,0.1-0.2,0.2-0.3,0.3-0.5,0.2,0.1,0.3,0.3,0.4,0.4,0.3-0.3-0.1-0.7,0.3-0.8,0.1,0.1,0.1,0.3,0.3,0.5,0.1-0.2,0.2-0.3,0.4-0.5,0.1,0.2,0.1,0.3,0.2,0.4l0.3,0.3c-0.2,0-0.4,0.1-0.6,0.1,0,0.1,0,0.2-0.1,0.3h-0.6c0,0.1-0.1,0.2-0.1,0.3h-0.6c0,0.1-0.1,0.2-0.1,0.3h-0.5l-0.6-0.6h-1.1c-0.2,0.2-0.4,0.4-0.7,0.8v0.8c-0.1,0-0.2,0-0.3,0.1v0.6c0.1,0,0.2,0,0.3,0.1v1.6c0.1,0,0.2,0.1,0.4,0.1v0.3h0.5c0.2-0.3,0.5-0.5,0.8-0.8v-0.8c-0.1,0-0.2-0.1-0.3-0.1v-0.6h0.6v0.8c0.2,0.2,0.3,0.3,0.3,0.4,0.1,0.2,0.2,0.1,0.3,0.1v-0.5c0.3-0.3,0.6-0.6,0.9-0.9,0.1,0.1,0.1,0.3,0.2,0.4h0.2v-0.6c-0.1-0.1-0.3-0.1-0.5-0.2,0.3-0.3,0.4-0.3,0.6-0.5-0.1-0.1-0.3-0.2-0.4-0.3v-0.2c0.2,0,0.4,0,0.6-0.1,0.1-0.1,0.2-0.2,0.3-0.4,0.2,0.5,0,1,0.2,1.5,0.2-0.2,0.3-0.3,0.6-0.6v1.4c0.1,0,0.2,0,0.3,0.1v-1.3c0.2,0.1,0.2,0,0.4,0l-0.5-0.5h0.7c0.1,0.1,0.1,0.2,0.1,0.3h0.6v0.6c0.3,0.2,0.4,0.1,0.4-0.2h1.6v0.6h-0.6c0-0.1,0-0.2-0.1-0.3h-0.5c-0.2,0.2-0.3,0.3-0.5,0.6h1.4c0,0.1,0.1,0.2,0.1,0.3-0.2,0-0.4,0-0.7,0.1v0.3h0.6c0.2,0.2,0.3,0.4,0.5,0.6-0.1,0.1-0.3,0.1-0.4,0.2v0.5c-0.1,0.1-0.2,0.1-0.4,0.2l0.5,0.5h0.4l0.9,0.9c-0.1,0.1-0.2,0.2-0.4,0.3-0.1,0.1-0.2,0.2-0.3,0.3v0.5c-0.2,0-0.4,0-0.6,0.1v0.2c0.1,0,0.2,0.1,0.3,0.1v0.6h0.6c0-0.1,0-0.2,0.1-0.3h1c-0.2,0.2-0.3,0.4-0.5,0.6h-0.5c-0.1,0.1-0.1,0.2-0.3,0.4-0.1-0.2-0.2-0.3-0.3-0.5-0.2,0.2-0.3,0.3-0.5,0.5v0.5h0.9c0-0.1,0.1-0.2,0.1-0.3h0.2c0,0.2,0,0.4,0.1,0.5,0.2,0.2,0.3,0.4,0.5,0.6,0.2-0.2,0.4-0.4,0.6-0.7-0.3,0-0.6-0.1-0.8-0.1-0.1-0.3,0.2-0.3,0.3-0.3,0.1-0.1,0.1-0.2,0.2-0.4,0.1,0.2,0.2,0.4,0.3,0.5,0.1-0.1,0.1-0.2,0.2-0.3s0.1-0.1,0.3-0.2v0.7c-0.1,0-0.2,0.1-0.3,0.1v0.2c0.2,0,0.4,0,0.7,0.1v0.3h0.3v-0.6c-0.1,0-0.2,0-0.3-0.1v-0.6c0.1-0.1,0.3-0.3,0.6-0.5,0,0.3,0.1,0.5,0.1,0.7h0.3v-0.9c0.2-0.2,0.3-0.3,0.5-0.5l0.8,0.8c-0.2,0.2-0.3,0.3-0.5,0.5l-0.5-0.5v1.1c0.1,0,0.2,0.1,0.3,0.1v1.2c0.1,0,0.4-0.3,0.5-0.3,0.2,0.2,0.4,0.5,0.7,0.8,0.1-0.1,0.1-0.3,0.2-0.4s0.2-0.2,0.3-0.3h0.5v-2l-0.2-0.2c0.1-0.1,0.1-0.1,0.2-0.2v-0.3c-0.2,0-0.3,0-0.5-0.1,0-0.1,0-0.1-0.1-0.3h0.5v-0.3h-0.5v-0.8c-0.2,0.2-0.4,0.3-0.5,0.5-0.1,0.1-0.3,0.2-0.5,0.5v-0.7c0.2-0.2,0.5-0.5,0.8-0.8h-0.6c-0.3,0.3-0.5,0.5-0.8,0.8v-0.7c0.1,0,0.2-0.1,0.3-0.1v-1h-0.6v-0.3h1v0.4l0.6,0.6c0.1-0.1,0.1-0.3,0.2-0.4,0.2-0.1,0.2,0.1,0.3,0.3,0,0.1,0.2,0.1,0.4,0.2-0.2,0.1-0.3,0.2-0.6,0.4,0.2,0.1,0.3,0.2,0.4,0.2v0.6h0.2v-3h-0.5v0.2c0.1,0.1,0.2,0.1,0.3,0.2,0,0.1,0,0.2-0.1,0.2-0.2,0-0.3,0.2-0.3,0.4h-0.5c-0.2-0.3,0.1-0.3,0.3-0.4v-0.9c-0.1,0-0.2-0.1-0.4-0.2,0.2-0.2,0.3-0.3,0.5-0.5-0.4-0.1-0.8-0.1-1.1-0.1v0.2c0.1,0,0.2,0.1,0.3,0.1v1.1c-0.2-0.1-0.2-0.2-0.3-0.3l-0.2-0.2c-0.1,0.2-0.1,0.3-0.2,0.5l-0.4-0.4h-0.7c0.3-0.3,0.5-0.5,0.8-0.8v-0.5c-0.2,0-0.4,0-0.6-0.1v-0.6c0.1,0,0.2-0.1,0.3-0.1v-0.9c-0.1,0-0.1,0-0.2-0.1-0.1,0.1-0.1,0.2-0.2,0.4-0.3,0.2-0.5,0-0.8-0.3,0.3,0,0.6-0.1,0.9-0.1l-0.8-0.8v-0.5h0.6c0.1,0.1,0.2,0.3,0.4,0.5v0.8c0.1,0,0.2,0,0.3,0.1v1h0.3v-0.6h0.6c0.3,0.4-0.2,0.3-0.3,0.5,0.1,0.1,0.2,0.2,0.4,0.3-0.1,0.1-0.3,0.2-0.5,0.4,0.4,0,0.6,0.1,0.8,0.1,0-0.1,0.1-0.2,0.1-0.3h0.9v-0.7h-0.6c0-0.2,0-0.4-0.1-0.6-0.1,0-0.2-0.1-0.5-0.2,0.2-0.1,0.4-0.2,0.5-0.3-0.1-0.2-0.3-0.3-0.5-0.5h1.3v-0.4c-0.1,0-0.1,0-0.2-0.1v-0.6c-0.1,0-0.1,0-0.3-0.1,0-0.2,0-0.4-0.1-0.6h-1v-0.3h1.2zm-4.3,3.6l-0.2,0.1c0-0.2,0-0.4-0.1-0.7h-1.3c0-0.2,0-0.4-0.1-0.7h-0.6c0-0.1,0-0.1-0.1-0.3-0.2,0-0.4,0-0.6-0.1v-0.9c0.2-0.2,0.4-0.3,0.6-0.5,0,0.3,0.1,0.5,0.1,0.9,0.1-0.2,0.2-0.3,0.3-0.3,0.1-0.1,0.2-0.1,0.3-0.2v-0.5h0.3v0.9c-0.1,0-0.2,0.1-0.3,0.1v0.2h1.3v1c0.1,0,0.2,0.1,0.3,0.1,0.1,0.3,0.1,0.6,0.1,0.9z" fill="#E2E2E2"/>
<path id="path13" d="M8.9,10.3c-0.1-0.1-0.3-0.2-0.5-0.3,0.2-0.1,0.3-0.2,0.5-0.3-0.1-0.1-0.2-0.2-0.4-0.3v-0.7c-0.3,0.2-0.4,0.4-0.6,0.6,0-0.3-0.1-0.6-0.1-0.8h-0.2c0,0.1-0.1,0.2-0.1,0.3h-1.4c0.2-0.2,0.3-0.4,0.6-0.6-0.3,0-0.5-0.1-0.7-0.1,0-0.1-0.1-0.2-0.1-0.3h-0.5c-0.3-0.1-0.3-0.2-0.5-0.4,0,0.2-0.1,0.3-0.1,0.4h-0.3v0.9c-0.1,0.1-0.3,0.2-0.5,0.4h1.6c-0.2,0.3-0.3,0.5-0.5,0.7h-0.5c0-0.1-0.1-0.2-0.1-0.3h-0.2v1.2c0.2,0.2,0.4,0.4,0.8,0.7h-0.8c0-0.1,0-0.1-0.1-0.3h-0.6c-0.2-0.4,0.1-0.3,0.3-0.4v-1.2h-0.6v-0.6c0.1-0.1,0.3-0.3,0.5-0.4s0.1-0.2,0.1-0.3h-0.5c-0.6,0.4-1,0.9-1.5,1.4-0.2-0.4-0.1-0.7-0.1-1,0.1,0,0.2-0.1,0.3-0.1v-1.1c-0.2,0.2-0.3,0.3-0.5,0.5,0-0.1-0.1-0.2-0.1-0.4h-0.6c-0.1,0.1-0.1,0.2-0.2,0.4-0.2-0.2-0.2-0.3-0.3-0.5-0.2,0.2-0.3,0.3-0.4,0.5v0.2h0.4c0,0.1,0.1,0.2,0.1,0.4h0.6v0.3c-0.2,0-0.3,0.2-0.4,0.5-0.2-0.2-0.2-0.5-0.3-0.5-0.3,0-0.2-0.2-0.3-0.3h-0.1v8.3s0.1-0.1,0.1-0.1v0.7c0.2,0,0.4,0,0.7,0.1v0.3h0.9l0.5,0.5c-0.1,0.1-0.2,0.2-0.4,0.3l0.5,0.5h0.8v-0.3c-0.2,0-0.4,0-0.6-0.1v-0.6c0.1-0.1,0.3-0.1,0.3,0.1,0,0.1,0.1,0.1,0.2,0.2,0.1-0.2,0.1-0.3,0.1-0.4h0.6c0-0.1,0.1-0.2,0.1-0.3,0.1,0,0.2-0.1,0.3-0.1v-1.6h0.3v-0.6c0.3,0,0.6,0,1-0.1-0.1-0.1-0.1-0.2-0.2-0.3,0.1,0-0.1-0.1-0.2-0.2-0.1,0.1-0.1,0.3-0.2,0.4-0.2-0.2-0.4-0.4-0.7-0.6,0.5-0.2,0.9,0,1.3-0.1,0.2-0.3,0.4-0.5,0.6-0.7,0.3,0,0.1,0.5,0.5,0.3v-1.2c0.1-0.1,0.3-0.1,0.4-0.2l-0.5-0.5h0.8v0.5c0.2,0.1,0.3,0.3,0.5,0.5h0.5v-0.2l-0.6-0.6v-1c0.2,0.2,0.3,0.3,0.5,0.4,0.1,0.1,0.3,0.2,0.5,0.4v-0.7c-0.2-0.2-0.4-0.4-0.8-0.7h0.6c0.1-0.1,0.3-0.3,0.5-0.5zm-5.4,3l-0.6-0.6c0,0.3-0.1,0.5-0.1,0.7-0.1,0-0.2,0.1-0.4,0.2,0.2,0.2,0.3,0.3,0.6,0.5-0.3,0-0.5,0.1-0.8,0.1v0.8c-0.2-0.2-0.3-0.2-0.5-0.4h-0.5v-0.6h0.2c0.1,0.1,0.1,0.2,0.2,0.4,0.2-0.2,0.3-0.3,0.5-0.5v-0.5c0.1,0,0.2-0.1,0.3-0.1v-0.9h-0.8-0.8c0-0.1,0-0.2-0.1-0.3,0.2,0,0.5,0,0.8-0.1-0.2-0.2-0.4-0.3-0.5-0.4,0.1-0.1,0.3-0.2,0.5-0.4-0.3,0-0.5-0.1-0.7-0.1-0.2,0.3-0.4,0.5-0.7,0.8v-0.6c0.4-0.4,0.8-0.8,1.2-1.2,0.1,0.1,0.2,0.4,0.2,0.4,0.3,0,0.2,0.2,0.3,0.3h0.8c0.1-0.1,0.2-0.2,0.4-0.4v0.8h-1.3v0.8c0.2-0.2,0.4-0.3,0.5-0.5,0.1,0.2,0.1,0.3,0.2,0.5,0.2-0.2,0.3-0.3,0.5-0.5v0.7c-0.1,0-0.2,0-0.3,0.1v0.7c0.2-0.2,0.4-0.3,0.6-0.5,0.4,0,0.3,0.3,0.3,0.8z" fill="#E2E2E2"/>
<path id="path15" d="M1.5,23.8v0.3h-1v0.5c-0.1,0.1-0.3,0.2-0.4,0.3h1.7v-1.2c-0.1,0.1-0.2,0.1-0.3,0.1z" fill="#E2E2E2"/>
<path id="path17" d="M3.6,24.2h-0.7c0,0.1-0.1,0.1-0.1,0.3h-0.8l0.5,0.5h0.4v-0.1c0.2-0.2,0.4-0.4,0.7-0.7z" fill="#E2E2E2"/>
<path id="path19" d="M16.6,0.2h0.2c0,0.2,0,0.4,0.1,0.6h0.5c0.1-0.2,0.5-0.6,0.8-0.8h-2.4l0.6,0.6c0.1-0.2,0.1-0.3,0.2-0.4z" fill="#E2E2E2"/>
<path id="path21" d="M20,0.2l0.3,0.3c0.1,0,0.3,0,0.6,0.1-0.3,0.3-0.6,0.6-0.9,0.9h0.7c0-0.1,0.1-0.2,0.1-0.4l0.4,0.4h0.5c0.1,0.1,0.1,0.3,0.2,0.4h0.3v-0.6c-0.2,0-0.4,0-0.6-0.1v-0.9c-0.1-0.1-0.2-0.1-0.4-0.2l0.1-0.1h-1.7v0.4c0.3,0.3,0.1-0.2,0.4-0.2z" fill="#E2E2E2"/>
<path id="path23" d="M19.3,0.5l-0.5-0.5h-0.3v0.5h0.8z" fill="#E2E2E2"/>
<path id="path25" d="M11.5,0.5v0.3h0.3c0,0.3,0,0.5,0.1,0.7h0.6c0.1-0.3,0.4-0.5,0.7-0.8v0.6l0.5,0.5h0.5c0,0.1,0.1,0.2,0.1,0.3h0.9c0-0.1,0-0.2,0.1-0.3h0.6v-0.3h-0.7v-0.9h-0.6c-0.1,0.2-0.2,0.2-0.3,0.4-0.2-0.3-0.4-0.6-0.7-0.7,0,0-0.1-0.1-0.1-0.2h-3v0.5c0.4-0.1,0.7-0.1,1-0.1z" fill="#E2E2E2"/>
<path id="path27" d="M0.1,23.5h-0.1v1h0.1v-1z" fill="#E2E2E2"/>
<path id="path29" d="M8.2,18.1v-0.6c-0.2,0-0.2-0.1-0.4-0.1v-1.1c-0.2,0.2-0.3,0.3-0.4,0.5h-0.6v-1.2c0.2-0.2,0.4-0.4,0.6-0.5v-0.5h-0.9c-0.2,0.2-0.3,0.4-0.5,0.5,0.2,0.1,0.3,0.1,0.4,0.2v0.5c-0.1,0-0.2,0.2-0.4,0.3h-0.5c0-0.1-0.1-0.2-0.1-0.3h-0.6c0,0.1-0.1,0.2-0.1,0.3h-0.3v0.6c0.2,0.1,0.2,0.1,0.3,0.1v1.3h-0.6c0,0.1-0.1,0.2-0.1,0.3h-0.6c0,0.2,0,0.4-0.1,0.6h-0.3v0.3h-0.6c-0.1,0.1-0.2,0.3-0.3,0.4-0.1-0.2-0.2-0.3-0.3-0.4-0.2,0.2-0.3,0.3-0.5,0.5v0.9h0.3c0-0.3,0-0.5,0.1-0.6h1.3c0,0.1,0,0.2,0.1,0.3h0.7v0.6c0.1,0,0.2,0.1,0.3,0.1,0,0.1,0,0.2,0.1,0.3h1.5c-0.3,0.2-0.4,0.3-0.5,0.4v0.6h-1.3v0.3h0.5l0.5,0.5c-0.2,0.1-0.3,0.1-0.4,0.2v1.3h0.7v-0.6c0.1-0.1,0.3-0.1,0.3-0.2,0.1-0.2,0.4-0.3,0.5-0.6h0.2v-0.6h1v-0.9c-0.2-0.2-0.4-0.4-0.6-0.5v-0.5c0.1-0.1,0.2-0.2,0.3-0.3s0.2-0.1,0.4-0.3v-0.8c0.2-0.1,0.3-0.2,0.3-0.2,0-0.3-0.5-0.1-0.3-0.5h1.3v-0.6c-0.2,0.1-0.3,0-0.4,0z" fill="#E2E2E2"/>
<path id="path31" d="M1.1,22.9v0.5c-0.2,0.2-0.2,0.3-0.4,0.5h0.8v-1h0.2c0.1,0.1,0.1,0.2,0.1,0.2,0.1,0.1,0.2,0.1,0.3,0.1v-0.6c-0.2-0.2-0.4-0.4-0.6-0.5v-0.5c0.1-0.1,0.2-0.2,0.4-0.3-0.2-0.1-0.3-0.1-0.4-0.2v-0.3h-0.3c0,0.3,0,0.5-0.1,0.7h-0.2c0-0.1-0.1-0.2-0.1-0.3h-0.6v-0.3c0.2,0,0.4,0,0.6-0.1v-0.2c-0.1-0.1-0.2-0.1-0.4-0.2,0.2-0.1,0.3-0.2,0.4-0.3v-0.5c-0.2-0.1-0.2-0.2-0.3-0.2,0.2-0.3,0.3-0.4,0.5-0.6h0.5v-0.3c-0.2,0-0.4,0-0.6-0.1v-0.6h-0.7c0,0.1,0.4,0.5,0.4,0.5-0.1,0.1-0.4,0.2-0.3,0.2,0,0.2-0.1,0.2-0.2,0.2v0.7h0.2v0.8c-0.1,0.1-0.1,0.1-0.2,0.2v2.6h0.8s-0.1-0.3,0.2-0.1z" fill="#E2E2E2"/>
<path id="path33" d="M7.8,24.5v-0.8c-0.2,0.2-0.3,0.3-0.4,0.5-0.1,0-0.3,0-0.6-0.1,0.2-0.2,0.4-0.4,0.6-0.6h0.5v-0.3h-0.9c0,0.1,0,0.2-0.1,0.3h-0.6v0.2c0.1,0.1,0.2,0.1,0.4,0.2-0.2,0.2-0.3,0.3-0.5,0.5,0.3,0,0.6,0.1,0.8,0.1v0.2c-0.2,0-0.4,0.1-0.8,0.1,0.1,0,0.1,0.1,0.2,0.1h1v-0.5c0,0.1,0.2,0.1,0.4,0.1z" fill="#E2E2E2"/>
<path id="path35" d="M5.9,3.2v0.4c0.1,0,0.2,0,0.3-0.1,0-0.1,0-0.2-0.1-0.3h-0.2z" fill="#E2E2E2"/>
<path id="path37" d="M8.9,12.1c0.3,0,0.7,0,1,0.1v0.3h-0.6c0,0.3,0,0.5-0.1,0.7h-0.2c-0.1-0.1-0.1-0.2-0.3-0.5-0.1,0.2-0.2,0.3-0.3,0.5h-0.2v0.5l0.5,0.5c0.1-0.2,0.2-0.3,0.3-0.4s0.2-0.2,0.3-0.4h0.5c0.1-0.1,0.1-0.2,0.2-0.3,0.1,0,0.5,0.4,0.5,0.4,0-0.2,0.1-0.4,0.1-0.7,0.2,0.2,0.4,0.4,0.6,0.5v0.1c-0.2,0.2-0.3,0.3-0.5,0.5h-0.6l0.5,0.5c-0.2,0.1-0.3,0.1-0.4,0.2v1.2c-0.4,0.2-0.2-0.3-0.5-0.3-0.1,0.1-0.2,0.2-0.3,0.3s-0.3,0.2-0.4,0.4c-0.1-0.2-0.2-0.3-0.2-0.4-0.3,0.1-0.2,0.4-0.5,0.4,0,0-0.1,0.1-0.1,0.2,0.1,0.1,0.2,0.1,0.4,0.2-0.2,0.2-0.3,0.3-0.5,0.5,0.2,0.1,0.3,0.1,0.4,0.1v0.4c0.2,0.3,0.3,0.4,0.4,0.5h0.8c0,0.1,0.1,0.2,0.1,0.3,0.2,0,0.4,0,0.6,0.1v0.3h0.3c0.1,0.1,0.1,0.2,0.1,0.3h0.7l-0.4-0.4v-0.5c0.1,0,0.2-0.1,0.4-0.1-0.2-0.2-0.3-0.3-0.5-0.6h0.8v-1.3h0.6c0,0.1,0.1,0.2,0.1,0.3h0.2v-1h-0.2c-0.1,0.1-0.1,0.2-0.2,0.4l-0.7-0.7c-0.3,0-0.1,0.5-0.5,0.3v-0.6h0.6v-0.7h-0.6v-0.3h2.6c0-0.1,0.1-0.2,0.1-0.4l0.5,0.5c0.1-0.2,0.1-0.3,0.1-0.4h0.5c0.2-0.4,0.2-0.4,0.4-0.3v0.4c0.2,0.2,0.3,0.4,0.4,0.5,0.8,0,0.8,0,0.9-0.2-0.1-0.1-0.3-0.2-0.4-0.3,0.3-0.3,0.6-0.4,0.7-0.8h-1v-0.6h-0.3c-0.1,0.1-0.1,0.2-0.2,0.3h-0.2c0-0.1-0.1-0.2-0.1-0.3h-0.5l-0.6-0.6c0.1-0.1,0.2-0.1,0.4-0.2v-0.9c0.4-0.2,0.3,0.1,0.4,0.3h0.8c0.1,0.1,0.1,0.3,0.2,0.3,0.1,0.1,0.2,0.1,0.4,0.2-0.3,0.1-0.4,0.2-0.5,0.2v0.6h0.6c0-0.3,0-0.5,0.1-0.6,0.1,0,0.2-0.1,0.3-0.1,0-0.2,0-0.4,0.1-0.6,0.1,0,0.2-0.1,0.3-0.1v-0.6c-0.1,0-0.2-0.1-0.3-0.1v-0.3h-0.3c0,0.3-0.1,0.5-0.1,0.6h-0.6v-0.6c-0.1,0-0.2-0.1-0.3-0.1-0.1-0.1-0.1-0.2-0.2-0.3-0.2,0.3-0.4,0.5-0.7,0.7h-0.5c-0.1-0.1-0.1-0.2-0.2-0.4-0.1,0.2-0.2,0.3-0.3,0.4h-0.5c-0.2-0.2-0.4-0.4-0.5-0.6h-0.4c-0.3,0.3-0.4,0.5-0.7,0.6h-0.2v0.3c0.1,0.1,0.2,0.1,0.3,0.2v0.2h-1.1c-0.2,0.2-0.3,0.3-0.5,0.5,0,0.1,0,0.3-0.1,0.5h-0.2c-0.1-0.1-0.1-0.2-0.2-0.3h-0.2c0,0.1-0.1,0.2-0.1,0.3h-0.6v-0.2c0.1-0.1,0.2-0.1,0.3-0.2v-0.3h-0.6c0.6,0.4,0.6,0.7,0.6,1z" fill="#E2E2E2"/>
<path id="path39" d="M19.1,17.2v0.6h-0.3v-0.6c-0.1,0-0.2,0-0.3-0.1v-0.6h-0.6c-0.1,0.1-0.1,0.2-0.2,0.5-0.1-0.2-0.2-0.5-0.3-0.5-0.3,0.1-0.2-0.3-0.2-0.3h-0.7v0.5c0.1,0.1,0.2,0.2,0.4,0.3-0.2,0.1-0.3,0.2-0.5,0.4,0.2,0.1,0.3,0.1,0.4,0.2v0.3h0.3c0.1,0.2,0.1,0.2,0.1,0.3h0.8c0.2,0.3,0.4,0.5,0.6,0.7,0.3-0.3,0.5-0.5,0.8-0.9v-0.5h0.3v-0.3h-0.6z" fill="#E2E2E2"/>
<path id="path41" d="M8.7,7.5h-0.2v0.3c0.3,0,0.3,0,0.2-0.3z" fill="#E2E2E2"/>
</svg>

