<?xml version="1.0" encoding="utf-8"?>
<!-- Generator: Adobe Illustrator 16.0.0, SVG Export Plug-In . SVG Version: 6.00 Build 0)  -->
<!DOCTYPE svg PUBLIC "-//W3C//DTD SVG 1.1//EN" "http://www.w3.org/Graphics/SVG/1.1/DTD/svg11.dtd">
<svg version="1.1" id="contactoscajero" xmlns="http://www.w3.org/2000/svg" xmlns:xlink="http://www.w3.org/1999/xlink" x="0px"
	 y="0px" width="83px" height="1023.969px" viewBox="0 0 83 1023.969" enable-background="new 0 0 83 1023.969"
	 xml:space="preserve">
<g id="cajero">
	<ellipse fill="#EFE7A9" cx="54.05" cy="500.788" rx="7.938" ry="7.958"/>
	<path fill="#EFE7A9" d="M6.501,551.83v-31.754c0-3.104,2.511-5.623,5.607-5.623h11.339c2.23,0,4.15,1.31,5.058,3.183l12.292,24.969
		c0.401,0.855,0.635,1.809,0.635,2.816v6.409H6.501L6.501,551.83z"/>
	<path fill="#EFE7A9" d="M64.503,551.83c0-0.612,0-1.211,0-1.786l-5.396-22.843c-0.633,1.545-1.412,3.431-1.668,3.882
		c-0.604,1.065-1.207,1.799-2.432,2.379c0,0-8.904,3.741-8.945,3.762c-0.002-0.006,0-0.012-0.002-0.018
		c-0.416,0.149-0.861,0.25-1.33,0.25c-2.17,0-3.926-1.765-3.926-3.937c0-1.572,0.925-2.916,2.254-3.549v-0.014
		c0,0,6.735-2.882,7.407-3.183c0.119-0.057,0.706-0.379,0.984-0.994c0.794-1.776,4.182-10.377,4.94-12.276
		c0.646-1.607,2.229-3.894,5.488-4.701c3.71-0.92,7.449,1.426,8.332,5.158l5.063,21.389c0.449,1.723,1.226,6.387,1.226,8.352
		c0,0.521-0.002,3.72-0.005,8.13L64.503,551.83L64.503,551.83z"/>
</g>
<g id="cajeroGrey">
	<ellipse fill="#EFEFEF" cx="54.05" cy="329.847" rx="7.938" ry="7.958"/>
	<path fill="#EFEFEF" d="M6.501,380.889v-31.754c0-3.104,2.511-5.623,5.607-5.623h11.339c2.23,0,4.15,1.309,5.058,3.182
		l12.292,24.969c0.401,0.855,0.635,1.81,0.635,2.816v6.41H6.501L6.501,380.889z"/>
	<path fill="#EFEFEF" d="M64.503,380.889c0-0.613,0-1.211,0-1.787l-5.396-22.842c-0.633,1.545-1.412,3.43-1.668,3.881
		c-0.604,1.065-1.207,1.799-2.432,2.379c0,0-8.904,3.742-8.945,3.762c-0.002-0.006,0-0.012-0.002-0.018
		c-0.416,0.149-0.861,0.25-1.33,0.25c-2.17,0-3.926-1.765-3.926-3.937c0-1.571,0.925-2.916,2.254-3.549v-0.014
		c0,0,6.735-2.881,7.407-3.183c0.119-0.057,0.706-0.379,0.984-0.993c0.794-1.777,4.182-10.377,4.94-12.277
		c0.646-1.607,2.229-3.893,5.488-4.701c3.71-0.92,7.449,1.426,8.332,5.158l5.063,21.389c0.449,1.724,1.226,6.388,1.226,8.353
		c0,0.521-0.002,3.719-0.005,8.129H64.503L64.503,380.889z"/>
</g>
<g id="contact">
	<ellipse fill="#EFE7A9" cx="64.09" cy="168.979" rx="8.055" ry="8.034"/>
	<path fill="#EFE7A9" d="M22.21,176.915c-4.362-0.006-7.896-3.529-7.906-7.888c0.01-4.34,3.544-7.864,7.906-7.86
		c4.356-0.004,7.892,3.521,7.882,7.86C30.103,173.386,26.566,176.909,22.21,176.915z"/>
	<path fill="#EFE7A9" d="M83,209.944v-20.729c0-5.789-4.586-10.43-10.291-10.43l-17.014,0.012c-6.262,0-10.416,5.227-10.416,10.563
		v20.584h6.986v-18.616h1.625v18.616h20.405v-18.616h1.664v18.616H83z"/>
	<path fill="#EFE7A9" d="M35.879,209.944l-5.739-19.879h1.656l5.906,19.879h6.821c-0.017-0.377-0.082-0.776-0.207-1.202
		l-6.912-22.666c-0.736-2.584-4.013-7.166-9.681-7.154H16.859c-5.619-0.012-8.911,4.606-9.751,7.154l-6.911,22.643
		c-0.124,0.434-0.186,0.842-0.198,1.229h6.792l5.926-19.881h1.799l-5.788,19.879L35.879,209.944L35.879,209.944z"/>
</g>
<g id="contactGrey">
	<ellipse fill="#EFEFEF" cx="64.09" cy="8.034" rx="8.055" ry="8.034"/>
	<path fill="#EFEFEF" d="M22.21,15.971c-4.362-0.006-7.896-3.529-7.906-7.887c0.01-4.34,3.544-7.865,7.906-7.861
		c4.356-0.004,7.892,3.521,7.882,7.861C30.103,12.441,26.566,15.965,22.21,15.971z"/>
	<path fill="#EFEFEF" d="M83,49V28.271c0-5.789-4.586-10.43-10.291-10.43l-17.014,0.012c-6.262,0-10.416,5.228-10.416,10.563V49
		h6.986V30.383h1.625V49h20.405V30.383h1.664V49H83z"/>
	<path fill="#EFEFEF" d="M35.879,49L30.14,29.121h1.656L37.703,49h6.82c-0.016-0.377-0.082-0.777-0.207-1.203l-6.911-22.666
		c-0.736-2.584-4.013-7.166-9.681-7.154H16.859c-5.619-0.012-8.911,4.607-9.751,7.154L0.197,47.773
		C0.074,48.207,0.012,48.615,0,49.002h6.792l5.926-19.881h1.799L8.729,49H35.879z"/>
</g>
<path id="periodic_2_" fill="#EFEFEF" d="M41.137,650.005c-6.943-0.127-19.792,2.274-26.344,9.453l-8.578-9.453v26.648h24.928
	l-9.211-10.051c4.617-5.239,11.664-7.703,18.929-7.703c14.036,0.121,26.344,12.026,26.344,26.648
	c-0.115,14.865-13.546,24.197-27.346,24.197l0.483,8.41c22.13,0,36.441-14.858,36.441-34.161
	C76.796,669.228,62.484,650.247,41.137,650.005z"/>
<g id="g3773" transform="matrix(0.99561254,0,0,1.0008803,-28.898001,384.61017)">
	<path id="rect2999" fill="none" stroke="#EFEFEF" stroke-width="0.946" d="M65.67,415.29l36.932,16.572
		c1.516,0.68,2.197,2.457,1.518,3.969l-24.4,54.377c-0.678,1.51-2.457,2.186-3.974,1.505l-36.932-16.571
		c-1.517-0.681-2.197-2.459-1.518-3.971l24.4-54.375C62.374,415.283,64.153,414.61,65.67,415.29z"/>
	<polygon id="rect3769" fill="#EFEFEF" points="67.485,416.105 75.934,419.897 49.078,479.747 40.63,475.956 	"/>
	<polygon id="rect3771" fill="none" stroke="#EFEFEF" stroke-width="0.893" points="79.627,428.13 87.893,431.838 83.676,441.235 
		75.41,437.527 	"/>
</g>
</svg>
