<?xml version="1.0" encoding="utf-8"?>
<!-- Generator: Adobe Illustrator 16.0.0, SVG Export Plug-In . SVG Version: 6.00 Build 0)  -->
<!DOCTYPE svg PUBLIC "-//W3C//DTD SVG 1.1//EN" "http://www.w3.org/Graphics/SVG/1.1/DTD/svg11.dtd">
<svg version="1.1" id="iconAlertHeader" xmlns="http://www.w3.org/2000/svg" xmlns:xlink="http://www.w3.org/1999/xlink" x="0px"
	 y="0px" width="83px" height="82px" viewBox="0 0 83 82" enable-background="new 0 0 83 82" xml:space="preserve">
<g id="Capa_2">
</g>
<path fill="#4C4C4C" d="M18.555,26.234v-0.027h-5.653c-5.859,0-10.606,4.734-10.606,10.572v21.104
	c0,5.838,4.748,10.575,10.606,10.575h5.653v-0.03c5.519-0.375,9.879-4.951,9.879-10.545V36.779
	C28.434,31.188,24.074,26.608,18.555,26.234"/>
<rect x="10.103" y="31.668" fill="#FFFFFF" width="10.517" height="31.212"/>
<path fill="#4C4C4C" d="M75.942,31.592c-1.481-4.329-3.245-5.649-7.547-5.649h-5.107h-4.676l0.912-2.734
	c1.25-3.742,2.498-7.485,3.757-11.231c0.532-1.574,0.728-3.094,0.59-4.631c-0.38-4.349-3.289-7.392-7.066-7.392
	c-0.583,0-1.173,0.072-1.767,0.219c-1.729,0.43-3.199,1.414-4.377,2.926c-2.027,2.618-4.034,5.193-6.01,7.735
	c-3.519,4.518-6.836,8.785-10.125,13.059c-2.203,2.868-3.324,6.203-3.341,9.907c-0.035,7.478-0.028,15.079-0.021,22.427l0.007,4.949
	c0.006,4.539,3.136,7.962,7.286,7.969c4.088,0.007,8.177,0.007,12.26,0.007c4.254,0,8.506,0,12.76-0.007
	c3.928-0.007,7.271-3.025,7.959-7.189c0.72-4.401,1.433-8.806,2.14-13.21c0.501-3.105,0.999-6.205,1.503-9.307
	c0.192-1.18,0.412-2.381,0.624-3.54c0.104-0.549,0.199-1.098,0.298-1.649l0.024-0.142v-2.271L75.942,31.592z"/>
<path fill="#FFFFFF" d="M58.104,33.136c1.336,0.007,2.666,0.007,3.997,0.007h6.765c0.223,0,0.39,0.007,0.511,0.02
	c-0.014,0.124-0.035,0.302-0.072,0.542c-1.443,8.922-5.001,27.998-5.001,27.998l-26.437,0.096c0,0-0.007-24.427,0-27.607
	c0.006-2.209,0.576-4.174,1.866-5.838C43.458,23.538,56.53,7.083,56.767,7.083c0.056,0-4.137,15.714-4.549,16.959L58.104,33.136z"/>
</svg>
