<?xml version="1.0" encoding="utf-8"?>
<!-- Generator: Adobe Illustrator 16.0.0, SVG Export Plug-In . SVG Version: 6.00 Build 0)  -->
<!DOCTYPE svg PUBLIC "-//W3C//DTD SVG 1.1//EN" "http://www.w3.org/Graphics/SVG/1.1/DTD/svg11.dtd">
<svg version="1.1" id="iconosbancos" xmlns="http://www.w3.org/2000/svg" xmlns:xlink="http://www.w3.org/1999/xlink" x="0px"
	 y="0px" width="25px" height="191px" viewBox="0 0 25 191" enable-background="new 0 0 25 191" xml:space="preserve">
<g id="Capa_2">
</g>
<path id="bkt1" fill="#999999" d="M4.224,10c2.782,0,4.158-0.775,4.158-3.547c0-2.504-1.023-3.627-3.784-3.627
	c-1.209,0-2.037,0.092-2.641,0.558V0H0v6.623C0,9.16,1.194,10,4.224,10C4.224,10,1.194,10,4.224,10z M11.836,7.095v2.813H9.897V0
	h1.953v5.533h0.369c0.578,0,0.777-0.092,1.179-0.475l2.293-2.089h2.259l-3.479,3.299l3.75,3.64h-2.515l-2.394-2.377
	c-0.4-0.396-0.561-0.437-1.142-0.437L11.836,7.095L11.836,7.095z M4.195,8.66c-2.016,0-2.321-0.314-2.321-2.418
	c0-1.793,0.63-2.043,2.236-2.043c1.617,0,2.25,0.25,2.25,2.043C6.358,8.345,6.006,8.66,4.195,8.66z"/>
<path id="bkt2" fill="#EE7314" d="M4.224,40c2.782,0,4.158-0.775,4.158-3.547c0-2.504-1.023-3.627-3.785-3.627
	c-1.208,0-2.036,0.092-2.64,0.558V30H0v6.623C0,39.16,1.194,40,4.224,40C4.224,40,1.194,40,4.224,40z M11.836,37.095v2.813H9.897V30
	h1.953v5.533h0.369c0.578,0,0.777-0.092,1.179-0.475l2.293-2.089h2.259l-3.479,3.299l3.75,3.64h-2.515l-2.394-2.377
	c-0.4-0.396-0.561-0.437-1.142-0.437L11.836,37.095L11.836,37.095z M4.195,38.66c-2.016,0-2.321-0.314-2.321-2.418
	c0-1.793,0.63-2.043,2.236-2.043c1.617,0,2.25,0.25,2.25,2.043C6.358,38.345,6.006,38.66,4.195,38.66z"/>
<g id="visa">
	<polygon fill="#005CA9" points="10.836,67.867 8.799,67.867 10.072,60.139 12.112,60.139 	"/>
	<path fill="#005CA9" d="M7.082,60.139l-1.944,5.316l-0.232-1.146l0,0L4.22,60.836c0,0-0.083-0.697-0.967-0.697H0.037L0,60.27
		c0,0,0.984,0.201,2.134,0.883l1.772,6.715h2.127l3.243-7.729H7.082L7.082,60.139z"/>
	<path fill="#005CA9" d="M23.126,67.867H25l-1.631-7.729h-1.645c-0.757,0-0.939,0.576-0.939,0.576l-3.042,7.152h2.126l0.426-1.147
		h2.596L23.126,67.867z M20.884,65.133l1.072-2.893l0.603,2.893H20.884z"/>
	<path fill="#005CA9" d="M17.9,61.998l0.291-1.66c0,0-0.896-0.338-1.834-0.338c-1.015,0-3.417,0.436-3.417,2.559
		c0,1.996,2.823,2.021,2.823,3.07c0,1.047-2.531,0.861-3.368,0.199l-0.303,1.736c0,0,0.909,0.436,2.302,0.436
		s3.492-0.711,3.492-2.646c0-2.01-2.849-2.195-2.849-3.066C15.042,61.412,17.027,61.521,17.9,61.998z"/>
	<path fill="#F7A823" d="M4.906,64.311L4.22,60.836c0,0-0.083-0.697-0.967-0.697H0.037L0,60.271c0,0,1.546,0.313,3.028,1.498
		C4.446,62.898,4.906,64.311,4.906,64.311z"/>
</g>
<g>
	<path fill="#FAB31E" d="M12.506,101.055c1.316,1.213,3.09,1.945,5.014,1.945c4.133,0,7.48-3.359,7.48-7.494
		C25,91.359,21.65,88,17.52,88c-1.924,0-3.693,0.734-5.014,1.943c-1.512,1.379-2.468,3.359-2.468,5.563
		C10.038,97.71,10.994,99.691,12.506,101.055L12.506,101.055z"/>
	<path fill="#E40520" d="M14.922,94.707c-0.023-0.27-0.076-0.527-0.129-0.797H10.22c0.051-0.271,0.129-0.529,0.207-0.785h4.145
		c-0.092-0.271-0.193-0.541-0.311-0.799h-3.515c0.129-0.271,0.271-0.541,0.425-0.797h2.646c-0.166-0.273-0.359-0.543-0.566-0.787
		H11.74c0.231-0.283,0.491-0.553,0.763-0.799C11.174,88.746,9.417,88,7.479,88c-4.122,0-7.48,3.359-7.48,7.506
		c0,4.135,3.359,7.494,7.48,7.494c1.938,0,3.694-0.732,5.025-1.945l0,0l0,0c0.271-0.242,0.518-0.5,0.749-0.783h-1.512
		c-0.205-0.258-0.388-0.516-0.568-0.799h2.647c0.168-0.258,0.313-0.516,0.438-0.799h-3.513c-0.117-0.258-0.233-0.514-0.324-0.785
		h4.146c0.092-0.258,0.154-0.527,0.222-0.799c0.052-0.258,0.104-0.525,0.129-0.799c0.024-0.256,0.039-0.514,0.039-0.785
		C14.961,95.236,14.947,94.965,14.922,94.707L14.922,94.707z"/>
	<path fill="#FFFFFF" d="M17.454,93.781l-0.144,0.824c-0.285-0.145-0.49-0.207-0.725-0.207c-0.605,0-1.031,0.594-1.031,1.43
		c0,0.578,0.282,0.928,0.762,0.928c0.192,0,0.428-0.064,0.686-0.191l-0.143,0.861c-0.299,0.076-0.49,0.115-0.711,0.115
		c-0.879,0-1.422-0.631-1.422-1.648c0-1.352,0.75-2.305,1.819-2.305c0.144,0,0.271,0.014,0.376,0.039l0.323,0.078
		C17.352,93.742,17.377,93.756,17.454,93.781L17.454,93.781z"/>
	<path fill="#FFFFFF" d="M14.846,94.348c-0.025,0-0.053,0-0.076,0c-0.271,0-0.429,0.129-0.672,0.502l0.075-0.477h-0.735
		l-0.503,3.092h0.813c0.298-1.895,0.376-2.215,0.765-2.215c0.023,0,0.023,0,0.051,0c0.078-0.373,0.184-0.645,0.313-0.889
		L14.846,94.348L14.846,94.348z"/>
	<path fill="#FFFFFF" d="M10.168,97.426c-0.22,0.076-0.401,0.104-0.582,0.104c-0.413,0-0.646-0.23-0.646-0.684
		c0-0.076,0.013-0.182,0.025-0.27l0.053-0.311l0.037-0.244l0.352-2.111h0.801l-0.091,0.463h0.413l-0.104,0.762h-0.414l-0.22,1.285
		C9.78,96.473,9.78,96.512,9.78,96.549c0,0.156,0.076,0.221,0.271,0.221c0.09,0,0.166,0,0.217-0.023L10.168,97.426L10.168,97.426z"
		/>
	<path fill="#FFFFFF" d="M7.054,95.352c0,0.39,0.182,0.658,0.607,0.863c0.336,0.154,0.388,0.205,0.388,0.334
		c0,0.195-0.143,0.283-0.466,0.283c-0.244,0-0.465-0.039-0.723-0.115l-0.117,0.709l0.039,0.014l0.142,0.025
		c0.052,0.012,0.117,0.023,0.222,0.023c0.181,0.025,0.334,0.025,0.438,0.025c0.854,0,1.253-0.32,1.253-1.027
		c0-0.426-0.167-0.672-0.567-0.865c-0.349-0.152-0.388-0.191-0.388-0.334c0-0.166,0.142-0.244,0.4-0.244
		c0.153,0,0.375,0.014,0.581,0.039l0.115-0.709c-0.205-0.037-0.528-0.064-0.711-0.064C7.364,94.309,7.041,94.785,7.054,95.352
		L7.054,95.352z"/>
	<path fill="#FFFFFF" d="M23.645,97.465h-0.764l0.038-0.297c-0.219,0.232-0.451,0.334-0.748,0.334c-0.596,0-0.981-0.502-0.981-1.275
		c0-1.025,0.606-1.9,1.316-1.9c0.324,0,0.557,0.141,0.775,0.424l0.181-1.082h0.804L23.645,97.465L23.645,97.465z M22.454,96.744
		c0.376,0,0.633-0.439,0.633-1.045c0-0.398-0.144-0.605-0.426-0.605c-0.362,0-0.634,0.426-0.634,1.029
		C22.027,96.537,22.171,96.744,22.454,96.744L22.454,96.744z"/>
	<path fill="#FFFFFF" d="M12.647,97.4c-0.284,0.088-0.543,0.127-0.84,0.127c-0.904,0-1.369-0.479-1.369-1.394
		c0-1.056,0.594-1.841,1.408-1.841c0.672,0,1.098,0.438,1.098,1.121c0,0.229-0.025,0.447-0.102,0.771h-1.604
		c-0.014,0.037-0.014,0.063-0.014,0.09c0,0.358,0.246,0.541,0.711,0.541c0.297,0,0.555-0.051,0.84-0.19L12.647,97.4L12.647,97.4z
		 M12.196,95.557c0-0.063,0-0.113,0-0.152c0-0.256-0.143-0.396-0.389-0.396c-0.259,0-0.438,0.193-0.517,0.555h0.905L12.196,95.557
		L12.196,95.557z"/>
	<polygon fill="#FFFFFF" points="3.966,97.465 3.165,97.465 3.63,94.541 2.583,97.465 2.028,97.465 1.963,94.566 1.472,97.465 
		0.723,97.465 1.356,93.666 2.519,93.666 2.558,96.021 3.333,93.666 4.599,93.666 	"/>
	<path fill="#FFFFFF" d="M5.969,96.086c-0.078,0-0.117-0.014-0.181-0.014c-0.452,0-0.685,0.168-0.685,0.477
		c0,0.195,0.104,0.311,0.285,0.311C5.724,96.859,5.956,96.549,5.969,96.086L5.969,96.086z M6.562,97.465H5.89l0.014-0.322
		c-0.207,0.258-0.478,0.373-0.853,0.373c-0.44,0-0.737-0.334-0.737-0.838c0-0.758,0.517-1.195,1.421-1.195
		c0.09,0,0.207,0.014,0.335,0.023c0.026-0.102,0.026-0.141,0.026-0.191c0-0.205-0.142-0.282-0.518-0.282
		c-0.232,0-0.49,0.024-0.671,0.077L4.79,95.148L4.714,95.16l0.116-0.695c0.401-0.115,0.672-0.154,0.969-0.154
		c0.698,0,1.073,0.313,1.073,0.902c0,0.152-0.014,0.27-0.064,0.617l-0.181,1.094l-0.024,0.193l-0.015,0.154l-0.013,0.115
		L6.562,97.465L6.562,97.465z"/>
	<path fill="#FFFFFF" d="M18.759,96.086c-0.091,0-0.128-0.014-0.18-0.014c-0.466,0-0.698,0.168-0.698,0.477
		c0,0.195,0.115,0.311,0.299,0.311C18.501,96.859,18.746,96.549,18.759,96.086L18.759,96.086z M19.354,97.465H18.68l0.014-0.322
		c-0.205,0.258-0.479,0.373-0.852,0.373c-0.441,0-0.736-0.334-0.736-0.838c0-0.758,0.518-1.195,1.42-1.195
		c0.093,0,0.205,0.014,0.322,0.023c0.026-0.102,0.039-0.141,0.039-0.191c0-0.205-0.143-0.282-0.518-0.282
		c-0.232,0-0.503,0.024-0.684,0.077l-0.104,0.039l-0.077,0.014l0.116-0.695c0.399-0.113,0.672-0.152,0.97-0.152
		c0.697,0,1.059,0.311,1.059,0.9c0,0.152,0,0.271-0.063,0.617l-0.167,1.094l-0.022,0.193l-0.025,0.152l-0.014,0.115v0.078H19.354
		L19.354,97.465z"/>
	<path fill="#FFFFFF" d="M21.521,94.348c-0.023,0-0.051,0-0.076,0c-0.271,0-0.428,0.129-0.672,0.502l0.078-0.477h-0.736l-0.49,3.092
		h0.803c0.297-1.895,0.372-2.215,0.762-2.215c0.024,0,0.024,0,0.054,0c0.075-0.373,0.181-0.645,0.312-0.889L21.521,94.348
		L21.521,94.348z"/>
</g>
<path fill="#EE7314" d="M12,126.113v12c0,1.935-1.567,3.5-3.5,3.5h-5c-1.933,0-3.5-1.565-3.5-3.5v-12c0-1.934,1.567-3.5,3.5-3.5
	h4.574V120h1.985v2.98C11.209,123.553,12,124.74,12,126.113z M4.012,131.609H1.996v2.017h2.016V131.609z M10.004,124.493H1.996
	v6.108h8.008V124.493z M7.008,131.609H4.992v2.017h2.016V131.609z M10.004,131.609H7.988v2.017h2.016V131.609z M4.012,134.57H1.996
	v2.016h2.016V134.57z M7.008,134.57H4.992v2.016h2.016V134.57z M10.004,134.57H7.988v2.016h2.016V134.57z M4.012,137.529H1.996
	v2.017h2.016V137.529z M7.008,137.529H4.992v2.017h2.016V137.529z M10.004,137.529H7.988v2.017h2.016V137.529z"/>
<rect y="160" fill="#0035B5" width="18" height="18.076"/>
<polygon fill="#FFFFFF" points="8.215,162.376 2.365,162.376 2.365,164.788 6.97,164.788 6.97,175.7 8.215,175.7 "/>
<polygon fill="#FFFFFF" points="10.005,162.376 10.005,175.7 11.321,175.7 11.321,164.788 15.635,164.788 15.635,162.376 "/>
<rect x="8.699" y="162.376" fill="#FFFFFF" width="0.823" height="13.324"/>
</svg>
