<?xml version="1.0" encoding="utf-8"?>
<!-- Generator: Adobe Illustrator 16.0.0, SVG Export Plug-In . SVG Version: 6.00 Build 0)  -->
<!DOCTYPE svg PUBLIC "-//W3C//DTD SVG 1.1//EN" "http://www.w3.org/Graphics/SVG/1.1/DTD/svg11.dtd">
<svg version="1.1" id="logo" xmlns="http://www.w3.org/2000/svg" xmlns:xlink="http://www.w3.org/1999/xlink" x="0px" y="0px"
	 width="116px" height="197.708px" viewBox="0 0 116 197.708" enable-background="new 0 0 116 197.708" xml:space="preserve">
<path fill="#F06F24" d="M96.975,91.161c4.088-0.179,4.743-0.515,4.743-1.45c0-1.104-0.745-1.637-3.069-1.637
	c-2.979,0-3.36,0.55-3.36,3.176L96.975,91.161z M112.861,94.809H116v2.99h-3.139V94.809z M6.74,97.956
	c4.44,0,6.637-1.314,6.637-6.017c0-4.244-1.637-6.148-6.04-6.148c-1.93,0-3.25,0.156-4.213,0.945V81H0v11.229
	C0,96.529,1.906,97.956,6.74,97.956C6.74,97.956,1.906,97.956,6.74,97.956z M24.698,90.313v-0.558c0-1.349-0.903-1.637-3.284-1.637
	c-2.243,0-4.24,0.469-5.271,0.812v-2.193c1.795-0.68,3.837-0.944,5.384-0.944c3.42,0,6.31,0.53,6.31,4.349v3.584
	c0,4.207-3.476,4.231-6.31,4.231c-4.268,0-6.351-1.184-6.351-3.563C15.176,91.184,17.259,90.559,24.698,90.313
	C24.698,90.313,17.259,90.559,24.698,90.313z M49.113,93.027v4.771h-3.091V81h3.115v9.381h0.587c0.926,0,1.243-0.156,1.886-0.803
	l3.658-3.543h3.601l-5.554,5.592l5.983,6.172H55.29l-3.815-4.031c-0.642-0.67-0.891-0.738-1.817-0.738h-0.545V93.027z
	 M33.469,97.799v-7.396c0-1.793,0.633-2.28,3.286-2.28c2.708,0,3.318,0.487,3.318,2.28v7.396h3.116v-7.506
	c0-3.354-2.46-4.458-5.882-4.458h-1.049c-3.432,0-5.904,1.104-5.904,4.458v7.506H33.469z M69.546,97.799v-7.396
	c0-1.793,0.632-2.28,3.274-2.28c2.729,0,3.316,0.487,3.316,2.28v7.396h3.139v-7.506c0-3.354-2.482-4.458-5.896-4.458h-1.06
	c-3.432,0-5.891,1.104-5.891,4.458v7.506H69.546z M90.202,88.387h-5.216v5.736c0,1.069,0.791,1.491,2.078,1.491
	c1.441,0,2.461-0.133,3.207-0.311v2.112c-1.244,0.334-2.531,0.535-3.592,0.535c-3.453,0-4.767-1.43-4.767-3.563V82.337h3.067v3.788
	h5.22L90.202,88.387L90.202,88.387z M6.694,95.682c-3.217,0-3.703-0.533-3.703-4.1c0-3.04,1.005-3.463,3.567-3.463
	c2.581,0,3.59,0.424,3.59,3.463C10.148,95.148,9.583,95.682,6.694,95.682z M107.383,89.824c0-3.188,2.35-4.102,4.477-4.102
	c0.99,0,3.604,0.135,4.145,0.246v2.237h-3.354c-1.717,0-2.146,0.151-2.146,1.792v7.798h-3.117L107.383,89.824L107.383,89.824z
	 M60.445,86.035h3.164v11.764h-3.164V86.035z M21.707,95.682c2.314,0,2.991-0.334,2.991-1.469v-1.851l-2.832,0.134
	c-2.845,0.155-3.5,0.559-3.5,1.493C18.366,95.395,18.795,95.682,21.707,95.682C21.707,95.682,18.795,95.682,21.707,95.682z
	 M60.445,81h3.164v3.004h-3.164V81z M95.328,93.456c0.201,1.444,0.902,2.293,3.34,2.293c2.078,0,4.245-0.313,5.872-0.89v2.07
	c-1.198,0.646-3.86,1.067-5.781,1.067c-5.081,0-6.751-1.25-6.751-6.235c0-4.355,1.445-5.992,6.684-5.992
	c4.338,0,6.254,1.436,6.303,3.857C104.99,92.631,102.913,93.365,95.328,93.456C95.328,93.456,102.913,93.365,95.328,93.456z"/>
<path opacity="0.7" fill="#C84527" enable-background="new    " d="M96.975,64.16c4.088-0.178,4.743-0.514,4.743-1.449
	c0-1.104-0.745-1.637-3.069-1.637c-2.979,0-3.36,0.55-3.36,3.176L96.975,64.16z M112.861,67.809H116v2.99h-3.139V67.809z
	 M6.74,70.955c4.44,0,6.637-1.314,6.637-6.016c0-4.244-1.637-6.148-6.04-6.148c-1.93,0-3.25,0.156-4.213,0.945V54H0v11.229
	C0,69.529,1.906,70.955,6.74,70.955C6.74,70.955,1.906,70.955,6.74,70.955z M24.698,63.313v-0.558c0-1.349-0.903-1.637-3.284-1.637
	c-2.243,0-4.24,0.469-5.271,0.812v-2.193c1.795-0.68,3.837-0.946,5.384-0.946c3.42,0,6.31,0.532,6.31,4.347v3.584
	c0,4.207-3.476,4.233-6.31,4.233c-4.268,0-6.351-1.181-6.351-3.563C15.176,64.184,17.259,63.559,24.698,63.313
	C24.698,63.313,17.259,63.559,24.698,63.313z M49.113,66.027v4.771h-3.091V54h3.115v9.382h0.587c0.926,0,1.243-0.157,1.886-0.804
	l3.658-3.543h3.601l-5.554,5.592l5.983,6.172H55.29l-3.815-4.031c-0.642-0.67-0.891-0.738-1.817-0.738h-0.545V66.027z
	 M33.469,70.799v-7.396c0-1.793,0.633-2.282,3.286-2.282c2.708,0,3.318,0.489,3.318,2.282v7.396h3.116v-7.506
	c0-3.354-2.46-4.457-5.882-4.457h-1.049c-3.432,0-5.904,1.104-5.904,4.457v7.506H33.469z M69.546,70.799v-7.396
	c0-1.793,0.632-2.282,3.274-2.282c2.729,0,3.316,0.489,3.316,2.282v7.396h3.139v-7.506c0-3.354-2.482-4.457-5.896-4.457h-1.06
	c-3.432,0-5.891,1.104-5.891,4.457v7.506H69.546z M90.202,61.387h-5.216v5.737c0,1.069,0.791,1.491,2.078,1.491
	c1.441,0,2.461-0.133,3.207-0.311v2.114c-1.244,0.334-2.531,0.535-3.592,0.535c-3.453,0-4.767-1.427-4.767-3.563V55.337h3.067v3.788
	h5.22L90.202,61.387L90.202,61.387z M6.694,68.682c-3.217,0-3.703-0.533-3.703-4.1c0-3.039,1.005-3.463,3.567-3.463
	c2.581,0,3.59,0.424,3.59,3.463C10.148,68.148,9.583,68.682,6.694,68.682z M107.383,62.824c0-3.188,2.35-4.102,4.477-4.102
	c0.99,0,3.604,0.135,4.145,0.246v2.239h-3.354c-1.717,0-2.146,0.153-2.146,1.792v7.798h-3.117L107.383,62.824L107.383,62.824z
	 M60.445,59.035h3.164v11.764h-3.164V59.035z M21.707,68.682c2.314,0,2.991-0.334,2.991-1.469v-1.85l-2.832,0.133
	c-2.845,0.156-3.5,0.559-3.5,1.494C18.366,68.395,18.795,68.682,21.707,68.682C21.707,68.682,18.795,68.682,21.707,68.682z
	 M60.445,54h3.164v3.004h-3.164V54z M95.328,66.455c0.201,1.445,0.902,2.293,3.34,2.293c2.078,0,4.245-0.313,5.872-0.889v2.07
	c-1.198,0.646-3.86,1.069-5.781,1.069c-5.081,0-6.751-1.25-6.751-6.237c0-4.355,1.445-5.992,6.684-5.992
	c4.338,0,6.254,1.436,6.303,3.859C104.99,65.631,102.913,66.365,95.328,66.455C95.328,66.455,102.913,66.365,95.328,66.455z"/>
<path fill="#D5641C" d="M96.975,118.161c4.088-0.179,4.743-0.515,4.743-1.449c0-1.104-0.745-1.637-3.069-1.637
	c-2.979,0-3.36,0.549-3.36,3.176L96.975,118.161z M112.861,121.809H116v2.99h-3.139V121.809z M6.74,124.956
	c4.44,0,6.637-1.314,6.637-6.017c0-4.244-1.637-6.147-6.04-6.147c-1.93,0-3.25,0.155-4.213,0.944V108H0v11.229
	C0,123.529,1.906,124.956,6.74,124.956C6.74,124.956,1.906,124.956,6.74,124.956z M24.698,117.313v-0.559
	c0-1.349-0.903-1.637-3.284-1.637c-2.243,0-4.24,0.469-5.271,0.813v-2.193c1.795-0.68,3.837-0.943,5.384-0.943
	c3.42,0,6.31,0.529,6.31,4.349v3.584c0,4.207-3.476,4.231-6.31,4.231c-4.268,0-6.351-1.184-6.351-3.563
	C15.176,118.184,17.259,117.559,24.698,117.313C24.698,117.313,17.259,117.559,24.698,117.313z M49.113,120.027v4.771h-3.091V108
	h3.115v9.381h0.587c0.926,0,1.243-0.156,1.886-0.803l3.658-3.543h3.601l-5.554,5.592l5.983,6.172H55.29l-3.815-4.031
	c-0.642-0.67-0.891-0.738-1.817-0.738h-0.545V120.027z M33.469,124.799v-7.396c0-1.793,0.633-2.279,3.286-2.279
	c2.708,0,3.318,0.486,3.318,2.279v7.396h3.116v-7.506c0-3.354-2.46-4.457-5.882-4.457h-1.049c-3.432,0-5.904,1.104-5.904,4.457
	v7.506H33.469L33.469,124.799z M69.546,124.799v-7.396c0-1.793,0.632-2.279,3.274-2.279c2.729,0,3.316,0.486,3.316,2.279v7.396
	h3.139v-7.506c0-3.354-2.482-4.457-5.896-4.457h-1.06c-3.432,0-5.891,1.104-5.891,4.457v7.506H69.546L69.546,124.799z
	 M90.202,115.387h-5.216v5.736c0,1.069,0.791,1.491,2.078,1.491c1.441,0,2.461-0.133,3.207-0.311v2.112
	c-1.244,0.334-2.531,0.535-3.592,0.535c-3.453,0-4.767-1.43-4.767-3.563v-12.056h3.067v3.789h5.22L90.202,115.387L90.202,115.387z
	 M6.694,122.682c-3.217,0-3.703-0.533-3.703-4.1c0-3.039,1.005-3.463,3.567-3.463c2.581,0,3.59,0.424,3.59,3.463
	C10.148,122.148,9.583,122.682,6.694,122.682z M107.383,116.825c0-3.188,2.35-4.103,4.477-4.103c0.99,0,3.604,0.135,4.145,0.246
	v2.237h-3.354c-1.717,0-2.146,0.15-2.146,1.791v7.799h-3.117L107.383,116.825L107.383,116.825z M60.445,113.036h3.164v11.764h-3.164
	V113.036z M21.707,122.682c2.314,0,2.991-0.334,2.991-1.469v-1.851l-2.832,0.134c-2.845,0.155-3.5,0.559-3.5,1.494
	C18.366,122.395,18.795,122.682,21.707,122.682C21.707,122.682,18.795,122.682,21.707,122.682z M60.445,108h3.164v3.004h-3.164V108z
	 M95.328,120.456c0.201,1.444,0.902,2.293,3.34,2.293c2.078,0,4.245-0.313,5.872-0.89v2.07c-1.198,0.646-3.86,1.067-5.781,1.067
	c-5.081,0-6.751-1.25-6.751-6.235c0-4.355,1.445-5.992,6.684-5.992c4.338,0,6.254,1.437,6.303,3.856
	C104.99,119.631,102.913,120.365,95.328,120.456C95.328,120.456,102.913,120.365,95.328,120.456z"/>
<path opacity="0.7" fill="#D5641C" enable-background="new    " d="M96.975,145.161c4.088-0.179,4.743-0.515,4.743-1.449
	c0-1.104-0.745-1.637-3.069-1.637c-2.979,0-3.36,0.549-3.36,3.176L96.975,145.161z M112.861,148.809H116v2.99h-3.139V148.809z
	 M6.74,151.956c4.44,0,6.637-1.314,6.637-6.017c0-4.244-1.637-6.147-6.04-6.147c-1.93,0-3.25,0.155-4.213,0.944V135H0v11.229
	C0,150.529,1.906,151.956,6.74,151.956C6.74,151.956,1.906,151.956,6.74,151.956z M24.698,144.313v-0.559
	c0-1.349-0.903-1.637-3.284-1.637c-2.243,0-4.24,0.469-5.271,0.813v-2.193c1.795-0.68,3.837-0.943,5.384-0.943
	c3.42,0,6.31,0.529,6.31,4.349v3.584c0,4.207-3.476,4.231-6.31,4.231c-4.268,0-6.351-1.184-6.351-3.563
	C15.176,145.184,17.259,144.559,24.698,144.313C24.698,144.313,17.259,144.559,24.698,144.313z M49.113,147.027v4.771h-3.091V135
	h3.115v9.381h0.587c0.926,0,1.243-0.156,1.886-0.803l3.658-3.543h3.601l-5.554,5.592l5.983,6.172H55.29l-3.815-4.031
	c-0.642-0.67-0.891-0.738-1.817-0.738h-0.545V147.027z M33.469,151.799v-7.396c0-1.793,0.633-2.279,3.286-2.279
	c2.708,0,3.318,0.486,3.318,2.279v7.396h3.116v-7.506c0-3.354-2.46-4.457-5.882-4.457h-1.049c-3.432,0-5.904,1.104-5.904,4.457
	v7.506H33.469z M69.546,151.799v-7.396c0-1.793,0.632-2.279,3.274-2.279c2.729,0,3.316,0.486,3.316,2.279v7.396h3.139v-7.506
	c0-3.354-2.482-4.457-5.896-4.457h-1.06c-3.432,0-5.891,1.104-5.891,4.457v7.506H69.546z M90.202,142.387h-5.216v5.736
	c0,1.069,0.791,1.491,2.078,1.491c1.441,0,2.461-0.133,3.207-0.311v2.112c-1.244,0.334-2.531,0.535-3.592,0.535
	c-3.453,0-4.767-1.43-4.767-3.563v-12.056h3.067v3.789h5.22L90.202,142.387L90.202,142.387z M6.694,149.682
	c-3.217,0-3.703-0.533-3.703-4.1c0-3.039,1.005-3.463,3.567-3.463c2.581,0,3.59,0.424,3.59,3.463
	C10.148,149.148,9.583,149.682,6.694,149.682z M107.383,143.825c0-3.188,2.35-4.103,4.477-4.103c0.99,0,3.604,0.135,4.145,0.245
	v2.238h-3.354c-1.717,0-2.146,0.15-2.146,1.791v7.799h-3.117L107.383,143.825L107.383,143.825z M60.445,140.036h3.164v11.764h-3.164
	V140.036z M21.707,149.682c2.314,0,2.991-0.334,2.991-1.469v-1.851l-2.832,0.134c-2.845,0.155-3.5,0.559-3.5,1.494
	C18.366,149.395,18.795,149.682,21.707,149.682C21.707,149.682,18.795,149.682,21.707,149.682z M60.445,135h3.164v3.004h-3.164V135z
	 M95.328,147.456c0.201,1.444,0.902,2.293,3.34,2.293c2.078,0,4.245-0.313,5.872-0.89v2.07c-1.198,0.646-3.86,1.067-5.781,1.067
	c-5.081,0-6.751-1.25-6.751-6.235c0-4.355,1.445-5.992,6.684-5.992c4.338,0,6.254,1.437,6.303,3.856
	C104.99,146.631,102.913,147.366,95.328,147.456C95.328,147.456,102.913,147.366,95.328,147.456z"/>
<path enable-background="new    " d="M96.975,173.161c4.088-0.18,4.743-0.516,4.743-1.449c0-1.105-0.745-1.637-3.069-1.637
	c-2.979,0-3.36,0.549-3.36,3.176L96.975,173.161z M112.861,176.809H116v2.99h-3.139V176.809z M6.74,179.956
	c4.44,0,6.637-1.314,6.637-6.018c0-4.244-1.637-6.146-6.04-6.146c-1.93,0-3.25,0.154-4.213,0.943V163H0v11.229
	C0,178.528,1.906,179.956,6.74,179.956C6.74,179.956,1.906,179.956,6.74,179.956z M24.698,172.313v-0.559
	c0-1.35-0.903-1.637-3.284-1.637c-2.243,0-4.24,0.469-5.271,0.813v-2.193c1.795-0.68,3.837-0.943,5.384-0.943
	c3.42,0,6.31,0.529,6.31,4.348v3.584c0,4.207-3.476,4.232-6.31,4.232c-4.268,0-6.351-1.184-6.351-3.564
	C15.176,173.184,17.259,172.559,24.698,172.313C24.698,172.313,17.259,172.559,24.698,172.313z M49.113,175.026v4.771h-3.091V163
	h3.115v9.381h0.587c0.926,0,1.243-0.156,1.886-0.803l3.658-3.543h3.601l-5.554,5.592l5.983,6.172H55.29l-3.815-4.031
	c-0.642-0.67-0.891-0.738-1.817-0.738h-0.545V175.026z M33.469,179.799v-7.396c0-1.793,0.633-2.279,3.286-2.279
	c2.708,0,3.318,0.486,3.318,2.279v7.396h3.116v-7.506c0-3.355-2.46-4.457-5.882-4.457h-1.049c-3.432,0-5.904,1.104-5.904,4.457
	v7.506H33.469z M69.546,179.799v-7.396c0-1.793,0.632-2.279,3.274-2.279c2.729,0,3.316,0.486,3.316,2.279v7.396h3.139v-7.506
	c0-3.355-2.482-4.457-5.896-4.457h-1.06c-3.432,0-5.891,1.104-5.891,4.457v7.506H69.546z M90.202,170.387h-5.216v5.736
	c0,1.068,0.791,1.49,2.078,1.49c1.441,0,2.461-0.133,3.207-0.311v2.113c-1.244,0.334-2.531,0.535-3.592,0.535
	c-3.453,0-4.767-1.43-4.767-3.564v-12.055h3.067v3.789h5.22L90.202,170.387L90.202,170.387z M6.694,177.682
	c-3.217,0-3.703-0.533-3.703-4.1c0-3.039,1.005-3.463,3.567-3.463c2.581,0,3.59,0.424,3.59,3.463
	C10.148,177.147,9.583,177.682,6.694,177.682z M107.383,171.825c0-3.189,2.35-4.104,4.477-4.104c0.99,0,3.604,0.135,4.145,0.246
	v2.238h-3.354c-1.717,0-2.146,0.15-2.146,1.791v7.799h-3.117L107.383,171.825L107.383,171.825z M60.445,168.036h3.164v11.764h-3.164
	V168.036z M21.707,177.682c2.314,0,2.991-0.334,2.991-1.469v-1.852l-2.832,0.135c-2.845,0.154-3.5,0.559-3.5,1.494
	C18.366,177.395,18.795,177.682,21.707,177.682C21.707,177.682,18.795,177.682,21.707,177.682z M60.445,163h3.164v3.004h-3.164V163z
	 M95.328,175.456c0.201,1.443,0.902,2.293,3.34,2.293c2.078,0,4.245-0.314,5.872-0.891v2.07c-1.198,0.646-3.86,1.068-5.781,1.068
	c-5.081,0-6.751-1.25-6.751-6.236c0-4.355,1.445-5.992,6.684-5.992c4.338,0,6.254,1.438,6.303,3.857
	C104.99,174.631,102.913,175.366,95.328,175.456C95.328,175.456,102.913,175.366,95.328,175.456z"/>
<path fill="#C84527" d="M96.975,37.161c4.088-0.178,4.743-0.513,4.743-1.449c0-1.103-0.745-1.637-3.069-1.637
	c-2.979,0-3.36,0.55-3.36,3.175L96.975,37.161z M112.861,40.809H116v2.99h-3.139V40.809z M6.74,43.955
	c4.44,0,6.637-1.314,6.637-6.015c0-4.244-1.637-6.148-6.04-6.148c-1.93,0-3.25,0.157-4.213,0.946V27H0v11.229
	C0,42.529,1.906,43.955,6.74,43.955C6.74,43.955,1.906,43.955,6.74,43.955z M24.698,36.314v-0.558c0-1.348-0.903-1.637-3.284-1.637
	c-2.243,0-4.24,0.468-5.271,0.812v-2.193c1.795-0.679,3.837-0.946,5.384-0.946c3.42,0,6.31,0.533,6.31,4.345v3.585
	c0,4.206-3.476,4.233-6.31,4.233c-4.268,0-6.351-1.181-6.351-3.564C15.176,37.183,17.259,36.559,24.698,36.314
	C24.698,36.314,17.259,36.559,24.698,36.314z M49.113,39.028v4.771h-3.091V27h3.115v9.382h0.587c0.926,0,1.243-0.158,1.886-0.805
	l3.658-3.542h3.601l-5.554,5.592l5.983,6.171H55.29l-3.815-4.031c-0.642-0.67-0.891-0.739-1.817-0.739H49.113z M33.469,43.799
	v-7.396c0-1.794,0.633-2.283,3.286-2.283c2.708,0,3.318,0.489,3.318,2.283v7.396h3.116v-7.506c0-3.354-2.46-4.456-5.882-4.456
	h-1.049c-3.432,0-5.904,1.103-5.904,4.456v7.506H33.469z M69.546,43.799v-7.396c0-1.794,0.632-2.283,3.274-2.283
	c2.729,0,3.316,0.489,3.316,2.283v7.396h3.139v-7.506c0-3.354-2.482-4.456-5.896-4.456h-1.06c-3.432,0-5.891,1.103-5.891,4.456
	v7.506H69.546z M90.202,34.387h-5.216v5.737c0,1.069,0.791,1.491,2.078,1.491c1.441,0,2.461-0.132,3.207-0.311v2.115
	c-1.244,0.334-2.531,0.535-3.592,0.535c-3.453,0-4.767-1.426-4.767-3.564V28.337h3.067v3.788h5.22L90.202,34.387L90.202,34.387z
	 M6.694,41.682c-3.217,0-3.703-0.533-3.703-4.099c0-3.04,1.005-3.463,3.567-3.463c2.581,0,3.59,0.423,3.59,3.463
	C10.148,41.148,9.583,41.682,6.694,41.682z M107.383,35.825c0-3.187,2.35-4.102,4.477-4.102c0.99,0,3.604,0.134,4.145,0.247v2.238
	h-3.354c-1.717,0-2.146,0.155-2.146,1.793v7.797h-3.117L107.383,35.825L107.383,35.825z M60.445,32.036h3.164v11.763h-3.164V32.036z
	 M21.707,41.682c2.314,0,2.991-0.334,2.991-1.469v-1.85l-2.832,0.133c-2.845,0.156-3.5,0.559-3.5,1.494
	C18.366,41.395,18.795,41.682,21.707,41.682C21.707,41.682,18.795,41.682,21.707,41.682z M60.445,27h3.164v3.003h-3.164V27z
	 M95.328,39.455c0.201,1.446,0.902,2.293,3.34,2.293c2.078,0,4.245-0.312,5.872-0.889v2.07c-1.198,0.646-3.86,1.07-5.781,1.07
	c-5.081,0-6.751-1.25-6.751-6.239c0-4.354,1.445-5.991,6.684-5.991c4.338,0,6.254,1.436,6.303,3.86
	C104.99,38.631,102.913,39.365,95.328,39.455C95.328,39.455,102.913,39.365,95.328,39.455z"/>
<path fill="#FFFFFF" d="M96.975,10.16c4.088-0.177,4.743-0.513,4.743-1.449c0-1.103-0.745-1.636-3.069-1.636
	c-2.979,0-3.36,0.549-3.36,3.175L96.975,10.16z M112.861,13.809H116v2.99h-3.139V13.809z M6.74,16.955
	c4.44,0,6.637-1.314,6.637-6.015c0-4.244-1.637-6.149-6.04-6.149c-1.93,0-3.25,0.157-4.213,0.946V0H0v11.229
	C0,15.529,1.906,16.955,6.74,16.955C6.74,16.955,1.906,16.955,6.74,16.955z M24.698,9.313V8.756c0-1.348-0.903-1.637-3.284-1.637
	c-2.243,0-4.24,0.468-5.271,0.812V5.737c1.795-0.679,3.837-0.946,5.384-0.946c3.42,0,6.31,0.534,6.31,4.345v3.585
	c0,4.206-3.476,4.233-6.31,4.233c-4.268,0-6.351-1.18-6.351-3.564C15.176,10.183,17.259,9.559,24.698,9.313
	C24.698,9.313,17.259,9.559,24.698,9.313z M49.113,12.028v4.771h-3.091V0h3.115v9.382h0.587c0.926,0,1.243-0.158,1.886-0.804
	l3.658-3.542h3.601l-5.554,5.592l5.983,6.171H55.29l-3.815-4.031c-0.642-0.67-0.891-0.739-1.817-0.739L49.113,12.028L49.113,12.028z
	 M33.469,16.799V9.403c0-1.794,0.633-2.284,3.286-2.284c2.708,0,3.318,0.489,3.318,2.284v7.396h3.116V9.292
	c0-3.354-2.46-4.456-5.882-4.456h-1.049c-3.432,0-5.904,1.102-5.904,4.456v7.506L33.469,16.799L33.469,16.799z M69.546,16.799V9.403
	c0-1.794,0.632-2.284,3.274-2.284c2.729,0,3.316,0.489,3.316,2.284v7.396h3.139V9.292c0-3.354-2.482-4.456-5.896-4.456h-1.06
	c-3.432,0-5.891,1.102-5.891,4.456v7.506L69.546,16.799L69.546,16.799z M90.202,7.387h-5.216v5.737c0,1.069,0.791,1.491,2.078,1.491
	c1.441,0,2.461-0.132,3.207-0.311v2.116c-1.244,0.334-2.531,0.534-3.592,0.534c-3.453,0-4.767-1.426-4.767-3.564V1.337h3.067v3.788
	h5.22L90.202,7.387L90.202,7.387z M6.694,14.681c-3.217,0-3.703-0.533-3.703-4.099c0-3.04,1.005-3.463,3.567-3.463
	c2.581,0,3.59,0.423,3.59,3.463C10.148,14.148,9.583,14.681,6.694,14.681z M107.383,8.824c0-3.187,2.35-4.102,4.477-4.102
	c0.99,0,3.604,0.134,4.145,0.247v2.239h-3.354c-1.717,0-2.146,0.155-2.146,1.792v7.798h-3.117L107.383,8.824L107.383,8.824z
	 M60.445,5.036h3.164v11.763h-3.164V5.036z M21.707,14.681c2.314,0,2.991-0.334,2.991-1.469v-1.849l-2.832,0.132
	c-2.845,0.157-3.5,0.559-3.5,1.494C18.366,14.395,18.795,14.681,21.707,14.681C21.707,14.681,18.795,14.681,21.707,14.681z
	 M60.445,0h3.164v3.003h-3.164V0z M95.328,12.455c0.201,1.447,0.902,2.293,3.34,2.293c2.078,0,4.245-0.311,5.872-0.888v2.07
	c-1.198,0.646-3.86,1.07-5.781,1.07c-5.081,0-6.751-1.25-6.751-6.239c0-4.354,1.445-5.992,6.684-5.992
	c4.338,0,6.254,1.436,6.303,3.86C104.99,11.63,102.913,12.365,95.328,12.455C95.328,12.455,102.913,12.365,95.328,12.455z"/>
</svg>
