<?xml version="1.0" encoding="utf-8"?>
<!-- Generator: Adobe Illustrator 16.0.0, SVG Export Plug-In . SVG Version: 6.00 Build 0)  -->
<!DOCTYPE svg PUBLIC "-//W3C//DTD SVG 1.1//EN" "http://www.w3.org/Graphics/SVG/1.1/DTD/svg11.dtd">
<svg version="1.1" id="logout" xmlns="http://www.w3.org/2000/svg" xmlns:xlink="http://www.w3.org/1999/xlink" x="0px" y="0px"
	 width="12px" height="13px" viewBox="0 0 12 13" enable-background="new 0 0 12 13" xml:space="preserve">
<path fill="#FFFFFF" d="M5.988,7.018c-0.534,0-0.966-0.434-0.966-0.968V0.962c0-0.534,0.432-0.966,0.966-0.966
	c0.536,0,0.968,0.432,0.968,0.966V6.05C6.956,6.584,6.521,7.018,5.988,7.018z M10.23,11.286c-1.17,1.106-2.711,1.663-4.245,1.663
	c-0.001,0-0.003,0-0.004,0c-1.534,0-3.077-0.557-4.248-1.663c-1.171-1.104-1.76-2.563-1.76-4.015c0-1.452,0.589-2.91,1.76-4.016
	c0.357-0.337,0.936-0.337,1.292,0c0.357,0.337,0.357,0.882,0,1.22C2.208,5.25,1.801,6.256,1.801,7.27
	c0,1.015,0.406,2.021,1.225,2.795c0.818,0.772,1.883,1.156,2.957,1.156c1.076,0,2.139-0.384,2.958-1.156
	c0.816-0.773,1.224-1.779,1.224-2.795c0-1.015-0.405-2.019-1.224-2.792c-0.357-0.337-0.357-0.884,0-1.22
	c0.355-0.337,0.934-0.337,1.291,0c1.17,1.105,1.76,2.564,1.759,4.015C11.991,8.723,11.402,10.182,10.23,11.286z"/>
</svg>
