<?xml version="1.0" encoding="utf-8"?>
<!-- Generator: Adobe Illustrator 16.0.0, SVG Export Plug-In . SVG Version: 6.00 Build 0)  -->
<!DOCTYPE svg PUBLIC "-//W3C//DTD SVG 1.1//EN" "http://www.w3.org/Graphics/SVG/1.1/DTD/svg11.dtd">
<svg version="1.1" id="searchpc" xmlns="http://www.w3.org/2000/svg" xmlns:xlink="http://www.w3.org/1999/xlink" x="0px" y="0px"
	 width="31px" height="64.5px" viewBox="0 0 31 64.5" enable-background="new 0 0 31 64.5" xml:space="preserve">
<path fill="#6E6E6E" d="M4.833,4.228c1.01,0,1.835,0.099,2.476,0.298C8.3,4.839,8.971,5.496,9.322,6.497
	c0.228,0.66,0.341,1.589,0.341,2.788c0,1.205-0.113,2.138-0.341,2.798c-0.351,1-1.022,1.657-2.014,1.971
	c-0.635,0.199-1.459,0.298-2.476,0.298s-1.842-0.099-2.477-0.298c-0.992-0.314-1.663-0.971-2.014-1.971
	c-0.16-0.475-0.259-0.958-0.295-1.452C0.015,10.234,0,9.766,0,9.227c0-1.16,0.114-2.07,0.342-2.73c0.351-1,1.022-1.658,2.014-1.971
	C2.997,4.327,3.822,4.228,4.833,4.228z"/>
<path fill="#FFFFFF" d="M4.833,6.073c-1.013,0-1.708,0.211-2.083,0.635C2.542,6.945,2.407,7.314,2.347,7.813
	c-0.047,0.346-0.07,0.824-0.07,1.433c0,0.904,0.047,1.548,0.141,1.933c0.141,0.564,0.489,0.948,1.046,1.154
	c0.309,0.115,0.765,0.173,1.369,0.173c1.012,0,1.707-0.215,2.083-0.645c0.208-0.237,0.342-0.603,0.402-1.097
	c0.047-0.346,0.071-0.84,0.071-1.48c0-0.872-0.047-1.5-0.141-1.885C7.099,6.836,6.75,6.452,6.2,6.247
	C5.892,6.131,5.436,6.073,4.833,6.073z"/>
<path fill="#6E6E6E" d="M9.994,0v14.352h2.333v-4.086h0.988c0,0,0.215-0.043,0.473,0.215c0.258,0.257,3.179,3.871,3.179,3.871h3.006
	l-4.51-5.246l4.51-4.879h-2.491l-3.694,3.547c0,0-0.128,0.215-0.386,0.215c-0.258,0-1.074,0-1.074,0V0H9.994z"/>
<path fill="#4C4C4C" d="M4.833,44.228c1.01,0,1.835,0.099,2.476,0.298c0.992,0.313,1.663,0.971,2.014,1.971
	c0.228,0.66,0.341,1.589,0.341,2.788c0,1.205-0.113,2.138-0.341,2.798c-0.351,1-1.022,1.657-2.014,1.972
	c-0.635,0.198-1.459,0.298-2.476,0.298s-1.842-0.1-2.477-0.298c-0.992-0.314-1.663-0.972-2.014-1.972
	c-0.16-0.475-0.259-0.957-0.295-1.451C0.015,50.234,0,49.766,0,49.227c0-1.16,0.114-2.07,0.342-2.73
	c0.351-1,1.022-1.658,2.014-1.971C2.997,44.327,3.822,44.228,4.833,44.228z"/>
<path fill="#FFFFFF" d="M4.833,46.073c-1.013,0-1.708,0.211-2.083,0.635c-0.208,0.237-0.342,0.606-0.402,1.105
	c-0.047,0.346-0.07,0.824-0.07,1.433c0,0.904,0.047,1.548,0.141,1.933c0.141,0.563,0.489,0.948,1.046,1.153
	c0.309,0.115,0.765,0.174,1.369,0.174c1.012,0,1.707-0.215,2.083-0.645c0.208-0.236,0.342-0.604,0.402-1.097
	c0.047-0.346,0.071-0.84,0.071-1.48c0-0.872-0.047-1.5-0.141-1.885C7.099,46.836,6.75,46.452,6.2,46.247
	C5.892,46.131,5.436,46.073,4.833,46.073z"/>
<path fill="#4C4C4C" d="M9.994,40v14.352h2.333v-4.086h0.988c0,0,0.215-0.043,0.473,0.215s3.179,3.871,3.179,3.871h3.006
	l-4.51-5.246l4.51-4.878h-2.491l-3.694,3.547c0,0-0.128,0.214-0.386,0.214c-0.258,0-1.074,0-1.074,0V40H9.994z"/>
</svg>
