<?xml version="1.0" encoding="UTF-8" standalone="no"?>
<svg id="pestana" xmlns:rdf="http://www.w3.org/1999/02/22-rdf-syntax-ns#" xmlns="http://www.w3.org/2000/svg" height="40" width="273" version="1.1" xmlns:cc="http://creativecommons.org/ns#" xmlns:dc="http://purl.org/dc/elements/1.1/">
<metadata id="metadata14">
<rdf:RDF>
<cc:Work rdf:about="">
<dc:format>image/svg+xml</dc:format>
<dc:type rdf:resource="http://purl.org/dc/dcmitype/StillImage"/>
<dc:title/>
</cc:Work>
</rdf:RDF>
</metadata>
<g id="layer1" transform="translate(0,-1012.3622)">
<g id="g4345" transform="translate(-225.27329,722.59257)">
<g id="g4340" opacity="0.7" fill="#000">
<path id="path3008-7-4-0" fill-opacity="0.03137255" d="m225,330c12.2-19.2,13.2-40,23.4-40,39.6,0,188-0.084,226-0.084,10.2,0,11.2,20.8,23.4,40-52,0-227,0.0733-273,0.0733z"/>
<path id="path3008-7-4" fill-opacity="0.10980392" d="m225,330c12.2-19.2,13.3-39,23.5-39,39.6,0,188-0.084,226-0.084,10.2,0,11.2,19.8,23.5,39-52,0-227,0.0733-273,0.0733z"/>
<path id="path3008-7" fill-opacity="0.10980392" d="m225,330c12.2-19.2,13.3-38,23.5-38,39.6,0,188-0.084,226-0.084,10.2,0,11.2,18.8,23.5,38-52,0-227,0.0841-273,0.0841z"/>
</g>
<path id="path3008" fill="#FFF" d="m225,330c12.2-19.2,13.3-37,23.5-37,39.6,0,188-0.084,226-0.084,10.2,0,11.3,17.8,23.5,37-52,0-227,0.0839-273,0.0839z"/>
</g>
</g>
</svg>
