<?xml version="1.0" encoding="utf-8"?>
<!-- Generator: Adobe Illustrator 16.0.0, SVG Export Plug-In . SVG Version: 6.00 Build 0)  -->
<!DOCTYPE svg PUBLIC "-//W3C//DTD SVG 1.1//EN" "http://www.w3.org/Graphics/SVG/1.1/DTD/svg11.dtd">
<svg version="1.1" id="roundpictos" xmlns="http://www.w3.org/2000/svg" xmlns:xlink="http://www.w3.org/1999/xlink" x="0px"
	 y="0px" width="80px" height="1316.444px" viewBox="0 0 80 1316.444" enable-background="new 0 0 80 1316.444"
	 xml:space="preserve">
<path fill="#FFFFFF" d="M64.072,118.619l-6.059-4.189l-14.445,20.227l-11.417-8.471l-9.902,13.213
	c-2.577,3.279-9.162-0.506-4.958-5.871l12.85-17.145l11.33,8.395l11.518-16.131l-5.965-4.129l16.797-2.131L64.072,118.619z"/>
<g>
	<g>
		<path fill="#FFFFFF" d="M57.979,17.976H43.527V3.527C43.527,1.579,41.947,0,40,0c-1.948,0-3.526,1.579-3.526,3.525v14.449H22.021
			c-1.948,0-3.527,1.578-3.527,3.524c0,1.945,1.579,3.524,3.527,3.524h14.453v14.449C36.474,41.422,38.052,43,40,43
			c1.947,0,3.527-1.578,3.527-3.523V25.029h14.451c1.947,0,3.523-1.577,3.523-3.524C61.507,19.554,59.928,17.976,57.979,17.976z"/>
	</g>
</g>
<path fill="#FFFFFF" d="M44.167,239.635v0.493c-0.104,1.992-0.377,2.876-1.188,3.649c-0.813,0.771-1.842,1.22-2.979,1.22
	c-2.6,0-4.115-1.881-4.115-5.088v-0.273c-2.384-0.775-3.683-1.328-5.037-2.271c-2.707-1.768-4.062-3.813-4.062-6.134
	c0-2.436,1.624-4.259,3.847-4.259c1.299,0,2.436,0.555,3.952,1.771c3.303,2.82,4.008,3.205,5.956,3.205
	c2.439,0,4.281-1.768,4.281-4.033c0-2.322-1.625-3.703-5.742-4.699l-4.44-1.104c-4.388-1.104-7.095-4.532-7.095-8.956
	c0-3.261,1.354-6.301,3.684-8.126c1.19-0.938,2.328-1.549,4.386-2.377c0.054-1.16,0.216-1.771,0.487-2.433
	c0.704-1.327,2.168-2.213,3.684-2.213c2.327,0,3.899,1.658,4.116,4.365l0.92,0.333c2.436,0.771,3.52,1.382,4.711,2.435
	c1.41,1.324,2.059,2.598,2.059,4.033c0,2.211-1.68,4.035-3.629,4.035c-0.758,0-1.623-0.275-2.328-0.829
	c-0.217-0.166-0.867-0.663-1.843-1.491c-1.408-1.104-2.544-1.549-4.007-1.549c-2.275,0-3.954,1.383-3.954,3.372
	c0,1.218,0.649,2.043,2.004,2.651c0.542,0.275,1.245,0.443,3.685,1.051c8.231,1.88,11.699,5.361,11.699,11.664
	C53.215,233.663,49.477,238.472,44.167,239.635z"/>
<g>
	<g>
		<path fill="#FFFFFF" d="M63.076,308.963L52.564,298.47c-0.644-0.637-1.672-0.637-2.313,0L16.92,331.738
			c-0.638,0.638-0.638,1.667,0,2.305l10.513,10.497c0.307,0.308,0.722,0.478,1.154,0.478s0.848-0.171,1.154-0.478l33.331-33.271
			C63.715,310.63,63.715,309.599,63.076,308.963z M56.193,313.528l-1.646-1.641c-0.639-0.638-1.672-0.638-2.311,0
			c-0.637,0.637-0.637,1.667,0,2.303l1.646,1.644l-3.243,3.237l-4.279-4.271c-0.637-0.637-1.67-0.637-2.307,0
			c-0.641,0.637-0.641,1.667,0,2.303l4.276,4.271l-3.247,3.24l-1.646-1.645c-0.639-0.639-1.67-0.639-2.309,0
			c-0.637,0.636-0.637,1.666,0,2.302l1.646,1.646l-3.25,3.242l-4.274-4.269c-0.638-0.637-1.671-0.637-2.308,0
			c-0.638,0.638-0.638,1.667,0,2.305l4.274,4.269l-3.246,3.238l-1.648-1.646c-0.638-0.638-1.671-0.638-2.308,0
			c-0.638,0.636-0.638,1.667,0,2.304l1.648,1.646l-3.076,3.069l-8.205-8.188L51.4,301.922l8.207,8.188L56.193,313.528z"/>
	</g>
</g>
<g>
	<g>
		<path fill="#FFFFFF" d="M58.678,402.752l2.584-1.478v-5.797l-2.584,1.479V402.752z M51.413,406.893l2.586-1.477v-5.796
			l-2.586,1.479V406.893z M44.146,411.034l2.588-1.478v-5.795l-2.588,1.477V411.034z M58.678,414.671l2.584-1.479v-5.795
			l-2.584,1.479V414.671z M51.413,418.813l2.586-1.478v-5.797l-2.586,1.478V418.813z M58.678,426.594l2.584-1.479v-5.796
			l-2.584,1.478V426.594z M51.413,430.732l2.586-1.478v-5.797l-2.586,1.479V430.732z M44.146,434.871l2.588-1.476V427.6
			l-2.588,1.477V434.871z M51.413,442.651l2.586-1.477v-5.796l-2.586,1.477V442.651z M44.146,446.794l2.588-1.479v-5.796
			l-2.588,1.477V446.794z M58.678,450.429l2.584-1.479v-5.796l-2.584,1.479V450.429z M44.146,458.712l2.588-1.478v-5.795
			l-2.588,1.479V458.712z M40,372.692l-21.862,12.475l-3.547,2.024v68.626L40,470.313v-68.625l25.409-14.496L40,372.692z
			 M21.324,450.428l-2.587-1.479v-5.795l2.587,1.478V450.428z M21.324,438.51l-2.587-1.479v-5.797l2.587,1.479V438.51z
			 M21.324,414.671l-2.587-1.479v-5.797l2.587,1.478V414.671z M21.324,402.75l-2.587-1.477v-5.797l2.587,1.479V402.75z
			 M28.589,454.57l-2.588-1.477v-5.797l2.588,1.477V454.57z M28.589,430.732l-2.588-1.478v-5.797l2.588,1.478V430.732z
			 M28.589,418.813l-2.588-1.478v-5.797l2.588,1.478V418.813z M28.589,406.893l-2.588-1.477v-5.798l2.588,1.478V406.893z
			 M35.851,458.712l-2.586-1.478v-5.798l2.586,1.476V458.712z M35.851,446.794l-2.586-1.479v-5.796l2.586,1.476V446.794z
			 M35.851,434.871l-2.586-1.476V427.6l2.586,1.476V434.871z M35.851,422.951l-2.586-1.475v-5.798l2.586,1.476V422.951z
			 M40.03,378.916L40,378.9l-16.944,9.667l-2.41-1.376l2.701-1.542L40,376.146l19.354,11.043l-2.41,1.378L40.03,378.916z"/>
	</g>
</g>
<path fill="#CECECE" d="M0.312,750.297l2.125,5.125c0,0,17.375-7.5,18.125-24.375s-14.75-11.375-14.625-3.5
	c0.121,7.625,7.125,7,7.125,7S14.187,742.922,0.312,750.297z"/>
<path fill="#CECECE" d="M22.937,750.297l2.125,5.125c0,0,17.375-7.5,18.125-24.375s-14.75-11.375-14.625-3.5
	c0.121,7.625,7.125,7,7.125,7S36.812,742.922,22.937,750.297z"/>
<rect x="29.586" y="537.809" fill="#FF7E00" width="21.012" height="2.693"/>
<rect x="10.717" y="543.057" fill="#FF7E00" width="58.75" height="3.581"/>
<path fill="#FF7E00" d="M69.197,505.715c-0.225-7.994-1.963-9.576-9.852-9.698H21.547c-3.248,0-5.507,0.22-7.066,1.04
	c-2.766,1.123-3.947,3.655-3.947,9.165c0,0.72,0.013,7.542,0.029,8.179v7.545c-0.016,0.396-0.025,0.799-0.025,1.229
	c0,10.104,1.393,11.779,10.484,11.85l39.191-0.039c2.207-0.086,3.857-0.358,5.07-1.001c2.77-1.126,3.947-3.658,3.947-9.165
	C69.23,524.24,69.197,505.715,69.197,505.715 M17.479,502.169H62.85v26.769H17.479V502.169z"/>
<path fill="#FF7E00" d="M36.164,611.595c1.22-2.896,0.213-5.663-3.9-9.77c-4.878-4.878-7.559-6.684-10.697-5.527
	c-3.112,3.394-5.257,6.532-5.908,9.958c-1.529,5.213,0.139,10.588,5.679,17.516l16.041,16.021
	c11.057,9.235,17.303,9.328,26.355,1.556c0.308-0.52,0.539-1.021,0.691-1.519c1.223-2.896,0.213-5.666-3.896-9.771
	c-7.537-7.526-12.871-4.678-19.693,2.041l-11.811-11.798C31.213,618.076,35.644,613.269,36.164,611.595"/>
<path fill="#FF7E00" d="M73.313,870.894H6.563v-41h66.75V870.894z M71.813,834.644H8.063v34.25h63.75V834.644z"/>
<rect x="13.563" y="844.014" fill="#FF7E00" width="27.875" height="2.875"/>
<rect x="13.563" y="850.825" fill="#FF7E00" width="27.875" height="2.875"/>
<rect x="13.563" y="857.639" fill="#FF7E00" width="27.875" height="2.875"/>
<path fill="#FF7E00" d="M64.621,860.008c-0.721,0.924-1.525,1.633-2.419,2.125s-1.905,0.739-3.034,0.739
	c-1.891,0-3.508-0.627-4.854-1.88c-1.346-1.252-2.224-3.06-2.633-5.422H49.74v-1.726l1.756-0.123
	c-0.021-0.164-0.031-0.323-0.031-0.479c0-0.154,0-0.313,0-0.478c0-0.164,0-0.318,0-0.462c0-0.145,0.012-0.287,0.031-0.433H49.74
	v-1.725l1.941-0.124c0.205-1.19,0.539-2.249,1-3.173c0.463-0.924,1.032-1.704,1.711-2.342c0.678-0.637,1.446-1.124,2.311-1.463
	c0.861-0.34,1.807-0.51,2.834-0.51c0.924,0,1.807,0.217,2.648,0.647c0.842,0.432,1.562,1.017,2.157,1.756l-2.003,1.941
	c-0.41-0.474-0.847-0.854-1.311-1.142c-0.461-0.287-0.99-0.431-1.586-0.431c-1.108,0-2.022,0.411-2.741,1.231
	c-0.72,0.821-1.201,1.973-1.448,3.45h7.209v1.879H55.07c-0.021,0.123-0.031,0.247-0.031,0.37s0,0.257,0,0.4c0,0.185,0,0.365,0,0.539
	c0,0.175,0.01,0.344,0.031,0.509h6.16v1.879h-5.945c0.287,1.438,0.781,2.552,1.479,3.343c0.698,0.791,1.571,1.187,2.618,1.187
	c0.657,0,1.242-0.164,1.757-0.492c0.514-0.329,1.006-0.813,1.479-1.448L64.621,860.008z"/>
<path fill="#FF7E00" d="M42.502,986.125c-0.384,0-0.768-0.146-1.061-0.438l-8.048-8.049H7.526c-0.829,0-1.5-0.672-1.5-1.5v-9.047
	c0-0.828,0.671-1.5,1.5-1.5h10.438v-7.269c0-0.828,0.671-1.5,1.5-1.5c0.829,0,1.5,0.672,1.5,1.5v8.769c0,0.827-0.671,1.5-1.5,1.5
	H9.026v6.047h24.988c0.398,0,0.779,0.158,1.061,0.438l7.427,7.429l3.684-3.685l-9.825-10.229H27.3c-0.829,0-1.5-0.673-1.5-1.5
	v-8.769c0-0.828,0.671-1.5,1.5-1.5c0.829,0,1.5,0.672,1.5,1.5v7.269H37c0.408,0,0.799,0.166,1.082,0.461l11.285,11.752
	c0.564,0.588,0.556,1.521-0.021,2.1l-5.783,5.783C43.27,985.979,42.887,986.125,42.502,986.125z"/>
<path fill="#FF7E00" d="M22.634,957.117c-0.247,0-0.496-0.061-0.727-0.188c-0.891-0.496-1.506-1.096-2-1.578
	c-0.301-0.293-0.676-0.658-0.815-0.658c-0.103,0.019-0.72,0.193-1.216,0.334c-2.945,0.836-7.876,2.238-10.776,0.168
	c-0.847-0.604-1.881-1.781-2.003-3.973c-0.123-2.213,0.78-3.443,1.559-4.084c2.609-2.146,7.432-0.922,10.625-0.111
	c0.633,0.162,1.421,0.361,1.644,0.375c0.156,0,0.634-0.479,0.92-0.768c0.776-0.777,1.839-1.845,3.539-1.845
	c1.899,0,2.737,1.312,3.238,2.097c0.106,0.164,0.258,0.401,0.355,0.51c0.272-0.041,1.024-0.242,1.637-0.406
	c3.217-0.862,8.08-2.166,10.781-0.094c0.784,0.602,1.718,1.762,1.718,3.871c0,2.188-1.052,3.42-1.934,4.068
	c-3.615,2.655-11.109,0.426-11.952,0.161c-0.791-0.248-1.231-1.088-0.984-1.879c0.246-0.791,1.087-1.233,1.878-0.983
	c2.627,0.815,7.471,1.614,9.282,0.282c0.331-0.243,0.71-0.651,0.71-1.649c0-0.963-0.311-1.313-0.544-1.49
	c-1.529-1.174-6.021,0.033-8.178,0.611c-1.294,0.346-1.939,0.514-2.462,0.514c-1.619,0-2.379-1.189-2.833-1.9
	c-0.455-0.711-0.52-0.711-0.711-0.711c-0.433,0-0.819,0.365-1.414,0.963c-0.732,0.734-1.644,1.648-3.063,1.648
	c-0.505,0-1.124-0.152-2.364-0.467c-2.124-0.539-6.544-1.664-7.979-0.48c-0.132,0.107-0.535,0.439-0.471,1.603
	c0.061,1.086,0.457,1.487,0.749,1.697c1.727,1.229,6.274-0.062,8.216-0.613c1.096-0.312,1.599-0.447,2.036-0.447
	c1.359,0,2.219,0.838,2.909,1.512c0.423,0.412,0.822,0.802,1.363,1.103c0.724,0.402,0.985,1.313,0.583,2.039
	C23.673,956.841,23.162,957.117,22.634,957.117z"/>
<path fill="#FF7E00" d="M70.574,973.347c-0.828,0-1.5-0.672-1.5-1.5v-5.597c0-0.567,0.32-1.088,0.828-1.342
	c0.186-0.096,4.768-2.561,4.768-9.852c0-7.328-6.54-10.625-11.186-10.625c-3.526,0-10.812,2.461-10.812,10.065
	c0,7.345,4.356,10.494,4.399,10.525c0.4,0.281,0.638,0.738,0.638,1.228v5.596c0,0.828-0.672,1.5-1.5,1.5s-1.5-0.672-1.5-1.5v-4.892
	c-1.487-1.338-5.037-5.282-5.037-12.456c0-9.013,8.076-13.066,13.812-13.066c5.891,0,14.186,4.229,14.186,13.625
	c0,7.287-3.854,10.805-5.596,12.023v4.766C72.074,972.675,71.402,973.347,70.574,973.347z"/>
<path fill="#FF7E00" d="M69.643,976.203H57.145c-0.554,0-1-0.446-1-1c0-0.553,0.446-1,1-1h12.498c0.553,0,1,0.447,1,1
	C70.643,975.757,70.193,976.203,69.643,976.203z"/>
<path fill="#FF7E00" d="M69.643,979.19H57.145c-0.554,0-1-0.447-1-1s0.446-1,1-1h12.498c0.553,0,1,0.447,1,1
	S70.193,979.19,69.643,979.19z"/>
<path fill="#FF7E00" d="M68.336,982.175h-9.887c-0.553,0-1-0.447-1-1c0-0.554,0.447-1,1-1h9.887c0.553,0,1,0.446,1,1
	C69.336,981.728,68.889,982.175,68.336,982.175z"/>
<path fill="#FF7E00" d="M66.283,985.16h-5.781c-0.553,0-1-0.446-1-1c0-0.553,0.447-1,1-1h5.781c0.553,0,1,0.447,1,1
	C67.283,984.714,66.836,985.16,66.283,985.16z"/>
<g>
	<g>
		<g>
			<path fill="#FFFFFF" d="M22.312,1062.465c-3.757,0-6.327,0.241-8.201,1.731v-10.803H8v21.194c0,8.114,3.711,10.806,13.118,10.806
				c8.644,0,12.933-2.512,12.933-11.384C34.051,1066,30.882,1062.465,22.312,1062.465z M21.029,1081.103
				c-6.263,0-7.24-1.02-7.24-7.752c0-5.735,2.007-6.515,6.994-6.515c5.024,0,6.996,0.779,6.996,6.515
				C27.779,1080.083,26.652,1081.103,21.029,1081.103z M62.754,1062.877h-6.995l-7.151,6.706c-1.252,1.22-1.869,1.517-3.67,1.517
				l-1.158,0.024v-17.73h-6.031v31.75h6.031v-9.071h1.045c1.803,0,2.269,0.154,3.518,1.418l7.417,7.653h7.799l-11.658-11.71
				L62.754,1062.877z M65.89,1079.453v5.69H72v-5.688L65.89,1079.453z"/>
		</g>
	</g>
</g>
<g>
	<path fill="#FFFFFF" d="M66.693,1177.191h-5.665c-1.138-9.778-8.934-17.549-18.726-18.646v-5.737c0-1.273-1.026-2.307-2.306-2.307
		c-1.273,0-2.307,1.033-2.307,2.307v5.718c-9.863,1.033-17.744,8.836-18.888,18.666h-5.496c-1.273,0-2.307,1.033-2.307,2.307
		s1.033,2.307,2.307,2.307h5.464c1.001,9.979,8.946,17.951,18.92,18.997v5.393c0,1.273,1.033,2.307,2.307,2.307
		c1.279,0,2.306-1.033,2.306-2.307v-5.412c9.902-1.104,17.764-9.05,18.758-18.978h5.633c1.273,0,2.307-1.033,2.307-2.307
		S67.967,1177.191,66.693,1177.191z M42.303,1194.424v-3.72c0-1.273-1.026-2.307-2.306-2.307c-1.273,0-2.307,1.033-2.307,2.307
		v3.742c-6.503-0.966-11.64-6.133-12.573-12.643h3.679c1.273,0,2.307-1.033,2.307-2.307s-1.033-2.307-2.307-2.307h-3.627
		c1.059-6.354,6.135-11.361,12.521-12.313v3.418c0,1.273,1.033,2.307,2.307,2.307c1.279,0,2.306-1.033,2.306-2.307v-3.395
		c6.31,1.014,11.309,5.987,12.359,12.289h-3.458c-1.273,0-2.307,1.033-2.307,2.307s1.033,2.307,2.307,2.307h3.51
		C53.787,1188.262,48.729,1193.396,42.303,1194.424z M39.978,1177.236h-0.039c-1.533,0.02-2.774,1.273-2.774,2.814
		c0,1.539,1.241,2.793,2.774,2.813h0.039c1.546,0,2.807-1.26,2.807-2.813C42.784,1178.496,41.523,1177.236,39.978,1177.236z
		 M39.979,1175.976h-0.057c-2.22,0.028-4.017,1.844-4.017,4.074c0,2.229,1.797,4.045,4.017,4.073h0.057
		c2.239,0,4.064-1.825,4.064-4.073C44.043,1177.801,42.218,1175.976,39.979,1175.976z"/>
</g>
</svg>
