<?xml version="1.0" encoding="utf-8"?>
<!-- Generator: Adobe Illustrator 16.0.0, SVG Export Plug-In . SVG Version: 6.00 Build 0)  -->
<!DOCTYPE svg PUBLIC "-//W3C//DTD SVG 1.1//EN" "http://www.w3.org/Graphics/SVG/1.1/DTD/svg11.dtd">
<svg version="1.1" id="searchpc" xmlns="http://www.w3.org/2000/svg" xmlns:xlink="http://www.w3.org/1999/xlink" x="0px" y="0px"
	 width="88px" height="120px" viewBox="0 0 88 120" enable-background="new 0 0 88 120" xml:space="preserve">
<path fill="#6E6E6E" d="M36.562,22.732l-0.868-2.8h-3.199l-0.882,2.8H30.21l3.176-9.384h1.459l3.177,9.384H36.562z M33.721,15.989
	c-0.149,0.511-0.309,1.022-0.477,1.537l-0.394,1.27h2.486l-0.393-1.271c-0.167-0.512-0.328-1.024-0.477-1.534l-0.378-1.302
	C34.088,14.688,33.782,15.783,33.721,15.989z"/>
<path fill="#6E6E6E" d="M42.529,22.9c-0.591,0-1.144-0.111-1.643-0.331c-0.501-0.217-0.941-0.539-1.309-0.955
	c-0.367-0.415-0.657-0.93-0.861-1.533c-0.203-0.602-0.305-1.289-0.305-2.041c0-0.746,0.105-1.426,0.314-2.021
	c0.208-0.597,0.501-1.112,0.874-1.531c0.374-0.422,0.821-0.748,1.33-0.971c0.507-0.224,1.069-0.337,1.671-0.337
	c0.577,0,1.087,0.119,1.518,0.355c0.43,0.234,0.788,0.507,1.063,0.812l0.06,0.066l-0.791,0.892l-0.075-0.081
	c-0.233-0.251-0.495-0.455-0.778-0.604c-0.281-0.146-0.611-0.22-0.983-0.22c-0.421,0-0.807,0.084-1.146,0.25
	c-0.339,0.165-0.633,0.405-0.875,0.714c-0.243,0.31-0.436,0.693-0.571,1.137c-0.136,0.445-0.206,0.953-0.206,1.511
	c0,0.568,0.067,1.083,0.198,1.533c0.134,0.453,0.319,0.841,0.553,1.152c0.23,0.311,0.518,0.556,0.853,0.725
	c0.334,0.17,0.717,0.256,1.139,0.256c0.429,0,0.806-0.085,1.121-0.254c0.319-0.17,0.628-0.417,0.917-0.735l0.074-0.082l0.793,0.86
	l-0.059,0.068c-0.374,0.43-0.799,0.768-1.262,1.004C43.67,22.779,43.127,22.9,42.529,22.9z"/>
<path fill="#6E6E6E" d="M50.02,22.9c-0.59,0-1.139-0.116-1.629-0.345c-0.496-0.231-0.927-0.563-1.275-0.986
	c-0.352-0.42-0.627-0.94-0.822-1.545C46.098,19.421,46,18.74,46,17.998c0-0.742,0.098-1.419,0.292-2.013
	c0.192-0.592,0.472-1.103,0.823-1.516c0.353-0.414,0.781-0.736,1.273-0.957c0.491-0.219,1.041-0.331,1.631-0.331
	c0.588,0,1.137,0.114,1.631,0.338c0.492,0.223,0.923,0.547,1.281,0.964c0.354,0.411,0.635,0.922,0.832,1.517
	c0.192,0.596,0.291,1.269,0.291,1.999c0,0.738-0.099,1.419-0.293,2.025c-0.191,0.6-0.472,1.12-0.83,1.546
	c-0.357,0.425-0.789,0.756-1.281,0.986C51.156,22.784,50.605,22.9,50.02,22.9z M50.02,14.402c-0.392,0-0.75,0.083-1.065,0.248
	c-0.322,0.168-0.591,0.399-0.82,0.707s-0.409,0.688-0.536,1.129c-0.129,0.445-0.193,0.954-0.193,1.513
	c0,0.565,0.066,1.081,0.193,1.534c0.127,0.449,0.309,0.839,0.536,1.159c0.231,0.319,0.507,0.566,0.822,0.733
	c0.315,0.168,0.674,0.254,1.063,0.254c0.397,0,0.746-0.083,1.066-0.253c0.316-0.169,0.592-0.416,0.82-0.734
	c0.23-0.326,0.412-0.715,0.537-1.16c0.129-0.454,0.193-0.97,0.193-1.533c0-0.553-0.064-1.062-0.193-1.513
	c-0.129-0.448-0.31-0.828-0.537-1.13c-0.227-0.303-0.504-0.541-0.819-0.707C50.771,14.485,50.414,14.402,50.02,14.402z"/>
<polygon fill="#6E6E6E" points="57.453,22.731 57.453,14.527 54.68,14.527 54.68,13.347 61.6,13.347 61.6,14.527 58.827,14.527 
	58.827,22.731 "/>
<path fill="#6E6E6E" d="M67.585,22.732l-0.867-2.8H63.52l-0.883,2.8h-1.4l3.176-9.384h1.457l3.177,9.384H67.585z M64.744,15.988
	c-0.148,0.511-0.311,1.024-0.479,1.537l-0.394,1.269h2.487l-0.393-1.27c-0.169-0.513-0.326-1.024-0.479-1.535l-0.377-1.304
	C65.111,14.685,64.805,15.782,64.744,15.988z"/>
<path fill="#6E6E6E" d="M75.188,22.732l-2.213-3.878h-1.508v3.878h-1.361v-9.384h2.971c0.477,0,0.92,0.045,1.316,0.136
	c0.406,0.091,0.762,0.244,1.059,0.458c0.294,0.212,0.529,0.493,0.697,0.835c0.164,0.34,0.246,0.76,0.246,1.248
	c0,0.738-0.195,1.339-0.584,1.787c-0.311,0.357-0.711,0.628-1.192,0.806L74.395,18.7l2.34,4.033L75.188,22.732L75.188,22.732z
	 M71.469,17.7c0,0,1.445,0,1.448,0c0.688,0,1.224-0.141,1.582-0.419c0.36-0.276,0.536-0.688,0.536-1.258
	c0-0.566-0.178-0.966-0.527-1.189c-0.365-0.232-0.902-0.35-1.599-0.35h-1.44V17.7z"/>
<path fill="#333333" d="M36.562,107.172l-0.868-2.802h-3.199l-0.882,2.802H30.21l3.176-9.385h1.459l3.177,9.385H36.562z
	 M33.721,100.43c-0.149,0.51-0.309,1.021-0.477,1.535l-0.394,1.271h2.486l-0.393-1.271c-0.167-0.514-0.328-1.025-0.477-1.533
	l-0.378-1.307C34.089,99.124,33.782,100.225,33.721,100.43z"/>
<path fill="#333333" d="M42.529,107.342c-0.59,0-1.143-0.111-1.643-0.33c-0.503-0.219-0.943-0.541-1.308-0.957
	c-0.369-0.418-0.659-0.933-0.86-1.533c-0.203-0.601-0.305-1.287-0.305-2.041c0-0.744,0.105-1.426,0.314-2.021
	c0.207-0.599,0.501-1.112,0.874-1.532c0.373-0.421,0.82-0.746,1.33-0.97c0.509-0.226,1.071-0.338,1.67-0.338
	c0.574,0,1.084,0.12,1.518,0.356c0.431,0.233,0.788,0.508,1.063,0.813l0.061,0.066l-0.791,0.89l-0.075-0.08
	c-0.233-0.252-0.495-0.455-0.779-0.604c-0.278-0.146-0.609-0.22-0.981-0.22c-0.417,0-0.802,0.085-1.145,0.248
	c-0.347,0.171-0.633,0.403-0.876,0.716c-0.242,0.309-0.435,0.689-0.571,1.135c-0.137,0.449-0.206,0.959-0.206,1.513
	c0,0.569,0.067,1.085,0.198,1.532c0.132,0.451,0.318,0.838,0.553,1.152c0.231,0.313,0.519,0.557,0.854,0.727
	c0.338,0.172,0.711,0.256,1.138,0.256c0.43,0,0.807-0.086,1.121-0.256c0.317-0.168,0.626-0.416,0.919-0.733l0.072-0.079l0.793,0.858
	l-0.059,0.067c-0.371,0.428-0.797,0.766-1.263,1.004C43.671,107.221,43.128,107.342,42.529,107.342z"/>
<path fill="#333333" d="M50.02,107.34c-0.588,0-1.137-0.115-1.631-0.344c-0.492-0.23-0.922-0.563-1.273-0.984
	c-0.35-0.423-0.627-0.943-0.822-1.55c-0.193-0.601-0.292-1.28-0.292-2.024c0-0.74,0.099-1.418,0.292-2.013
	c0.191-0.59,0.471-1.1,0.823-1.516c0.354-0.416,0.784-0.738,1.272-0.957c0.49-0.222,1.039-0.332,1.631-0.332
	c0.588,0,1.138,0.112,1.633,0.338c0.492,0.226,0.925,0.551,1.281,0.965c0.354,0.413,0.635,0.925,0.83,1.519
	c0.193,0.597,0.291,1.27,0.291,1.998c0,0.738-0.098,1.42-0.291,2.025c-0.193,0.602-0.473,1.121-0.83,1.545
	c-0.358,0.424-0.789,0.758-1.281,0.987C51.157,107.225,50.607,107.34,50.02,107.34z M50.02,98.842c-0.392,0-0.75,0.084-1.065,0.248
	c-0.321,0.168-0.591,0.398-0.82,0.706c-0.229,0.31-0.411,0.688-0.536,1.13c-0.129,0.444-0.193,0.953-0.193,1.512
	c0,0.566,0.066,1.082,0.193,1.533c0.127,0.447,0.307,0.838,0.539,1.159c0.229,0.317,0.504,0.563,0.819,0.731
	c0.313,0.17,0.672,0.256,1.063,0.256c0.4,0,0.75-0.084,1.067-0.256c0.313-0.168,0.591-0.414,0.819-0.73
	c0.23-0.324,0.412-0.715,0.537-1.16c0.129-0.453,0.193-0.97,0.193-1.533c0-0.553-0.064-1.062-0.193-1.512
	c-0.127-0.445-0.309-0.826-0.535-1.129s-0.504-0.541-0.821-0.707C50.771,98.926,50.412,98.842,50.02,98.842z"/>
<polygon fill="#333333" points="57.453,107.172 57.453,98.967 54.68,98.967 54.68,97.788 61.6,97.788 61.6,98.967 58.827,98.967 
	58.827,107.172 "/>
<path fill="#333333" d="M67.585,107.172l-0.867-2.802H63.52l-0.883,2.802h-1.4l3.176-9.385h1.457l3.177,9.385H67.585z
	 M64.744,100.43c-0.148,0.51-0.311,1.021-0.479,1.535l-0.394,1.271h2.487l-0.393-1.271c-0.169-0.514-0.326-1.025-0.479-1.535
	l-0.377-1.307C65.111,99.123,64.805,100.225,64.744,100.43z"/>
<path fill="#333333" d="M75.188,107.172l-2.213-3.879h-1.508v3.879h-1.361v-9.385h2.971c0.472,0,0.915,0.046,1.316,0.137
	c0.408,0.092,0.764,0.246,1.057,0.457c0.295,0.211,0.529,0.492,0.699,0.836c0.164,0.338,0.246,0.758,0.246,1.246
	c0,0.739-0.195,1.342-0.584,1.788c-0.312,0.356-0.713,0.628-1.193,0.806l-0.225,0.082l2.342,4.033H75.188z M71.469,102.143h1.44
	c0.692,0,1.229-0.142,1.591-0.418c0.359-0.279,0.535-0.69,0.535-1.262c0-0.566-0.178-0.967-0.527-1.188
	c-0.369-0.232-0.906-0.351-1.599-0.351h-1.44V102.143z"/>
<path fill="#5E7A3A" d="M36.562,64.73l-0.868-2.799h-3.199l-0.882,2.799H30.21l3.176-9.382h1.459l3.177,9.382H36.562z
	 M33.721,57.989c-0.149,0.511-0.309,1.022-0.477,1.537l-0.394,1.27h2.486l-0.393-1.272c-0.167-0.512-0.328-1.024-0.477-1.534
	l-0.378-1.302C34.088,56.688,33.782,57.783,33.721,57.989z"/>
<path fill="#5E7A3A" d="M42.529,64.898c-0.591,0-1.144-0.11-1.643-0.33c-0.5-0.219-0.94-0.541-1.308-0.955
	c-0.366-0.413-0.655-0.93-0.861-1.533c-0.203-0.598-0.305-1.283-0.305-2.04c0-0.746,0.105-1.426,0.314-2.021
	c0.208-0.597,0.501-1.112,0.874-1.531c0.374-0.422,0.821-0.748,1.33-0.971c0.507-0.224,1.069-0.337,1.671-0.337
	c0.577,0,1.087,0.119,1.518,0.355c0.43,0.234,0.788,0.507,1.063,0.812l0.061,0.066l-0.791,0.892l-0.075-0.081
	c-0.231-0.251-0.494-0.454-0.778-0.604c-0.281-0.146-0.611-0.22-0.983-0.22c-0.421,0-0.807,0.084-1.146,0.25
	c-0.339,0.165-0.633,0.405-0.875,0.714c-0.243,0.31-0.436,0.693-0.571,1.137c-0.136,0.445-0.206,0.953-0.206,1.511
	c0,0.569,0.067,1.083,0.198,1.533c0.132,0.449,0.318,0.837,0.552,1.152c0.234,0.313,0.521,0.558,0.853,0.727
	c0.337,0.17,0.72,0.256,1.139,0.256c0.429,0,0.807-0.086,1.122-0.255c0.316-0.17,0.625-0.417,0.918-0.733l0.073-0.08l0.792,0.857
	l-0.059,0.067c-0.375,0.433-0.801,0.771-1.262,1.004C43.669,64.777,43.126,64.898,42.529,64.898z"/>
<path fill="#5E7A3A" d="M50.02,64.898c-0.59,0-1.139-0.115-1.631-0.344c-0.496-0.232-0.925-0.564-1.272-0.986
	c-0.351-0.42-0.628-0.939-0.823-1.545C46.098,61.422,46,60.74,46,59.998s0.098-1.419,0.292-2.013
	c0.192-0.592,0.472-1.103,0.823-1.516c0.353-0.414,0.781-0.736,1.273-0.957c0.49-0.219,1.041-0.33,1.631-0.33
	c0.588,0,1.137,0.114,1.631,0.338c0.492,0.223,0.923,0.547,1.281,0.964c0.354,0.411,0.635,0.922,0.832,1.517
	c0.192,0.596,0.291,1.269,0.291,1.999c0,0.738-0.099,1.42-0.293,2.025c-0.191,0.6-0.472,1.119-0.83,1.545
	c-0.357,0.426-0.789,0.758-1.281,0.986C51.157,64.784,50.607,64.898,50.02,64.898z M50.02,56.402c-0.392,0-0.75,0.083-1.065,0.248
	c-0.322,0.168-0.591,0.399-0.82,0.707s-0.409,0.688-0.536,1.129c-0.129,0.445-0.193,0.954-0.193,1.513
	c0,0.563,0.066,1.081,0.193,1.534c0.129,0.451,0.31,0.841,0.537,1.158c0.231,0.322,0.5,0.562,0.82,0.732
	c0.313,0.168,0.67,0.254,1.064,0.254c0.396,0,0.756-0.084,1.067-0.254c0.313-0.167,0.591-0.412,0.819-0.73
	c0.23-0.328,0.412-0.719,0.537-1.16c0.129-0.454,0.193-0.971,0.193-1.534c0-0.553-0.064-1.062-0.193-1.513
	c-0.129-0.448-0.31-0.828-0.537-1.13c-0.227-0.303-0.504-0.541-0.819-0.707C50.771,56.485,50.414,56.402,50.02,56.402z"/>
<polygon fill="#5E7A3A" points="57.453,64.73 57.453,56.527 54.68,56.527 54.68,55.347 61.6,55.347 61.6,56.527 58.827,56.527 
	58.827,64.73 "/>
<path fill="#5E7A3A" d="M67.585,64.73l-0.867-2.799H63.52l-0.883,2.799h-1.4l3.176-9.382h1.457l3.177,9.382H67.585z M64.744,57.988
	c-0.148,0.511-0.311,1.024-0.479,1.537l-0.394,1.27h2.487l-0.393-1.27c-0.169-0.513-0.326-1.024-0.479-1.535l-0.377-1.304
	C65.111,56.685,64.805,57.782,64.744,57.988z"/>
<path fill="#5E7A3A" d="M75.188,64.73l-2.213-3.877h-1.508v3.877h-1.361v-9.382h2.971c0.477,0,0.92,0.045,1.316,0.136
	c0.406,0.091,0.762,0.244,1.059,0.458c0.294,0.212,0.529,0.493,0.697,0.835c0.164,0.34,0.246,0.76,0.246,1.248
	c0,0.738-0.195,1.339-0.584,1.787c-0.311,0.357-0.711,0.628-1.192,0.806L74.395,60.7l2.34,4.032h-1.547V64.73z M71.469,59.7
	c0,0,1.445,0,1.448,0c0.688,0,1.224-0.141,1.582-0.419c0.36-0.276,0.536-0.688,0.536-1.258c0-0.566-0.178-0.966-0.527-1.189
	c-0.365-0.232-0.902-0.35-1.599-0.35h-1.44V59.7z"/>
<rect x="12.718" y="10.702" fill-rule="evenodd" clip-rule="evenodd" fill="#6E6E6E" width="1.547" height="14.178"/>
<rect x="17.992" y="10.702" fill-rule="evenodd" clip-rule="evenodd" fill="#6E6E6E" width="1.546" height="14.178"/>
<rect x="23.613" y="10.702" fill-rule="evenodd" clip-rule="evenodd" fill="#6E6E6E" width="1.546" height="14.178"/>
<path fill="#6E6E6E" d="M13.51,18.624c-0.848,0-1.485-0.06-1.673-0.727l-0.064-1.336l-0.005,0.002l0-0.922
	c-0.001-0.476-0.004-0.852,0.277-1.133c0.283-0.286,0.74-0.34,1.43-0.34c0.849,0,1.486,0.058,1.675,0.727l0.064,0.403l0.005,1.854
	c0.002,0.477,0.003,0.851-0.277,1.133C14.656,18.568,14.202,18.624,13.51,18.624"/>
<path fill="#6E6E6E" d="M18.783,21.479c-0.849,0-1.486-0.059-1.673-0.727l-0.063-1.337l-0.006,0.002l-0.001-0.923
	c-0.002-0.476-0.003-0.852,0.277-1.132c0.285-0.285,0.74-0.34,1.431-0.34c0.849,0,1.486,0.058,1.674,0.727l0.063,0.402l0.006,1.854
	c0.001,0.477,0.003,0.852-0.277,1.133C19.928,21.424,19.474,21.479,18.783,21.479"/>
<path fill="#6E6E6E" d="M24.404,15.879c-0.849,0-1.486-0.059-1.675-0.727l-0.063-1.337l-0.007,0.002v-0.923
	c-0.001-0.475-0.003-0.851,0.276-1.133c0.285-0.285,0.74-0.339,1.432-0.339c0.847,0,1.484,0.058,1.673,0.726l0.064,0.403
	l0.005,1.854c0.003,0.476,0.005,0.851-0.276,1.132C25.551,15.823,25.094,15.879,24.404,15.879"/>
<rect x="12.718" y="52.69" fill-rule="evenodd" clip-rule="evenodd" fill="#5E7A3A" width="1.547" height="14.178"/>
<rect x="17.992" y="52.69" fill-rule="evenodd" clip-rule="evenodd" fill="#5E7A3A" width="1.546" height="14.178"/>
<rect x="23.613" y="52.69" fill-rule="evenodd" clip-rule="evenodd" fill="#5E7A3A" width="1.546" height="14.178"/>
<path fill="#5E7A3A" d="M13.51,60.611c-0.848,0-1.485-0.059-1.673-0.727l-0.064-1.336l-0.005,0.002l0-0.922
	c-0.001-0.476-0.004-0.852,0.277-1.133c0.283-0.286,0.74-0.34,1.43-0.34c0.849,0,1.486,0.058,1.675,0.727l0.064,0.403l0.005,1.854
	c0.002,0.477,0.003,0.851-0.277,1.133C14.656,60.557,14.202,60.611,13.51,60.611"/>
<path fill="#5E7A3A" d="M18.783,63.468c-0.849,0-1.486-0.06-1.673-0.727l-0.063-1.337l-0.006,0.002l-0.001-0.922
	c-0.002-0.476-0.003-0.852,0.277-1.132c0.285-0.285,0.74-0.34,1.431-0.34c0.849,0,1.486,0.058,1.674,0.727l0.063,0.402l0.006,1.854
	c0.001,0.477,0.003,0.852-0.277,1.133C19.928,63.412,19.474,63.468,18.783,63.468"/>
<path fill="#5E7A3A" d="M24.404,57.867c-0.849,0-1.486-0.059-1.675-0.727l-0.063-1.337l-0.007,0.002v-0.923
	c-0.001-0.475-0.003-0.851,0.276-1.133c0.285-0.285,0.74-0.339,1.432-0.339c0.847,0,1.484,0.058,1.673,0.726l0.064,0.403
	l0.005,1.854c0.003,0.476,0.005,0.851-0.276,1.132C25.551,57.812,25.094,57.867,24.404,57.867"/>
<rect x="12.718" y="95.13" fill-rule="evenodd" clip-rule="evenodd" fill="#333333" width="1.547" height="14.178"/>
<rect x="17.992" y="95.13" fill-rule="evenodd" clip-rule="evenodd" fill="#333333" width="1.546" height="14.178"/>
<rect x="23.613" y="95.13" fill-rule="evenodd" clip-rule="evenodd" fill="#333333" width="1.546" height="14.178"/>
<path fill="#333333" d="M13.51,103.051c-0.848,0-1.485-0.059-1.673-0.727l-0.064-1.336l-0.005,0.002l0-0.922
	c-0.001-0.477-0.004-0.853,0.277-1.133c0.283-0.286,0.74-0.341,1.43-0.341c0.849,0,1.486,0.058,1.675,0.727l0.064,0.403l0.005,1.854
	c0.002,0.477,0.003,0.851-0.277,1.133C14.656,102.996,14.202,103.051,13.51,103.051"/>
<path fill="#333333" d="M18.783,105.907c-0.849,0-1.486-0.06-1.673-0.727l-0.063-1.337l-0.006,0.002l-0.001-0.922
	c-0.002-0.477-0.003-0.852,0.277-1.133c0.285-0.285,0.74-0.34,1.431-0.34c0.849,0,1.486,0.058,1.674,0.727l0.063,0.402l0.006,1.854
	c0.001,0.477,0.003,0.852-0.277,1.133C19.928,105.852,19.474,105.907,18.783,105.907"/>
<path fill="#333333" d="M24.404,100.307c-0.849,0-1.486-0.059-1.675-0.727l-0.063-1.337l-0.007,0.003v-0.924
	c-0.001-0.475-0.003-0.851,0.276-1.133c0.285-0.284,0.74-0.339,1.432-0.339c0.847,0,1.484,0.058,1.673,0.726l0.064,0.404
	l0.005,1.854c0.003,0.476,0.005,0.851-0.276,1.132C25.551,100.251,25.094,100.307,24.404,100.307"/>
</svg>
