<?xml version="1.0" encoding="utf-8"?>
<!-- Generator: Adobe Illustrator 16.0.0, SVG Export Plug-In . SVG Version: 6.00 Build 0)  -->
<!DOCTYPE svg PUBLIC "-//W3C//DTD SVG 1.1//EN" "http://www.w3.org/Graphics/SVG/1.1/DTD/svg11.dtd">
<svg version="1.1" id="searchmovil" xmlns="http://www.w3.org/2000/svg" xmlns:xlink="http://www.w3.org/1999/xlink" x="0px" y="0px"
	 width="40px" height="120px" viewBox="0 0 40 120" enable-background="new 0 0 40 120" xml:space="preserve">
<g>
	<g>
		<path fill="#B5B5B5" d="M9.012,33.021h1.689V9.354H9.012V33.021z M19.154,33.021h1.691V9.354h-1.691V33.021z M29.298,9.354v23.667
			h1.69V9.354H29.298z"/>
	</g>
</g>
<path fill="#FFFFFF" stroke="#B5B5B5" stroke-miterlimit="10" d="M20.005,24.331c1.397,0,2.528,1.134,2.528,2.529
	c0,1.397-1.131,2.526-2.528,2.526c-1.396,0-2.528-1.129-2.528-2.526C17.477,25.465,18.609,24.331,20.005,24.331z"/>
<path fill="#FFFFFF" stroke="#B5B5B5" stroke-miterlimit="10" d="M9.857,19.86c1.396,0,2.528,1.133,2.528,2.528
	c0,1.396-1.133,2.529-2.528,2.529c-1.398,0-2.531-1.133-2.531-2.529C7.326,20.993,8.459,19.86,9.857,19.86z"/>
<path fill="#FFFFFF" stroke="#B5B5B5" stroke-miterlimit="10" d="M30.143,12.761c1.396,0,2.531,1.133,2.531,2.529
	s-1.133,2.529-2.531,2.529c-1.396,0-2.527-1.134-2.527-2.528C27.615,13.895,28.748,12.761,30.143,12.761z"/>
<g>
	<g>
		<path fill="#5E7A3A" d="M9.012,71.688h1.689V48.021H9.012V71.688z M19.154,71.688h1.691V48.021h-1.691V71.688z M29.298,48.021
			v23.666h1.69V48.021H29.298z"/>
	</g>
</g>
<path fill="#FFFFFF" stroke="#5E7A3A" stroke-miterlimit="10" d="M20.005,62.998c1.397,0,2.528,1.133,2.528,2.529
	c0,1.398-1.131,2.527-2.528,2.527c-1.396,0-2.528-1.129-2.528-2.527C17.477,64.131,18.609,62.998,20.005,62.998z"/>
<path fill="#FFFFFF" stroke="#5E7A3A" stroke-miterlimit="10" d="M9.857,58.527c1.396,0,2.528,1.133,2.528,2.529
	c0,1.396-1.133,2.529-2.528,2.529c-1.398,0-2.531-1.134-2.531-2.529C7.326,59.66,8.459,58.527,9.857,58.527z"/>
<path fill="#FFFFFF" stroke="#5E7A3A" stroke-miterlimit="10" d="M30.143,51.428c1.396,0,2.531,1.133,2.531,2.529
	s-1.133,2.529-2.531,2.529c-1.396,0-2.527-1.133-2.527-2.529S28.748,51.428,30.143,51.428z"/>
<g>
	<g>
		<path fill="#5E7A3A" d="M9.012,110.355h1.689V86.688H9.012V110.355z M19.154,110.355h1.691V86.688h-1.691V110.355z M29.298,86.688
			v23.668h1.69V86.688H29.298z"/>
	</g>
</g>
<path fill="#FFFFFF" stroke="#5E7A3A" stroke-miterlimit="10" d="M20.005,101.666c1.397,0,2.528,1.133,2.528,2.528
	c0,1.397-1.131,2.526-2.528,2.526c-1.396,0-2.528-1.129-2.528-2.526C17.477,102.799,18.609,101.666,20.005,101.666z"/>
<path fill="#FFFFFF" stroke="#5E7A3A" stroke-miterlimit="10" d="M9.857,97.194c1.396,0,2.528,1.133,2.528,2.528
	c0,1.396-1.133,2.529-2.528,2.529c-1.398,0-2.531-1.133-2.531-2.529C7.326,98.327,8.459,97.194,9.857,97.194z"/>
<path fill="#FFFFFF" stroke="#5E7A3A" stroke-miterlimit="10" d="M30.143,90.096c1.396,0,2.531,1.133,2.531,2.529
	c0,1.395-1.133,2.528-2.531,2.528c-1.396,0-2.527-1.134-2.527-2.528C27.615,91.229,28.748,90.096,30.143,90.096z"/>
</svg>
