<?xml version="1.0" encoding="utf-8"?>
<!-- Generator: Adobe Illustrator 16.0.0, SVG Export Plug-In . SVG Version: 6.00 Build 0)  -->
<!DOCTYPE svg PUBLIC "-//W3C//DTD SVG 1.1//EN" "http://www.w3.org/Graphics/SVG/1.1/DTD/svg11.dtd">
<svg version="1.1"
	 id="tabselected" xmlns:cc="http://creativecommons.org/ns#" xmlns:rdf="http://www.w3.org/1999/02/22-rdf-syntax-ns#" xmlns:dc="http://purl.org/dc/elements/1.1/" inkscape:version="0.48.4 r9939" sodipodi:docname="tabselected.svg" xmlns:inkscape="http://www.inkscape.org/namespaces/inkscape" xmlns:sodipodi="http://sodipodi.sourceforge.net/DTD/sodipodi-0.dtd" xmlns:svg="http://www.w3.org/2000/svg"
	 xmlns="http://www.w3.org/2000/svg" xmlns:xlink="http://www.w3.org/1999/xlink" x="0px" y="0px" width="18px" height="593.25px"
	 viewBox="0 0 18 593.25" enable-background="new 0 0 18 593.25" xml:space="preserve">
<sodipodi:namedview  bordercolor="#666666" inkscape:cy="220.55548" inkscape:zoom="13.612558" id="namedview2991" pagecolor="#ffffff" guidetolerance="10" borderopacity="1" objecttolerance="10" inkscape:cx="13.048849" showgrid="false" gridtolerance="10" inkscape:window-width="1280" inkscape:window-maximized="1" inkscape:window-height="975" inkscape:window-x="-4" inkscape:pageopacity="0" inkscape:current-layer="tabselected" inkscape:pageshadow="2" inkscape:window-y="-4">
	</sodipodi:namedview>
<path id="blue" inkscape:connector-curvature="0" fill="#0097E3" d="M9,9L0,0l18,0.01L9,9z"/>
<path id="grey" inkscape:connector-curvature="0" fill="#E7E7E7" d="M9,60l-9,9h18L9,60z"/>
<path id="grey_1_" inkscape:connector-curvature="0" fill="#A6D1D7" d="M9,480l-9,9h18L9,480z"/>
<path id="grey_2_" inkscape:connector-curvature="0" fill="#F06F24" d="M9,575l-9,9h18L9,575z"/>
<path id="white" inkscape:connector-curvature="0" fill="#FFFFFF" d="M9,119l-9,9h18L9,119z"/>
<path id="path8861-3-0" inkscape:connector-curvature="0" fill="#FFFFD6" d="M9,178l-9,9h18L9,178z"/>
<path id="path8861-3-0-1" inkscape:connector-curvature="0" fill="#E7D042" d="M9,238l-9,9h18L9,238z"/>
<path id="path8861-3-0-1_1_" inkscape:connector-curvature="0" fill="#E0CF50" d="M9,318l-9,9h18L9,318z"/>
<path fill="#707070" d="M5.741,402.329H5.739l-4.505,4.511l4.427-0.002l3.337-3.337l3.421,3.339h4.346c0,0-3.928-3.947-4.063-4.081
	C9.551,399.604,8.594,399.514,5.741,402.329"/>
</svg>
