<?xml version="1.0" encoding="utf-8"?>
<!-- Generator: Adobe Illustrator 16.0.0, SVG Export Plug-In . SVG Version: 6.00 Build 0)  -->
<!DOCTYPE svg PUBLIC "-//W3C//DTD SVG 1.1//EN" "http://www.w3.org/Graphics/SVG/1.1/DTD/svg11.dtd">
<svg version="1.1" id="seisMil" xmlns="http://www.w3.org/2000/svg" xmlns:xlink="http://www.w3.org/1999/xlink" x="0px" y="0px"
	 width="100.066px" height="12.307px" viewBox="0 32.693 100.066 12.307" enable-background="new 0 32.693 100.066 12.307"
	 xml:space="preserve">
<path fill="#63544A" d="M82.891,41.73c0.195,0.712,0.469,1.312,0.821,1.797c0.352,0.487,0.779,0.854,1.282,1.102
	C85.497,44.876,86.052,45,86.657,45c0.604,0,1.154-0.124,1.653-0.371s0.926-0.614,1.276-1.102c0.352-0.485,0.626-1.085,0.823-1.797
	c0.198-0.711,0.296-1.534,0.296-2.468c0-0.937-0.098-1.756-0.296-2.461c-0.197-0.704-0.472-1.295-0.823-1.774
	c-0.351-0.479-0.777-0.837-1.276-1.072c-0.499-0.237-1.05-0.356-1.653-0.356c-0.611,0-1.166,0.119-1.666,0.356
	c-0.502,0.235-0.927,0.594-1.278,1.072c-0.353,0.479-0.626,1.07-0.821,1.774c-0.194,0.705-0.292,1.524-0.292,2.461
	C82.599,40.196,82.697,41.02,82.891,41.73"/>
<path fill="#63544A" d="M73.696,41.73c0.195,0.712,0.468,1.312,0.82,1.797c0.352,0.487,0.779,0.854,1.282,1.102S76.856,45,77.461,45
	s1.155-0.124,1.654-0.371c0.5-0.247,0.925-0.614,1.276-1.102c0.351-0.485,0.626-1.085,0.823-1.797
	c0.197-0.711,0.295-1.534,0.295-2.468c0-0.937-0.098-1.756-0.295-2.461c-0.197-0.704-0.473-1.295-0.823-1.774
	c-0.352-0.479-0.776-0.837-1.276-1.072c-0.499-0.237-1.05-0.356-1.654-0.356c-0.609,0-1.165,0.119-1.666,0.356
	c-0.5,0.235-0.927,0.594-1.278,1.072c-0.353,0.479-0.625,1.07-0.82,1.774c-0.195,0.705-0.292,1.524-0.292,2.461
	C73.404,40.196,73.501,41.02,73.696,41.73"/>
<path fill="#63544A" d="M64.501,41.73c0.195,0.712,0.469,1.312,0.82,1.797c0.352,0.487,0.779,0.854,1.282,1.102S67.661,45,68.265,45
	s1.156-0.124,1.654-0.371c0.499-0.247,0.926-0.614,1.276-1.102c0.351-0.485,0.626-1.085,0.823-1.797
	c0.196-0.711,0.295-1.534,0.295-2.468c0-0.937-0.099-1.756-0.295-2.461c-0.197-0.704-0.473-1.295-0.823-1.774
	c-0.351-0.479-0.777-0.837-1.276-1.072c-0.498-0.237-1.05-0.356-1.654-0.356c-0.609,0-1.166,0.119-1.666,0.356
	c-0.5,0.235-0.927,0.594-1.278,1.072c-0.352,0.479-0.625,1.07-0.82,1.774c-0.194,0.705-0.293,1.524-0.293,2.461
	C64.208,40.196,64.306,41.02,64.501,41.73"/>
<path fill="#63544A" d="M50.183,42.023c0.243,0.688,0.566,1.252,0.969,1.69c0.404,0.44,0.869,0.765,1.394,0.974
	C53.07,44.896,53.61,45,54.164,45c0.529,0,1.028-0.085,1.495-0.256c0.467-0.17,0.874-0.418,1.223-0.745
	c0.348-0.326,0.626-0.717,0.834-1.171s0.313-0.971,0.313-1.55c0-0.6-0.088-1.123-0.263-1.568c-0.174-0.446-0.416-0.814-0.727-1.102
	c-0.312-0.288-0.68-0.504-1.101-0.646c-0.423-0.145-0.886-0.217-1.389-0.217c-0.174,0-0.358,0.027-0.555,0.084
	c-0.197,0.056-0.391,0.139-0.584,0.247c-0.193,0.109-0.383,0.244-0.567,0.401c-0.185,0.159-0.348,0.341-0.488,0.547
	c0.029-0.616,0.106-1.14,0.232-1.569c0.126-0.429,0.288-0.776,0.487-1.039c0.198-0.265,0.431-0.453,0.697-0.566
	s0.547-0.17,0.844-0.17c0.335,0,0.663,0.072,0.986,0.213c0.323,0.142,0.587,0.307,0.792,0.496l1.458-1.456
	c-0.365-0.362-0.83-0.674-1.394-0.934c-0.564-0.262-1.231-0.392-2.002-0.392c-0.6,0-1.18,0.117-1.74,0.354
	c-0.563,0.235-1.056,0.595-1.481,1.077c-0.427,0.483-0.769,1.099-1.027,1.845c-0.259,0.747-0.388,1.632-0.388,2.654
	C49.821,40.508,49.941,41.337,50.183,42.023"/>
<path fill="#63544A" d="M37.38,42.409c0.219,0.554,0.524,1.022,0.914,1.407c0.39,0.385,0.849,0.679,1.377,0.881
	C40.199,44.898,40.769,45,41.382,45c0.517,0,1.041-0.09,1.575-0.269c0.534-0.178,1.021-0.42,1.458-0.727l-0.842-1.542
	c-0.618,0.366-1.234,0.549-1.845,0.549c-0.58,0-1.067-0.143-1.462-0.427c-0.397-0.284-0.651-0.745-0.764-1.386h5.124
	c0.022-0.1,0.044-0.246,0.067-0.437c0.022-0.192,0.034-0.402,0.034-0.633c0-0.584-0.075-1.128-0.223-1.631
	c-0.15-0.502-0.377-0.938-0.683-1.306c-0.307-0.368-0.686-0.655-1.138-0.859c-0.453-0.205-0.985-0.309-1.597-0.309
	c-0.517,0-1.017,0.104-1.5,0.309c-0.483,0.204-0.911,0.501-1.285,0.889c-0.373,0.387-0.675,0.858-0.906,1.415
	c-0.23,0.557-0.345,1.18-0.345,1.872C37.05,41.222,37.16,41.856,37.38,42.409"/>
<path fill="#63544A" d="M27.379,42.395c0.167,0.553,0.402,1.021,0.708,1.406c0.306,0.384,0.675,0.68,1.108,0.888
	C29.627,44.896,30.109,45,30.636,45c0.41,0,0.817-0.102,1.222-0.303c0.404-0.202,0.755-0.452,1.053-0.751h0.067l0.177,0.843h2.064
	V32.693h-2.536v2.915l0.109,1.313c-0.304-0.274-0.61-0.494-0.918-0.654c-0.309-0.161-0.706-0.242-1.188-0.242
	c-0.449,0-0.89,0.104-1.323,0.309c-0.433,0.204-0.812,0.503-1.138,0.889c-0.326,0.39-0.59,0.858-0.792,1.409
	c-0.202,0.552-0.303,1.179-0.303,1.881C27.131,41.214,27.214,41.842,27.379,42.395"/>
<path fill="#63544A" d="M10.661,42.409c0.219,0.554,0.524,1.022,0.914,1.407s0.85,0.679,1.378,0.881
	C13.482,44.898,14.051,45,14.664,45c0.517,0,1.042-0.09,1.576-0.269c0.534-0.178,1.02-0.42,1.458-0.727l-0.843-1.542
	c-0.617,0.366-1.233,0.549-1.845,0.549c-0.579,0-1.066-0.143-1.462-0.427s-0.65-0.745-0.763-1.386h5.124
	c0.022-0.1,0.045-0.246,0.067-0.437c0.022-0.192,0.034-0.402,0.034-0.633c0-0.584-0.074-1.128-0.224-1.631
	c-0.149-0.502-0.375-0.938-0.682-1.306c-0.307-0.368-0.685-0.655-1.138-0.859c-0.452-0.205-0.984-0.309-1.596-0.309
	c-0.517,0-1.017,0.104-1.5,0.309c-0.482,0.204-0.912,0.501-1.285,0.889c-0.374,0.387-0.675,0.858-0.906,1.415
	s-0.346,1.18-0.346,1.872C10.332,41.222,10.442,41.856,10.661,42.409"/>
<path fill="#63544A" d="M3.312,44.789c0.826,0,1.575-0.114,2.25-0.345s1.252-0.577,1.735-1.044c0.483-0.466,0.857-1.055,1.122-1.769
	c0.263-0.713,0.396-1.552,0.396-2.517c0-0.968-0.132-1.803-0.396-2.506c-0.264-0.702-0.644-1.28-1.138-1.732
	c-0.495-0.453-1.086-0.788-1.773-1.008c-0.688-0.219-1.465-0.33-2.331-0.33H0v11.25H3.312z"/>
<path fill="#63544A" d="M92.586,41.082c0.264,1.286,0.79,2.262,1.576,2.923C94.948,44.668,95.884,45,96.969,45
	c0.623,0,1.199-0.137,1.727-0.41c0.529-0.273,1.001-0.669,1.416-1.187l-1.398-1.311c-0.23,0.295-0.469,0.521-0.717,0.68
	c-0.247,0.16-0.536,0.239-0.868,0.239c-0.482,0-0.889-0.164-1.217-0.492c-0.329-0.33-0.574-0.809-0.738-1.438h2.967v-1.298h-3.151
	c-0.012-0.078-0.017-0.158-0.017-0.239v-0.257v-0.364h3.859v-1.28h-3.692c0.141-0.656,0.375-1.164,0.701-1.52
	c0.325-0.357,0.735-0.536,1.229-0.536c0.304,0,0.574,0.068,0.811,0.206c0.235,0.138,0.463,0.317,0.683,0.535l1.415-1.368
	c-0.37-0.442-0.803-0.781-1.298-1.014c-0.494-0.232-1-0.349-1.517-0.349c-0.578,0-1.115,0.089-1.609,0.269
	c-0.495,0.178-0.94,0.439-1.336,0.788c-0.396,0.347-0.732,0.773-1.008,1.276c-0.274,0.503-0.483,1.079-0.623,1.729L91.5,37.745
	v1.179h0.952c-0.012,0.079-0.017,0.154-0.017,0.224v0.225v0.223c0,0.07,0.005,0.146,0.017,0.223L91.5,39.885v1.197H92.586z"/>
<path fill="#FFFFFF" d="M85.258,37.43c0.082-0.477,0.19-0.851,0.328-1.123c0.136-0.271,0.298-0.46,0.482-0.563
	s0.382-0.155,0.589-0.155c0.219,0,0.418,0.052,0.601,0.155c0.182,0.104,0.342,0.292,0.479,0.563
	c0.136,0.272,0.243,0.646,0.318,1.123c0.076,0.476,0.113,1.087,0.113,1.833c0,0.745-0.037,1.357-0.113,1.841
	c-0.075,0.481-0.183,0.865-0.318,1.151c-0.138,0.285-0.298,0.484-0.479,0.594c-0.183,0.108-0.382,0.163-0.601,0.163
	c-0.207,0-0.404-0.055-0.589-0.163c-0.185-0.109-0.347-0.309-0.482-0.594c-0.138-0.286-0.246-0.67-0.328-1.151
	c-0.081-0.483-0.122-1.096-0.122-1.841C85.135,38.517,85.177,37.905,85.258,37.43"/>
<path fill="#FFFFFF" d="M76.063,37.43c0.081-0.477,0.189-0.851,0.326-1.123c0.139-0.271,0.298-0.46,0.483-0.563
	c0.185-0.104,0.381-0.155,0.588-0.155c0.22,0,0.419,0.052,0.602,0.155c0.182,0.104,0.342,0.292,0.479,0.563
	c0.137,0.272,0.243,0.646,0.318,1.123c0.076,0.476,0.114,1.087,0.114,1.833c0,0.745-0.038,1.357-0.114,1.841
	c-0.075,0.481-0.182,0.865-0.318,1.151c-0.138,0.285-0.298,0.484-0.479,0.594c-0.183,0.108-0.382,0.163-0.602,0.163
	c-0.207,0-0.403-0.055-0.588-0.163c-0.186-0.109-0.345-0.309-0.483-0.594c-0.137-0.286-0.245-0.67-0.326-1.151
	c-0.082-0.483-0.123-1.096-0.123-1.841C75.94,38.517,75.981,37.905,76.063,37.43"/>
<path fill="#FFFFFF" d="M66.867,37.43c0.082-0.477,0.19-0.851,0.327-1.123c0.138-0.271,0.299-0.46,0.484-0.563
	c0.185-0.104,0.379-0.155,0.587-0.155c0.219,0,0.419,0.052,0.602,0.155c0.181,0.104,0.341,0.292,0.479,0.563
	c0.137,0.272,0.242,0.646,0.319,1.123c0.075,0.476,0.112,1.087,0.112,1.833c0,0.745-0.037,1.357-0.112,1.841
	c-0.077,0.481-0.183,0.865-0.319,1.151c-0.139,0.285-0.299,0.484-0.479,0.594c-0.183,0.108-0.383,0.163-0.602,0.163
	c-0.208,0-0.402-0.055-0.587-0.163c-0.186-0.109-0.347-0.309-0.484-0.594c-0.137-0.286-0.245-0.67-0.327-1.151
	c-0.081-0.483-0.122-1.096-0.122-1.841C66.745,38.517,66.786,37.905,66.867,37.43"/>
<path fill="#63544A" d="M59.8,44.542C60.092,44.848,60.458,45,60.895,45s0.803-0.152,1.095-0.458
	c0.293-0.308,0.439-0.685,0.439-1.134c0-0.461-0.146-0.843-0.439-1.147c-0.292-0.303-0.657-0.454-1.095-0.454
	s-0.804,0.151-1.096,0.454c-0.292,0.305-0.438,0.687-0.438,1.147C59.361,43.857,59.508,44.234,59.8,44.542"/>
<path fill="#FFFFFF" d="M53.222,39.967c0.285-0.155,0.566-0.232,0.84-0.232c0.415,0,0.758,0.114,1.026,0.345s0.403,0.63,0.403,1.199
	c0,0.607-0.135,1.049-0.403,1.322s-0.595,0.411-0.975,0.411c-0.197,0-0.383-0.035-0.56-0.106s-0.339-0.195-0.486-0.37
	c-0.149-0.175-0.281-0.403-0.396-0.683c-0.114-0.279-0.199-0.632-0.256-1.06C52.668,40.398,52.937,40.124,53.222,39.967"/>
<path fill="#FFFFFF" d="M40.075,38.405c0.304-0.261,0.657-0.391,1.062-0.391c0.518,0,0.885,0.15,1.104,0.451
	s0.329,0.689,0.329,1.167h-3.093C39.573,39.074,39.772,38.665,40.075,38.405"/>
<path fill="#FFFFFF" d="M30.198,38.68c0.309-0.388,0.666-0.58,1.07-0.58c0.23,0,0.466,0.041,0.708,0.122
	c0.242,0.08,0.477,0.224,0.708,0.433v3.499c-0.208,0.287-0.424,0.487-0.649,0.602c-0.225,0.115-0.475,0.173-0.75,0.173
	c-0.494,0-0.876-0.195-1.146-0.584c-0.27-0.391-0.404-1.012-0.404-1.864C29.735,39.666,29.888,39.066,30.198,38.68"/>
<path fill="#63544A" d="M20.713,44.654C21.326,44.885,21.927,45,22.516,45c0.605,0,1.137-0.074,1.592-0.225
	c0.455-0.148,0.84-0.352,1.154-0.604c0.315-0.254,0.55-0.549,0.706-0.889c0.155-0.34,0.233-0.71,0.233-1.112
	c0-0.378-0.074-0.701-0.22-0.971c-0.146-0.27-0.339-0.499-0.577-0.688c-0.24-0.188-0.504-0.347-0.793-0.474
	c-0.29-0.125-0.581-0.237-0.874-0.334c-0.227-0.081-0.441-0.156-0.642-0.227c-0.201-0.07-0.379-0.144-0.533-0.223
	c-0.153-0.078-0.277-0.163-0.368-0.255c-0.092-0.092-0.138-0.205-0.138-0.339c0-0.432,0.321-0.647,0.964-0.647
	c0.31,0,0.623,0.06,0.936,0.183c0.314,0.12,0.632,0.292,0.954,0.513l1.219-1.534c-0.391-0.296-0.846-0.563-1.366-0.797
	c-0.521-0.235-1.127-0.354-1.819-0.354c-0.517,0-0.985,0.068-1.405,0.205c-0.42,0.135-0.779,0.321-1.078,0.56
	c-0.3,0.236-0.532,0.524-0.696,0.865c-0.165,0.342-0.247,0.715-0.247,1.12c0,0.344,0.073,0.646,0.218,0.906
	c0.146,0.258,0.335,0.483,0.567,0.675c0.23,0.191,0.486,0.354,0.766,0.488s0.56,0.25,0.839,0.347
	c0.232,0.087,0.451,0.167,0.658,0.24c0.207,0.071,0.394,0.152,0.562,0.242c0.167,0.089,0.299,0.185,0.394,0.287
	c0.096,0.102,0.143,0.221,0.143,0.354c0,0.222-0.085,0.393-0.256,0.514c-0.171,0.122-0.446,0.183-0.825,0.183
	c-0.383,0-0.761-0.071-1.134-0.214c-0.374-0.144-0.766-0.357-1.178-0.644l-1.138,1.586C19.573,44.118,20.098,44.423,20.713,44.654"
	/>
<path fill="#FFFFFF" d="M13.357,38.405c0.304-0.261,0.658-0.391,1.062-0.391c0.517,0,0.885,0.15,1.104,0.451
	c0.219,0.301,0.329,0.689,0.329,1.167H12.76C12.855,39.074,13.054,38.665,13.357,38.405"/>
<path fill="#FFFFFF" d="M2.536,35.613h0.48c0.484,0,0.92,0.058,1.311,0.171c0.39,0.115,0.725,0.308,1.003,0.578
	c0.278,0.271,0.494,0.631,0.648,1.081c0.155,0.449,0.232,1.007,0.232,1.672c0,0.676-0.077,1.241-0.232,1.7
	c-0.154,0.457-0.37,0.826-0.648,1.105c-0.279,0.279-0.613,0.482-1.003,0.607c-0.391,0.125-0.827,0.188-1.311,0.188h-0.48V35.613z"/>
</svg>
