<?xml version="1.0" encoding="utf-8"?>
<!-- Generator: Adobe Illustrator 16.0.0, SVG Export Plug-In . SVG Version: 6.00 Build 0)  -->
<!DOCTYPE svg PUBLIC "-//W3C//DTD SVG 1.1//EN" "http://www.w3.org/Graphics/SVG/1.1/DTD/svg11.dtd">
<svg version="1.1" id="quinientos" xmlns="http://www.w3.org/2000/svg" xmlns:xlink="http://www.w3.org/1999/xlink" x="0px" y="0px"
	 width="65.055px" height="20.466px" viewBox="0 24.534 65.055 20.466" enable-background="new 0 24.534 65.055 20.466"
	 xml:space="preserve">
<path fill="#66564D" d="M2.033,39.345c0.601,0.538,1.246,0.999,1.939,1.382c0.692,0.385,1.465,0.575,2.313,0.575
	c1.016,0,1.82-0.259,2.423-0.776c0.601-0.517,0.899-1.281,0.899-2.299c0-0.994-0.283-1.75-0.854-2.268s-1.319-0.775-2.252-0.775
	c-0.29,0-0.549,0.018-0.775,0.047c-0.229,0.029-0.45,0.088-0.667,0.17c-0.218,0.082-0.444,0.188-0.685,0.313
	c-0.237,0.124-0.502,0.279-0.792,0.468l-2.05-1.307l0.56-9.973h11.182v3.854H6.04L5.699,32.45c0.371-0.166,0.729-0.284,1.069-0.357
	c0.342-0.071,0.719-0.108,1.134-0.108c0.851,0,1.651,0.125,2.407,0.373c0.755,0.248,1.423,0.621,2.003,1.119
	c0.58,0.496,1.035,1.129,1.367,1.896c0.331,0.768,0.497,1.678,0.497,2.73c0,1.101-0.197,2.071-0.591,2.92
	c-0.396,0.852-0.922,1.567-1.584,2.158c-0.663,0.592-1.436,1.041-2.313,1.354S7.893,45,6.941,45c-1.613,0-2.98-0.264-4.101-0.793
	c-1.117-0.527-2.07-1.186-2.856-1.973L2.033,39.345z"/>
<path fill="#66564D" d="M24.024,44.998c-1.057,0-2.02-0.223-2.888-0.668c-0.87-0.445-1.61-1.104-2.222-1.973
	c-0.61-0.869-1.087-1.945-1.431-3.23c-0.342-1.283-0.512-2.764-0.512-4.441c0-1.677,0.17-3.146,0.512-4.41
	c0.344-1.264,0.818-2.321,1.431-3.184c0.609-0.859,1.352-1.502,2.222-1.926c0.869-0.424,1.833-0.637,2.888-0.637
	c1.058,0,2.021,0.213,2.891,0.637c0.869,0.424,1.607,1.066,2.221,1.926c0.61,0.859,1.088,1.92,1.43,3.184
	c0.341,1.267,0.515,2.732,0.515,4.41c0,1.681-0.174,3.158-0.515,4.441c-0.342,1.285-0.816,2.361-1.43,3.23
	c-0.61,0.869-1.352,1.524-2.221,1.973C26.043,44.775,25.08,44.998,24.024,44.998z"/>
<path fill="#66564D" d="M40.579,44.998c-1.058,0-2.021-0.223-2.891-0.668c-0.869-0.445-1.607-1.104-2.221-1.973
	s-1.088-1.945-1.43-3.23c-0.344-1.283-0.515-2.764-0.515-4.441c0-1.677,0.171-3.146,0.515-4.41c0.342-1.264,0.815-2.321,1.43-3.184
	c0.611-0.859,1.352-1.502,2.221-1.926c0.87-0.424,1.833-0.637,2.891-0.637s2.021,0.213,2.889,0.637
	c0.869,0.424,1.609,1.066,2.222,1.926c0.611,0.86,1.088,1.92,1.432,3.184c0.341,1.267,0.512,2.732,0.512,4.41
	c0,1.681-0.171,3.158-0.512,4.441c-0.344,1.285-0.818,2.361-1.432,3.23c-0.61,0.869-1.353,1.524-2.222,1.973
	C42.599,44.775,41.636,44.998,40.579,44.998z"/>
<path fill="#66564D" d="M65.055,42.141c-0.745,0.935-1.596,1.644-2.548,2.127c-0.951,0.486-1.986,0.73-3.105,0.73
	c-1.944,0-3.629-0.596-5.047-1.786s-2.363-2.944-2.842-5.265h-1.927v-2.146l1.679-0.121c-0.021-0.146-0.031-0.279-0.031-0.404
	s0-0.258,0-0.403s0-0.28,0-0.403c0-0.125,0.012-0.26,0.031-0.404h-1.679v-2.108l1.927-0.156c0.248-1.157,0.62-2.188,1.117-3.09
	s1.104-1.662,1.815-2.283c0.716-0.618,1.518-1.092,2.406-1.413c0.893-0.318,1.854-0.479,2.891-0.479
	c0.932,0,1.844,0.207,2.732,0.621c0.889,0.413,1.666,1.015,2.328,1.801l-2.548,2.454c-0.395-0.395-0.803-0.715-1.229-0.965
	c-0.424-0.247-0.904-0.37-1.441-0.37c-0.893,0-1.631,0.319-2.222,0.963c-0.592,0.644-1.011,1.553-1.26,2.731h6.646v2.299h-6.92v0.65
	c0,0.166,0,0.321,0,0.467c0,0.146,0.011,0.291,0.028,0.437h5.654v2.33H56.17c0.291,1.139,0.729,2.008,1.32,2.608
	c0.591,0.601,1.318,0.898,2.188,0.898c0.601,0,1.123-0.146,1.567-0.438c0.442-0.289,0.874-0.703,1.289-1.24L65.055,42.141z"/>
<path fill="#F9F9F9" d="M24.024,41.457c0.396,0,0.756-0.098,1.087-0.295s0.621-0.555,0.87-1.072c0.248-0.518,0.438-1.211,0.574-2.08
	c0.135-0.869,0.2-1.979,0.2-3.324c0-1.345-0.065-2.445-0.2-3.308c-0.136-0.86-0.326-1.532-0.574-2.019
	c-0.249-0.486-0.539-0.824-0.87-1.01c-0.332-0.188-0.692-0.279-1.087-0.279c-0.373,0-0.726,0.093-1.057,0.279
	c-0.331,0.186-0.621,0.521-0.869,1.01c-0.249,0.483-0.446,1.158-0.591,2.019c-0.146,0.858-0.217,1.962-0.217,3.308
	c0,1.349,0.07,2.455,0.217,3.324c0.146,0.869,0.343,1.563,0.591,2.08c0.248,0.518,0.538,0.875,0.869,1.072
	S23.651,41.457,24.024,41.457z"/>
<path fill="#F9F9F9" d="M40.579,41.457c0.395,0,0.756-0.098,1.088-0.295c0.33-0.197,0.621-0.555,0.869-1.072
	c0.248-0.517,0.438-1.211,0.572-2.08c0.137-0.869,0.202-1.979,0.202-3.324c0-1.345-0.065-2.445-0.202-3.308
	c-0.135-0.86-0.324-1.532-0.572-2.019c-0.248-0.487-0.539-0.824-0.869-1.01c-0.332-0.188-0.693-0.279-1.088-0.279
	c-0.373,0-0.727,0.093-1.058,0.279c-0.331,0.186-0.622,0.521-0.87,1.01c-0.248,0.484-0.443,1.158-0.59,2.019
	c-0.146,0.861-0.217,1.962-0.217,3.308c0,1.349,0.071,2.455,0.217,3.324c0.146,0.869,0.342,1.563,0.59,2.08
	c0.248,0.518,0.539,0.875,0.87,1.072S40.206,41.457,40.579,41.457z"/>
</svg>
