<?xml version="1.0" encoding="utf-8"?>
<!-- Generator: Adobe Illustrator 16.0.0, SVG Export Plug-In . SVG Version: 6.00 Build 0)  -->
<!DOCTYPE svg PUBLIC "-//W3C//DTD SVG 1.1//EN" "http://www.w3.org/Graphics/SVG/1.1/DTD/svg11.dtd">
<svg version="1.1" id="transferencias" xmlns="http://www.w3.org/2000/svg" xmlns:xlink="http://www.w3.org/1999/xlink" x="0px"
	 y="0px" width="36.26px" height="38.684px" viewBox="0 6.316 36.26 38.684" enable-background="new 0 6.316 36.26 38.684"
	 xml:space="preserve">
<path fill="#66564D" d="M32.62,13.588c-3.307-4.41-8.559-7.272-14.49-7.272C8.118,6.315,0,14.44,0,24.462h3.108
	c0-8.291,6.74-15.036,15.022-15.036c5.066,0,9.54,2.536,12.258,6.397l-3.451,3.454h9.323V9.944L32.62,13.588z"/>
<path fill="#66564D" d="M33.151,26.854c0,8.291-6.738,15.035-15.021,15.035c-5.067,0-9.539-2.535-12.256-6.396l3.45-3.454H0v9.333
	l3.641-3.646C6.946,42.137,12.197,45,18.13,45c10.014,0,18.13-8.125,18.13-18.146H33.151z"/>
<path fill="#66564D" d="M13.063,28.637c0.333,1.937,1.047,3.413,2.143,4.438c1.095,1.022,2.413,1.536,3.954,1.536
	c0.918,0,1.741-0.201,2.471-0.604c0.729-0.399,1.39-0.975,1.979-1.722l-1.635-1.521c-0.386,0.527-0.785,0.928-1.203,1.194
	s-0.898,0.401-1.439,0.401c-0.852,0-1.563-0.325-2.132-0.979c-0.57-0.648-0.974-1.564-1.211-2.747h4.88V27.1h-4.857
	c-0.015-0.131-0.023-0.268-0.023-0.41v-0.438v-0.338v-0.301h5.888v-1.524h-5.913c0.197-1.213,0.588-2.156,1.174-2.828
	c0.586-0.672,1.334-1.008,2.244-1.008c0.491,0,0.927,0.119,1.304,0.357c0.375,0.237,0.732,0.549,1.068,0.934l1.635-1.58
	c-0.492-0.604-1.082-1.082-1.77-1.433c-0.689-0.354-1.41-0.527-2.164-0.527c-0.836,0-1.606,0.137-2.311,0.411s-1.331,0.67-1.88,1.19
	c-0.549,0.519-1.013,1.156-1.39,1.914c-0.378,0.756-0.649,1.62-0.811,2.594l-1.401,0.099v1.401h1.253
	c-0.016,0.123-0.024,0.244-0.024,0.361v0.375v0.389c0,0.127,0.008,0.256,0.024,0.387l-1.253,0.111v1.399L13.063,28.637
	L13.063,28.637z"/>
</svg>
