<?xml version="1.0" encoding="utf-8"?>
<!-- Generator: Adobe Illustrator 16.0.0, SVG Export Plug-In . SVG Version: 6.00 Build 0)  -->
<!DOCTYPE svg PUBLIC "-//W3C//DTD SVG 1.1//EN" "http://www.w3.org/Graphics/SVG/1.1/DTD/svg11.dtd">
<svg version="1.1" id="seiscientos" xmlns="http://www.w3.org/2000/svg" xmlns:xlink="http://www.w3.org/1999/xlink" x="0px"
	 y="0px" width="64.645px" height="34.665px" viewBox="0 10.335 64.645 34.665" enable-background="new 0 10.335 64.645 34.665"
	 xml:space="preserve">
<polygon fill="#66564D" points="2.38,10.335 3.522,10.335 3.522,14.118 7.718,14.118 7.718,10.335 8.874,10.335 8.874,19.36 
	7.718,19.36 7.718,15.109 3.522,15.109 3.522,19.36 2.38,19.36 "/>
<path fill="#66564D" d="M10.979,17.627c0-0.734,0.328-1.295,0.983-1.686c0.656-0.39,1.699-0.663,3.13-0.819
	c0-0.211-0.021-0.417-0.063-0.619s-0.114-0.38-0.22-0.537c-0.104-0.156-0.246-0.282-0.42-0.378
	c-0.175-0.097-0.398-0.145-0.675-0.145c-0.396,0-0.759,0.073-1.094,0.22c-0.334,0.146-0.636,0.312-0.9,0.495l-0.454-0.784
	c0.313-0.202,0.691-0.396,1.143-0.585c0.448-0.188,0.943-0.282,1.485-0.282c0.815,0,1.408,0.25,1.774,0.75
	c0.367,0.5,0.551,1.167,0.551,2.002v4.1h-0.937l-0.097-0.798H15.16c-0.321,0.266-0.667,0.493-1.039,0.681s-0.765,0.282-1.177,0.282
	c-0.568,0-1.038-0.165-1.41-0.495C11.165,18.7,10.979,18.232,10.979,17.627z"/>
<path fill="#66564D" d="M18.243,17.847c0.293,0.239,0.594,0.432,0.9,0.578c0.308,0.147,0.663,0.22,1.065,0.22
	c0.439,0,0.771-0.101,0.99-0.303c0.22-0.202,0.33-0.449,0.33-0.743c0-0.174-0.046-0.325-0.138-0.454
	c-0.093-0.128-0.209-0.241-0.352-0.337c-0.143-0.096-0.306-0.181-0.488-0.254c-0.183-0.073-0.366-0.146-0.55-0.22
	c-0.238-0.083-0.478-0.176-0.715-0.282c-0.239-0.104-0.452-0.234-0.641-0.385s-0.342-0.328-0.46-0.529
	c-0.12-0.202-0.18-0.445-0.18-0.729c0-0.266,0.054-0.516,0.158-0.75c0.104-0.234,0.257-0.436,0.454-0.605
	c0.196-0.17,0.438-0.303,0.722-0.399c0.284-0.097,0.605-0.146,0.964-0.146c0.422,0,0.81,0.073,1.162,0.22
	c0.354,0.147,0.658,0.326,0.915,0.537l-0.536,0.716c-0.229-0.174-0.469-0.316-0.717-0.427c-0.248-0.11-0.519-0.165-0.813-0.165
	c-0.422,0-0.73,0.096-0.929,0.289c-0.197,0.192-0.297,0.417-0.297,0.674c0,0.156,0.042,0.292,0.124,0.406
	c0.082,0.114,0.192,0.215,0.33,0.303c0.139,0.087,0.296,0.165,0.476,0.234c0.18,0.068,0.364,0.14,0.558,0.213
	c0.238,0.092,0.479,0.188,0.723,0.289c0.243,0.101,0.462,0.227,0.653,0.378c0.192,0.151,0.352,0.337,0.476,0.557
	c0.124,0.22,0.187,0.486,0.187,0.798c0,0.275-0.054,0.532-0.158,0.771c-0.105,0.239-0.262,0.45-0.468,0.633
	c-0.207,0.183-0.464,0.328-0.771,0.433c-0.308,0.105-0.658,0.158-1.054,0.158c-0.478,0-0.932-0.087-1.361-0.261
	c-0.431-0.176-0.807-0.396-1.128-0.662L18.243,17.847z"/>
<path fill="#66564D" d="M24.448,13.596h-0.991v-0.853l1.046-0.069l0.139-1.871h0.949v1.871h1.803v0.922h-1.803v3.715
	c0,0.413,0.075,0.731,0.228,0.956s0.42,0.337,0.806,0.337c0.119,0,0.248-0.018,0.385-0.055c0.14-0.037,0.263-0.078,0.372-0.124
	l0.221,0.853c-0.185,0.064-0.384,0.122-0.599,0.172c-0.217,0.05-0.431,0.076-0.642,0.076c-0.356,0-0.657-0.055-0.9-0.165
	c-0.243-0.11-0.439-0.261-0.592-0.454c-0.151-0.192-0.26-0.426-0.323-0.702c-0.063-0.275-0.096-0.578-0.096-0.908L24.448,13.596
	L24.448,13.596z"/>
<path fill="#66564D" d="M28.411,17.627c0-0.734,0.327-1.295,0.982-1.686c0.654-0.39,1.698-0.663,3.13-0.819
	c0-0.211-0.021-0.417-0.063-0.619c-0.042-0.202-0.114-0.38-0.22-0.537c-0.104-0.156-0.246-0.282-0.421-0.378
	c-0.175-0.097-0.398-0.145-0.674-0.145c-0.396,0-0.76,0.073-1.096,0.22c-0.335,0.146-0.636,0.312-0.9,0.495l-0.45-0.783
	c0.312-0.202,0.69-0.396,1.142-0.585c0.449-0.188,0.944-0.282,1.485-0.282c0.815,0,1.407,0.25,1.774,0.75
	c0.366,0.5,0.551,1.167,0.551,2.002v4.1h-0.937l-0.097-0.798h-0.028c-0.319,0.266-0.666,0.493-1.037,0.681
	c-0.372,0.188-0.765,0.282-1.178,0.282c-0.567,0-1.039-0.165-1.41-0.495C28.597,18.7,28.411,18.232,28.411,17.627z"/>
<path fill="#66564D" d="M11.469,29.544c-0.353-0.373-0.809-0.699-1.367-0.979c-0.56-0.278-1.129-0.418-1.708-0.418
	c-0.539,0-1.046,0.104-1.521,0.312c-0.478,0.207-0.896,0.554-1.259,1.04c-0.362,0.486-0.657,1.124-0.885,1.91
	c-0.229,0.785-0.362,1.75-0.403,2.889c0.249-0.331,0.537-0.626,0.869-0.886c0.331-0.259,0.673-0.478,1.025-0.652
	c0.352-0.175,0.703-0.311,1.056-0.401c0.353-0.094,0.684-0.142,0.994-0.142c0.85,0,1.631,0.125,2.346,0.373
	c0.714,0.248,1.335,0.621,1.863,1.118c0.527,0.497,0.938,1.128,1.228,1.896c0.29,0.767,0.436,1.666,0.436,2.701
	c0,1.034-0.177,1.956-0.528,2.766c-0.352,0.808-0.822,1.5-1.412,2.08c-0.591,0.58-1.284,1.021-2.081,1.319
	c-0.798,0.3-1.642,0.449-2.531,0.449c-0.952,0-1.879-0.187-2.779-0.56s-1.698-0.951-2.393-1.738
	c-0.693-0.786-1.248-1.796-1.662-3.028c-0.415-1.231-0.621-2.718-0.621-4.457c0-1.843,0.223-3.438,0.669-4.782
	c0.444-1.347,1.034-2.453,1.771-3.324c0.734-0.868,1.584-1.516,2.548-1.94c0.963-0.424,1.961-0.637,2.997-0.637
	c1.305,0,2.433,0.233,3.386,0.698c0.952,0.468,1.739,1.021,2.359,1.662L11.469,29.544z"/>
<path fill="#FFFFFF" d="M7.493,41.502c0.683,0,1.269-0.254,1.755-0.761c0.485-0.507,0.729-1.32,0.729-2.438
	c0-1.057-0.244-1.796-0.729-2.221c-0.486-0.424-1.104-0.637-1.849-0.637c-0.497,0-1.004,0.145-1.521,0.435
	c-0.519,0.29-1.004,0.798-1.46,1.522c0.104,0.787,0.259,1.438,0.466,1.957c0.207,0.518,0.445,0.937,0.715,1.258
	c0.27,0.32,0.563,0.549,0.885,0.684C6.805,41.436,7.141,41.502,7.493,41.502z"/>
<path fill="#66564D" d="M23.613,44.918c-1.056,0-2.019-0.223-2.888-0.667c-0.87-0.444-1.609-1.103-2.222-1.974
	c-0.61-0.869-1.087-1.945-1.429-3.229c-0.343-1.282-0.513-2.766-0.513-4.44c0-1.676,0.17-3.147,0.513-4.412
	c0.342-1.262,0.817-2.322,1.429-3.185c0.611-0.856,1.352-1.5,2.222-1.926c0.87-0.424,1.833-0.637,2.888-0.637
	c1.057,0,2.02,0.213,2.89,0.637c0.87,0.426,1.609,1.065,2.223,1.926c0.608,0.86,1.086,1.923,1.428,3.185
	c0.343,1.265,0.514,2.734,0.514,4.412c0,1.677-0.171,3.158-0.514,4.44c-0.342,1.283-0.817,2.359-1.428,3.229
	c-0.611,0.871-1.353,1.527-2.223,1.974C25.632,44.695,24.669,44.918,23.613,44.918z"/>
<path fill="#FFFFFF" d="M23.613,41.378c0.395,0,0.757-0.099,1.088-0.296c0.33-0.195,0.62-0.553,0.869-1.07
	c0.249-0.517,0.438-1.212,0.575-2.082c0.134-0.869,0.201-1.977,0.201-3.322c0-1.347-0.067-2.447-0.201-3.309
	c-0.137-0.859-0.326-1.531-0.575-2.02c-0.249-0.486-0.539-0.822-0.869-1.01c-0.332-0.188-0.694-0.279-1.088-0.279
	c-0.372,0-0.725,0.094-1.056,0.279c-0.332,0.188-0.622,0.521-0.87,1.01c-0.249,0.486-0.445,1.16-0.59,2.02
	c-0.146,0.86-0.218,1.962-0.218,3.309c0,1.348,0.072,2.453,0.218,3.322c0.146,0.87,0.342,1.564,0.59,2.082
	c0.248,0.519,0.538,0.875,0.87,1.07C22.889,41.279,23.241,41.378,23.613,41.378z"/>
<path fill="#66564D" d="M40.169,44.918c-1.058,0-2.021-0.223-2.89-0.667s-1.609-1.103-2.221-1.974
	c-0.61-0.869-1.088-1.945-1.431-3.229c-0.342-1.284-0.512-2.766-0.512-4.44c0-1.676,0.17-3.147,0.512-4.412
	c0.343-1.262,0.817-2.322,1.431-3.185c0.609-0.856,1.352-1.5,2.221-1.926c0.869-0.424,1.832-0.637,2.89-0.637
	c1.057,0,2.02,0.213,2.89,0.637c0.868,0.426,1.608,1.065,2.221,1.926c0.61,0.86,1.088,1.923,1.43,3.185
	c0.341,1.265,0.514,2.734,0.514,4.412c0,1.677-0.173,3.158-0.514,4.44c-0.342,1.283-0.817,2.359-1.43,3.229
	c-0.61,0.871-1.353,1.527-2.221,1.974C42.188,44.695,41.225,44.918,40.169,44.918z"/>
<path fill="#FFFFFF" d="M40.169,41.378c0.394,0,0.756-0.099,1.087-0.296c0.331-0.195,0.621-0.553,0.87-1.07
	c0.248-0.518,0.438-1.212,0.574-2.082c0.135-0.869,0.2-1.977,0.2-3.322c0-1.347-0.065-2.447-0.2-3.309
	c-0.136-0.859-0.326-1.531-0.574-2.02c-0.249-0.486-0.539-0.822-0.87-1.01s-0.693-0.279-1.087-0.279
	c-0.373,0-0.726,0.094-1.058,0.279c-0.331,0.188-0.62,0.521-0.868,1.01c-0.248,0.486-0.445,1.16-0.591,2.02
	c-0.146,0.86-0.218,1.962-0.218,3.309c0,1.348,0.071,2.453,0.218,3.322c0.146,0.87,0.343,1.564,0.591,2.082
	c0.248,0.519,0.537,0.875,0.868,1.07C39.444,41.279,39.796,41.378,40.169,41.378z"/>
<path fill="#66564D" d="M64.644,42.061c-0.744,0.934-1.595,1.645-2.547,2.129c-0.952,0.485-1.987,0.729-3.104,0.729
	c-1.947,0-3.63-0.594-5.048-1.785c-1.419-1.188-2.365-2.944-2.842-5.265h-1.927v-2.145l1.678-0.125
	c-0.021-0.145-0.03-0.279-0.03-0.401c0-0.125,0-0.261,0-0.404s0-0.278,0-0.403c0-0.123,0.011-0.259,0.03-0.402h-1.678v-2.112
	l1.927-0.155c0.248-1.158,0.621-2.188,1.117-3.091c0.497-0.899,1.104-1.661,1.816-2.282c0.714-0.621,1.518-1.093,2.406-1.412
	c0.892-0.321,1.854-0.481,2.89-0.481c0.933,0,1.843,0.208,2.732,0.622c0.891,0.413,1.667,1.015,2.329,1.802l-2.547,2.453
	c-0.395-0.394-0.804-0.715-1.228-0.963c-0.426-0.248-0.906-0.373-1.444-0.373c-0.891,0-1.631,0.321-2.221,0.963
	c-0.591,0.644-1.011,1.554-1.26,2.733h6.646v2.298h-6.927v0.651c0,0.166,0,0.321,0,0.467s0.011,0.289,0.03,0.437h5.653v2.329h-5.344
	c0.29,1.139,0.729,2.009,1.32,2.607c0.59,0.603,1.319,0.9,2.188,0.9c0.602,0,1.122-0.146,1.567-0.436
	c0.444-0.289,0.875-0.703,1.289-1.241L64.644,42.061z"/>
<path fill="#FFFFFF" d="M12.093,17.544c0,0.385,0.112,0.66,0.338,0.825c0.225,0.165,0.502,0.248,0.833,0.248
	c0.32,0,0.626-0.076,0.915-0.227c0.288-0.151,0.594-0.374,0.914-0.667v-1.857c-0.56,0.074-1.031,0.161-1.417,0.261
	c-0.385,0.101-0.694,0.22-0.929,0.358c-0.233,0.138-0.4,0.296-0.502,0.475C12.144,17.138,12.093,17.333,12.093,17.544z"/>
<path fill="#FFFFFF" d="M29.525,17.544c0,0.385,0.112,0.66,0.337,0.825c0.226,0.165,0.502,0.248,0.832,0.248
	c0.321,0,0.627-0.076,0.916-0.227c0.288-0.151,0.595-0.374,0.914-0.667v-1.857c-0.561,0.074-1.03,0.161-1.417,0.261
	c-0.386,0.101-0.693,0.22-0.929,0.358c-0.235,0.138-0.401,0.296-0.503,0.475C29.575,17.138,29.525,17.333,29.525,17.544z"/>
</svg>
