<?xml version="1.0" encoding="utf-8"?>
<!-- Generator: Adobe Illustrator 16.0.0, SVG Export Plug-In . SVG Version: 6.00 Build 0)  -->
<!DOCTYPE svg PUBLIC "-//W3C//DTD SVG 1.1//EN" "http://www.w3.org/Graphics/SVG/1.1/DTD/svg11.dtd">
<svg version="1.1" id="ceroOchentaTae" xmlns="http://www.w3.org/2000/svg" xmlns:xlink="http://www.w3.org/1999/xlink" x="0px"
	 y="0px" width="149.928px" height="35.246px" viewBox="0 0 149.928 35.246" enable-background="new 0 0 149.928 35.246"
	 xml:space="preserve">
<polygon fill="#63544A" points="110.883,33.271 111.501,30.871 114.577,30.871 115.198,33.271 117.539,33.271 114.458,23.161 
	111.72,23.161 108.542,33.271 "/>
<path fill="#63544A" d="M114.128,16.294c0.202,0.651,0.482,1.204,0.848,1.657c0.362,0.454,0.796,0.8,1.304,1.037
	c0.509,0.238,1.059,0.359,1.649,0.359c0.594,0,1.146-0.121,1.652-0.359c0.505-0.237,0.938-0.583,1.303-1.037
	c0.364-0.453,0.65-1.006,0.86-1.657c0.209-0.651,0.313-1.39,0.313-2.214c0-0.831-0.104-1.566-0.313-2.207
	c-0.21-0.639-0.496-1.184-0.86-1.632c-0.362-0.449-0.798-0.792-1.303-1.026c-0.508-0.234-1.061-0.353-1.652-0.353
	s-1.143,0.118-1.649,0.353c-0.508,0.234-0.939,0.577-1.304,1.026c-0.363,0.448-0.646,0.995-0.848,1.638
	c-0.203,0.643-0.304,1.377-0.304,2.2C113.824,14.904,113.925,15.643,114.128,16.294"/>
<path fill="#63544A" d="M101.949,9.654c0.201,0.65,0.482,1.203,0.848,1.656c0.362,0.455,0.798,0.801,1.305,1.039
	c0.507,0.24,1.059,0.359,1.65,0.359s1.143-0.119,1.648-0.359c0.509-0.238,0.941-0.584,1.307-1.039
	c0.36-0.453,0.646-1.006,0.857-1.656c0.208-0.651,0.314-1.389,0.314-2.213c0-0.832-0.106-1.568-0.314-2.207
	c-0.211-0.639-0.497-1.183-0.857-1.632c-0.363-0.449-0.798-0.792-1.307-1.026c-0.508-0.235-1.058-0.353-1.648-0.353
	c-0.594,0-1.146,0.118-1.65,0.353c-0.507,0.234-0.94,0.577-1.305,1.026c-0.363,0.449-0.646,0.995-0.848,1.638
	c-0.202,0.643-0.305,1.376-0.305,2.201C101.646,8.266,101.747,9.003,101.949,9.654"/>
<path fill="#63544A" d="M0.887,24.68c0.591,2.159,1.421,3.979,2.489,5.455c1.066,1.479,2.365,2.59,3.893,3.342
	c1.528,0.75,3.208,1.127,5.045,1.127c1.832,0,3.505-0.377,5.021-1.127c1.516-0.752,2.806-1.863,3.873-3.342
	c1.063-1.478,1.896-3.296,2.497-5.455c0.599-2.16,0.896-4.658,0.896-7.492c0-2.84-0.299-5.326-0.896-7.465
	c-0.601-2.138-1.434-3.933-2.497-5.387c-1.066-1.454-2.357-2.539-3.873-3.257c-1.517-0.719-3.188-1.078-5.021-1.078
	c-1.854,0-3.54,0.359-5.059,1.078C5.735,1.797,4.443,2.882,3.376,4.336C2.308,5.79,1.478,7.586,0.887,9.723
	C0.296,11.861,0,14.348,0,17.188C0,20.021,0.296,22.518,0.887,24.68"/>
<polygon fill="#63544A" points="125.271,33.271 125.271,31.348 121.068,31.348 121.068,29.023 124.506,29.023 124.506,27.1 
	121.068,27.1 121.068,25.086 125.112,25.086 125.112,23.161 118.789,23.161 118.789,33.271 "/>
<path fill="#FFFFFF" d="M112.211,28.152c0.146-0.506,0.284-1.041,0.408-1.605c0.126-0.566,0.253-1.115,0.379-1.65h0.066
	c0.131,0.529,0.266,1.078,0.396,1.646c0.134,0.566,0.272,1.104,0.42,1.609l0.235,0.931h-2.155L112.211,28.152z"/>
<polygon fill="#63544A" points="103.724,25.086 103.724,33.271 106.003,33.271 106.003,25.086 108.79,25.086 108.79,23.161 
	100.929,23.161 100.929,25.086 "/>
<path fill="#FFFFFF" d="M116.853,11.621c0.297-0.454,0.656-0.682,1.075-0.682c0.422,0,0.78,0.229,1.076,0.688
	c0.297,0.458,0.442,1.276,0.442,2.454c0,1.179-0.146,2.005-0.442,2.479c-0.296,0.474-0.654,0.709-1.076,0.709
	c-0.419,0-0.778-0.235-1.075-0.709c-0.296-0.476-0.443-1.301-0.443-2.479C116.408,12.893,116.557,12.074,116.853,11.621"/>
<polygon fill="#63544A" points="108.458,19.348 117.374,2.224 115.221,2.224 106.307,19.348 "/>
<path fill="#FFFFFF" d="M104.677,4.981c0.296-0.453,0.653-0.68,1.075-0.68c0.42,0,0.776,0.229,1.075,0.687
	c0.297,0.458,0.442,1.275,0.442,2.454c0,1.178-0.146,2.005-0.442,2.479c-0.299,0.474-0.655,0.711-1.075,0.711
	c-0.422,0-0.779-0.237-1.075-0.711c-0.299-0.474-0.445-1.3-0.445-2.479C104.231,6.255,104.378,5.434,104.677,4.981"/>
<path fill="#63544A" d="M29.954,35.246c3.067-0.902,5.402-2.396,7.007-4.475c1.603-2.082,2.404-4.57,2.404-7.47
	c0-2.303-0.457-4.089-1.368-5.357c-0.913-1.271-2.238-1.905-3.979-1.905c-1.313,0-2.44,0.399-3.388,1.201
	c-0.947,0.802-1.419,1.866-1.419,3.196c0,1.396,0.469,2.474,1.406,3.224c0.938,0.749,2.021,1.125,3.248,1.125H34.3
	c0,1.33-0.508,2.553-1.521,3.67c-1.015,1.116-2.483,2.024-4.41,2.724L29.954,35.246z"/>
<path fill="#FFFFFF" d="M8.067,11.625c0.247-1.445,0.578-2.583,0.995-3.407c0.416-0.825,0.905-1.395,1.466-1.709
	c0.563-0.316,1.156-0.472,1.786-0.472c0.663,0,1.271,0.156,1.823,0.472c0.552,0.314,1.037,0.884,1.454,1.709
	c0.416,0.824,0.739,1.961,0.968,3.407c0.229,1.446,0.345,3.299,0.345,5.563s-0.113,4.125-0.345,5.589
	c-0.229,1.463-0.553,2.628-0.968,3.494c-0.417,0.869-0.902,1.469-1.454,1.801c-0.553,0.332-1.161,0.496-1.823,0.496
	c-0.63,0-1.225-0.164-1.786-0.496c-0.561-0.332-1.05-0.932-1.466-1.801c-0.417-0.866-0.749-2.031-0.995-3.494
	c-0.246-1.465-0.367-3.325-0.367-5.589S7.821,13.071,8.067,11.625"/>
<path fill="#63544A" d="M74.531,25.109c1.045,0.937,2.17,1.736,3.375,2.402c1.206,0.668,2.548,1,4.023,1
	c1.764,0,3.167-0.449,4.212-1.351c1.044-0.899,1.566-2.231,1.566-3.996c0-1.728-0.496-3.042-1.485-3.942
	c-0.99-0.897-2.295-1.35-3.915-1.35c-0.505,0-0.954,0.027-1.35,0.081c-0.397,0.054-0.783,0.153-1.161,0.297
	c-0.378,0.146-0.774,0.324-1.188,0.54s-0.873,0.486-1.377,0.811l-3.563-2.269L74.64,0h19.439v6.696H81.498l-0.596,6.426
	c0.648-0.288,1.271-0.495,1.863-0.621c0.594-0.125,1.25-0.189,1.971-0.189c1.477,0,2.871,0.216,4.187,0.648
	c1.313,0.432,2.475,1.08,3.481,1.944c1.009,0.864,1.801,1.963,2.376,3.294c0.576,1.332,0.864,2.916,0.864,4.752
	c0,1.907-0.343,3.6-1.025,5.075c-0.684,1.477-1.603,2.728-2.754,3.752c-1.152,1.027-2.493,1.811-4.022,2.351
	c-1.53,0.54-3.124,0.812-4.779,0.812c-2.808,0-5.184-0.459-7.128-1.377c-1.943-0.918-3.601-2.062-4.968-3.431L74.531,25.109z"/>
<path fill="#63544A" d="M63.429,8.712c-0.603-0.638-1.381-1.195-2.337-1.673s-1.931-0.717-2.922-0.717
	c-0.921,0-1.789,0.178-2.603,0.531c-0.815,0.354-1.532,0.948-2.152,1.78c-0.62,0.833-1.125,1.921-1.514,3.267
	c-0.39,1.346-0.62,2.993-0.69,4.94c0.425-0.566,0.92-1.071,1.487-1.514c0.566-0.442,1.15-0.814,1.753-1.116
	c0.602-0.3,1.204-0.531,1.806-0.69c0.602-0.16,1.168-0.239,1.7-0.239c1.452,0,2.789,0.212,4.011,0.638
	c1.222,0.425,2.284,1.063,3.188,1.912c0.903,0.85,1.602,1.931,2.098,3.24c0.496,1.311,0.744,2.852,0.744,4.621
	c0,1.771-0.301,3.348-0.903,4.729c-0.603,1.381-1.408,2.568-2.417,3.559c-1.009,0.992-2.196,1.746-3.559,2.258
	c-1.364,0.514-2.808,0.771-4.33,0.771c-1.629,0-3.214-0.32-4.754-0.957s-2.904-1.629-4.09-2.975
	c-1.187-1.346-2.134-3.072-2.842-5.18c-0.708-2.105-1.062-4.648-1.062-7.623c0-3.151,0.38-5.878,1.142-8.18
	c0.761-2.302,1.77-4.197,3.028-5.684c1.256-1.488,2.709-2.594,4.356-3.32C54.212,0.363,55.921,0,57.692,0
	c2.231,0,4.161,0.398,5.791,1.195c1.628,0.797,2.975,1.745,4.037,2.842L63.429,8.712z"/>
<path fill="#FFFFFF" d="M56.629,29.164c1.169,0,2.169-0.434,3.001-1.303c0.832-0.867,1.249-2.256,1.249-4.17
	c0-1.805-0.417-3.07-1.249-3.797c-0.833-0.727-1.886-1.09-3.161-1.09c-0.85,0-1.718,0.248-2.603,0.744
	c-0.886,0.496-1.718,1.363-2.497,2.604c0.177,1.346,0.442,2.461,0.797,3.346c0.354,0.887,0.761,1.604,1.222,2.152
	c0.46,0.549,0.964,0.938,1.514,1.168C55.451,29.049,56.027,29.164,56.629,29.164z"/>
</svg>
