<?xml version="1.0" encoding="utf-8"?>
<!-- Generator: Adobe Illustrator 16.0.0, SVG Export Plug-In . SVG Version: 6.00 Build 0)  -->
<!DOCTYPE svg PUBLIC "-//W3C//DTD SVG 1.1//EN" "http://www.w3.org/Graphics/SVG/1.1/DTD/svg11.dtd">
<svg version="1.1" id="cursoBolsa" xmlns="http://www.w3.org/2000/svg" xmlns:xlink="http://www.w3.org/1999/xlink" x="0px" y="0px"
	 width="47.665px" height="39.7px" viewBox="0 5.3 47.665 39.7" enable-background="new 0 5.3 47.665 39.7" xml:space="preserve">
<polygon fill="#66564D" points="48.756,45 0,45 0,9.496 2.004,9.496 2.004,43.282 48.756,43.282 "/>
<polygon fill="#66564D" points="15.285,29.061 10.045,35.206 10.647,35.631 15.768,29.624 "/>
<polygon fill="#66564D" points="17.213,27.93 22.414,21.827 33.483,15.118 37.217,19.756 37.597,19.056 33.667,14.175 
	21.889,21.313 16.73,27.364 "/>
<polygon fill="#66564D" points="38.739,21.648 44.692,29.045 45.308,28.637 39.118,20.948 "/>
<path fill="#66564D" d="M13.012,21.57c0,1.338-1.193,2.424-2.666,2.424c-1.472,0-2.665-1.085-2.665-2.424
	c0-1.338,1.193-2.423,2.665-2.423C11.818,19.147,13.012,20.232,13.012,21.57"/>
<path fill="#66564D" d="M13.012,35.419c0,1.338-1.193,2.422-2.666,2.422c-1.472,0-2.665-1.084-2.665-2.422s1.193-2.424,2.665-2.424
	C11.818,32.995,13.012,34.081,13.012,35.419"/>
<path fill="#FFFFFF" d="M10.347,36.805c-0.84,0-1.523-0.621-1.523-1.387c0-0.763,0.684-1.385,1.523-1.385
	c0.839,0,1.522,0.622,1.522,1.385C11.869,36.184,11.187,36.805,10.347,36.805"/>
<path fill="#66564D" d="M24.815,21.57c0,1.338-1.192,2.424-2.666,2.424c-1.472,0-2.664-1.085-2.664-2.424
	c0-1.338,1.192-2.423,2.664-2.423C23.623,19.147,24.815,20.232,24.815,21.57"/>
<path fill="#FFFFFF" d="M22.151,22.956c-0.84,0-1.523-0.621-1.523-1.385c0-0.763,0.684-1.385,1.523-1.385
	c0.839,0,1.522,0.622,1.522,1.385C23.674,22.334,22.991,22.956,22.151,22.956"/>
<path fill="#66564D" d="M36.241,14.647c0,1.338-1.194,2.423-2.666,2.423c-1.473,0-2.665-1.085-2.665-2.423s1.192-2.423,2.665-2.423
	C35.047,12.224,36.241,13.309,36.241,14.647"/>
<path fill="#FFFFFF" d="M33.575,16.031c-0.84,0-1.521-0.621-1.521-1.385c0-0.763,0.682-1.385,1.521-1.385
	c0.839,0,1.523,0.622,1.523,1.385C35.099,15.411,34.415,16.031,33.575,16.031"/>
<path fill="#66564D" d="M47.665,28.841c0,1.339-1.193,2.423-2.666,2.423s-2.665-1.084-2.665-2.423c0-1.338,1.192-2.423,2.665-2.423
	S47.665,27.503,47.665,28.841"/>
<path fill="#FFFFFF" d="M44.999,30.227c-0.84,0-1.521-0.621-1.521-1.386c0-0.764,0.684-1.385,1.521-1.385
	c0.841,0,1.523,0.621,1.523,1.385C46.522,29.605,45.84,30.227,44.999,30.227"/>
<path fill="#66564D" d="M24.815,35.419c0,1.338-1.192,2.422-2.666,2.422c-1.472,0-2.664-1.084-2.664-2.422s1.192-2.424,2.664-2.424
	C23.623,32.995,24.815,34.081,24.815,35.419"/>
<path fill="#66564D" d="M36.241,28.841c0,1.339-1.194,2.423-2.666,2.423c-1.473,0-2.665-1.084-2.665-2.423
	c0-1.338,1.192-2.423,2.665-2.423C35.047,26.418,36.241,27.503,36.241,28.841"/>
<path fill="#66564D" d="M47.665,7.723c0,1.338-1.193,2.423-2.666,2.423s-2.665-1.085-2.665-2.423c0-1.338,1.192-2.423,2.665-2.423
	S47.665,6.385,47.665,7.723"/>
<polygon fill="#66564D" points="22.063,35.88 10.045,21.782 10.647,21.358 22.24,34.958 33.28,28.602 44.657,7.57 45.342,7.875 
	33.869,29.081 "/>
</svg>
