<?xml version="1.0" encoding="utf-8"?>
<!-- Generator: Adobe Illustrator 16.0.0, SVG Export Plug-In . SVG Version: 6.00 Build 0)  -->
<!DOCTYPE svg PUBLIC "-//W3C//DTD SVG 1.1//EN" "http://www.w3.org/Graphics/SVG/1.1/DTD/svg11.dtd">
<svg version="1.1" id="masGarantia" xmlns="http://www.w3.org/2000/svg" xmlns:xlink="http://www.w3.org/1999/xlink" x="0px"
	 y="0px" width="45.239px" height="40px" viewBox="0 5 45.239 40" enable-background="new 0 5 45.239 40" xml:space="preserve">
<g>
	<path fill="#66564D" d="M10.568,45h23.697c3.232,0,4.906-1.585,4.906-4.663V24.979h4.729c1.268,0,1.813-1.438,0.848-2.149
		c-6.875-5.82-13.75-11.64-20.626-17.46c-0.579-0.486-1.192-0.517-1.897,0.055c-2.355,1.994-5.693,3.988-8.048,5.981V7.89
		c0-0.668-0.601-1.21-1.341-1.21H6.483c-0.739,0-1.34,0.542-1.34,1.21v11.163c-1.51,1.278-3.02,2.555-4.528,3.834
		c-0.787,0.595-1.126,2.091,0.914,2.091h4.13v15.358C5.659,43.41,7.333,45,10.568,45"/>
	<g>
		<path fill="#FFFFFF" d="M21.74,23.012c0,0.747-0.238,1.369-0.715,1.863c-0.476,0.494-1.068,0.742-1.778,0.742
			c-0.709,0-1.302-0.248-1.778-0.742c-0.476-0.494-0.714-1.116-0.714-1.863c0-0.728,0.238-1.339,0.714-1.833
			c0.477-0.495,1.069-0.742,1.778-0.742c0.71,0,1.303,0.248,1.778,0.742C21.502,21.673,21.74,22.284,21.74,23.012z M21.178,35.809
			l0.141,3.727h-4.144l0.14-3.727l0.588-8.567h2.688L21.178,35.809z"/>
	</g>
	<g>
		<path fill="#FFFFFF" d="M24.343,37.209c0-0.746,0.239-1.368,0.714-1.861c0.478-0.494,1.069-0.742,1.778-0.742
			c0.71,0,1.305,0.248,1.78,0.742c0.474,0.493,0.713,1.115,0.713,1.861c0,0.729-0.239,1.341-0.713,1.834
			c-0.478,0.495-1.07,0.742-1.78,0.742c-0.709,0-1.301-0.247-1.778-0.742C24.582,38.55,24.343,37.938,24.343,37.209z M24.904,24.412
			l-0.14-3.724h4.143l-0.141,3.724l-0.588,8.568h-2.688L24.904,24.412z"/>
	</g>
</g>
</svg>
