<?xml version="1.0" encoding="utf-8"?>
<!-- Generator: Adobe Illustrator 16.0.0, SVG Export Plug-In . SVG Version: 6.00 Build 0)  -->
<!DOCTYPE svg PUBLIC "-//W3C//DTD SVG 1.1//EN" "http://www.w3.org/Graphics/SVG/1.1/DTD/svg11.dtd">
<svg version="1.1" id="click" xmlns="http://www.w3.org/2000/svg" xmlns:xlink="http://www.w3.org/1999/xlink" x="0px" y="0px"
	 width="53px" height="42.023px" viewBox="0 2.977 53 42.023" enable-background="new 0 2.977 53 42.023" xml:space="preserve">
<path fill="#63544A" d="M39.969,7.388c-1.357-1.818-1.453-2.087-1.574-4.411c-1.863,1.467-2.133,1.578-4.434,1.817
	c1.355,1.819,1.451,2.088,1.574,4.413C37.399,7.738,37.668,7.628,39.969,7.388"/>
<path fill="#63544A" d="M46.438,42.194c-2.094-2.809-2.24-3.224-2.43-6.813c-2.875,2.266-3.291,2.438-6.844,2.807
	c2.094,2.807,2.24,3.223,2.43,6.812C42.471,42.735,42.887,42.563,46.438,42.194"/>
<path fill="#63544A" d="M34.229,33.228c-2.547,0.039-2.856-0.048-5.094-1.408c0.188,2.556,0.121,2.861-1.111,5.025
	c2.547-0.037,2.857,0.049,5.096,1.409C32.932,35.698,33,35.392,34.229,33.228"/>
<polygon fill="#63544A" points="44.69,26.641 44.69,23.694 46.256,21.983 49.04,26.641 53,26.641 48.346,19.591 52.672,14.664 
	48.7,14.664 44.788,19.426 44.69,19.426 44.69,9.713 41.032,9.713 41.032,26.641 "/>
<path fill="#63544A" d="M29.049,23.325c0.316,0.781,0.746,1.437,1.293,1.967c0.547,0.529,1.189,0.938,1.928,1.219
	c0.737,0.283,1.534,0.424,2.393,0.424c0.68,0,1.385-0.119,2.115-0.361c0.729-0.242,1.393-0.625,1.992-1.147l-1.459-2.255
	c-0.299,0.227-0.635,0.426-1.002,0.602c-0.369,0.176-0.775,0.262-1.221,0.262c-0.795,0-1.453-0.303-1.975-0.91
	c-0.524-0.608-0.784-1.43-0.784-2.467c0-1.035,0.256-1.857,0.772-2.465c0.514-0.607,1.221-0.912,2.119-0.912
	c0.559,0.009,1.131,0.242,1.715,0.701l1.662-2.217c-0.412-0.421-0.926-0.757-1.543-1.008c-0.615-0.251-1.303-0.376-2.064-0.376
	c-0.842,0-1.654,0.14-2.438,0.419c-0.779,0.279-1.465,0.684-2.053,1.215c-0.586,0.531-1.055,1.188-1.402,1.971
	c-0.35,0.783-0.523,1.674-0.523,2.672S28.732,22.544,29.049,23.325"/>
<rect x="22.303" y="14.664" fill="#63544A" width="3.656" height="11.977"/>
<path fill="#63544A" d="M22.605,12.389c0.396,0.347,0.902,0.519,1.52,0.519c0.631,0,1.143-0.172,1.531-0.519
	c0.389-0.346,0.582-0.794,0.582-1.344s-0.193-0.994-0.582-1.332s-0.9-0.507-1.531-0.507c-0.617,0-1.123,0.169-1.52,0.507
	s-0.596,0.782-0.596,1.332S22.209,12.043,22.605,12.389"/>
<path fill="#63544A" d="M15.246,24.571c0.117,0.492,0.303,0.91,0.559,1.256s0.6,0.617,1.033,0.813s0.965,0.294,1.598,0.294
	c0.412,0,0.771-0.029,1.074-0.088c0.305-0.059,0.559-0.128,0.76-0.206l-0.449-2.629c-0.098,0.031-0.176,0.047-0.236,0.047h-0.213
	c-0.145,0-0.289-0.073-0.432-0.218s-0.213-0.402-0.213-0.771V9.713H15.07v13.214C15.07,23.532,15.129,24.081,15.246,24.571"/>
<path fill="#63544A" d="M0.602,22.358c0.4,1.002,0.949,1.842,1.646,2.521c0.697,0.679,1.508,1.191,2.438,1.537
	c0.926,0.346,1.912,0.518,2.957,0.518c1.014,0,1.953-0.193,2.824-0.582c0.871-0.39,1.648-0.97,2.328-1.74l-2.018-2.144
	c-0.396,0.416-0.844,0.752-1.342,1.007c-0.498,0.256-1.08,0.383-1.744,0.383c-1.191,0-2.145-0.445-2.861-1.336
	c-0.717-0.892-1.076-2.149-1.076-3.773c0-0.785,0.105-1.492,0.316-2.12s0.498-1.158,0.863-1.589
	c0.363-0.432,0.789-0.766,1.275-1.001c0.486-0.236,1.012-0.353,1.58-0.353c0.566,0,1.063,0.105,1.488,0.316
	c0.426,0.212,0.844,0.503,1.258,0.872l2.004-2.207c-0.543-0.544-1.225-1.024-2.047-1.438s-1.74-0.621-2.752-0.621
	c-1.045,0-2.035,0.186-2.971,0.555s-1.756,0.91-2.461,1.621c-0.705,0.713-1.266,1.58-1.684,2.602C0.209,16.409,0,17.573,0,18.878
	C0,20.196,0.201,21.358,0.602,22.358"/>
</svg>
