<?xml version="1.0" encoding="utf-8"?>
<!-- Generator: Adobe Illustrator 16.0.0, SVG Export Plug-In . SVG Version: 6.00 Build 0)  -->
<!DOCTYPE svg PUBLIC "-//W3C//DTD SVG 1.1//EN" "http://www.w3.org/Graphics/SVG/1.1/DTD/svg11.dtd">
<svg version="1.1" id="credimax" xmlns="http://www.w3.org/2000/svg" xmlns:xlink="http://www.w3.org/1999/xlink" x="0px" y="0px"
	 width="53.652px" height="33.896px" viewBox="0 11.104 53.652 33.896" enable-background="new 0 11.104 53.652 33.896"
	 xml:space="preserve">
<path fill="#66564D" d="M19.427,41.281L19.427,41.281c-0.757,0-1.27-0.49-1.363-0.59L8.176,30.453
	c-0.844-0.871-0.605-2.014,0.045-2.643l16.737-16.164c0.466-0.449,0.953-0.543,1.279-0.543c0.757,0,1.27,0.491,1.365,0.59
	l9.887,10.239c0.514,0.529,0.674,1.213,0.439,1.875c-0.147,0.418-0.407,0.692-0.484,0.768L20.707,40.738
	C20.242,41.188,19.755,41.281,19.427,41.281z"/>
<rect x="15.871" y="14.715" transform="matrix(0.6946 0.7194 -0.7194 0.6946 25.8164 -8.4259)" fill="#FFFFFF" width="13.922" height="22.955"/>
<path fill="#66564D" d="M30.264,41.283c-0.926,0-1.486-0.708-1.673-1.127l-5.79-13.002c-0.3-0.674-0.216-1.372,0.229-1.914
	c0.282-0.344,0.622-0.512,0.719-0.555l21.256-9.464c0.265-0.117,0.532-0.177,0.796-0.177c0.926,0,1.486,0.707,1.674,1.125
	l5.789,13.002c0.492,1.11-0.12,2.101-0.947,2.47L31.06,41.105C30.797,41.223,30.529,41.283,30.264,41.283z"/>
<polygon fill="#FFFFFF" points="24.717,26.473 30.38,39.191 51.351,29.854 45.684,17.124 "/>
<path fill="#66564D" d="M47.963,27.557c-0.158,0.606-0.415,1.131-0.769,1.568c-0.354,0.438-0.8,0.775-1.338,1.018
	c-0.938,0.416-1.873,0.488-2.811,0.221c-0.938-0.27-1.769-0.909-2.494-1.922l-0.926,0.412l-0.459-1.031l0.78-0.42
	c-0.041-0.065-0.075-0.129-0.102-0.188c-0.027-0.06-0.057-0.125-0.088-0.194c-0.029-0.068-0.06-0.134-0.086-0.192
	c-0.025-0.06-0.051-0.127-0.071-0.202l-0.808,0.359l-0.451-1.016l0.893-0.486c-0.128-0.611-0.169-1.188-0.123-1.728
	c0.046-0.539,0.174-1.034,0.385-1.487c0.211-0.451,0.495-0.849,0.855-1.194c0.358-0.345,0.788-0.628,1.285-0.851
	c0.447-0.199,0.931-0.294,1.447-0.286c0.518,0.008,1.02,0.131,1.506,0.367l-0.698,1.726c-0.273-0.104-0.539-0.171-0.796-0.201
	c-0.259-0.028-0.518,0.015-0.775,0.13c-0.428,0.19-0.715,0.503-0.861,0.939c-0.146,0.434-0.152,0.961-0.021,1.583l3.195-1.422
	l0.493,1.104l-3.331,1.481l0.142,0.315c0.034,0.079,0.066,0.154,0.099,0.224c0.031,0.069,0.067,0.137,0.108,0.202l2.719-1.21
	l0.499,1.119l-2.57,1.145c0.384,0.486,0.781,0.812,1.194,0.973c0.412,0.163,0.827,0.15,1.245-0.036
	c0.289-0.128,0.51-0.31,0.661-0.544s0.271-0.525,0.354-0.873L47.963,27.557z"/>
<path fill="#66564D" d="M31.77,22.053H3.529C1.588,22.053,0,23.643,0,25.584V41.47C0,43.41,1.588,45,3.529,45H31.77
	c1.941,0,3.53-1.59,3.53-3.53V25.584C35.302,23.643,33.713,22.053,31.77,22.053"/>
<path fill="#FFFFFF" d="M10.167,34.102c0,0.389-0.317,0.707-0.707,0.707H5.839c-0.389,0-0.706-0.318-0.706-0.707v-3.894
	c0-0.39,0.317-0.707,0.706-0.707H9.46c0.39,0,0.707,0.317,0.707,0.707V34.102z"/>
</svg>
