<?xml version="1.0" encoding="utf-8"?>
<!-- Generator: Adobe Illustrator 16.0.0, SVG Export Plug-In . SVG Version: 6.00 Build 0)  -->
<!DOCTYPE svg PUBLIC "-//W3C//DTD SVG 1.1//EN" "http://www.w3.org/Graphics/SVG/1.1/DTD/svg11.dtd">
<svg version="1.1" id="granCompra" xmlns="http://www.w3.org/2000/svg" xmlns:xlink="http://www.w3.org/1999/xlink" x="0px" y="0px"
	 width="40.008px" height="39.686px" viewBox="0 0 40.008 39.686" enable-background="new 0 0 40.008 39.686" xml:space="preserve">
<path fill="#66564D" d="M30.644,28.511c0-0.315,0.177-0.604,0.458-0.748c0.28-0.146,0.62-0.123,0.88,0.058
	c0.862,0.595,1.87,0.909,2.918,0.909c2.816,0,5.107-2.268,5.107-5.056s-2.291-5.057-5.107-5.057c-1.048,0-2.056,0.315-2.918,0.911
	c-0.26,0.18-0.6,0.202-0.88,0.057c-0.281-0.145-0.458-0.433-0.458-0.748v-6.962c0-1.394-1.146-2.528-2.555-2.528h-7.882
	c-0.317,0-0.608-0.175-0.755-0.454c-0.147-0.278-0.124-0.615,0.057-0.872c0.602-0.853,0.92-1.851,0.92-2.889
	c0-2.788-2.291-5.057-5.108-5.057c-2.816,0-5.107,2.269-5.107,5.057c0,1.038,0.319,2.036,0.919,2.889
	c0.182,0.256,0.205,0.593,0.058,0.872c-0.146,0.279-0.437,0.454-0.754,0.454H2.553C1.145,9.346,0,10.481,0,11.875v6.704
	c0,0.312,0.172,0.596,0.449,0.743c0.125,0.067,0.264,0.1,0.403,0.1c0.165,0,0.328-0.046,0.471-0.14
	c0.872-0.573,1.886-0.876,2.934-0.876c2.934,0,5.321,2.364,5.321,5.268s-2.387,5.268-5.321,5.268c-1.048,0-2.062-0.304-2.934-0.876
	c-0.143-0.094-0.306-0.141-0.471-0.141c-0.139,0-0.277,0.033-0.403,0.102C0.172,28.171,0,28.457,0,28.768v8.391
	c0,1.395,1.146,2.527,2.553,2.527h7.624c0.313,0,0.602-0.171,0.75-0.444c0.149-0.272,0.133-0.605-0.042-0.864
	c-0.578-0.863-0.884-1.867-0.884-2.905c0-2.903,2.387-5.267,5.32-5.267c2.935,0,5.321,2.363,5.321,5.267
	c0,1.038-0.306,2.042-0.885,2.905c-0.174,0.259-0.189,0.592-0.041,0.864c0.148,0.273,0.436,0.444,0.75,0.444h7.623
	c1.409,0,2.555-1.133,2.555-2.527V28.511z"/>
</svg>
