<?xml version="1.0" encoding="utf-8"?>
<!-- Generator: Adobe Illustrator 16.0.0, SVG Export Plug-In . SVG Version: 6.00 Build 0)  -->
<!DOCTYPE svg PUBLIC "-//W3C//DTD SVG 1.1//EN" "http://www.w3.org/Graphics/SVG/1.1/DTD/svg11.dtd">
<svg version="1.1" id="treinta" xmlns="http://www.w3.org/2000/svg" xmlns:xlink="http://www.w3.org/1999/xlink" x="0px" y="0px"
	 width="45.241px" height="40.001px" viewBox="0 4.999 45.241 40.001" enable-background="new 0 4.999 45.241 40.001"
	 xml:space="preserve">
<g>
	<path fill="#66564D" d="M10.568,45h23.697c3.233,0,4.908-1.586,4.908-4.663V24.979h4.729c1.268,0,1.813-1.438,0.848-2.149
		c-6.875-5.82-13.75-11.64-20.626-17.46c-0.579-0.486-1.193-0.518-1.898,0.055c-2.355,1.994-5.692,3.987-8.047,5.981V7.891
		c0-0.669-0.601-1.211-1.341-1.211H6.484c-0.741,0-1.341,0.542-1.341,1.211v11.162c-1.509,1.278-3.02,2.556-4.529,3.833
		c-0.787,0.597-1.125,2.095,0.915,2.095h4.13v15.356C5.658,43.409,7.332,45,10.568,45"/>
	<g>
		<path fill="#FFFFFF" d="M28.411,34.342c-0.502,0.629-1.075,1.106-1.717,1.436c-0.641,0.326-1.339,0.492-2.092,0.492
			c-1.312,0-2.446-0.401-3.402-1.205c-0.956-0.803-1.594-1.984-1.915-3.547h-1.298v-1.444l1.13-0.084
			c-0.014-0.099-0.021-0.188-0.021-0.272c0-0.083,0-0.174,0-0.271s0-0.188,0-0.271c0-0.084,0.007-0.175,0.021-0.271h-1.13v-1.424
			l1.298-0.104c0.167-0.781,0.418-1.476,0.753-2.083c0.335-0.605,0.743-1.119,1.225-1.538c0.481-0.419,1.022-0.735,1.622-0.952
			c0.6-0.216,1.249-0.325,1.947-0.325c0.628,0,1.242,0.14,1.842,0.418c0.601,0.279,1.123,0.685,1.57,1.215l-1.716,1.652
			c-0.266-0.266-0.541-0.48-0.827-0.647c-0.286-0.169-0.611-0.253-0.974-0.253c-0.601,0-1.099,0.218-1.497,0.648
			c-0.397,0.434-0.68,1.049-0.847,1.844h4.479v1.549h-4.668v0.438c0,0.112,0,0.218,0,0.314s0.007,0.194,0.021,0.293h3.81v1.569
			h-3.601c0.195,0.769,0.492,1.354,0.89,1.758c0.398,0.406,0.89,0.607,1.476,0.607c0.404,0,0.757-0.098,1.057-0.293
			c0.301-0.195,0.59-0.475,0.869-0.838L28.411,34.342z"/>
	</g>
</g>
</svg>
