<?xml version="1.0" encoding="utf-8"?>
<!-- Generator: Adobe Illustrator 16.0.0, SVG Export Plug-In . SVG Version: 6.00 Build 0)  -->
<!DOCTYPE svg PUBLIC "-//W3C//DTD SVG 1.1//EN" "http://www.w3.org/Graphics/SVG/1.1/DTD/svg11.dtd">
<svg version="1.1" id="cincoTAE" xmlns="http://www.w3.org/2000/svg" xmlns:xlink="http://www.w3.org/1999/xlink" x="0px" y="0px"
	 width="47.088px" height="36.154px" viewBox="0 8.846 47.088 36.154" enable-background="new 0 8.846 47.088 36.154"
	 xml:space="preserve">
<path fill="#66564D" d="M5.079,43.557C7.087,44.52,9.546,45,12.454,45c1.708,0,3.354-0.283,4.935-0.848
	c1.582-0.563,2.967-1.379,4.158-2.444c1.19-1.065,2.14-2.358,2.849-3.88c0.709-1.521,1.064-3.273,1.064-5.26
	c0-1.904-0.297-3.541-0.889-4.909c-0.589-1.369-1.407-2.498-2.452-3.388c-1.046-0.891-2.25-1.562-3.613-2.014
	c-1.363-0.453-2.808-0.681-4.335-0.681c-0.746,0-1.423,0.067-2.031,0.205c-0.61,0.136-1.25,0.351-1.923,0.64l0.6-6.652H23.85V8.846
	H3.729L2.748,26.787l3.681,2.336c0.508-0.326,0.976-0.602,1.404-0.828c0.427-0.225,0.836-0.41,1.227-0.557
	c0.39-0.143,0.79-0.247,1.199-0.312c0.409-0.063,0.877-0.098,1.404-0.098c1.673,0,3.022,0.468,4.049,1.396
	c1.027,0.934,1.541,2.283,1.541,4.058c0,1.811-0.541,3.181-1.622,4.108c-1.082,0.934-2.532,1.396-4.349,1.396
	c-1.527,0-2.918-0.344-4.172-1.031s-2.417-1.51-3.49-2.469l-3.68,5.178C1.357,41.4,3.07,42.596,5.079,43.557"/>
<polygon fill="#66564D" points="30.853,31.45 29.079,31.45 29.079,30.219 34.097,30.219 34.097,31.45 32.321,31.45 32.321,36.686 
	30.853,36.686 "/>
<polygon fill="#66564D" points="37.808,35.148 35.832,35.148 35.435,36.686 33.948,36.686 35.972,30.219 37.728,30.219 
	39.75,36.686 38.203,36.686 "/>
<path fill="#FFFFFF" d="M37.508,34.008l-0.147-0.596c-0.092-0.322-0.182-0.667-0.27-1.031c-0.086-0.363-0.172-0.713-0.258-1.051
	h-0.039c-0.08,0.344-0.16,0.695-0.243,1.057c-0.083,0.36-0.171,0.703-0.263,1.025l-0.159,0.596H37.508z"/>
<polygon fill="#66564D" points="40.502,30.219 44.549,30.219 44.549,31.45 41.961,31.45 41.961,32.748 44.164,32.748 44.164,33.969 
	41.961,33.969 41.961,35.455 44.647,35.455 44.647,36.686 40.502,36.686 "/>
<path fill="#66564D" d="M30.401,20.512c-0.604,0-1.166-0.121-1.684-0.363c-0.519-0.242-0.964-0.596-1.335-1.063
	c-0.372-0.466-0.661-1.032-0.868-1.696c-0.207-0.666-0.311-1.42-0.311-2.268c0-0.846,0.104-1.598,0.311-2.254
	c0.207-0.657,0.496-1.213,0.868-1.671c0.371-0.458,0.816-0.808,1.335-1.05c0.518-0.241,1.079-0.362,1.684-0.362
	c0.605,0,1.166,0.121,1.685,0.362c0.521,0.242,0.963,0.593,1.335,1.05c0.372,0.458,0.665,1.015,0.883,1.671
	c0.215,0.656,0.322,1.408,0.322,2.254c0,0.848-0.107,1.604-0.322,2.268c-0.218,0.666-0.511,1.23-0.883,1.696
	s-0.814,0.821-1.335,1.063C31.567,20.391,31.006,20.512,30.401,20.512z"/>
<path fill="#FFFFFF" d="M30.401,18.387c0.433,0,0.8-0.242,1.103-0.726c0.302-0.483,0.453-1.33,0.453-2.54
	c0-1.209-0.151-2.047-0.453-2.514c-0.303-0.465-0.67-0.699-1.103-0.699c-0.432,0-0.799,0.232-1.102,0.699
	c-0.302,0.467-0.453,1.305-0.453,2.514s0.151,2.057,0.453,2.54C29.603,18.145,29.97,18.387,30.401,18.387z"/>
<polygon fill="#66564D" points="30.972,27.299 40.092,9.784 42.293,9.784 33.174,27.299 "/>
<path fill="#66564D" d="M42.865,27.299c-0.605,0-1.166-0.121-1.685-0.361c-0.521-0.239-0.966-0.598-1.336-1.063
	c-0.371-0.465-0.66-1.032-0.867-1.695c-0.207-0.666-0.313-1.421-0.313-2.269c0-0.846,0.104-1.598,0.313-2.254
	c0.207-0.656,0.496-1.213,0.867-1.672c0.37-0.457,0.815-0.807,1.336-1.049c0.519-0.241,1.077-0.362,1.685-0.362
	c0.604,0,1.165,0.121,1.684,0.362c0.521,0.242,0.964,0.593,1.336,1.049c0.371,0.459,0.664,1.016,0.882,1.672
	c0.215,0.656,0.321,1.408,0.321,2.254c0,0.848-0.106,1.603-0.321,2.269c-0.218,0.663-0.511,1.229-0.882,1.695
	c-0.372,0.466-0.815,0.82-1.336,1.063C44.03,27.18,43.47,27.299,42.865,27.299z"/>
<path fill="#FFFFFF" d="M42.865,25.174c0.432,0,0.799-0.24,1.102-0.725c0.304-0.482,0.453-1.33,0.453-2.54
	c0-1.209-0.149-2.047-0.453-2.513c-0.303-0.467-0.67-0.7-1.102-0.7c-0.433,0-0.8,0.233-1.104,0.7
	c-0.302,0.466-0.451,1.304-0.451,2.513s0.149,2.056,0.451,2.54C42.065,24.934,42.435,25.174,42.865,25.174z"/>
</svg>
