<?xml version="1.0" encoding="utf-8"?>
<!-- Generator: Adobe Illustrator 16.0.0, SVG Export Plug-In . SVG Version: 6.00 Build 0)  -->
<!DOCTYPE svg PUBLIC "-//W3C//DTD SVG 1.1//EN" "http://www.w3.org/Graphics/SVG/1.1/DTD/svg11.dtd">
<svg version="1.1" id="hogar" xmlns="http://www.w3.org/2000/svg" xmlns:xlink="http://www.w3.org/1999/xlink" x="0px" y="0px"
	 width="46.043px" height="39.685px" viewBox="0 5.315 46.043 39.685" enable-background="new 0 5.315 46.043 39.685"
	 xml:space="preserve">
<path fill="#66564D" d="M45.225,22.062l-10.251-8.097L24.721,5.868c-0.934-0.737-2.463-0.737-3.397,0l0,0l-10.252,8.097L0.82,22.062
	c-0.934,0.738-1.095,2.106-0.356,3.04l0.216,0.274l0.217,0.272c0.737,0.937,2.105,1.096,3.04,0.356l0.966-0.764l2.664-2.104v2.164
	v17.531C7.566,44.025,8.541,45,9.731,45h26.582c1.189,0,2.164-0.975,2.164-2.164V25.305v-2.164l1.697,1.34l0.967,0.765l0.967,0.765
	c0.936,0.736,2.303,0.576,3.039-0.357l0.217-0.272l0.219-0.274C46.318,24.168,46.157,22.8,45.225,22.062"/>
<path fill="#FFFFFF" d="M33.345,35.404l-6.958-6.959l7.58-7.579c0.355-0.356,0.355-0.935,0-1.29c-0.355-0.356-0.934-0.356-1.289,0
	l-7.581,7.58L24.9,26.959c0.134-0.501,0.212-1.025,0.212-1.568c0-3.357-2.723-6.083-6.082-6.083c-0.784,0-1.53,0.153-2.219,0.423
	l3.509,3.51c0.237,0.235,0.237,0.622,0,0.858l-2.58,2.58c-0.114,0.113-0.269,0.178-0.43,0.178c-0.162,0-0.316-0.063-0.432-0.178
	l-3.508-3.51c-0.27,0.688-0.423,1.436-0.423,2.221c0,3.357,2.722,6.082,6.082,6.082c0.544,0,1.068-0.078,1.569-0.214l8.443,8.444
	c0.595,0.594,1.373,0.892,2.15,0.892c0.778,0,1.557-0.298,2.15-0.892C34.532,38.518,34.532,36.591,33.345,35.404"/>
<path fill="#FFFFFF" d="M20.208,32.589c-0.396,0.065-0.789,0.101-1.178,0.101c-0.748,0-1.472-0.113-2.151-0.325l-3.04,3.041
	c-1.188,1.188-1.188,3.112,0,4.302c0.593,0.594,1.372,0.893,2.15,0.893c0.777,0,1.557-0.299,2.149-0.893l4.593-4.596L20.208,32.589z
	"/>
<path fill="#66564D" d="M31.17,38.509c0.576,0,1.043-0.467,1.043-1.043c0-0.575-0.467-1.043-1.043-1.043
	c-0.575,0-1.043,0.468-1.043,1.043C30.127,38.042,30.595,38.509,31.17,38.509"/>
</svg>
