<?xml version="1.0" encoding="utf-8"?>
<!-- Generator: Adobe Illustrator 16.0.0, SVG Export Plug-In . SVG Version: 6.00 Build 0)  -->
<!DOCTYPE svg PUBLIC "-//W3C//DTD SVG 1.1//EN" "http://www.w3.org/Graphics/SVG/1.1/DTD/svg11.dtd">
<svg version="1.1" id="dosMas" xmlns="http://www.w3.org/2000/svg" xmlns:xlink="http://www.w3.org/1999/xlink" x="0px" y="0px"
	 width="120.033px" height="35.23px" viewBox="0 -0.351 120.033 35.23" enable-background="new 0 -0.351 120.033 35.23"
	 xml:space="preserve">
<path fill="#66564D" d="M31.367,17.758c-0.549,0-1.055-0.108-1.521-0.328c-0.469-0.219-0.871-0.539-1.206-0.961
	c-0.338-0.42-0.599-0.933-0.785-1.53c-0.188-0.604-0.28-1.285-0.28-2.052s0.095-1.442,0.28-2.039
	c0.188-0.593,0.447-1.096,0.785-1.51c0.335-0.414,0.736-0.729,1.206-0.948c0.469-0.219,0.975-0.328,1.521-0.328
	c0.546,0,1.054,0.109,1.521,0.328s0.869,0.534,1.206,0.948c0.336,0.414,0.602,0.917,0.797,1.51c0.193,0.595,0.292,1.272,0.292,2.039
	s-0.099,1.447-0.292,2.052c-0.195,0.6-0.461,1.11-0.797,1.53c-0.337,0.422-0.737,0.742-1.206,0.961
	C32.42,17.65,31.913,17.758,31.367,17.758z"/>
<polygon fill="#66564D" points="31.883,23.894 40.126,8.064 42.116,8.064 33.873,23.894 "/>
<path fill="#66564D" d="M42.633,23.894c-0.547,0-1.055-0.109-1.521-0.326c-0.468-0.22-0.869-0.537-1.206-0.961
	c-0.336-0.42-0.597-0.935-0.784-1.533c-0.188-0.601-0.28-1.283-0.28-2.051c0-0.765,0.094-1.443,0.28-2.037
	c0.188-0.592,0.448-1.099,0.784-1.51c0.337-0.416,0.738-0.729,1.206-0.949c0.469-0.217,0.977-0.326,1.521-0.326
	c0.546,0,1.054,0.109,1.521,0.326c0.47,0.221,0.87,0.533,1.207,0.949c0.334,0.411,0.602,0.918,0.798,1.51
	c0.193,0.594,0.292,1.272,0.292,2.037c0,0.768-0.099,1.45-0.292,2.051c-0.196,0.602-0.464,1.113-0.798,1.533
	c-0.337,0.424-0.737,0.741-1.207,0.961C43.685,23.785,43.178,23.894,42.633,23.894z"/>
<path fill="#66564D" d="M0.503,29.996c2.191-2.049,4.195-3.963,6.013-5.74c1.813-1.777,3.377-3.451,4.689-5.014
	c1.312-1.563,2.336-3.021,3.071-4.365c0.737-1.352,1.105-2.635,1.105-3.855c0-1.688-0.432-2.973-1.293-3.854
	c-0.862-0.879-2.049-1.32-3.558-1.32c-1.259,0-2.372,0.351-3.343,1.053c-0.972,0.7-1.889,1.517-2.75,2.454L0.125,5.092
	C1.813,3.296,3.539,1.939,5.3,1.024c1.762-0.917,3.863-1.375,6.308-1.375c1.688,0,3.226,0.261,4.608,0.783
	c1.384,0.52,2.579,1.258,3.584,2.208c1.008,0.954,1.78,2.095,2.319,3.425s0.808,2.821,0.808,4.473c0,1.439-0.306,2.902-0.915,4.394
	c-0.612,1.492-1.431,2.983-2.453,4.478c-1.024,1.49-2.192,2.981-3.504,4.475c-1.313,1.49-2.67,2.955-4.071,4.393
	c0.863-0.106,1.824-0.205,2.886-0.297c1.06-0.09,2.001-0.133,2.83-0.133H24.6v6.682H0.503V29.996z"/>
<path fill="#66564D" d="M51.108,15.107h4.646l3.248,8.725l1.162,3.396h0.117l1.162-3.396l3.155-8.725h4.614v19.416h-4.079v-7.115
	c0-0.479,0.021-1.004,0.061-1.58c0.04-0.574,0.091-1.154,0.148-1.742c0.062-0.584,0.119-1.16,0.18-1.729
	c0.06-0.564,0.119-1.086,0.179-1.563h-0.119l-1.605,4.498l-2.979,7.533h-1.759l-2.979-7.533l-1.549-4.498h-0.118
	c0.059,0.477,0.118,0.998,0.178,1.563c0.061,0.567,0.113,1.145,0.166,1.729c0.047,0.588,0.093,1.168,0.133,1.742
	c0.04,0.576,0.062,1.104,0.062,1.58v7.115H51.11L51.108,15.107L51.108,15.107z"/>
<path fill="#66564D" d="M73.056,30.416c0-1.551,0.653-2.762,1.964-3.635c1.313-0.873,3.427-1.459,6.343-1.758
	c-0.037-0.656-0.235-1.177-0.595-1.563c-0.356-0.387-0.935-0.58-1.728-0.58c-0.636,0-1.271,0.117-1.906,0.355
	c-0.634,0.237-1.311,0.563-2.024,0.983l-1.549-2.892c0.954-0.575,1.951-1.043,2.995-1.397c1.041-0.356,2.147-0.538,3.317-0.538
	c1.905,0,3.36,0.545,4.363,1.622c1.001,1.084,1.504,2.769,1.504,5.05v8.459H82.17l-0.328-1.521h-0.09
	c-0.635,0.558-1.307,1.008-2.012,1.356c-0.704,0.346-1.475,0.521-2.308,0.521c-0.676,0-1.28-0.113-1.815-0.345
	c-0.536-0.229-0.992-0.545-1.37-0.952c-0.377-0.406-0.669-0.878-0.879-1.414C73.16,31.633,73.056,31.049,73.056,30.416z"/>
<polygon fill="#66564D" points="80.768,17.428 77.583,17.428 80.232,12.962 84.462,12.962 "/>
<path fill="#66564D" d="M90.3,30.087c0.676,0.52,1.318,0.904,1.936,1.16c0.616,0.26,1.24,0.389,1.877,0.389
	c0.654,0,1.132-0.107,1.431-0.326c0.297-0.221,0.445-0.527,0.445-0.926c0-0.238-0.085-0.449-0.253-0.641
	c-0.17-0.189-0.396-0.361-0.687-0.521c-0.287-0.156-0.61-0.301-0.969-0.43c-0.354-0.131-0.725-0.273-1.103-0.436
	c-0.456-0.177-0.913-0.388-1.369-0.623c-0.456-0.238-0.874-0.531-1.251-0.879c-0.378-0.347-0.686-0.754-0.923-1.222
	c-0.239-0.467-0.356-1.006-0.356-1.623c0-0.674,0.135-1.301,0.401-1.877c0.268-0.573,0.648-1.062,1.146-1.461
	c0.496-0.396,1.093-0.707,1.787-0.937c0.694-0.229,1.47-0.345,2.322-0.345c1.132,0,2.125,0.192,2.979,0.581
	c0.853,0.391,1.599,0.82,2.231,1.297l-1.965,2.619c-0.536-0.396-1.063-0.703-1.579-0.922c-0.517-0.219-1.031-0.328-1.548-0.328
	c-1.11,0-1.669,0.389-1.669,1.16c0,0.238,0.08,0.443,0.238,0.613c0.158,0.166,0.372,0.322,0.643,0.459
	c0.268,0.141,0.574,0.273,0.924,0.402c0.347,0.131,0.709,0.264,1.087,0.401c0.476,0.179,0.945,0.383,1.413,0.608
	c0.467,0.229,0.894,0.513,1.279,0.851c0.39,0.338,0.699,0.748,0.938,1.235c0.236,0.486,0.356,1.066,0.356,1.742
	c0,0.674-0.13,1.301-0.388,1.875c-0.261,0.576-0.646,1.078-1.162,1.506c-0.518,0.427-1.15,0.765-1.906,1.011
	c-0.753,0.25-1.627,0.373-2.619,0.373c-0.974,0-1.971-0.188-2.993-0.565c-1.022-0.375-1.911-0.871-2.664-1.486L90.3,30.087z"/>
<path fill="#FFFFFF" d="M31.367,15.841c0.39,0,0.722-0.221,0.994-0.656c0.271-0.438,0.41-1.201,0.41-2.295s-0.139-1.852-0.41-2.271
	c-0.272-0.424-0.604-0.633-0.994-0.633c-0.392,0-0.724,0.209-0.996,0.633c-0.271,0.42-0.408,1.178-0.408,2.271
	s0.137,1.857,0.408,2.295C30.644,15.621,30.976,15.841,31.367,15.841z"/>
<path fill="#FFFFFF" d="M42.633,21.973c0.391,0,0.723-0.217,0.996-0.653c0.271-0.438,0.409-1.203,0.409-2.297
	c0-1.093-0.138-1.851-0.409-2.271c-0.273-0.423-0.605-0.634-0.996-0.634s-0.723,0.211-0.995,0.634
	c-0.273,0.42-0.409,1.178-0.409,2.271c0,1.094,0.136,1.858,0.409,2.297C41.91,21.757,42.242,21.973,42.633,21.973z"/>
<path fill="#FFFFFF" d="M77.225,30.087c0,0.479,0.152,0.826,0.461,1.059c0.31,0.229,0.722,0.342,1.236,0.342
	c0.516,0,0.951-0.106,1.31-0.326c0.357-0.221,0.734-0.524,1.131-0.926v-2.59c-1.565,0.219-2.648,0.535-3.243,0.953
	C77.524,29.012,77.225,29.508,77.225,30.087z"/>
</svg>
