<?xml version="1.0" encoding="utf-8"?>
<!-- Generator: Adobe Illustrator 16.0.0, SVG Export Plug-In . SVG Version: 6.00 Build 0)  -->
<!DOCTYPE svg PUBLIC "-//W3C//DTD SVG 1.1//EN" "http://www.w3.org/Graphics/SVG/1.1/DTD/svg11.dtd">
<svg version="1.1" id="valor" xmlns="http://www.w3.org/2000/svg" xmlns:xlink="http://www.w3.org/1999/xlink" x="0px" y="0px"
	 width="59.614px" height="40.001px" viewBox="0 4.999 59.614 40.001" enable-background="new 0 4.999 59.614 40.001"
	 xml:space="preserve">
<g>
	<path fill="#66564D" d="M10.568,45h23.697c3.232,0,4.908-1.586,4.908-4.664V24.979h4.729c1.268,0,1.813-1.438,0.848-2.149
		c-6.875-5.82-13.751-11.64-20.626-17.46c-0.579-0.486-1.193-0.518-1.898,0.055c-2.355,1.994-5.692,3.987-8.048,5.981V7.89
		c0-0.669-0.601-1.211-1.34-1.211H6.484c-0.74,0-1.34,0.542-1.34,1.211v11.162c-1.511,1.278-3.021,2.556-4.53,3.834
		c-0.786,0.595-1.125,2.093,0.915,2.093h4.13v15.357C5.659,43.408,7.332,45,10.568,45"/>
	<path fill="#66564D" stroke="#FFFFFF" stroke-width="2" stroke-miterlimit="10" d="M27.254,16.275
		c-2.598,1.687-4.383,4.285-5.026,7.315c-0.645,3.029-0.07,6.129,1.617,8.727c1.687,2.599,4.284,4.384,7.314,5.027
		c3.029,0.645,6.13,0.07,8.727-1.617c2.6-1.688,4.385-4.285,5.027-7.313c0.388-1.82,0.326-3.664-0.145-5.41l1.178-0.766
		l-3.903-6.011l-1.181,0.766C37.063,13.921,31.567,13.474,27.254,16.275"/>
	<path fill="#FFFFFF" d="M40.138,21.735c1.141,1.755,1.528,3.847,1.094,5.895c-0.436,2.046-1.642,3.802-3.396,4.94
		s-3.848,1.527-5.895,1.092c-2.046-0.436-3.801-1.641-4.941-3.396c-1.14-1.755-1.526-3.848-1.092-5.894
		c0.436-2.047,1.641-3.802,3.396-4.941C32.927,17.08,37.787,18.113,40.138,21.735"/>
	
		<rect x="43.942" y="10.866" transform="matrix(0.8388 -0.5444 0.5444 0.8388 0.4414 30.3149)" fill="#66564D" width="14.946" height="7.093"/>
	<path fill="#66564D" d="M30.494,27.598c0.218,1.061,0.65,1.863,1.299,2.408c0.647,0.547,1.419,0.82,2.313,0.82
		c0.515,0,0.988-0.113,1.424-0.338c0.436-0.227,0.824-0.553,1.166-0.979l-1.152-1.079c-0.189,0.242-0.387,0.43-0.59,0.561
		c-0.204,0.131-0.441,0.197-0.715,0.197c-0.398,0-0.733-0.137-1.004-0.406c-0.271-0.271-0.475-0.666-0.607-1.186h2.443v-1.068
		h-2.598c-0.009-0.064-0.014-0.131-0.014-0.197v-0.213v-0.299h3.182v-1.055h-3.043c0.115-0.541,0.309-0.959,0.576-1.255
		c0.27-0.293,0.605-0.44,1.016-0.44c0.25,0,0.472,0.058,0.666,0.172c0.193,0.113,0.381,0.26,0.563,0.439l1.166-1.128
		c-0.307-0.364-0.662-0.643-1.07-0.834c-0.406-0.191-0.822-0.287-1.248-0.287c-0.479,0-0.92,0.073-1.328,0.22
		c-0.406,0.146-0.773,0.363-1.1,0.65c-0.328,0.286-0.604,0.637-0.831,1.051c-0.228,0.416-0.398,0.892-0.514,1.426l-0.895,0.07v0.973
		h0.784c-0.01,0.063-0.014,0.125-0.014,0.184v0.186v0.184c0,0.059,0.004,0.119,0.014,0.184l-0.784,0.058V27.6h0.895V27.598z"/>
</g>
</svg>
