<?xml version="1.0" encoding="utf-8"?>
<!-- Generator: Adobe Illustrator 16.0.0, SVG Export Plug-In . SVG Version: 6.00 Build 0)  -->
<!DOCTYPE svg PUBLIC "-//W3C//DTD SVG 1.1//EN" "http://www.w3.org/Graphics/SVG/1.1/DTD/svg11.dtd">
<svg version="1.1" id="disponibilidad" xmlns="http://www.w3.org/2000/svg" xmlns:xlink="http://www.w3.org/1999/xlink" x="0px"
	 y="0px" width="48.64px" height="45px" viewBox="0 0 48.64 45" enable-background="new 0 0 48.64 45" xml:space="preserve">
<path fill="#63544A" d="M16.939,6.08c-0.31-0.35-0.28-0.89,0.07-1.19l0,0c0.35-0.31,0.89-0.28,1.2,0.07l0,0
	c0.31,0.35,0.27,0.89-0.07,1.2l0,0c-0.17,0.14-0.37,0.21-0.56,0.21l0,0C17.339,6.37,17.109,6.27,16.939,6.08z"/>
<path fill="#63544A" d="M34.359,3.56c-0.38-0.27-0.47-0.8-0.2-1.18l0,0c0.271-0.39,0.8-0.48,1.18-0.21l0,0
	c0.391,0.28,0.48,0.8,0.2,1.19l0,0c-0.16,0.23-0.42,0.35-0.689,0.35l0,0C34.679,3.71,34.509,3.66,34.359,3.56z"/>
<path fill="#63544A" d="M37.413,6.67c-0.38-0.27-0.47-0.8-0.2-1.18l0,0c0.271-0.39,0.8-0.48,1.18-0.21l0,0
	c0.391,0.28,0.48,0.8,0.2,1.19l0,0c-0.16,0.23-0.42,0.35-0.689,0.35l0,0C37.733,6.82,37.563,6.77,37.413,6.67z"/>
<path fill="#63544A" d="M20.679,3.19c-0.22-0.41-0.08-0.92,0.34-1.15l0,0c0.41-0.22,0.92-0.07,1.15,0.34l0,0
	c0.22,0.41,0.07,0.92-0.34,1.15l0,0c-0.13,0.07-0.27,0.1-0.41,0.1l0,0C21.129,3.63,20.839,3.47,20.679,3.19z"/>
<path fill="#63544A" d="M25.009,1.29c-0.1-0.46,0.19-0.91,0.65-1l0,0c0.46-0.1,0.91,0.19,1,0.65l0,0c0.1,0.46-0.2,0.91-0.65,1l0,0
	c-0.06,0.02-0.12,0.02-0.18,0.02l0,0C25.439,1.96,25.089,1.69,25.009,1.29z"/>
<path fill="#63544A" d="M30.379,1.86c-0.46-0.09-0.76-0.53-0.68-0.99l0,0c0.09-0.46,0.53-0.76,0.99-0.67V0.19
	c0.46,0.09,0.76,0.53,0.68,0.99l0,0c-0.08,0.41-0.43,0.69-0.83,0.69l0,0C30.479,1.87,30.429,1.87,30.379,1.86z"/>
<polygon fill="#63544A" points="12.93,10.383 20.031,9.804 12.869,3.258 "/>
<path fill="#63544A" d="M38.321,26.754c4.525,1.039,9.045-1.735,10.1-6.196c1.051-4.46-1.762-8.918-6.284-9.957
	s-9.045,1.736-10.099,6.195C30.985,21.258,33.799,25.715,38.321,26.754"/>
<path fill="#FFFFFF" d="M42.42,21.771c-0.28,0.372-0.569,0.654-0.863,0.845c-0.299,0.192-0.646,0.288-1.046,0.288
	c-0.667,0-1.21-0.256-1.625-0.766c-0.415-0.511-0.692-1.217-0.833-2.121h3.445v-0.765h-3.525c-0.011-0.096-0.017-0.194-0.017-0.295
	v-0.312v-0.239c0-0.074,0.006-0.148,0.017-0.223h4.172v-0.783h-4.107c0.129-0.924,0.412-1.647,0.849-2.168
	c0.437-0.521,1.011-0.781,1.724-0.781c0.345,0,0.651,0.088,0.922,0.264c0.269,0.175,0.517,0.401,0.743,0.678l0.793-0.75
	c-0.28-0.351-0.631-0.646-1.052-0.885c-0.421-0.239-0.872-0.358-1.359-0.358c-0.527,0-1.015,0.091-1.464,0.271
	c-0.447,0.182-0.84,0.445-1.18,0.79s-0.622,0.765-0.849,1.259c-0.227,0.495-0.388,1.055-0.486,1.682l-1.033,0.08v0.703h0.952
	c-0.01,0.084-0.014,0.17-0.014,0.254v0.256v0.287c0,0.095,0.004,0.191,0.014,0.287l-0.952,0.064v0.686h1.033
	c0.099,0.627,0.258,1.183,0.479,1.667c0.222,0.483,0.493,0.896,0.816,1.235c0.325,0.339,0.692,0.599,1.106,0.774
	c0.415,0.174,0.866,0.263,1.351,0.263c0.594,0,1.117-0.13,1.57-0.391c0.451-0.261,0.858-0.625,1.213-1.093L42.42,21.771z"/>
<path fill="#63544A" d="M13.645,27.187c3.544,0.814,7.089-1.361,7.915-4.857c0.824-3.497-1.38-6.99-4.926-7.805
	c-3.545-0.814-7.089,1.36-7.915,4.857C7.893,22.878,10.098,26.373,13.645,27.187"/>
<path fill="#63544A" d="M30.279,45c0.024-0.576,0.042-1.141,0.042-1.678c-0.001-2.924-0.352-5.259-0.961-7.153
	c-0.898-2.837-2.472-4.693-4.105-5.692c-1.628-1.009-3.17-1.166-4.002-1.166c-0.059,0-0.111,0.001-0.165,0.003
	c-0.094-0.012-0.19-0.02-0.288-0.02H9.478c-0.096,0-0.19,0.007-0.285,0.019c-0.041-0.001-0.08-0.002-0.126-0.002
	c-0.56,0-1.42,0.07-2.426,0.416c-1.507,0.503-3.318,1.719-4.582,3.929C0.785,35.86,0.002,38.942,0,43.322
	C0,43.859,0.017,44.424,0.041,45h4.694c-0.028-0.586-0.047-1.152-0.047-1.678c0-2.559,0.313-4.426,0.74-5.755
	c0.545-1.651,1.206-2.46,1.786-2.926V45h15.851V34.603c0.357,0.281,0.737,0.696,1.124,1.347c0.74,1.265,1.444,3.529,1.442,7.373
	c0.001,0.525-0.017,1.092-0.046,1.678H30.279z"/>
</svg>
