<?xml version="1.0" encoding="utf-8"?>
<!-- Generator: Adobe Illustrator 16.0.0, SVG Export Plug-In . SVG Version: 6.00 Build 0)  -->
<!DOCTYPE svg PUBLIC "-//W3C//DTD SVG 1.1//EN" "http://www.w3.org/Graphics/SVG/1.1/DTD/svg11.dtd">
<svg version="1.1" id="viviendaHabitual" xmlns="http://www.w3.org/2000/svg" xmlns:xlink="http://www.w3.org/1999/xlink" x="0px"
	 y="0px" width="45.241px" height="40.001px" viewBox="0 4.999 45.241 40.001" enable-background="new 0 4.999 45.241 40.001"
	 xml:space="preserve">
<g>
	<path fill="#66564D" d="M10.568,45h23.697c3.232,0,4.908-1.586,4.908-4.663V24.979h4.729c1.268,0,1.813-1.438,0.847-2.149
		c-6.874-5.82-13.75-11.64-20.625-17.46c-0.579-0.486-1.193-0.518-1.899,0.055c-2.355,1.994-5.692,3.987-8.047,5.98V7.891
		c0-0.668-0.601-1.211-1.341-1.211H6.484c-0.741,0-1.34,0.542-1.34,1.211v11.162c-1.51,1.278-3.02,2.556-4.53,3.834
		c-0.787,0.595-1.125,2.093,0.915,2.093h4.13v15.356C5.658,43.409,7.332,45,10.568,45"/>
	<g>
		<path fill="#FFFFFF" d="M18.532,32.699h2.889v-7.684H18.93v-1.904c0.726-0.139,1.34-0.306,1.842-0.502
			c0.502-0.195,0.991-0.432,1.465-0.712h2.261v10.802h2.491v2.49h-8.458v-2.49H18.532z"/>
		<path fill="#FFFFFF" d="M30.946,29.873c-0.656,0-1.172-0.202-1.549-0.605c-0.377-0.406-0.565-0.9-0.565-1.487
			c0-0.739,0.308-1.308,0.921-1.705c0.614-0.398,1.612-0.66,2.993-0.785c-0.026-0.308-0.122-0.537-0.282-0.69
			c-0.16-0.152-0.408-0.23-0.742-0.23c-0.279,0-0.58,0.057-0.9,0.168s-0.648,0.266-0.983,0.461l-0.774-1.424
			c0.461-0.279,0.945-0.502,1.455-0.67c0.51-0.167,1.037-0.251,1.58-0.251c0.894,0,1.588,0.255,2.084,0.765
			c0.494,0.509,0.742,1.287,0.742,2.333v3.957h-1.736l-0.211-0.69h-0.084c-0.25,0.252-0.537,0.457-0.856,0.617
			C31.714,29.793,31.351,29.873,30.946,29.873z M31.679,28.24c0.209,0,0.395-0.049,0.555-0.146c0.16-0.097,0.332-0.229,0.513-0.396
			v-1.151c-0.697,0.069-1.179,0.202-1.442,0.397c-0.267,0.195-0.398,0.418-0.398,0.67C30.903,28.031,31.162,28.24,31.679,28.24z"/>
	</g>
</g>
</svg>
