<?xml version="1.0" encoding="utf-8"?>
<!-- Generator: Adobe Illustrator 16.0.0, SVG Export Plug-In . SVG Version: 6.00 Build 0)  -->
<!DOCTYPE svg PUBLIC "-//W3C//DTD SVG 1.1//EN" "http://www.w3.org/Graphics/SVG/1.1/DTD/svg11.dtd">
<svg version="1.1" id="tarjeta" xmlns="http://www.w3.org/2000/svg" xmlns:xlink="http://www.w3.org/1999/xlink" x="0px" y="0px"
	 width="53.652px" height="39.686px" viewBox="0 5.314 53.652 39.686" enable-background="new 0 5.314 53.652 39.686"
	 xml:space="preserve">
<path fill="#66564D" d="M28.984,16.577c0-2.331,0.599-4.524,1.647-6.436H5.363C2.413,10.142,0,12.555,0,15.504v2.875h29.109
	C29.029,17.789,28.984,17.188,28.984,16.577"/>
<path fill="#66564D" d="M32.758,25.887H0v13.75C0,42.587,2.414,45,5.363,45h37.608c2.948,0,5.36-2.413,5.36-5.363V28.591
	c-1.791,0.89-3.809,1.394-5.938,1.394C38.611,29.982,35.196,28.41,32.758,25.887"/>
<polygon fill="#66564D" points="53.652,17.893 51.4,15.749 53.16,13.185 50.236,12.148 50.807,9.082 47.717,9.332 46.997,6.299 
	44.273,7.792 42.391,5.314 40.508,7.792 37.785,6.299 37.066,9.332 33.975,9.082 34.545,12.148 31.621,13.185 33.383,15.749 
	31.129,17.893 33.775,19.518 32.584,22.395 35.659,22.797 35.734,25.912 38.706,25.023 40.036,27.838 42.391,25.813 44.745,27.838 
	46.075,25.023 49.047,25.912 49.123,22.797 52.197,22.395 51.006,19.518 "/>
<polygon fill="#FFFFFF" points="41.586,18.587 41.764,17.675 42.549,17.675 42.729,18.587 43.445,18.587 42.631,14.991 
	41.725,14.991 40.867,18.587 "/>
<path fill="#FFFFFF" d="M39.002,17.038c0.191,0,0.39-0.005,0.57,0.048c0.229,0.067,0.225,0.369,0.229,0.59
	c0.005,0.24-0.011,0.681,0.071,0.911h0.737V18.52c-0.164-0.105-0.146-0.987-0.146-1.137c0-0.345-0.12-0.599-0.518-0.652v-0.009
	c0.449-0.063,0.551-0.475,0.551-0.868c0-0.662-0.438-0.862-1.021-0.862h-1.271v3.596h0.67v-1.549L39.002,17.038L39.002,17.038z"/>
<path fill="#FFFFFF" d="M49.301,16.084c-0.004-0.355,0.023-1.179-1.045-1.179c-0.709,0-1.055,0.335-1.055,0.948
	c0,0.191,0.063,0.389,0.172,0.552c0.273,0.359,0.711,0.556,1.062,0.83c0.174,0.119,0.27,0.264,0.27,0.475
	c0,0.272-0.135,0.422-0.418,0.422c-0.331,0-0.438-0.255-0.422-0.605v-0.211h-0.672v0.265c0,0.643,0.289,1.093,1.094,1.093
	c0.656,0,1.105-0.355,1.105-1.035c0-0.312-0.07-0.527-0.302-0.753c-0.188-0.183-0.595-0.451-0.813-0.59
	c-0.211-0.135-0.385-0.24-0.385-0.513c0-0.245,0.146-0.336,0.368-0.336c0.371,0,0.398,0.315,0.396,0.638L49.301,16.084
	L49.301,16.084z"/>
<rect x="45.954" y="14.991" fill="#FFFFFF" width="0.671" height="3.596"/>
<polygon fill="#FFFFFF" points="43.307,15.518 44.094,15.518 44.094,18.587 44.764,18.587 44.764,15.518 45.547,15.518 
	45.547,14.991 43.307,14.991 "/>
<path fill="#66564D" d="M42.07,16.127c0.033-0.168,0.048-0.331,0.066-0.499c0.006-0.081,0.014-0.163,0.022-0.24h0.009
	c0.012,0.077,0.021,0.159,0.024,0.24c0.021,0.168,0.033,0.331,0.065,0.499l0.185,1.021h-0.576L42.07,16.127z"/>
<path fill="#66564D" d="M38.881,15.518h0.5c0.254,0.005,0.423,0.072,0.423,0.476c0,0.359-0.175,0.504-0.395,0.518h-0.528V15.518z"/>
<path fill="#FFFFFF" d="M35.229,17.014c0,0.959,0.071,1.659,1.173,1.659c0.246-0.019,0.5-0.125,0.635-0.498h0.009v0.412h0.504
	v-1.932h-1.115v0.526h0.465c0.015,0.542-0.11,0.95-0.494,0.95c-0.461,0-0.484-0.485-0.484-0.782v-0.997
	c0-0.278-0.043-0.906,0.484-0.906c0.455,0.019,0.479,0.307,0.49,0.672h0.67c-0.004-0.145,0-0.293-0.033-0.438
	c-0.152-0.623-0.551-0.771-1.127-0.775c-1.073,0-1.146,0.68-1.174,1.596L35.229,17.014L35.229,17.014z"/>
<rect x="7.789" y="34.077" fill="#FFFFFF" width="19" height="3.218"/>
</svg>
