<?xml version="1.0" encoding="utf-8"?>
<!-- Generator: Adobe Illustrator 16.0.0, SVG Export Plug-In . SVG Version: 6.00 Build 0)  -->
<!DOCTYPE svg PUBLIC "-//W3C//DTD SVG 1.1//EN" "http://www.w3.org/Graphics/SVG/1.1/DTD/svg11.dtd">
<svg version="1.1" id="sinComisiones" xmlns="http://www.w3.org/2000/svg" xmlns:xlink="http://www.w3.org/1999/xlink" x="0px"
	 y="0px" width="51.553px" height="24.545px" viewBox="0 20.455 51.553 24.545" enable-background="new 0 20.455 51.553 24.545"
	 xml:space="preserve">
<path fill="#66564D" d="M3.05,37.922c0.847,0.727,1.785,1.319,2.814,1.776c1.028,0.457,2.037,0.688,3.031,0.688
	c1.112,0,1.942-0.205,2.487-0.615c0.544-0.412,0.817-0.967,0.817-1.67c0-0.365-0.079-0.68-0.236-0.945
	c-0.158-0.268-0.387-0.504-0.689-0.706c-0.303-0.207-0.667-0.4-1.09-0.582c-0.422-0.181-0.889-0.382-1.397-0.601l-3.086-1.306
	c-0.605-0.243-1.192-0.56-1.76-0.944c-0.569-0.387-1.077-0.844-1.524-1.361c-0.448-0.518-0.806-1.125-1.072-1.816
	c-0.267-0.689-0.399-1.471-0.399-2.343c0-0.965,0.206-1.878,0.617-2.741c0.412-0.857,0.993-1.609,1.743-2.251
	c0.75-0.64,1.64-1.144,2.669-1.507c1.028-0.361,2.16-0.543,3.395-0.543c1.378,0,2.741,0.267,4.083,0.799
	c1.344,0.532,2.524,1.305,3.541,2.322l-2.723,3.375c-0.775-0.604-1.551-1.069-2.325-1.395c-0.773-0.326-1.633-0.49-2.577-0.49
	c-0.92,0-1.651,0.187-2.197,0.561c-0.544,0.376-0.816,0.902-0.816,1.581c0,0.365,0.091,0.67,0.272,0.924
	c0.181,0.257,0.436,0.486,0.762,0.692c0.328,0.206,0.708,0.398,1.144,0.581c0.436,0.179,0.907,0.38,1.416,0.6l3.049,1.236
	c1.453,0.579,2.596,1.379,3.433,2.395c0.834,1.017,1.25,2.361,1.25,4.029c0,0.994-0.199,1.931-0.598,2.813
	c-0.399,0.885-0.98,1.657-1.743,2.322c-0.761,0.664-1.701,1.195-2.813,1.596C11.412,44.801,10.154,45,8.75,45
	c-1.55,0-3.093-0.284-4.629-0.852C2.585,43.58,1.21,42.727,0,41.589L3.05,37.922z"/>
<rect x="21.891" y="20.894" fill="#66564D" width="5.335" height="23.67"/>
<path fill="#66564D" d="M33,20.894h5.48l6.172,11.762l2.323,5.229h0.146c-0.123-1.258-0.263-2.662-0.418-4.212
	c-0.154-1.552-0.234-3.026-0.234-4.429v-8.353h5.084v23.671h-5.48L39.9,32.762l-2.321-5.154h-0.146
	c0.122,1.305,0.261,2.709,0.417,4.213c0.157,1.5,0.235,2.951,0.235,4.356v8.388h-5.082L33,20.894L33,20.894z"/>
</svg>
