<?xml version="1.0" encoding="utf-8"?>
<!-- Generator: Adobe Illustrator 16.0.0, SVG Export Plug-In . SVG Version: 6.00 Build 0)  -->
<!DOCTYPE svg PUBLIC "-//W3C//DTD SVG 1.1//EN" "http://www.w3.org/Graphics/SVG/1.1/DTD/svg11.dtd">
<svg version="1.1" id="doceMeses" xmlns="http://www.w3.org/2000/svg" xmlns:xlink="http://www.w3.org/1999/xlink" x="0px" y="0px"
	 width="173.793px" height="28.738px" viewBox="0 16.262 173.793 28.738" enable-background="new 0 16.262 173.793 28.738"
	 xml:space="preserve">
<path fill="#66564D" d="M0,39.286h6.019V23.28h-5.19v-3.969c1.511-0.29,2.792-0.639,3.836-1.048c1.047-0.404,2.065-0.9,3.053-1.481
	h4.71v22.503h5.19v5.189H0V39.286z"/>
<path fill="#66564D" d="M21.807,40.814c1.774-1.658,3.395-3.207,4.863-4.646c1.468-1.439,2.734-2.793,3.794-4.057
	c1.061-1.264,1.89-2.439,2.486-3.532c0.597-1.09,0.895-2.129,0.895-3.116c0-1.366-0.349-2.405-1.047-3.117
	c-0.696-0.713-1.657-1.07-2.878-1.07c-1.019,0-1.92,0.282-2.704,0.849c-0.784,0.567-1.526,1.231-2.225,1.987l-3.488-3.446
	c1.367-1.454,2.762-2.552,4.187-3.292c1.424-0.742,3.125-1.113,5.103-1.113c1.366,0,2.609,0.211,3.729,0.634
	c1.119,0.42,2.085,1.019,2.901,1.787c0.814,0.771,1.44,1.694,1.876,2.771c0.434,1.075,0.654,2.284,0.654,3.62
	c0,1.164-0.248,2.348-0.743,3.556c-0.493,1.205-1.155,2.411-1.983,3.618c-0.83,1.208-1.773,2.414-2.835,3.62
	c-1.063,1.207-2.159,2.393-3.292,3.557c0.696-0.088,1.474-0.17,2.333-0.242c0.856-0.07,1.62-0.108,2.289-0.108h5.582v5.405H21.807
	V40.814z"/>
<path fill="#66564D" d="M55.521,22.845h5.231l0.437,2.793h0.174c0.902-0.902,1.859-1.681,2.88-2.335
	c1.017-0.653,2.238-0.98,3.663-0.98c1.542,0,2.782,0.313,3.73,0.938c0.943,0.623,1.69,1.517,2.245,2.681
	c0.96-0.988,1.971-1.838,3.031-2.551c1.059-0.714,2.317-1.068,3.771-1.068c2.327,0,4.035,0.777,5.125,2.331
	c1.091,1.557,1.634,3.688,1.634,6.391v13.432H81.03V31.872c0-1.57-0.209-2.646-0.632-3.228s-1.098-0.873-2.03-0.873
	c-1.074,0-2.309,0.696-3.704,2.094v14.609h-6.412V31.872c0-1.57-0.211-2.646-0.632-3.228c-0.422-0.581-1.098-0.873-2.028-0.873
	c-1.105,0-2.327,0.696-3.664,2.094v14.609h-6.41v-21.63H55.521z"/>
<path fill="#66564D" d="M91.849,33.661c0-1.746,0.29-3.321,0.872-4.733c0.581-1.41,1.343-2.601,2.291-3.575
	c0.941-0.974,2.026-1.723,3.247-2.246c1.22-0.524,2.485-0.784,3.796-0.784c1.541,0,2.884,0.26,4.032,0.784
	c1.146,0.523,2.108,1.249,2.88,2.179c0.768,0.932,1.345,2.029,1.723,3.293c0.374,1.267,0.566,2.638,0.566,4.121
	c0,0.583-0.029,1.113-0.086,1.593c-0.061,0.479-0.118,0.851-0.179,1.11h-12.95c0.29,1.658,0.938,2.858,1.941,3.599
	c1.004,0.741,2.23,1.112,3.686,1.112c1.541,0,3.097-0.479,4.667-1.439l2.136,3.882c-1.104,0.755-2.332,1.351-3.684,1.787
	c-1.352,0.441-2.682,0.657-3.991,0.657c-1.543,0-2.98-0.256-4.318-0.763c-1.336-0.509-2.501-1.25-3.489-2.226
	c-0.99-0.974-1.76-2.16-2.312-3.554C92.122,37.061,91.849,35.466,91.849,33.661z"/>
<path fill="#FFFFFF" d="M105.807,31.436c0-1.249-0.279-2.269-0.831-3.052c-0.552-0.785-1.482-1.177-2.791-1.177
	c-1.018,0-1.911,0.34-2.682,1.021c-0.771,0.687-1.274,1.755-1.504,3.206L105.807,31.436L105.807,31.436z"/>
<path fill="#66564D" d="M116.881,37.978c0.99,0.758,1.935,1.323,2.835,1.702s1.817,0.564,2.748,0.564
	c0.96,0,1.658-0.158,2.093-0.479c0.438-0.318,0.654-0.77,0.654-1.352c0-0.349-0.121-0.66-0.371-0.937
	c-0.245-0.276-0.581-0.529-1.003-0.765c-0.422-0.233-0.896-0.442-1.416-0.633c-0.522-0.187-1.063-0.398-1.615-0.634
	c-0.668-0.259-1.336-0.566-2.005-0.914c-0.669-0.349-1.281-0.777-1.831-1.286c-0.555-0.51-1.006-1.105-1.354-1.788
	c-0.35-0.683-0.521-1.475-0.521-2.377c0-0.989,0.195-1.903,0.585-2.749c0.393-0.843,0.951-1.556,1.68-2.138
	c0.727-0.579,1.599-1.039,2.618-1.373c1.019-0.333,2.152-0.5,3.4-0.5c1.66,0,3.111,0.284,4.363,0.848
	c1.248,0.568,2.34,1.2,3.271,1.899l-2.882,3.837c-0.782-0.583-1.554-1.03-2.309-1.354c-0.756-0.319-1.513-0.478-2.266-0.478
	c-1.631,0-2.444,0.566-2.444,1.699c0,0.351,0.115,0.647,0.349,0.896c0.23,0.246,0.545,0.472,0.936,0.676
	c0.396,0.204,0.846,0.398,1.354,0.59c0.51,0.189,1.039,0.386,1.591,0.588c0.7,0.26,1.389,0.56,2.072,0.894
	c0.686,0.336,1.311,0.749,1.876,1.244c0.568,0.495,1.026,1.097,1.372,1.811c0.352,0.712,0.525,1.562,0.525,2.552
	c0,0.987-0.191,1.903-0.567,2.746c-0.38,0.844-0.945,1.579-1.7,2.201c-0.757,0.628-1.687,1.123-2.792,1.484
	c-1.106,0.362-2.384,0.546-3.839,0.546c-1.425,0-2.886-0.276-4.382-0.828c-1.498-0.554-2.797-1.28-3.902-2.18L116.881,37.978z"/>
<path fill="#66564D" d="M134.195,33.661c0-1.746,0.292-3.321,0.873-4.733c0.584-1.41,1.345-2.601,2.289-3.575
	c0.944-0.974,2.028-1.723,3.248-2.246c1.222-0.524,2.486-0.784,3.796-0.784c1.54,0,2.885,0.26,4.035,0.784
	c1.146,0.523,2.106,1.249,2.876,2.179c0.771,0.932,1.346,2.029,1.725,3.293c0.376,1.267,0.567,2.638,0.567,4.121
	c0,0.583-0.028,1.113-0.091,1.593c-0.059,0.479-0.114,0.851-0.172,1.11h-12.954c0.293,1.658,0.939,2.858,1.94,3.599
	c1.005,0.741,2.232,1.112,3.687,1.112c1.545,0,3.099-0.479,4.669-1.439l2.134,3.882c-1.102,0.755-2.331,1.351-3.685,1.787
	c-1.352,0.438-2.682,0.655-3.988,0.655c-1.544,0-2.979-0.256-4.319-0.763c-1.339-0.509-2.503-1.25-3.489-2.226
	c-0.99-0.974-1.761-2.16-2.312-3.555C134.472,37.061,134.195,35.466,134.195,33.661z"/>
<path fill="#FFFFFF" d="M148.151,31.436c0-1.249-0.279-2.269-0.829-3.052c-0.555-0.785-1.484-1.177-2.792-1.177
	c-1.016,0-1.913,0.34-2.682,1.021c-0.77,0.687-1.274,1.755-1.503,3.206L148.151,31.436L148.151,31.436z"/>
<path fill="#66564D" d="M159.229,37.978c0.988,0.758,1.935,1.323,2.835,1.702c0.902,0.379,1.815,0.564,2.747,0.564
	c0.96,0,1.659-0.158,2.095-0.479c0.438-0.318,0.653-0.77,0.653-1.352c0-0.349-0.122-0.66-0.371-0.937
	c-0.248-0.276-0.582-0.529-1.003-0.765c-0.422-0.233-0.896-0.442-1.417-0.633c-0.524-0.187-1.064-0.398-1.614-0.634
	c-0.669-0.259-1.338-0.566-2.008-0.914c-0.668-0.349-1.277-0.777-1.831-1.286c-0.552-0.51-1.003-1.105-1.353-1.788
	c-0.347-0.683-0.521-1.475-0.521-2.377c0-0.989,0.195-1.903,0.588-2.749c0.393-0.843,0.953-1.556,1.68-2.138
	c0.726-0.579,1.598-1.039,2.617-1.373c1.02-0.333,2.151-0.5,3.401-0.5c1.658,0,3.11,0.284,4.36,0.848
	c1.25,0.568,2.342,1.2,3.272,1.899l-2.878,3.837c-0.785-0.583-1.556-1.03-2.312-1.354c-0.756-0.319-1.513-0.478-2.267-0.478
	c-1.629,0-2.442,0.566-2.442,1.699c0,0.351,0.115,0.647,0.348,0.896c0.233,0.246,0.545,0.472,0.937,0.676
	c0.395,0.204,0.846,0.398,1.354,0.59c0.509,0.189,1.039,0.386,1.591,0.588c0.696,0.26,1.387,0.56,2.073,0.894
	c0.682,0.336,1.308,0.749,1.874,1.244c0.565,0.495,1.025,1.097,1.372,1.811c0.35,0.712,0.523,1.562,0.523,2.552
	c0,0.987-0.188,1.903-0.565,2.746c-0.38,0.844-0.946,1.579-1.702,2.201c-0.757,0.628-1.687,1.123-2.791,1.484
	c-1.106,0.362-2.385,0.546-3.838,0.546c-1.425,0-2.888-0.276-4.382-0.828c-1.5-0.554-2.802-1.28-3.904-2.18L159.229,37.978z"/>
</svg>
