<?xml version="1.0" encoding="utf-8"?>
<!-- Generator: Adobe Illustrator 16.0.0, SVG Export Plug-In . SVG Version: 6.00 Build 0)  -->
<!DOCTYPE svg PUBLIC "-//W3C//DTD SVG 1.1//EN" "http://www.w3.org/Graphics/SVG/1.1/DTD/svg11.dtd">
<svg version="1.1" id="antifraude" xmlns="http://www.w3.org/2000/svg" xmlns:xlink="http://www.w3.org/1999/xlink" x="0px" y="0px"
	 width="39.686px" height="39.687px" viewBox="0 5.313 39.686 39.687" enable-background="new 0 5.313 39.686 39.687"
	 xml:space="preserve">
<path fill="#66564D" d="M19.842,45C8.901,45,0,36.098,0,25.154c0-10.94,8.9-19.841,19.842-19.841
	c10.942,0,19.844,8.901,19.844,19.841C39.686,36.098,30.784,45,19.842,45z"/>
<path fill="#FFFFFF" d="M19.842,7.947c-9.488,0-17.208,7.72-17.208,17.208c0,9.489,7.72,17.211,17.208,17.211
	c9.49,0,17.209-7.722,17.209-17.211C37.051,15.667,29.332,7.947,19.842,7.947z"/>
<path fill="#66564D" d="M5.11,13.08c-2.256,2.963-3.636,6.619-3.763,10.6h36.188c0.274,0,0.541-0.029,0.799-0.082
	c-0.146-3.95-1.519-7.576-3.76-10.518H5.11z"/>
<path fill="#FFFFFF" d="M10.676,19.112c0-1.15,0.932-2.081,2.081-2.081c1.15,0,2.081,0.931,2.081,2.081
	c0,1.148-0.931,2.081-2.081,2.081C11.608,21.193,10.676,20.26,10.676,19.112"/>
<path fill="#FFFFFF" d="M23.574,19.112c0-1.15,0.932-2.081,2.08-2.081s2.08,0.931,2.08,2.081c0,1.148-0.932,2.081-2.08,2.081
	S23.574,20.26,23.574,19.112"/>
<path fill="none" stroke="#66564D" stroke-width="1.439" d="M23.757,34.391c-0.36-1.928-1.977-3.383-3.915-3.383
	c-1.894,0-3.48,1.391-3.887,3.252"/>
</svg>
