<?xml version="1.0" encoding="utf-8"?>
<!-- Generator: Adobe Illustrator 16.0.0, SVG Export Plug-In . SVG Version: 6.00 Build 0)  -->
<!DOCTYPE svg PUBLIC "-//W3C//DTD SVG 1.1//EN" "http://www.w3.org/Graphics/SVG/1.1/DTD/svg11.dtd">
<svg version="1.1" id="ustedElige" xmlns="http://www.w3.org/2000/svg" xmlns:xlink="http://www.w3.org/1999/xlink" x="0px" y="0px"
	 width="49.762px" height="39.918px" viewBox="0 5.082 49.762 39.918" enable-background="new 0 5.082 49.762 39.918"
	 xml:space="preserve">
<path fill="#66564D" d="M42.027,23.963h-9.195c-4.264,0-7.729,3.467-7.729,7.727v1.213c0,4.263,3.467,7.729,7.729,7.729h6.536
	c0.073,0,0.145,0.021,0.2,0.066l5.455,4.069l-0.73-4.178c-0.028-0.162,0.064-0.322,0.224-0.375c3.137-1.066,5.245-4.004,5.245-7.313
	v-1.213C49.76,27.43,46.292,23.963,42.027,23.963"/>
<path fill="#FFFFFF" d="M31.068,34.455c-1.03,0-1.867-0.838-1.867-1.867c0-1.027,0.837-1.865,1.867-1.865
	c1.027,0,1.865,0.838,1.865,1.865C32.933,33.617,32.095,34.455,31.068,34.455"/>
<path fill="#FFFFFF" d="M37.43,34.455c-1.028,0-1.866-0.838-1.866-1.867c0-1.027,0.838-1.865,1.866-1.865
	c1.027,0,1.865,0.838,1.865,1.865C39.297,33.617,38.459,34.455,37.43,34.455"/>
<path fill="#FFFFFF" d="M43.793,34.455c-1.026,0-1.864-0.838-1.864-1.867c0-1.027,0.838-1.865,1.864-1.865
	c1.029,0,1.867,0.838,1.867,1.865C45.66,33.617,44.822,34.455,43.793,34.455"/>
<path fill="#66564D" d="M23.965,30.344h-6.771c-0.421,0-0.837,0.139-1.169,0.389l-5.354,3.994l0.481-2.754
	c0.166-0.951-0.378-1.869-1.296-2.184c-4.169-1.416-6.97-5.318-6.97-9.713v-1.84c0-5.66,4.609-10.266,10.273-10.266h13.938
	c5.666,0,10.274,4.606,10.274,10.266v1.84c0,0.916-0.123,1.803-0.35,2.648h2.969c0.176-0.855,0.271-1.742,0.271-2.648v-1.84
	c0-7.253-5.906-13.154-13.164-13.154H13.162C5.904,5.082,0,10.983,0,18.236v1.84c0,5.363,3.254,10.156,8.174,12.166l-1.602,9.146
	l10.934-8.158h6.365c-0.004-0.107-0.009-0.217-0.009-0.326v-1.215C23.862,31.232,23.898,30.781,23.965,30.344"/>
</svg>
