<?xml version="1.0" encoding="utf-8"?>
<!-- Generator: Adobe Illustrator 16.0.0, SVG Export Plug-In . SVG Version: 6.00 Build 0)  -->
<!DOCTYPE svg PUBLIC "-//W3C//DTD SVG 1.1//EN" "http://www.w3.org/Graphics/SVG/1.1/DTD/svg11.dtd">
<svg version="1.1" id="efectivo" xmlns="http://www.w3.org/2000/svg" xmlns:xlink="http://www.w3.org/1999/xlink" x="0px" y="0px"
	 width="47.576px" height="33.803px" viewBox="0 11.197 47.576 33.803" enable-background="new 0 11.197 47.576 33.803"
	 xml:space="preserve">
<path fill="#66564D" d="M45.03,11.197H2.543C1.143,11.197,0,12.504,0,14.104v0.518c0,1.6,1.145,2.907,2.543,2.907h6.816
	L4.291,35.973c-0.702,2.558-0.455,5.033,0.68,6.799C5.893,44.207,7.302,45,8.935,45h29.497c1.634,0,3.043-0.793,3.967-2.229
	c1.135-1.767,1.381-4.242,0.678-6.799L38.01,17.529h7.021c1.399,0,2.545-1.308,2.545-2.907v-0.518
	C47.575,12.504,46.429,11.197,45.03,11.197"/>
<path fill="#FFFFFF" d="M39.987,40.748c-0.354,0.553-0.877,0.834-1.555,0.834h-6.062l-4.065-26.494h5.977
	c0,0.171,0.016,0.342,0.063,0.513l5.879,21.395C40.632,38.48,40.542,39.883,39.987,40.748"/>
<path fill="#FFFFFF" d="M7.381,40.748c-0.557-0.865-0.645-2.268-0.234-3.752l5.879-21.395c0.047-0.171,0.063-0.342,0.061-0.513
	h9.975l1.946,26.494H8.935C8.26,41.582,7.736,41.301,7.381,40.748"/>
<polygon fill="#66564D" points="16.553,24.924 11.969,31.445 19.941,31.445 "/>
</svg>
