<?xml version="1.0" encoding="utf-8"?>
<!-- Generator: Adobe Illustrator 16.0.0, SVG Export Plug-In . SVG Version: 6.00 Build 0)  -->
<!DOCTYPE svg PUBLIC "-//W3C//DTD SVG 1.1//EN" "http://www.w3.org/Graphics/SVG/1.1/DTD/svg11.dtd">
<svg version="1.1" id="anticipo" xmlns="http://www.w3.org/2000/svg" xmlns:xlink="http://www.w3.org/1999/xlink" x="0px" y="0px"
	 width="36.602px" height="39.687px" viewBox="0 5.313 36.602 39.687" enable-background="new 0 5.313 36.602 39.687"
	 xml:space="preserve">
<path fill="#66564D" d="M34.765,27.009c-1.179,0-2.31-0.692-3.25-1.538c-0.992-0.894-1.775-1.957-2.185-2.563l0.607-0.817
	l3.055-4.109c0.168-0.227,0.203-0.525,0.092-0.786c-0.108-0.261-0.35-0.441-0.631-0.477c-0.016-0.002-0.268-0.034-0.668-0.052
	c-0.168-0.009-0.363-0.014-0.576-0.014c-0.082,0-0.166,0.001-0.25,0.002c-1.563,0.03-3.475,0.354-4.653,1.577
	c-0.017,0.018-0.031,0.034-0.048,0.05c-0.149,0.161-0.286,0.335-0.407,0.527c-0.162,0.253-0.3,0.506-0.41,0.758
	c-1.371-0.774-4.146-2.026-5.496-2.411c-0.742-0.212-1.51-0.375-2.299-0.487l3.344,8.683l-7.065,3.957l3.675,7.631L8.555,28.74
	l7.912-4.521l-3.71-7.58c-0.964,0.125-1.896,0.327-2.793,0.598c-2.711,0.821-5.061,2.275-6.797,4.149
	c-0.234,0.254-0.672,0.785-0.672,0.786c0,0-1.064,1.553-1.343,2.114C0.601,25.402,0,27.42,0,29.141c0,2.637,0.962,5.084,2.606,7.111
	l-0.515,2.236l-0.644,2.809c-0.276,1.566,0.762,3.055,2.69,3.337l2.605,0.335C8.187,45.08,9.58,44.355,10,43.008
	c0.034-0.109,0.063-0.224,0.083-0.34l0.328-1.493c1.474,0.403,3.047,0.622,4.681,0.622c1.508,0,2.963-0.188,4.335-0.531l0.31,1.402
	c0.025,0.146,0.063,0.29,0.111,0.428c0.457,1.31,1.86,2.07,3.227,1.873l2.604-0.335c2.026-0.331,2.969-1.771,2.69-3.337
	l-0.576-2.515l-0.248-1.077c0.9-0.764,1.775-1.566,2.824-2.219c1.021-0.633,2.203-1.123,3.734-1.291
	c1.215-0.182,1.913-0.689,2.161-2.159l0.33-3.351C36.682,27.32,35.859,27.009,34.765,27.009"/>
<path fill="#66564D" d="M15.44,14.893c0.188,0.063,0.396,0.05,0.575-0.037l2.628-1.281c0.176-0.086,0.315-0.244,0.381-0.432
	c0.063-0.188,0.053-0.398-0.035-0.577L18.46,11.48l6.41-3.131c0.252-0.123,0.357-0.431,0.234-0.687L24.1,5.6
	c-0.062-0.122-0.164-0.214-0.295-0.258c-0.13-0.045-0.269-0.037-0.394,0.022l-6.408,3.13l-0.529-1.087
	c-0.088-0.178-0.246-0.316-0.433-0.381c-0.188-0.064-0.397-0.052-0.577,0.036L12.84,8.346c-0.179,0.088-0.317,0.245-0.382,0.432
	c-0.064,0.188-0.053,0.398,0.035,0.577l2.515,5.154C15.094,14.688,15.252,14.827,15.44,14.893"/>
</svg>
