<svg id="extractoPDF" xmlns="http://www.w3.org/2000/svg" width="141px" height="72px" viewBox="-0.5 -0.5 141 72">
<path fill="#FFFFFF" stroke="#D1D1D1" d="M2,0h136c1.104,0,2,0.896,2,2v67
	c0,1.104-0.896,2-2,2H2c-1.104,0-2-0.896-2-2V2C0,0.896,0.896,0,2,0z"/>
<path fill="#FF7E21" d="M43.908,14.421c0.07,0.514,0.312,0.814,1.153,0.814
	c0.717,0,1.465-0.11,2.027-0.315v0.735c-0.414,0.229-1.333,0.38-1.996,0.38c-1.754,0-2.331-0.444-2.331-2.215
	c0-1.546,0.499-2.127,2.307-2.127c1.497,0,2.159,0.51,2.174,1.371C47.244,14.128,46.527,14.389,43.908,14.421
	C43.908,14.421,46.527,14.389,43.908,14.421L43.908,14.421L43.908,14.421z M31.867,10h1.091v1.066h-1.091l0,0V10L31.867,10z
	 M18.494,15.211c0.799,0,1.032-0.119,1.032-0.521v-0.656l-0.978,0.047c-0.982,0.056-1.208,0.199-1.208,0.53
	C17.34,15.109,17.488,15.211,18.494,15.211C18.494,15.211,17.488,15.211,18.494,15.211L18.494,15.211L18.494,15.211z M31.867,11.788
	h1.091v4.175h-1.091l0,0V11.788L31.867,11.788z M48.07,13.132c0-1.131,0.811-1.456,1.545-1.456c0.342,0,1.243,0.047,1.43,0.087
	v0.795h-1.158c-0.592,0-0.74,0.055-0.74,0.637v2.768H48.07V13.132L48.07,13.132L48.07,13.132L48.07,13.132z M13.311,15.211
	c-1.11,0-1.278-0.189-1.278-1.456c0-1.079,0.347-1.229,1.231-1.229c0.891,0,1.239,0.15,1.239,1.229
	C14.503,15.022,14.308,15.211,13.311,15.211L13.311,15.211L13.311,15.211L13.311,15.211z M42.139,12.622h-1.801v2.037
	c0,0.379,0.273,0.529,0.718,0.529c0.499,0,0.849-0.047,1.106-0.11v0.751c-0.429,0.119-0.874,0.19-1.239,0.19
	c-1.192,0-1.645-0.506-1.645-1.265v-4.279h1.06v1.345h1.801V12.622L42.139,12.622L42.139,12.622L42.139,12.622z M35.008,15.963
	v-2.625c0-0.637,0.218-0.811,1.13-0.811c0.943,0,1.146,0.174,1.146,0.811v2.625h1.083v-2.665c0-1.19-0.857-1.582-2.035-1.582h-0.366
	c-1.184,0-2.034,0.391-2.034,1.582v2.665H35.008L35.008,15.963L35.008,15.963L35.008,15.963z M22.554,15.963v-2.625
	c0-0.637,0.219-0.811,1.134-0.811c0.935,0,1.146,0.174,1.146,0.811v2.625h1.076v-2.665c0-1.19-0.85-1.582-2.031-1.582h-0.362
	c-1.185,0-2.038,0.391-2.038,1.582v2.665H22.554L22.554,15.963L22.554,15.963L22.554,15.963z M27.955,14.27v1.693h-1.067V10h1.075
	v3.33h0.203c0.32,0,0.429-0.056,0.651-0.285l1.263-1.257h1.243l-1.917,1.985l2.065,2.191h-1.383l-1.317-1.432
	c-0.222-0.237-0.308-0.262-0.627-0.262H27.955L27.955,14.27L27.955,14.27L27.955,14.27z M19.526,13.306v-0.198
	c0-0.479-0.312-0.582-1.134-0.582c-0.774,0-1.463,0.167-1.82,0.289v-0.779c0.62-0.241,1.325-0.336,1.859-0.336
	c1.181,0,2.178,0.189,2.178,1.542v1.273c0,1.493-1.2,1.502-2.178,1.502c-1.473,0-2.192-0.419-2.192-1.265
	C16.239,13.614,16.958,13.393,19.526,13.306C19.526,13.306,16.958,13.393,19.526,13.306L19.526,13.306L19.526,13.306z
	 M13.327,16.019c1.533,0,2.291-0.467,2.291-2.135c0-1.506-0.565-2.183-2.085-2.183c-0.667,0-1.122,0.056-1.455,0.336V10H11v3.986
	C11,15.512,11.658,16.019,13.327,16.019C13.327,16.019,11.658,16.019,13.327,16.019L13.327,16.019L13.327,16.019z M49.961,14.901
	h1.083v1.062h-1.083l0,0V14.901L49.961,14.901z M44.477,13.606c1.411-0.063,1.638-0.182,1.638-0.515c0-0.391-0.258-0.581-1.06-0.581
	c-1.029,0-1.161,0.195-1.161,1.127L44.477,13.606L44.477,13.606z"/>
<rect x="10.219" y="25" fill="#EDEDED" width="114.453" height="5"></rect>
<rect x="10.219" y="56" fill="#EDEDED" width="114.453" height="5"></rect>
<rect x="10.219" y="36" fill="#EDEDED" width="49.051" height="3"></rect>
<rect x="10.219" y="41" fill="#EDEDED" width="49.051" height="3"></rect>
<rect x="10.219" y="46" fill="#EDEDED" width="49.051" height="3"></rect>
</svg>
