<?xml version="1.0" encoding="utf-8"?>
<!-- Generator: Adobe Illustrator 16.0.0, SVG Export Plug-In . SVG Version: 6.00 Build 0)  -->
<!DOCTYPE svg PUBLIC "-//W3C//DTD SVG 1.1//EN" "http://www.w3.org/Graphics/SVG/1.1/DTD/svg11.dtd">
<svg version="1.1" id="firmaDepositos" xmlns="http://www.w3.org/2000/svg" xmlns:xlink="http://www.w3.org/1999/xlink" x="0px" y="0px"
	 width="200px" height="51px" viewBox="-92 -17.5 200 51" enable-background="new -92 -17.5 200 51" xml:space="preserve">
<path fill="#5D5D5D" d="M73.466,5.85c0.894,0.382,1.845,0.702,2.782,0.946c0.916,0.244,1.945,0.445,2.674,0.445
	c0.085,0,0.135-0.007,0.153-0.005c-0.049,0.01-0.006,0-0.122,0.05C78.896,7.313,78.846,7.35,78.8,7.396
	c-0.11,0.084-0.207,0.209-0.261,0.339c-0.063,0.127-0.115,0.301-0.105,0.459c0.015,0.172,0.011,0.181,0.038,0.277
	c0.084,0.194,0.053,0.135,0.088,0.188c0.009,0.018-0.012-0.025-0.079-0.079l-0.043-0.04c0.021,0.015-0.111-0.091,0.039,0.022
	L78.318,8.46l-0.315-0.206c-0.21-0.131-0.424-0.287-0.629-0.398c-0.837-0.437-1.594-0.891-2.518-1.331
	c-3.537-1.805-7.218-3.395-10.9-4.948c-7.401-3.043-14.957-5.747-22.645-8.016c-1.907-0.618-3.851-1.105-5.782-1.643
	c-1.934-0.527-3.861-1.079-5.819-1.511l-5.854-1.376l-5.905-1.135c-0.986-0.182-1.967-0.396-2.957-0.55l-2.974-0.443
	c-1.984-0.282-3.963-0.619-5.953-0.857c-3.991-0.369-7.971-0.928-11.983-1.007c-2.003-0.078-4.005-0.211-6.008-0.243l-6.013,0.07
	c-1.001,0.016-2.007,0.012-3.003,0.045l-3.013,0.148c-2.01,0.093-4.006,0.239-6.01,0.368c-8.004,0.622-15.985,1.59-23.848,3.134
	C-61.642-9.838-69.43-7.656-76.478-4.07c-3.472,1.832-6.802,4.046-9.202,6.991c-2.424,2.888-3.636,6.638-2.96,10.211
	c0.592,3.703,2.842,6.821,5.923,9.025c3.067,2.222,6.716,3.714,10.46,4.829c7.541,2.198,15.547,2.922,23.495,3.069
	c3.979,0.062,7.97-0.054,11.995-0.18l12.05-0.413l24.103-0.967c8.034-0.336,16.066-0.729,24.092-1.192
	c8.027-0.464,16.056-0.915,24.067-1.554c4.003-0.331,8.009-0.677,11.987-1.145c0.993-0.118,1.985-0.247,2.966-0.4
	c0.49-0.078,0.978-0.162,1.449-0.265c0.235-0.051,0.47-0.107,0.675-0.173c0.099-0.032,0.204-0.072,0.241-0.095
	c0.006-0.003,0.027-0.014,0.002,0.001c-0.002,0.005-0.029,0.017-0.091,0.114c-0.045,0.026-0.09,0.356-0.02,0.437l-0.039-0.085
	c-0.077-0.152-0.498-0.465-0.893-0.699c-0.405-0.243-0.839-0.471-1.281-0.683c-0.884-0.428-1.8-0.817-2.722-1.191
	c-3.706-1.469-7.518-2.457-11.356-3.59c-3.84-1.086-7.739-1.477-11.609-2.477h-0.005l0.336-2.266c2.864,0.633,5.74,1.061,8.61,1.658
	l8.625,1.638c2.873,0.577,5.753,1.086,8.636,1.607l8.64,1.604c2.875,0.564,5.764,1.049,8.648,1.563l8.658,1.518
	c1.448,0.223,2.89,0.504,4.334,0.761l4.334,0.785l4.347,0.735c1.449,0.248,2.901,0.485,4.358,0.706
	c0.553,0.084,0.934,0.601,0.85,1.153s-0.6,0.934-1.153,0.85c-0.033-0.005-0.066-0.012-0.099-0.021l-0.07-0.018
	c-1.414-0.363-2.833-0.71-4.254-1.046l-4.266-1.016l-4.279-0.965c-1.429-0.316-2.851-0.659-4.288-0.943l-8.629-1.663
	c-2.877-0.549-5.751-1.117-8.638-1.615l-8.655-1.519c-2.886-0.506-5.774-0.991-8.67-1.441l-4.34-0.693
	c-1.447-0.226-2.891-0.475-4.342-0.682c-2.901-0.414-5.796-0.861-8.703-1.24c-0.553-0.072-0.942-0.304-0.871-0.856
	c0.072-0.553,0.579-0.595,1.132-0.595h0.007h0.068h0.005c4.05,1,7.892,1.74,11.742,2.988c3.841,1.252,7.656,2.436,11.395,4.012
	c0.934,0.4,1.862,0.749,2.778,1.216c0.459,0.231,0.914,0.446,1.365,0.729c0.227,0.139,0.448,0.278,0.675,0.455
	c0.121,0.109,0.208,0.147,0.356,0.312c0.14,0.156,0.3,0.376,0.321,0.46l0.04,0.083c0.101,0.133,0.047,0.54-0.034,0.613
	c-0.092,0.153-0.166,0.206-0.22,0.247c-0.072,0.059-0.108,0.073-0.157,0.102c-0.184,0.099-0.317,0.14-0.457,0.187
	c-0.273,0.086-0.529,0.145-0.786,0.2c-0.511,0.109-1.015,0.193-1.519,0.271c-1.006,0.153-2.009,0.28-3.012,0.396
	c-4.012,0.456-8.021,0.787-12.034,1.104c-8.023,0.636-16.046,1.238-24.074,1.77l-24.084,1.563
	c-8.029,0.509-16.059,0.996-24.093,1.438l-12.055,0.635c-4.01,0.189-8.06,0.42-12.124,0.36c-8.106-0.104-16.287-0.771-24.23-3.026
	c-3.957-1.126-7.873-2.743-11.298-5.302c-1.702-1.277-3.271-2.815-4.467-4.655c-0.591-0.919-1.129-1.887-1.504-2.921
	c-0.213-0.499-0.374-1.047-0.52-1.604c-0.178-0.577-0.226-1.035-0.324-1.538c-0.355-2.215-0.229-4.451,0.472-6.557
	c0.687-2.096,1.854-3.977,3.251-5.581c2.814-3.229,6.418-5.429,10.083-7.231c7.423-3.509,15.362-5.408,23.293-6.85
	c7.942-1.469,15.972-2.297,24.005-2.878c2.009-0.136,4.023-0.288,6.03-0.387l3.012-0.156c1.013-0.037,2.018-0.036,3.027-0.055
	l6.05-0.088c2.016,0.026,4.03,0.154,6.044,0.227c2.016,0.079,4.031,0.152,6.036,0.375l6.025,0.54
	c2.004,0.215,3.997,0.529,5.997,0.789l2.997,0.409c0.998,0.144,1.986,0.347,2.979,0.517l5.955,1.071l5.914,1.278
	c1.979,0.395,3.929,0.91,5.886,1.4c1.954,0.501,3.922,0.954,5.854,1.536c7.787,2.127,15.452,4.694,22.988,7.615
	c3.758,1.495,7.499,3.02,11.165,4.796c0.902,0.405,1.891,0.955,2.836,1.447c0.238,0.126,0.434,0.264,0.653,0.396l0.32,0.199
	l0.159,0.1c0.201,0.152,0.112,0.091,0.182,0.146l0.098,0.085c0.124,0.108,0.272,0.255,0.434,0.471
	c0.095,0.162,0.159,0.195,0.264,0.517c0.039,0.157,0.077,0.225,0.077,0.459c-0.004,0.219-0.053,0.46-0.142,0.642
	c-0.093,0.181-0.228,0.355-0.376,0.489c-0.099,0.078-0.204,0.146-0.314,0.207c-0.225,0.116-0.311,0.123-0.477,0.177
	c-0.229,0.051-0.428,0.074-0.595,0.084c-1.284,0.039-2.249,0.011-3.31-0.092C74.699,9.567,73.686,9.5,72.626,9.5h-0.01
	c-0.97,0-1.685-1.08-1.598-2.05c0.087-0.969,0.943-1.753,1.913-1.666C73.118,5.801,73.302,5.781,73.466,5.85z"/>
<path fill="#5D5D5D" d="M-70.852-0.952c-0.135,0.537-0.223,1.116-0.272,1.682c-0.064,0.571-0.073,1.142-0.078,1.714
	c0.019,0.568,0.022,1.143,0.102,1.703c0.07,0.562,0.137,1.128,0.288,1.666c0.134,0.544,0.292,1.08,0.513,1.575
	c0.22,0.494,0.476,0.973,0.803,1.345l0.24,0.284l0.277,0.213l0.136,0.109l0.034,0.028c-0.075-0.039,0.007,0.004,0.003,0.001
	l0.097,0.051c0.163,0.097,0.199,0.076,0.232,0.098c0.012-0.008,0.02-0.006,0.03,0.003c-0.021-0.016-0.033,0.007-0.053,0.011
	c-0.053,0.02-0.043,0.054-0.03-0.007c0.036-0.094,0.061-0.332,0.036-0.568c-0.09-0.983-0.496-2.07-0.994-3.046
	c-0.519-0.98-1.12-1.927-1.847-2.762c-1.421-1.688-3.259-3.005-5.229-3.604l0,0l-0.424-0.296c-0.597-0.417-0.743-1.239-0.326-1.835
	c0.301-0.431,0.815-0.626,1.302-0.544c2.357,0.401,4.707,0.566,7.065,0.682l3.544,0.133c0.594,0.025,1.186,0.053,1.793,0.1
	c0.324,0.031,0.572,0.037,1.007,0.124c0.092,0.027,0.11,0.022,0.262,0.083c0.191,0.084,0.546,0.278,0.632,0.462
	c0.007,0.005,0.213,0.255,0.213,0.15v0.007l-0.157,0.014l-0.075,0.027c0.025,0.118,0.002,0.365,0,0.396l-0.004,0.457
	c0.034,1.169,0.07,2.312,0.221,3.445c0.147,1.129,0.357,2.242,0.676,3.294c0.314,1.049,0.75,2.049,1.363,2.806
	c0.606,0.766,1.343,1.214,2.145,1.307c0.767,0.089,1.316,0.782,1.228,1.549c-0.089,0.768-0.782,1.317-1.549,1.229
	c-0.069-0.008-0.138-0.021-0.203-0.038l-0.072-0.021c-1.514-0.416-2.772-1.485-3.493-2.657c-0.733-1.182-1.15-2.413-1.446-3.631
	c-0.287-1.222-0.442-2.442-0.523-3.654c-0.083-1.209-0.11-2.421-0.11-3.604V-0.9c0-0.117,0.007-0.016,0.017-0.044l-0.009-0.027
	L-63.5-0.986v-0.007c0-0.11,0.05,0.136,0.052,0.139c0.055,0.164,0.222,0.337,0.383,0.4c0.083,0.036,0.03,0.016,0.052,0.021
	c-0.141-0.037-0.481-0.069-0.743-0.094c-0.566-0.049-1.148-0.083-1.73-0.114c-1.165-0.064-2.337-0.106-3.511-0.116
	c-2.347-0.013-4.703,0.066-7.051,0.406l0.552-2.676l0,0c1.166,0.622,2.229,1.369,3.161,2.229c0.931,0.863,1.738,1.821,2.45,2.83
	c0.705,1.016,1.318,2.084,1.804,3.215c0.468,1.142,0.905,2.289,0.97,3.647c0.006,0.344,0.003,0.707-0.182,1.156
	c-0.085,0.213-0.27,0.487-0.574,0.655c-0.143,0.082-0.31,0.111-0.468,0.141c-0.136,0.001-0.274-0.01-0.408-0.027
	c-0.246-0.064-0.492-0.168-0.579-0.228l-0.097-0.052l-0.092-0.054l-0.052-0.04l-0.208-0.164l-0.409-0.334l-0.324-0.387
	c-0.434-0.516-0.723-1.092-0.97-1.665c-0.247-0.575-0.458-1.154-0.618-1.741c-0.165-0.587-0.332-1.17-0.456-1.761
	c-0.126-0.591-0.271-1.178-0.376-1.771l-0.711-3.608l-0.008-0.041c-0.153-0.775,0.352-1.528,1.127-1.681
	c0.775-0.153,1.528,0.352,1.681,1.127C-70.794-1.366-70.803-1.148-70.852-0.952z"/>
<path fill="#5D5D5D" d="M-49.562,5.943c0,0,0.084-0.018,0.211-0.044c0.143-0.022,0.334-0.075,0.508-0.137
	c0.178-0.053,0.337-0.114,0.446-0.167c0.095-0.054,0.182-0.082,0.182-0.082l0.509-0.163c0.561-0.18,1.161,0.129,1.341,0.69
	c0.1,0.311,0.047,0.638-0.114,0.895c0,0-0.11,0.174-0.309,0.423c-0.206,0.229-0.503,0.501-0.822,0.716
	c-0.325,0.198-0.657,0.358-0.919,0.457c-0.123,0.05-0.25,0.082-0.351,0.108c-0.075,0.02-0.117,0.03-0.117,0.03
	c-0.746,0.188-1.502-0.265-1.69-1.011c-0.188-0.746,0.265-1.502,1.011-1.69c0.017-0.004,0.034-0.008,0.051-0.012L-49.562,5.943z"/>
<path fill="#5D5D5D" d="M-35.626-6.63c1.364,0.341,2.764,0.634,4.142,0.861c0.688,0.115,1.379,0.21,2.042,0.246
	c0.328,0.017,0.654,0.016,0.919-0.02c0.119-0.018,0.25-0.049,0.26-0.064c0.014-0.003,0.012-0.003-0.009,0.006l-0.054,0.051
	c-0.015,0.015-0.026,0.033-0.035,0.052l-0.006,0.014c0.015-0.035-0.144,0.344-0.075,0.179l0.002-0.008l0.01-0.033l0.038-0.129
	c-0.001-0.003,0.031-0.084,0.001-0.023c-0.02,0.04-0.033,0.087-0.037,0.135c-0.013,0.095,0.029,0.204,0.062,0.252
	c-0.013,0.042,0.066,0.085,0.047,0.079c-0.005-0.005-0.083-0.035-0.169-0.066c-0.207-0.039-0.458-0.051-0.705-0.004
	c-0.5,0.083-0.919,0.372-1.192,0.773c-0.266,0.411-0.438,0.948-0.431,1.562c-0.002,0.052-0.016,0.199-0.011,0.172l0.018,0.269
	l0.035,0.538c0.028,0.354,0.037,0.724,0.08,1.066c0.126,0.662,0.229,1.321,0.341,1.992l0.497,2.042
	c0.188,0.676,0.42,1.342,0.632,2.013c0.208,0.674,0.515,1.31,0.778,1.962c0.139,0.324,0.266,0.652,0.415,0.971l0.497,0.929
	c0.352,0.604,0.625,1.261,1.039,1.821c0.405,0.564,0.782,1.153,1.204,1.692c0.464,0.503,0.918,1.008,1.389,1.486
	c0.444,0.451,0.438,1.177-0.014,1.621c-0.363,0.356-0.902,0.713-1.331,0.492L-25.42,16.5h-0.001c-0.767-1-1.609-1.553-2.44-2.154
	c-0.847-0.578-1.717-1.256-2.597-1.778c-0.441-0.258-0.887-0.586-1.354-0.773l-1.383-0.647c-0.471-0.196-0.895-0.436-1.39-0.638
	l-0.39-0.19c-0.075-0.038-0.124-0.061-0.218-0.115l-0.128-0.076c-0.055-0.033-0.164-0.114-0.236-0.179l-0.029-0.026
	c-0.04-0.041-0.1-0.111-0.143-0.182c-0.094-0.144-0.156-0.333-0.167-0.504c-0.012-0.162,0.001-0.308,0.117-0.534
	c0.108-0.212,0.323-0.394,0.507-0.47c0.122-0.051,0.106-0.038,0.126-0.045l0.047-0.011l0.096-0.019
	c0.057-0.01,0.145-0.02,0.177-0.02c0.104,0,0.227,0.002,0.293,0.01l0.434,0.045c1.056,0.14,2.048,0.288,3.065,0.397
	c1.012,0.113,2.024,0.194,3.038,0.265c2.027,0.116,4.062,0.13,6.089-0.039c0.321-0.028,0.604,0.21,0.631,0.531
	c0.026,0.3-0.184,0.566-0.472,0.623c-2.074,0.395-4.188,0.571-6.296,0.567c-1.055,0.009-2.108-0.035-3.156-0.112
	c-1.044-0.07-2.105,0.002-3.104-0.09l-0.339,0.164h-0.095c0,0,0.056-0.188,0.081-0.194l0.048-0.104l0.127-0.092
	c0.171-0.065,0.375-0.261,0.47-0.462c0.098-0.218,0.105-0.364,0.107-0.511C-33.909,8.981-33.964,8.8-34.05,8.67
	c-0.04-0.063-0.096-0.129-0.131-0.162l-0.01-0.014c-0.019-0.025-0.079-0.064-0.079-0.064l0.041,0.022
	c0.017,0.012,0.087,0.042,0.127,0.063l0.315,0.145c0.459,0.199,0.94,0.481,1.401,0.733l1.396,0.771
	c0.472,0.249,0.912,0.53,1.362,0.797c0.896,0.54,1.845,0.996,2.737,1.54c0.914,0.51,1.83,1.011,2.776,1.501h0.001l-1.517,1.732
	c-0.411-0.654-0.839-1.282-1.257-1.912c-0.394-0.639-0.725-1.305-1.086-1.952c-0.392-0.633-0.651-1.322-0.981-1.979
	c-0.33-0.657-0.604-1.336-0.881-2.013c-0.272-0.679-0.588-1.341-0.804-2.041c-0.241-0.69-0.514-1.371-0.737-2.069l-0.619-2.118
	c-0.17-0.736-0.312-1.492-0.451-2.241c-0.052-0.368-0.066-0.718-0.102-1.078l-0.045-0.536l-0.022-0.269
	c-0.016-0.205,0.007-0.237,0.01-0.364c0.011-0.82,0.245-1.728,0.779-2.502c0.538-0.776,1.42-1.333,2.342-1.469
	c0.462-0.076,0.938-0.066,1.432,0.05c0.256,0.082,0.517,0.172,0.799,0.389c0.133,0.089,0.296,0.306,0.404,0.478
	c0.063,0.13,0.116,0.331,0.125,0.512c0.005,0.092,0.002,0.183-0.008,0.267c-0.013,0.104-0.015,0.065-0.023,0.105l-0.041,0.129
	l-0.01,0.032l-0.002,0.008c0.066-0.16-0.092,0.226-0.082,0.194l-0.027,0.041c-0.037,0.054-0.077,0.106-0.119,0.157
	c-0.089,0.112-0.168,0.166-0.254,0.228c-0.09,0.068-0.171,0.111-0.242,0.14c-0.313,0.146-0.542,0.171-0.776,0.208
	c-0.448,0.051-0.843,0.039-1.231,0.016c-0.771-0.054-1.502-0.168-2.229-0.299c-1.448-0.277-2.846-0.642-4.253-1.049
	c-0.393-0.113-0.619-0.524-0.505-0.917c0.111-0.384,0.505-0.609,0.89-0.513L-35.626-6.63z"/>
<path fill="#5D5D5D" d="M-19.579,2.679c0,0,0.263,0.471,0.712,1.157c0.455,0.679,1.081,1.575,1.768,2.409
	c0.686,0.823,1.416,1.642,2.021,2.021c0.149,0.095,0.284,0.15,0.382,0.174c0.053,0.016,0.073,0,0.102,0.005
	c-0.003-0.025,0.009-0.034-0.039-0.057c-0.086-0.059-0.355-0.011-0.484,0.061c-0.145,0.068-0.195,0.143-0.195,0.143
	c0.4-0.5,1.13-0.581,1.63-0.181c0.5,0.4,0.581,1.13,0.181,1.63c0,0-0.103,0.119-0.346,0.271c-0.229,0.15-0.692,0.258-1.018,0.174
	c-0.167-0.033-0.283-0.089-0.426-0.151c-0.102-0.058-0.232-0.125-0.325-0.196c-0.196-0.141-0.38-0.294-0.556-0.456
	c-0.707-0.64-1.499-1.437-2.262-2.28c-1.509-1.678-3.019-3.355-3.019-3.355l-0.016-0.017c-0.432-0.48-0.393-1.218,0.087-1.65
	c0.48-0.432,1.219-0.393,1.65,0.087C-19.672,2.531-19.62,2.606-19.579,2.679z"/>
<path fill="#5D5D5D" d="M-16.973,1.402c0,0,0.064,0.021,0.16,0.054c0.083,0.02,0.253,0.102,0.323,0.09
	c0.169,0.005,0.293,0.022,0.293,0.022l0.124,0.017c0.662,0.09,1.126,0.699,1.036,1.361c-0.089,0.662-0.699,1.126-1.361,1.037
	c-0.203-0.027-0.392-0.107-0.547-0.219c0,0-0.329-0.238-0.613-0.489c-0.161-0.133-0.196-0.213-0.279-0.296
	c-0.066-0.077-0.11-0.128-0.11-0.128c-0.325-0.379-0.282-0.95,0.097-1.276C-17.601,1.359-17.265,1.306-16.973,1.402z"/>
<path fill="#5D5D5D" d="M-2.308,11.738c-1.39-0.975-2.682-2.033-3.898-3.261c-0.302-0.311-0.6-0.63-0.894-0.977
	C-7.39,7.138-7.67,6.794-7.949,6.234c-0.067-0.13-0.139-0.321-0.195-0.525c-0.029-0.128-0.048-0.283-0.057-0.424
	c0.003-0.195,0.026-0.417,0.115-0.644c0.111-0.257,0.292-0.511,0.486-0.643c0.1-0.076,0.208-0.144,0.316-0.199
	c0.083-0.036,0.156-0.059,0.237-0.083c0.08-0.023,0.16-0.043,0.241-0.059l0.015,0.427L-6.649,4.5h0.009h0.02l0.039-0.432
	l0.155-0.221c0.307-0.043,1.106-0.07,1.555,0.034C-4.4,3.984-3.953,4.056-3.533,4.213c0.429,0.148,0.83,0.295,1.235,0.466
	c0.799,0.349,1.559,0.74,2.3,1.159C0.741,6.262,1.476,6.675,2.175,7.15c0.703,0.474,1.193,0.936,1.872,1.47L2.5,10.059v-0.002
	c0-0.489-0.657-0.986-1.031-1.54C1.283,8.24,1.202,7.954,1.037,7.64c-0.167-0.321-0.281-0.633-0.4-1.143
	C0.61,6.361,0.604,6.222,0.611,5.992C0.616,5.88,0.63,5.778,0.685,5.599c0.023-0.08,0.057-0.156,0.092-0.232
	c0.05-0.093,0.114-0.184,0.183-0.267c0.135-0.174,0.308-0.273,0.492-0.363c0.172-0.074,0.285-0.085,0.434-0.108
	c0.217-0.015,0.42,0.007,0.537,0.038C2.949,4.794,3.246,4.97,3.566,5.139c0.353,0.213,0.538,0.321,0.85,0.54
	c0.295,0.206,0.579,0.414,0.828,0.624c1.043,0.82,1.872,1.808,2.76,2.5C8.225,8.971,8.449,9.13,8.676,9.233
	c0.226,0.119,0.453,0.201,0.692,0.225c0.119,0.03,0.241,0.021,0.366,0.011c0.125,0.004,0.252-0.019,0.38-0.061
	c0.261-0.046,0.516-0.181,0.782-0.288l0.07-0.028c0.196-0.079,0.421,0.017,0.5,0.213c0.069,0.172,0.005,0.365-0.145,0.464
	c-0.283,0.188-0.548,0.413-0.894,0.541c-0.161,0.082-0.333,0.145-0.521,0.179c-0.183,0.048-0.369,0.089-0.563,0.083
	c-0.384,0.027-0.779-0.039-1.128-0.154c-0.361-0.11-0.677-0.277-0.979-0.447c-1.19-0.705-2.108-1.537-3.095-2.177
	c-0.248-0.17-0.485-0.307-0.716-0.438C3.215,7.229,2.841,7.053,2.649,6.961C2.411,6.855,2.135,6.765,2.048,6.766
	C2.014,6.757,2.057,6.782,2.12,6.771c0.074-0.003,0.104-0.014,0.208-0.052c0.122-0.044,0.208-0.123,0.307-0.223
	C2.68,6.444,2.717,6.384,2.744,6.323c0.022-0.04,0.04-0.078,0.053-0.121C2.821,6.097,2.824,6.074,2.827,6.04
	c0-0.075-0.001-0.057,0.007-0.042C2.868,6.095,2.982,6.35,3.108,6.579l0.429,0.732l0.936,1.518L4.475,8.83
	c0.37,0.396,0.35,1.017-0.046,1.387c-0.319,0.298-0.784,0.343-1.146,0.142l-0.154-0.087C1.726,9.49,0.287,8.7-1.142,7.981
	c-1.431-0.692-2.913-1.384-4.274-1.709c-0.357-0.053-0.383,0.032-0.902,0.063L-6.474,6.5h-0.039h-0.02h-0.01l0.138-0.174
	c0.03-0.002,0.061-0.088,0.091-0.098c0.032-0.01,0.053-0.063,0.089-0.081c0.066-0.026,0.132-0.083,0.188-0.131
	C-5.94,5.93-5.792,5.774-5.739,5.601c0.054-0.131,0.07-0.251,0.063-0.347c0.005-0.039-0.005-0.093-0.016-0.119
	c0.003-0.006-0.006-0.001,0.02,0.054C-5.6,5.379-5.382,5.703-5.17,5.994c0.216,0.303,0.458,0.61,0.709,0.914
	c1.006,1.222,2.105,2.453,3.164,3.699l0.009,0.012c0.273,0.321,0.233,0.803-0.088,1.075C-1.646,11.924-2.03,11.933-2.308,11.738z"/>
<path fill="#5D5D5D" d="M19.139,11.078c0,0-0.089,0.016-0.258,0.044c-0.171,0.025-0.409,0.063-0.718,0.092
	c-0.614,0.054-1.494,0.133-2.575,0.049c-0.54-0.039-1.132-0.118-1.765-0.266c-0.632-0.162-1.313-0.379-1.98-0.813
	c-0.646-0.436-1.332-1.052-1.671-1.9l-0.073-0.15L10.08,8.096l-0.032-0.092l-0.019-0.058L9.953,7.701
	C9.882,7.42,9.841,7.137,9.846,6.866c-0.01-0.561,0.255-1.242,0.687-1.639c0.865-0.8,1.753-0.869,2.51-0.917
	c0.77-0.014,1.485,0.079,2.171,0.264c0.343,0.097,0.68,0.201,1.019,0.357c0.33,0.183,0.73,0.301,1.092,0.867
	C17.41,5.96,17.5,6.146,17.5,6.372v0.04v0.02c0-0.082-0.039,0.135-0.037,0.114L17.444,6.57L17.43,6.622l-0.021,0.103
	c-0.01,0.121-0.203,0.608-0.357,0.722c-0.336,0.384-0.747,0.543-1.064,0.624c-0.663,0.164-1.188,0.132-1.656,0.102
	c-0.463-0.042-0.852-0.134-1.181-0.2c-0.649-0.156-1.045-0.331-1.045-0.331l-0.151-0.067c-0.517-0.228-0.75-0.832-0.521-1.348
	c0.228-0.516,0.831-0.75,1.348-0.521c0.103,0.045,0.197,0.109,0.276,0.181c0,0,0.182,0.166,0.642,0.369
	c0.227,0.104,0.521,0.194,0.86,0.267c0.332,0.07,0.739,0.112,1.049,0.038c0.166-0.022,0.255-0.095,0.271-0.116
	c0.013-0.007,0.014-0.009-0.006,0.02c-0.011,0.012,0.004,0.095,0.017-0.016c0.034-0.279,0.003,0.086,0.054,0.108
	c0.055,0.076-0.121-0.095-0.332-0.148c-0.215-0.075-0.471-0.136-0.738-0.165c-0.534-0.066-1.117-0.054-1.65,0.038
	c-0.523,0.086-1.026,0.318-1.125,0.464c-0.047,0.07-0.041,0.055-0.048,0.156c0.001,0.062,0.015,0.104,0.014,0.146l0.072,0.226
	l0.02,0.058l0.005,0.015l0.003,0.007c0.02,0.058-0.025-0.069-0.02-0.055l0.01,0.017l0.04,0.067c0.145,0.39,0.48,0.663,0.846,0.92
	c0.386,0.242,0.863,0.408,1.329,0.545c0.477,0.123,0.956,0.201,1.409,0.245c0.907,0.081,1.693,0.089,2.237,0.063
	c0.271-0.014,0.482-0.025,0.626-0.032c0.142-0.012,0.217-0.018,0.217-0.018l0.036-0.003c0.55-0.045,1.032,0.364,1.076,0.914
	C20.01,10.532,19.643,10.991,19.139,11.078z"/>
<path fill="#5D5D5D" d="M17.33,0.884c0.012-0.009-0.085,0.073-0.107,0.104c-0.044,0.029-0.11,0.124-0.199,0.25
	c-0.05,0.059-0.062,0.139-0.102,0.215c-0.04,0.077-0.08,0.162-0.081,0.257c-0.018,0.096-0.035,0.195-0.054,0.295l0.045,0.325
	c0.016,0.111,0.008,0.229,0.073,0.336C16.953,2.779,17,2.889,17.046,2.995c0.052,0.105,0.074,0.221,0.145,0.31
	c0.068,0.092,0.132,0.178,0.191,0.258c0.24,0.327,0.4,0.545,0.4,0.545l0.044,0.06c0.122,0.166,0.086,0.4-0.08,0.521
	c-0.146,0.107-0.345,0.092-0.474-0.027c0,0-0.229-0.211-0.57-0.527c-0.087-0.081-0.18-0.169-0.279-0.262
	c-0.101-0.091-0.17-0.231-0.262-0.354c-0.087-0.13-0.177-0.266-0.269-0.403c-0.104-0.129-0.148-0.305-0.207-0.473
	c-0.055-0.172-0.108-0.344-0.162-0.513c-0.009-0.184-0.018-0.365-0.026-0.541c-0.017-0.18,0.015-0.347,0.052-0.508
	c0.039-0.158,0.057-0.319,0.116-0.449c0.104-0.263,0.209-0.486,0.332-0.651c0.119-0.179,0.137-0.19,0.144-0.203
	c0.306-0.329,0.819-0.347,1.147-0.042C17.616,0.042,17.635,0.556,17.33,0.884z"/>
<path fill="#5D5D5D" d="M27.552,11.976c-1.004-0.937-1.903-1.939-2.756-3.045c-0.41-0.571-0.81-1.141-1.156-1.872
	c-0.085-0.188-0.167-0.386-0.235-0.626c-0.062-0.243-0.14-0.52-0.071-0.974c0.031-0.211,0.145-0.501,0.338-0.739
	c0.216-0.235,0.479-0.402,0.706-0.454c0.26-0.087,0.392-0.05,0.587-0.051c0.145,0.038,0.276,0.068,0.403,0.131h0.001l-1.035,0.859
	c0.034-0.451,0.066-0.79,0.363-1.292c0.099-0.131,0.173-0.25,0.318-0.372c0.156-0.118,0.302-0.241,0.506-0.295
	c0.407-0.148,0.774-0.083,1.051-0.009c0.252,0.083,0.491,0.202,0.636,0.314c0.179,0.115,0.335,0.235,0.453,0.352
	c0.277,0.237,0.484,0.478,0.699,0.718c0.416,0.479,0.761,0.98,1.083,1.483c0.335,0.501,0.601,0.985,0.904,1.479
	c0.586,0.973,1.138,2.005,1.712,2.846c0.138,0.199,0.293,0.396,0.401,0.482c0.128,0.1,0.103,0.148,0.245,0.13
	c0.14-0.009,0.366-0.116,0.58-0.261c0.217-0.146,0.439-0.317,0.668-0.483l0.012-0.009c0.171-0.124,0.409-0.086,0.532,0.084
	c0.097,0.133,0.095,0.308,0.009,0.437c-0.167,0.248-0.339,0.491-0.55,0.728c-0.211,0.233-0.445,0.486-0.844,0.675
	c-0.203,0.096-0.449,0.139-0.717,0.127c-0.238-0.031-0.504-0.104-0.67-0.207c-0.387-0.203-0.621-0.442-0.86-0.67
	c-0.451-0.46-0.82-0.931-1.173-1.396c-0.347-0.473-0.688-0.937-1.012-1.409l-0.966-1.402c-0.309-0.453-0.632-0.884-0.948-1.284
	c-0.162-0.189-0.325-0.387-0.483-0.524c-0.082-0.089-0.154-0.141-0.217-0.182c-0.079-0.071-0.105-0.06-0.118-0.086
	c0.008-0.002,0.075,0.009,0.212-0.037c0.117-0.055,0.18-0.127,0.17-0.142c-0.018-0.02-0.111,0.218-0.142,0.332l-0.053,0.198
	c-0.117,0.441-0.542,0.718-0.982,0.662h-0.001c-0.039,0.056-0.074,0.076-0.095,0.11c0.034,0.035-0.01,0.053,0.1,0.045
	c0.063-0.006,0.199-0.064,0.295-0.184c0.104-0.096,0.136-0.24,0.149-0.283c0.009-0.125-0.017-0.066,0.001,0.013
	c0.012,0.083,0.043,0.198,0.083,0.318c0.172,0.496,0.477,1.063,0.793,1.605c0.619,1.111,1.355,2.214,2.058,3.319l0.008,0.013
	c0.192,0.303,0.103,0.704-0.2,0.896C28.089,12.211,27.764,12.172,27.552,11.976z"/>
<path fill="#5D5D5D" d="M35.1,3.38c0,0,0.229,0.393,0.782,1.042c0.275,0.316,0.62,0.695,1.053,1.071
	c0.425,0.382,0.949,0.771,1.528,1.041c0.292,0.152,0.592,0.199,0.869,0.227c0.066,0,0.126-0.017,0.191-0.02
	c0.015,0.002,0.104-0.014,0.059,0.004l0.15-0.049c0.23-0.063,0.345-0.141,0.477-0.205c0.59-0.319,1.104-1.053,0.847-1.393
	c-0.208-0.38-1.118-0.627-1.991-0.591l-0.682,0.51L38.298,5.5h-0.021h-0.011c-0.078,0,0.094-0.477,0.071-0.477l-0.047-0.233
	l-0.188-0.099l-0.376-0.017c-0.3,0.015-0.389,0.067-0.532,0.098c-0.146,0.014-0.25,0.11-0.378,0.149
	c-0.199,0.143-0.329,0.198-0.396,0.39c-0.071,0.065-0.051,0.217-0.1,0.33c0.022,0.154-0.027,0.288,0.025,0.464
	c0.104,0.672,0.476,1.421,0.959,2.02c0.506,0.611,1.074,1.047,1.765,1.369c0.809,0.402,1.496,0.631,2.159,0.882
	c0.698,0.207,1.346,0.403,1.934,0.539c0.585,0.15,1.106,0.242,1.534,0.335c0.861,0.163,1.357,0.231,1.357,0.231
	c0.116,0.016,0.197,0.122,0.182,0.237c-0.013,0.093-0.085,0.164-0.172,0.181c0,0-0.515,0.093-1.417,0.145
	c-0.451,0.017-1.004,0.052-1.636,0.016c-0.636-0.004-1.349-0.083-2.134-0.184c-0.396-0.07-0.819-0.153-1.254-0.247
	c-0.449-0.089-0.812-0.237-1.24-0.358c-0.938-0.269-1.941-0.862-2.709-1.654c-0.784-0.795-1.444-1.792-1.724-3.076
	c-0.092-0.305-0.079-0.678-0.104-1.021c0.052-0.374,0.05-0.744,0.225-1.128c0.123-0.389,0.358-0.739,0.639-1.059
	c0.281-0.284,0.631-0.549,0.967-0.698c0.343-0.139,0.688-0.28,1.052-0.31c0.354-0.052,0.758-0.098,0.964-0.05l0.378,0.036
	l0.188,0.018l0.048,0.005c-0.015,0,0.164,0.005,0.095,0.004l0.013,0.003l0.025,0.005l0.103,0.022l0.808,0.18l0.804,0.259
	c0.271,0.124,0.535,0.214,0.798,0.365c0.508,0.282,1.088,0.697,1.36,1.398c0.282,0.713,0.056,1.457-0.255,1.933
	c-0.32,0.498-0.734,0.851-1.182,1.127c-0.253,0.137-0.515,0.264-0.689,0.324l-0.146,0.057c-0.146,0.046-0.161,0.038-0.248,0.059
	c-0.14,0.023-0.284,0.056-0.419,0.063c-0.538,0.008-1.026-0.095-1.431-0.245c-0.831-0.286-1.467-0.69-2.027-1.039
	c-0.55-0.363-1.014-0.693-1.382-0.981c-0.739-0.557-1.173-0.929-1.173-0.929l-0.065-0.057c-0.5-0.429-0.557-1.181-0.128-1.68
	s1.181-0.557,1.681-0.127C34.948,3.164,35.034,3.27,35.1,3.38z"/>
<path fill="#5D5D5D" d="M46.24,1.993c0,0,0.499,0.219,1.373,0.502c0.875,0.29,2.129,0.642,3.66,1.019
	c0.77,0.188,1.612,0.333,2.534,0.616c0.232,0.074,0.472,0.157,0.726,0.269c0.258,0.141,0.521,0.233,0.875,0.642
	c0.096,0.159,0.178,0.225,0.238,0.49c0.062,0.238,0.056,0.476-0.033,0.715c-0.17,0.444-0.43,0.614-0.59,0.735l-0.147,0.1
	l-0.077,0.045l-0.156,0.091l-0.344,0.189c-0.862,0.452-1.754,0.919-2.659,1.394c-0.881,0.481-1.784,0.94-2.603,1.46
	c-0.41,0.249-0.808,0.514-1.117,0.78c-0.162,0.131-0.276,0.265-0.345,0.353c-0.084,0.111,0.005,0.039-0.058-0.163
	c-0.085-0.18-0.087-0.105,0.019-0.042c0.094,0.064,0.327,0.168,0.435,0.202c0.48,0.139,0.954,0.276,1.421,0.411
	c0.931,0.259,1.841,0.569,2.676,0.694c0.845,0.173,1.643,0.337,2.379,0.487c0.748,0.13,1.45,0.195,2.063,0.299
	c0.616,0.09,1.16,0.188,1.587,0.196c0.874,0.065,1.373,0.104,1.373,0.104l0.095,0.007c0.247,0.019,0.433,0.234,0.414,0.481
	c-0.017,0.227-0.198,0.4-0.419,0.414c0,0-0.536,0.035-1.475,0.097c-0.481,0.046-1.031,0.013-1.673-0.003
	c-0.642-0.019-1.363-0.038-2.156-0.098c-0.798-0.09-1.662-0.188-2.576-0.291c-0.939-0.073-1.824-0.335-2.779-0.535
	c-0.474-0.107-0.955-0.216-1.443-0.325c-0.372-0.1-0.607-0.188-0.955-0.369c-0.314-0.197-0.757-0.449-0.993-1.13
	c-0.209-0.701,0.073-1.308,0.279-1.608c0.224-0.333,0.46-0.583,0.688-0.788c0.462-0.42,0.924-0.739,1.388-1.042
	c1.859-1.164,3.818-1.935,5.532-2.751l0.3-0.145l0.159-0.082l0.08-0.041c-0.01,0.004,0-0.002,0-0.001
	c0.037-0.004-0.028,0.001-0.118,0.225c-0.035,0.128-0.04,0.25-0.013,0.372c0.061,0.142,0.039,0.123,0.088,0.177
	c0.063,0.041-0.081-0.109-0.215-0.197c-0.148-0.106-0.319-0.209-0.497-0.309c-0.728-0.388-1.505-0.709-2.231-0.938
	C49.48,4.271,48.2,4.084,47.302,4.004c-0.9-0.082-1.421-0.046-1.421-0.046C45.313,3.997,44.822,3.568,44.783,3
	c-0.039-0.567,0.391-1.059,0.958-1.098c0.17-0.012,0.333,0.019,0.479,0.082L46.24,1.993z"/>
<path fill="#5D5D5D" d="M49.844,7.003c0,0,0.826,0.41,2.05,0.882c0.619,0.239,1.319,0.564,2.129,0.813
	c0.8,0.268,1.652,0.554,2.505,0.84c0.43,0.137,0.852,0.301,1.28,0.413c0.43,0.113,0.853,0.225,1.261,0.332
	c0.819,0.216,1.585,0.417,2.24,0.589c1.314,0.346,2.191,0.576,2.191,0.576l0.017,0.005c0.131,0.034,0.21,0.169,0.175,0.301
	c-0.032,0.122-0.152,0.199-0.275,0.181c0,0-0.9-0.14-2.25-0.349c-0.677-0.104-1.466-0.227-2.313-0.357
	c-0.424-0.066-0.861-0.134-1.307-0.203c-0.445-0.068-0.887-0.189-1.335-0.283c-0.896-0.2-1.791-0.4-2.631-0.589
	c-0.843-0.165-1.621-0.429-2.295-0.613c-1.364-0.375-2.203-0.689-2.204-0.689l-0.034-0.013c-0.518-0.194-0.78-0.771-0.586-1.289
	c0.193-0.518,0.771-0.78,1.288-0.586C49.781,6.974,49.813,6.988,49.844,7.003z"/>
</svg>
