<?xml version="1.0" encoding="utf-8"?>
<!-- Generator: Adobe Illustrator 16.0.0, SVG Export Plug-In . SVG Version: 6.00 Build 0)  -->
<!DOCTYPE svg PUBLIC "-//W3C//DTD SVG 1.1//EN" "http://www.w3.org/Graphics/SVG/1.1/DTD/svg11.dtd">
<svg version="1.1" id="firmaNegro" xmlns="http://www.w3.org/2000/svg" xmlns:xlink="http://www.w3.org/1999/xlink" x="0px" y="0px"
	 width="200px" height="51px" viewBox="0 0 200 51" enable-background="new 0 0 200 51" xml:space="preserve">
<path d="M165.514,23.041c0.896,0.382,1.846,0.702,2.783,0.946c0.916,0.244,1.944,0.445,2.674,0.445c0.084,0,0.135-0.008,0.152-0.006
	c-0.049,0.011-0.006,0-0.121,0.051c-0.059,0.027-0.107,0.064-0.154,0.109c-0.109,0.084-0.207,0.209-0.26,0.34
	c-0.063,0.127-0.115,0.301-0.105,0.459c0.018,0.172,0.013,0.181,0.039,0.277c0.084,0.193,0.054,0.135,0.088,0.188
	c0.01,0.018-0.014-0.025-0.08-0.079l-0.043-0.04c0.021,0.016-0.109-0.092,0.039,0.021l-0.157-0.102l-0.313-0.206
	c-0.211-0.131-0.426-0.287-0.631-0.397c-0.836-0.438-1.594-0.892-2.52-1.332c-3.535-1.805-7.217-3.395-10.898-4.948
	c-7.398-3.043-14.957-5.747-22.646-8.016c-1.905-0.618-3.852-1.105-5.78-1.643c-1.935-0.527-3.86-1.079-5.819-1.511l-5.854-1.376
	L110,5.087c-0.986-0.182-1.968-0.396-2.957-0.55l-2.975-0.443c-1.984-0.282-3.963-0.619-5.955-0.857
	c-3.991-0.369-7.971-0.928-11.983-1.007c-2.003-0.078-4.005-0.211-6.008-0.243l-6.013,0.07c-1.001,0.016-2.007,0.012-3.003,0.045
	L68.095,2.25c-2.01,0.093-4.006,0.239-6.01,0.368C54.082,3.24,46.1,4.208,38.237,5.752c-7.831,1.601-15.619,3.783-22.667,7.369
	c-3.472,1.832-6.802,4.046-9.202,6.991C3.944,23,2.732,26.75,3.408,30.322C4,34.025,6.25,37.145,9.332,39.348
	c3.067,2.223,6.716,3.715,10.46,4.83c7.541,2.197,15.547,2.922,23.495,3.068c3.979,0.063,7.97-0.055,11.995-0.18l12.05-0.414
	l24.103-0.967c8.034-0.336,16.065-0.729,24.092-1.191c8.025-0.465,16.056-0.914,24.065-1.555c4.003-0.33,8.011-0.678,11.986-1.146
	c0.991-0.119,1.983-0.248,2.967-0.398c0.489-0.078,0.979-0.162,1.448-0.268c0.234-0.051,0.47-0.104,0.675-0.172
	c0.101-0.033,0.205-0.07,0.241-0.098c0.007-0.002,0.025-0.014,0.003,0.002c-0.003,0.006-0.029,0.018-0.093,0.113
	c-0.045,0.025-0.09,0.355-0.021,0.438l-0.038-0.086c-0.078-0.152-0.498-0.466-0.895-0.699c-0.405-0.241-0.84-0.472-1.28-0.683
	c-0.885-0.428-1.801-0.817-2.724-1.19c-3.705-1.469-7.518-2.457-11.354-3.59c-3.841-1.086-7.74-1.478-11.609-2.478h-0.006
	l0.336-2.269c2.865,0.633,5.74,1.063,8.61,1.658l8.625,1.639c2.873,0.576,5.753,1.086,8.636,1.606l8.642,1.604
	c2.875,0.563,5.764,1.05,8.647,1.563l8.657,1.519c1.447,0.226,2.89,0.505,4.334,0.763l4.334,0.785l4.349,0.733
	c1.447,0.248,2.899,0.485,4.356,0.707c0.554,0.084,0.935,0.603,0.851,1.151c-0.084,0.554-0.601,0.937-1.151,0.853
	c-0.033-0.006-0.065-0.015-0.101-0.021l-0.069-0.02c-1.414-0.361-2.832-0.711-4.255-1.047l-4.266-1.018l-4.279-0.965
	c-1.43-0.314-2.853-0.66-4.289-0.943l-8.629-1.662c-2.877-0.551-5.75-1.117-8.637-1.615l-8.656-1.52
	c-2.885-0.506-5.772-0.99-8.67-1.439l-4.34-0.691c-1.447-0.229-2.892-0.477-4.343-0.684c-2.899-0.414-5.795-0.859-8.702-1.238
	c-0.554-0.072-0.941-0.307-0.871-0.855c0.071-0.553,0.58-0.596,1.133-0.596h0.006h0.068h0.006c4.049,1,7.893,1.739,11.742,2.986
	c3.84,1.253,7.655,2.438,11.395,4.014c0.935,0.398,1.861,0.75,2.777,1.217c0.459,0.229,0.914,0.445,1.364,0.729
	c0.228,0.139,0.449,0.277,0.677,0.455c0.121,0.109,0.207,0.146,0.354,0.313c0.142,0.154,0.301,0.375,0.321,0.459l0.039,0.084
	c0.103,0.135,0.047,0.539-0.033,0.611c-0.092,0.154-0.166,0.207-0.221,0.248c-0.072,0.059-0.106,0.072-0.156,0.102
	c-0.187,0.102-0.317,0.143-0.457,0.189c-0.272,0.086-0.528,0.145-0.786,0.198c-0.511,0.108-1.015,0.192-1.519,0.271
	c-1.009,0.152-2.011,0.279-3.015,0.396c-4.013,0.457-8.021,0.787-12.033,1.104c-8.022,0.639-16.047,1.238-24.073,1.771L91.52,47.395
	c-8.029,0.508-16.059,0.996-24.093,1.438l-12.055,0.636c-4.01,0.188-8.06,0.42-12.124,0.36c-8.106-0.104-16.287-0.771-24.23-3.026
	c-3.957-1.125-7.873-2.742-11.298-5.304c-1.702-1.274-3.271-2.813-4.467-4.653c-0.591-0.92-1.129-1.888-1.504-2.923
	c-0.213-0.497-0.374-1.047-0.52-1.604c-0.178-0.574-0.226-1.033-0.324-1.535c-0.355-2.217-0.229-4.451,0.472-6.557
	c0.687-2.096,1.854-3.977,3.251-5.581c2.814-3.229,6.418-5.429,10.083-7.231c7.423-3.509,15.362-5.408,23.293-6.85
	c7.942-1.469,15.972-2.297,24.005-2.878c2.009-0.136,4.023-0.288,6.03-0.387l3.012-0.156c1.013-0.037,2.018-0.036,3.027-0.055
	L80.131,1c2.016,0.026,4.03,0.154,6.044,0.227c2.016,0.079,4.031,0.152,6.036,0.375l6.025,0.54c2.004,0.215,3.997,0.529,5.997,0.789
	l2.998,0.409c0.998,0.144,1.985,0.347,2.979,0.517l5.955,1.071l5.914,1.278c1.979,0.395,3.93,0.91,5.887,1.4
	c1.953,0.501,3.923,0.954,5.854,1.536c7.787,2.127,15.453,4.694,22.988,7.615c3.758,1.495,7.498,3.02,11.164,4.796
	c0.901,0.405,1.893,0.955,2.838,1.447c0.235,0.126,0.434,0.264,0.651,0.396l0.317,0.199l0.16,0.1
	c0.201,0.152,0.11,0.091,0.183,0.146l0.099,0.085c0.125,0.108,0.271,0.255,0.436,0.471c0.095,0.162,0.158,0.195,0.265,0.518
	c0.039,0.156,0.076,0.225,0.076,0.459c-0.004,0.219-0.054,0.459-0.142,0.64c-0.094,0.182-0.229,0.355-0.377,0.49
	c-0.101,0.078-0.203,0.146-0.313,0.207c-0.226,0.115-0.312,0.123-0.478,0.176c-0.229,0.053-0.428,0.074-0.597,0.084
	c-1.282,0.039-2.247,0.012-3.312-0.092c-1.03-0.121-2.045-0.188-3.104-0.188h-0.01c-0.972,0-1.687-1.083-1.599-2.05
	c0.086-0.969,0.943-1.753,1.912-1.666C165.166,22.992,165.352,22.972,165.514,23.041z"/>
<path d="M21.196,16.239c-0.135,0.537-0.223,1.116-0.272,1.682c-0.064,0.571-0.073,1.142-0.078,1.714
	c0.019,0.568,0.022,1.143,0.102,1.703c0.07,0.562,0.137,1.128,0.288,1.666c0.134,0.544,0.292,1.08,0.513,1.575
	c0.22,0.494,0.476,0.973,0.803,1.346l0.24,0.283l0.277,0.213l0.136,0.108l0.034,0.029c-0.075-0.039,0.007,0.004,0.003,0l0.097,0.051
	c0.163,0.099,0.199,0.076,0.232,0.099c0.012-0.008,0.02-0.006,0.03,0.004c-0.021-0.017-0.033,0.007-0.053,0.011
	c-0.053,0.021-0.043,0.055-0.03-0.007c0.036-0.094,0.061-0.332,0.036-0.567c-0.09-0.981-0.496-2.068-0.994-3.044
	c-0.519-0.98-1.12-1.927-1.847-2.762c-1.421-1.688-3.259-3.005-5.229-3.604l0,0l-0.424-0.296c-0.597-0.417-0.743-1.239-0.326-1.835
	c0.301-0.431,0.815-0.626,1.302-0.544c2.357,0.401,4.707,0.566,7.065,0.682l3.544,0.133c0.594,0.025,1.186,0.053,1.793,0.1
	c0.324,0.031,0.572,0.037,1.007,0.124c0.092,0.027,0.11,0.022,0.262,0.083c0.191,0.084,0.546,0.278,0.632,0.462
	c0.007,0.005,0.213,0.255,0.213,0.15v0.007l-0.157,0.014l-0.075,0.027c0.025,0.118,0.002,0.365,0,0.396l-0.004,0.457
	c0.034,1.169,0.07,2.313,0.221,3.445c0.147,1.129,0.357,2.242,0.676,3.294c0.314,1.049,0.75,2.049,1.363,2.806
	c0.606,0.767,1.343,1.213,2.145,1.307c0.767,0.089,1.316,0.781,1.228,1.55c-0.089,0.768-0.782,1.315-1.549,1.229
	c-0.069-0.01-0.138-0.021-0.203-0.037l-0.072-0.021c-1.514-0.416-2.772-1.483-3.493-2.656c-0.733-1.184-1.15-2.415-1.446-3.63
	c-0.287-1.222-0.442-2.442-0.523-3.654c-0.083-1.209-0.11-2.421-0.11-3.604v-0.429c0-0.117,0.007-0.016,0.017-0.044l-0.009-0.027
	l-0.013-0.015v-0.007c0-0.11,0.05,0.136,0.052,0.139c0.055,0.164,0.222,0.337,0.383,0.4c0.083,0.036,0.03,0.016,0.052,0.021
	c-0.141-0.037-0.481-0.069-0.743-0.094c-0.566-0.049-1.148-0.083-1.73-0.114c-1.165-0.064-2.337-0.106-3.511-0.116
	C20.704,16.421,18.348,16.5,16,16.84l0.552-2.676l0,0c1.166,0.622,2.229,1.369,3.161,2.229c0.931,0.863,1.738,1.821,2.45,2.83
	c0.705,1.016,1.318,2.084,1.804,3.215c0.468,1.142,0.905,2.289,0.97,3.646c0.006,0.344,0.003,0.707-0.182,1.156
	c-0.085,0.213-0.27,0.488-0.574,0.656c-0.143,0.082-0.31,0.107-0.468,0.141c-0.136,0-0.274-0.01-0.408-0.027
	c-0.246-0.064-0.492-0.168-0.579-0.229l-0.097-0.051l-0.092-0.057l-0.052-0.041l-0.208-0.162l-0.409-0.334l-0.324-0.389
	c-0.434-0.518-0.723-1.091-0.97-1.664c-0.247-0.576-0.458-1.154-0.618-1.742c-0.165-0.587-0.332-1.17-0.456-1.761
	c-0.126-0.591-0.271-1.178-0.376-1.771l-0.711-3.608l-0.008-0.041c-0.153-0.775,0.352-1.528,1.127-1.681
	c0.775-0.153,1.528,0.352,1.681,1.127C21.254,15.825,21.245,16.043,21.196,16.239z"/>
<path d="M42.486,23.134c0,0,0.084-0.018,0.211-0.044c0.143-0.022,0.334-0.075,0.508-0.137c0.178-0.053,0.337-0.114,0.446-0.167
	c0.095-0.054,0.182-0.082,0.182-0.082l0.509-0.163c0.561-0.18,1.161,0.129,1.341,0.69c0.1,0.311,0.047,0.638-0.114,0.895
	c0,0-0.11,0.174-0.309,0.423c-0.206,0.229-0.503,0.5-0.822,0.715c-0.325,0.199-0.657,0.359-0.919,0.457
	c-0.123,0.051-0.25,0.082-0.351,0.109c-0.075,0.02-0.117,0.029-0.117,0.029c-0.746,0.187-1.502-0.266-1.69-1.011
	c-0.188-0.746,0.265-1.502,1.011-1.69c0.017-0.004,0.034-0.008,0.051-0.012L42.486,23.134z"/>
<path d="M56.422,10.561c1.364,0.341,2.764,0.634,4.142,0.861c0.688,0.115,1.379,0.21,2.042,0.246
	c0.328,0.017,0.654,0.016,0.919-0.02c0.119-0.018,0.25-0.049,0.26-0.064c0.014-0.003,0.012-0.003-0.009,0.006l-0.054,0.051
	c-0.015,0.015-0.026,0.033-0.035,0.052l-0.006,0.014c0.015-0.035-0.144,0.344-0.075,0.179l0.002-0.008l0.01-0.033l0.038-0.129
	c-0.001-0.003,0.031-0.084,0.001-0.023c-0.02,0.04-0.033,0.087-0.037,0.135c-0.013,0.095,0.029,0.204,0.062,0.252
	c-0.013,0.042,0.066,0.085,0.047,0.079c-0.005-0.005-0.083-0.035-0.169-0.066c-0.207-0.039-0.458-0.051-0.705-0.004
	c-0.5,0.083-0.919,0.372-1.192,0.773c-0.266,0.411-0.438,0.948-0.431,1.562c-0.002,0.052-0.016,0.199-0.011,0.172l0.018,0.269
	l0.035,0.538c0.028,0.354,0.037,0.724,0.08,1.066c0.126,0.662,0.229,1.321,0.341,1.992l0.497,2.042
	c0.188,0.676,0.42,1.342,0.632,2.013c0.208,0.674,0.515,1.31,0.778,1.962c0.139,0.323,0.266,0.651,0.415,0.971l0.497,0.928
	c0.352,0.605,0.625,1.262,1.039,1.822c0.405,0.563,0.782,1.152,1.204,1.691c0.464,0.504,0.918,1.008,1.389,1.484
	c0.444,0.451,0.438,1.178-0.014,1.621c-0.363,0.354-0.902,0.713-1.331,0.49l-0.173,0.201h-0.001c-0.767-1-1.609-1.555-2.44-2.152
	c-0.847-0.578-1.717-1.258-2.597-1.779c-0.441-0.258-0.887-0.586-1.354-0.771l-1.383-0.647c-0.471-0.194-0.895-0.437-1.39-0.637
	l-0.39-0.19c-0.075-0.037-0.124-0.063-0.218-0.113l-0.128-0.076c-0.055-0.032-0.164-0.114-0.236-0.18l-0.029-0.024
	c-0.04-0.041-0.1-0.111-0.143-0.183c-0.094-0.146-0.156-0.334-0.167-0.506c-0.012-0.16,0.001-0.308,0.117-0.534
	c0.108-0.212,0.323-0.395,0.507-0.471c0.122-0.051,0.106-0.037,0.126-0.045l0.047-0.01l0.096-0.02c0.057-0.01,0.145-0.02,0.177-0.02
	c0.104,0,0.227,0.002,0.293,0.01l0.434,0.045c1.056,0.14,2.048,0.287,3.065,0.396c1.012,0.113,2.024,0.194,3.038,0.265
	c2.027,0.115,4.062,0.129,6.089-0.039c0.321-0.028,0.604,0.209,0.631,0.531c0.026,0.299-0.184,0.565-0.472,0.623
	c-2.074,0.396-4.188,0.569-6.296,0.565c-1.055,0.01-2.108-0.035-3.156-0.111c-1.044-0.069-2.105,0.003-3.104-0.09l-0.339,0.164
	H57.31c0,0,0.056-0.188,0.081-0.194l0.048-0.104l0.127-0.093c0.171-0.063,0.375-0.262,0.47-0.463
	c0.098-0.217,0.105-0.362,0.107-0.511c-0.004-0.155-0.059-0.336-0.145-0.466c-0.04-0.063-0.096-0.129-0.131-0.162l-0.01-0.014
	c-0.019-0.024-0.079-0.063-0.079-0.063l0.041,0.021c0.017,0.012,0.087,0.042,0.127,0.063l0.315,0.146
	c0.459,0.198,0.94,0.481,1.401,0.733l1.396,0.771c0.472,0.248,0.912,0.527,1.362,0.797c0.896,0.539,1.845,0.996,2.737,1.539
	c0.914,0.51,1.83,1.012,2.776,1.502h0.001l-1.517,1.729c-0.411-0.65-0.839-1.279-1.257-1.912c-0.394-0.639-0.725-1.305-1.086-1.949
	c-0.392-0.635-0.651-1.322-0.981-1.979c-0.33-0.658-0.604-1.335-0.881-2.013c-0.272-0.68-0.588-1.341-0.804-2.041
	c-0.241-0.69-0.514-1.371-0.737-2.069l-0.619-2.118c-0.17-0.736-0.312-1.492-0.451-2.241c-0.052-0.368-0.066-0.718-0.102-1.078
	l-0.045-0.536l-0.022-0.269c-0.016-0.205,0.007-0.237,0.01-0.364c0.011-0.82,0.245-1.728,0.779-2.502
	c0.538-0.776,1.42-1.333,2.342-1.469c0.462-0.076,0.938-0.066,1.432,0.05c0.256,0.082,0.517,0.172,0.799,0.389
	c0.133,0.089,0.296,0.306,0.404,0.478c0.063,0.13,0.116,0.331,0.125,0.512c0.005,0.092,0.002,0.183-0.008,0.267
	c-0.013,0.104-0.015,0.065-0.023,0.105l-0.041,0.129l-0.01,0.032l-0.002,0.008c0.066-0.16-0.092,0.226-0.082,0.194l-0.027,0.041
	c-0.037,0.054-0.077,0.106-0.119,0.157c-0.089,0.112-0.168,0.166-0.254,0.228c-0.09,0.068-0.171,0.111-0.242,0.14
	c-0.313,0.146-0.542,0.171-0.776,0.208c-0.448,0.051-0.843,0.039-1.231,0.016c-0.771-0.054-1.502-0.168-2.229-0.299
	c-1.448-0.277-2.846-0.642-4.253-1.049c-0.393-0.113-0.619-0.524-0.505-0.917c0.111-0.384,0.505-0.609,0.89-0.513L56.422,10.561z"/>
<path d="M72.469,19.87c0,0,0.263,0.471,0.712,1.157c0.455,0.679,1.081,1.575,1.768,2.409c0.686,0.823,1.416,1.643,2.021,2.021
	c0.149,0.094,0.284,0.149,0.382,0.174c0.053,0.016,0.073,0,0.102,0.004c-0.003-0.024,0.009-0.033-0.039-0.057
	c-0.086-0.059-0.355-0.011-0.484,0.061c-0.145,0.068-0.195,0.144-0.195,0.144c0.4-0.5,1.13-0.581,1.63-0.181s0.581,1.13,0.181,1.63
	c0,0-0.103,0.119-0.346,0.27c-0.229,0.15-0.692,0.258-1.018,0.174c-0.167-0.031-0.283-0.088-0.426-0.15
	c-0.102-0.059-0.232-0.125-0.325-0.193c-0.196-0.143-0.38-0.295-0.556-0.457c-0.707-0.641-1.499-1.436-2.262-2.279
	c-1.509-1.678-3.019-3.355-3.019-3.355l-0.016-0.017c-0.432-0.479-0.393-1.218,0.087-1.65c0.48-0.432,1.219-0.393,1.65,0.087
	C72.376,19.722,72.428,19.797,72.469,19.87z"/>
<path d="M75.075,18.593c0,0,0.064,0.021,0.16,0.054c0.083,0.02,0.253,0.102,0.323,0.09c0.169,0.005,0.293,0.022,0.293,0.022
	l0.124,0.017c0.662,0.09,1.126,0.699,1.036,1.361c-0.089,0.662-0.699,1.126-1.361,1.037c-0.203-0.027-0.392-0.107-0.547-0.219
	c0,0-0.329-0.238-0.613-0.489c-0.161-0.133-0.196-0.213-0.279-0.296c-0.066-0.077-0.11-0.128-0.11-0.128
	c-0.325-0.379-0.282-0.95,0.097-1.276C74.447,18.55,74.783,18.497,75.075,18.593z"/>
<path d="M89.74,28.928c-1.39-0.975-2.682-2.031-3.898-3.259c-0.302-0.312-0.6-0.631-0.894-0.978c-0.29-0.362-0.57-0.706-0.849-1.266
	c-0.067-0.13-0.139-0.321-0.195-0.525c-0.029-0.128-0.048-0.283-0.057-0.424c0.003-0.195,0.026-0.417,0.115-0.644
	c0.111-0.257,0.292-0.511,0.486-0.643c0.1-0.076,0.208-0.144,0.316-0.199c0.083-0.036,0.156-0.059,0.237-0.083
	c0.08-0.023,0.16-0.043,0.241-0.059l0.015,0.427l0.142,0.416h0.009h0.02l0.039-0.432l0.155-0.221
	c0.307-0.043,1.106-0.07,1.555,0.034c0.471,0.103,0.918,0.175,1.338,0.332c0.429,0.148,0.83,0.295,1.235,0.466
	c0.799,0.349,1.559,0.74,2.3,1.159c0.739,0.424,1.474,0.837,2.173,1.312c0.703,0.475,1.193,0.937,1.872,1.471l-1.547,1.439v-0.002
	c0-0.49-0.657-0.985-1.031-1.541c-0.186-0.277-0.267-0.563-0.432-0.877c-0.167-0.32-0.281-0.633-0.4-1.143
	c-0.027-0.136-0.033-0.275-0.026-0.505c0.005-0.112,0.019-0.214,0.074-0.393c0.023-0.08,0.057-0.156,0.092-0.232
	c0.05-0.093,0.114-0.184,0.183-0.267c0.135-0.174,0.308-0.273,0.492-0.363c0.172-0.074,0.285-0.085,0.434-0.108
	c0.217-0.015,0.42,0.007,0.537,0.038c0.526,0.127,0.823,0.303,1.143,0.472c0.353,0.213,0.538,0.321,0.85,0.54
	c0.295,0.206,0.579,0.414,0.828,0.624c1.043,0.82,1.872,1.807,2.76,2.5c0.221,0.167,0.445,0.326,0.672,0.429
	c0.226,0.119,0.453,0.201,0.689,0.226c0.119,0.029,0.24,0.021,0.365,0.013c0.125,0.004,0.252-0.021,0.381-0.062
	c0.262-0.047,0.516-0.183,0.781-0.289l0.068-0.026c0.197-0.08,0.422,0.016,0.5,0.213c0.07,0.172,0.006,0.364-0.145,0.463
	c-0.283,0.188-0.549,0.414-0.895,0.541c-0.16,0.082-0.332,0.146-0.521,0.181c-0.184,0.049-0.368,0.09-0.563,0.082
	c-0.384,0.026-0.777-0.037-1.127-0.152c-0.361-0.11-0.677-0.276-0.979-0.446c-1.19-0.705-2.108-1.537-3.095-2.177
	c-0.248-0.17-0.485-0.307-0.716-0.438c-0.21-0.127-0.584-0.303-0.776-0.396c-0.238-0.106-0.514-0.196-0.601-0.195
	c-0.034-0.009,0.009,0.016,0.072,0.005c0.074-0.003,0.104-0.014,0.208-0.052c0.122-0.044,0.208-0.123,0.307-0.223
	c0.045-0.052,0.082-0.112,0.109-0.173c0.022-0.04,0.04-0.078,0.053-0.121c0.024-0.105,0.027-0.128,0.03-0.162
	c0-0.075-0.001-0.057,0.007-0.042c0.034,0.097,0.148,0.352,0.274,0.581l0.429,0.732l0.936,1.518l0.002,0.002
	c0.37,0.396,0.35,1.017-0.046,1.388c-0.319,0.297-0.784,0.342-1.146,0.142l-0.154-0.087c-1.403-0.782-2.842-1.572-4.271-2.291
	c-1.431-0.692-2.913-1.384-4.274-1.709c-0.357-0.053-0.383,0.032-0.902,0.063l-0.156,0.165h-0.039h-0.02h-0.01l0.138-0.174
	c0.03-0.002,0.061-0.088,0.091-0.098c0.032-0.01,0.053-0.063,0.089-0.081c0.066-0.026,0.132-0.083,0.188-0.131
	c0.097-0.086,0.245-0.242,0.298-0.415c0.054-0.131,0.07-0.251,0.063-0.347c0.005-0.039-0.005-0.093-0.016-0.119
	c0.003-0.006-0.006-0.001,0.02,0.054c0.072,0.19,0.29,0.514,0.502,0.805c0.216,0.303,0.458,0.61,0.709,0.914
	c1.006,1.222,2.105,2.453,3.164,3.698l0.009,0.015c0.273,0.319,0.233,0.803-0.088,1.074C90.402,29.115,90.019,29.123,89.74,28.928z"
	/>
<path d="M111.188,28.27c0,0-0.09,0.018-0.258,0.043c-0.172,0.025-0.408,0.063-0.719,0.092c-0.613,0.057-1.494,0.135-2.574,0.051
	c-0.541-0.039-1.133-0.117-1.766-0.268c-0.633-0.162-1.313-0.379-1.98-0.813c-0.646-0.436-1.33-1.053-1.67-1.9l-0.072-0.15
	l-0.02-0.037l-0.033-0.093l-0.019-0.058l-0.075-0.245c-0.072-0.281-0.113-0.563-0.107-0.835c-0.01-0.561,0.256-1.242,0.688-1.639
	c0.864-0.8,1.752-0.869,2.511-0.917c0.77-0.014,1.483,0.079,2.17,0.264c0.344,0.097,0.68,0.201,1.021,0.357
	c0.329,0.183,0.729,0.301,1.092,0.867c0.086,0.162,0.177,0.348,0.177,0.574v0.04v0.02c0-0.082-0.039,0.135-0.037,0.114l-0.021,0.024
	l-0.015,0.052l-0.021,0.103c-0.01,0.121-0.203,0.608-0.354,0.721c-0.338,0.385-0.748,0.543-1.064,0.625
	c-0.663,0.164-1.188,0.132-1.654,0.102c-0.464-0.042-0.854-0.134-1.183-0.199c-0.647-0.156-1.045-0.332-1.045-0.332l-0.15-0.066
	c-0.519-0.229-0.75-0.832-0.521-1.348c0.229-0.516,0.83-0.75,1.348-0.521c0.104,0.045,0.197,0.109,0.275,0.181
	c0,0,0.184,0.166,0.643,0.369c0.229,0.104,0.521,0.194,0.859,0.267c0.332,0.07,0.74,0.112,1.05,0.038
	c0.166-0.022,0.255-0.095,0.271-0.116c0.015-0.007,0.017-0.009-0.006,0.02c-0.011,0.012,0.004,0.095,0.018-0.016
	c0.033-0.279,0.005,0.086,0.056,0.108c0.058,0.076-0.12-0.095-0.332-0.148c-0.215-0.075-0.471-0.136-0.735-0.165
	c-0.535-0.066-1.117-0.054-1.65,0.038c-0.523,0.086-1.025,0.318-1.125,0.464c-0.047,0.07-0.041,0.055-0.049,0.156
	c0.002,0.062,0.016,0.104,0.015,0.146l0.071,0.227l0.021,0.058l0.005,0.015l0.004,0.008c0.021,0.058-0.025-0.069-0.021-0.056
	l0.01,0.017l0.04,0.067c0.146,0.39,0.479,0.663,0.847,0.921c0.387,0.241,0.862,0.407,1.33,0.544
	c0.477,0.123,0.954,0.201,1.407,0.244c0.907,0.082,1.692,0.09,2.235,0.063c0.271-0.014,0.482-0.021,0.628-0.031
	c0.143-0.012,0.217-0.018,0.217-0.018l0.036-0.004c0.55-0.045,1.031,0.365,1.074,0.914C112.059,27.723,111.691,28.182,111.188,28.27
	z"/>
<path d="M109.379,18.075c0.012-0.009-0.086,0.073-0.107,0.104c-0.043,0.029-0.108,0.124-0.199,0.25
	c-0.049,0.059-0.063,0.139-0.102,0.215c-0.041,0.077-0.08,0.162-0.082,0.257c-0.018,0.096-0.033,0.195-0.053,0.295l0.045,0.325
	c0.016,0.111,0.008,0.229,0.072,0.336c0.049,0.113,0.096,0.223,0.141,0.329c0.053,0.105,0.074,0.221,0.146,0.31
	c0.066,0.092,0.132,0.178,0.189,0.258c0.239,0.327,0.399,0.545,0.399,0.545l0.045,0.06c0.121,0.166,0.086,0.4-0.08,0.521
	c-0.146,0.107-0.347,0.092-0.476-0.027c0,0-0.229-0.211-0.569-0.527c-0.086-0.081-0.181-0.169-0.278-0.262
	c-0.102-0.091-0.171-0.231-0.263-0.354c-0.086-0.13-0.177-0.266-0.271-0.403c-0.104-0.129-0.146-0.305-0.207-0.473
	c-0.055-0.172-0.106-0.344-0.162-0.513c-0.008-0.184-0.018-0.365-0.024-0.541c-0.019-0.18,0.017-0.347,0.054-0.508
	c0.039-0.158,0.057-0.319,0.114-0.449c0.104-0.263,0.209-0.486,0.332-0.651c0.119-0.179,0.138-0.19,0.146-0.203
	c0.307-0.329,0.817-0.347,1.146-0.042C109.664,17.233,109.684,17.747,109.379,18.075z"/>
<path d="M119.602,29.166c-1.006-0.936-1.904-1.938-2.758-3.045c-0.408-0.57-0.81-1.14-1.154-1.871
	c-0.086-0.188-0.168-0.386-0.234-0.626c-0.063-0.243-0.141-0.52-0.07-0.974c0.031-0.211,0.146-0.501,0.34-0.739
	c0.215-0.235,0.479-0.402,0.705-0.454c0.26-0.087,0.393-0.05,0.588-0.051c0.145,0.038,0.273,0.068,0.4,0.131h0.002l-1.035,0.859
	c0.033-0.451,0.065-0.79,0.362-1.292c0.101-0.131,0.173-0.25,0.317-0.372c0.154-0.118,0.303-0.241,0.506-0.295
	c0.406-0.148,0.773-0.083,1.052-0.009c0.253,0.083,0.489,0.202,0.636,0.314c0.182,0.115,0.336,0.235,0.453,0.352
	c0.275,0.237,0.482,0.478,0.699,0.718c0.416,0.479,0.762,0.98,1.083,1.483c0.335,0.501,0.601,0.985,0.903,1.479
	c0.586,0.973,1.139,2.005,1.711,2.845c0.14,0.199,0.293,0.396,0.4,0.482c0.129,0.1,0.104,0.146,0.246,0.131
	c0.141-0.01,0.365-0.117,0.58-0.262c0.217-0.146,0.438-0.316,0.668-0.482l0.012-0.01c0.172-0.123,0.408-0.086,0.531,0.084
	c0.098,0.133,0.096,0.309,0.01,0.438c-0.168,0.248-0.34,0.49-0.551,0.729c-0.211,0.232-0.443,0.484-0.844,0.674
	c-0.203,0.098-0.449,0.141-0.717,0.127c-0.238-0.029-0.504-0.104-0.67-0.207c-0.387-0.201-0.621-0.439-0.859-0.67
	c-0.451-0.459-0.82-0.932-1.174-1.396c-0.348-0.473-0.688-0.937-1.012-1.408l-0.967-1.402c-0.311-0.453-0.633-0.884-0.947-1.284
	c-0.162-0.189-0.326-0.387-0.482-0.524c-0.082-0.089-0.154-0.141-0.219-0.182c-0.078-0.071-0.104-0.06-0.117-0.086
	c0.008-0.002,0.074,0.009,0.213-0.037c0.116-0.055,0.18-0.127,0.17-0.142c-0.02-0.02-0.111,0.218-0.143,0.332l-0.053,0.198
	c-0.117,0.441-0.543,0.718-0.982,0.662H117.2c-0.039,0.056-0.073,0.076-0.095,0.11c0.033,0.035-0.01,0.053,0.1,0.045
	c0.063-0.006,0.199-0.064,0.295-0.184c0.104-0.096,0.137-0.24,0.148-0.283c0.01-0.125-0.018-0.066,0.002,0.013
	c0.012,0.083,0.043,0.198,0.082,0.318c0.172,0.496,0.479,1.063,0.793,1.604c0.619,1.111,1.354,2.214,2.059,3.32l0.008,0.012
	c0.192,0.306,0.104,0.705-0.199,0.896C120.137,29.402,119.813,29.363,119.602,29.166z"/>
<path d="M127.148,20.571c0,0,0.229,0.393,0.781,1.042c0.273,0.316,0.619,0.695,1.053,1.071c0.426,0.382,0.949,0.771,1.529,1.041
	c0.291,0.152,0.592,0.199,0.867,0.227c0.064,0,0.125-0.017,0.189-0.02c0.016,0.002,0.104-0.014,0.061,0.004l0.148-0.049
	c0.229-0.063,0.346-0.141,0.479-0.205c0.592-0.319,1.104-1.053,0.848-1.393c-0.207-0.38-1.117-0.627-1.99-0.591l-0.682,0.51
	l-0.086,0.483h-0.021h-0.012c-0.078,0,0.095-0.477,0.069-0.477l-0.047-0.233l-0.188-0.099l-0.377-0.017
	c-0.299,0.015-0.39,0.067-0.531,0.098c-0.146,0.014-0.25,0.11-0.379,0.149c-0.196,0.143-0.327,0.198-0.396,0.39
	c-0.071,0.065-0.051,0.217-0.101,0.33c0.021,0.154-0.026,0.288,0.025,0.464c0.104,0.672,0.475,1.421,0.959,2.02
	c0.506,0.61,1.071,1.047,1.764,1.37c0.81,0.4,1.496,0.631,2.16,0.881c0.697,0.207,1.347,0.402,1.935,0.539
	c0.584,0.15,1.104,0.242,1.532,0.336c0.861,0.162,1.357,0.23,1.357,0.23c0.114,0.016,0.196,0.121,0.182,0.236
	c-0.012,0.094-0.084,0.164-0.172,0.182c0,0-0.517,0.094-1.416,0.145c-0.451,0.02-1.004,0.055-1.637,0.018
	c-0.638-0.004-1.351-0.082-2.136-0.186c-0.396-0.068-0.817-0.15-1.254-0.246c-0.449-0.09-0.813-0.236-1.24-0.357
	c-0.938-0.27-1.938-0.859-2.709-1.65c-0.782-0.797-1.442-1.792-1.723-3.079c-0.095-0.305-0.08-0.678-0.104-1.021
	c0.051-0.374,0.049-0.744,0.225-1.128c0.123-0.389,0.357-0.739,0.641-1.059c0.28-0.284,0.633-0.549,0.969-0.698
	c0.342-0.139,0.688-0.28,1.051-0.31c0.354-0.052,0.759-0.098,0.965-0.05l0.378,0.036l0.188,0.018l0.047,0.005
	c-0.016,0,0.164,0.005,0.096,0.004l0.014,0.003l0.023,0.005l0.104,0.022l0.809,0.18L132.2,20c0.271,0.124,0.534,0.214,0.798,0.365
	c0.508,0.282,1.088,0.697,1.359,1.398c0.281,0.713,0.057,1.457-0.256,1.933c-0.318,0.498-0.732,0.852-1.182,1.127
	c-0.254,0.137-0.516,0.264-0.689,0.324l-0.146,0.057c-0.146,0.047-0.159,0.038-0.248,0.059c-0.14,0.023-0.282,0.057-0.418,0.063
	c-0.539,0.009-1.026-0.095-1.433-0.245c-0.83-0.285-1.467-0.689-2.026-1.039c-0.549-0.363-1.015-0.693-1.381-0.981
	c-0.74-0.557-1.174-0.929-1.174-0.929l-0.063-0.057c-0.5-0.429-0.559-1.181-0.13-1.68c0.431-0.499,1.183-0.557,1.683-0.127
	C126.996,20.355,127.082,20.461,127.148,20.571z"/>
<path d="M138.289,19.184c0,0,0.498,0.219,1.372,0.502c0.875,0.29,2.13,0.642,3.659,1.019c0.771,0.188,1.613,0.333,2.535,0.616
	c0.23,0.074,0.472,0.157,0.727,0.269c0.258,0.141,0.521,0.233,0.875,0.642c0.096,0.159,0.178,0.225,0.236,0.49
	c0.063,0.238,0.057,0.476-0.032,0.715c-0.17,0.444-0.431,0.614-0.591,0.735l-0.146,0.1l-0.076,0.045l-0.156,0.091l-0.344,0.188
	c-0.861,0.453-1.754,0.92-2.658,1.395c-0.883,0.479-1.785,0.938-2.604,1.46c-0.41,0.248-0.809,0.514-1.117,0.779
	c-0.162,0.131-0.275,0.266-0.346,0.354c-0.084,0.111,0.006,0.039-0.059-0.164c-0.084-0.18-0.086-0.104,0.02-0.041
	c0.094,0.064,0.327,0.168,0.436,0.201c0.48,0.139,0.953,0.277,1.422,0.412c0.932,0.258,1.842,0.568,2.677,0.693
	c0.845,0.174,1.646,0.338,2.379,0.484c0.748,0.133,1.448,0.195,2.063,0.301c0.614,0.092,1.16,0.188,1.588,0.195
	c0.873,0.063,1.373,0.104,1.373,0.104l0.094,0.008c0.248,0.019,0.435,0.232,0.414,0.479c-0.019,0.228-0.197,0.399-0.418,0.414
	c0,0-0.536,0.035-1.478,0.099c-0.479,0.045-1.028,0.012-1.672-0.004c-0.644-0.021-1.362-0.037-2.155-0.099
	c-0.8-0.09-1.662-0.188-2.576-0.291c-0.938-0.073-1.824-0.336-2.778-0.534c-0.474-0.107-0.955-0.218-1.443-0.324
	c-0.37-0.103-0.606-0.188-0.954-0.369c-0.313-0.196-0.757-0.448-0.992-1.131c-0.209-0.701,0.071-1.31,0.278-1.606
	c0.224-0.334,0.459-0.584,0.688-0.789c0.461-0.42,0.924-0.738,1.389-1.041c1.857-1.164,3.816-1.936,5.531-2.751l0.3-0.145
	l0.159-0.082l0.08-0.041c-0.01,0.004,0-0.002,0-0.001c0.037-0.004-0.027,0.001-0.118,0.225c-0.034,0.128-0.04,0.25-0.013,0.372
	c0.061,0.142,0.039,0.123,0.088,0.177c0.063,0.041-0.082-0.109-0.215-0.197c-0.148-0.106-0.319-0.209-0.498-0.309
	c-0.729-0.388-1.504-0.709-2.23-0.938c-1.471-0.43-2.75-0.617-3.646-0.697c-0.899-0.082-1.422-0.046-1.422-0.046
	c-0.566,0.039-1.06-0.39-1.098-0.958c-0.039-0.567,0.391-1.059,0.957-1.098c0.17-0.012,0.334,0.019,0.479,0.082L138.289,19.184z"/>
<path d="M141.893,24.194c0,0,0.826,0.41,2.051,0.883c0.619,0.238,1.318,0.563,2.129,0.813c0.801,0.266,1.65,0.553,2.506,0.838
	c0.43,0.138,0.854,0.301,1.279,0.414c0.431,0.11,0.854,0.226,1.262,0.332c0.818,0.215,1.585,0.416,2.238,0.588
	c1.314,0.347,2.191,0.576,2.191,0.576l0.018,0.006c0.131,0.033,0.209,0.168,0.176,0.301c-0.031,0.121-0.152,0.199-0.275,0.181
	c0,0-0.898-0.14-2.25-0.349c-0.676-0.104-1.465-0.229-2.313-0.356c-0.424-0.065-0.86-0.135-1.307-0.202
	c-0.445-0.068-0.888-0.189-1.336-0.283c-0.896-0.199-1.791-0.399-2.632-0.59c-0.843-0.164-1.621-0.429-2.295-0.611
	c-1.362-0.375-2.203-0.688-2.203-0.688l-0.034-0.015c-0.519-0.192-0.779-0.77-0.586-1.288c0.192-0.518,0.771-0.78,1.288-0.586
	C141.829,24.165,141.861,24.179,141.893,24.194z"/>
</svg>
