<?xml version="1.0" encoding="utf-8"?>
<!-- Generator: Adobe Illustrator 16.0.0, SVG Export Plug-In . SVG Version: 6.00 Build 0)  -->
<!DOCTYPE svg PUBLIC "-//W3C//DTD SVG 1.1//EN" "http://www.w3.org/Graphics/SVG/1.1/DTD/svg11.dtd">
<svg version="1.1" id="firmaDepositosNeg" xmlns="http://www.w3.org/2000/svg" xmlns:xlink="http://www.w3.org/1999/xlink" x="0px" y="0px"
	 width="200px" height="51px" viewBox="0 0 200 51" enable-background="new 0 0 200 51" xml:space="preserve">
<path fill="#FFFFFF" d="M165.514,23.041c0.895,0.382,1.846,0.702,2.783,0.946c0.916,0.244,1.944,0.445,2.674,0.445
	c0.084,0,0.135-0.008,0.152-0.006c-0.049,0.011-0.006,0-0.121,0.051c-0.058,0.027-0.107,0.064-0.154,0.109
	c-0.109,0.084-0.207,0.209-0.26,0.34c-0.063,0.127-0.115,0.301-0.105,0.459c0.016,0.172,0.011,0.181,0.038,0.277
	c0.084,0.193,0.053,0.135,0.088,0.188c0.009,0.018-0.013-0.025-0.079-0.079l-0.043-0.04c0.021,0.016-0.111-0.092,0.039,0.021
	l-0.159-0.102l-0.315-0.206c-0.209-0.131-0.424-0.287-0.629-0.397c-0.836-0.438-1.594-0.892-2.518-1.332
	c-3.537-1.805-7.218-3.395-10.9-4.948c-7.4-3.043-14.957-5.747-22.645-8.016c-1.907-0.618-3.852-1.105-5.782-1.643
	c-1.934-0.527-3.86-1.079-5.819-1.511l-5.854-1.376L110,5.087c-0.986-0.182-1.968-0.396-2.957-0.55l-2.975-0.443
	c-1.984-0.282-3.963-0.619-5.953-0.857c-3.991-0.369-7.971-0.928-11.983-1.007c-2.003-0.078-4.005-0.211-6.008-0.243l-6.013,0.07
	c-1.001,0.016-2.007,0.012-3.003,0.045L68.095,2.25c-2.01,0.093-4.006,0.239-6.01,0.368C54.082,3.24,46.1,4.208,38.237,5.752
	c-7.831,1.601-15.619,3.783-22.667,7.369c-3.472,1.832-6.802,4.046-9.202,6.991C3.944,23,2.732,26.75,3.408,30.322
	C4,34.025,6.25,37.145,9.332,39.348c3.067,2.223,6.716,3.715,10.46,4.83c7.541,2.197,15.547,2.922,23.495,3.068
	c3.979,0.063,7.97-0.055,11.995-0.18l12.05-0.414l24.103-0.967c8.034-0.336,16.065-0.729,24.092-1.191
	c8.026-0.465,16.056-0.914,24.067-1.555c4.002-0.33,8.009-0.678,11.986-1.145c0.993-0.119,1.985-0.248,2.967-0.4
	c0.489-0.078,0.978-0.162,1.448-0.266c0.235-0.051,0.47-0.105,0.675-0.172c0.1-0.033,0.205-0.072,0.241-0.096
	c0.007-0.002,0.027-0.014,0.003,0.002c-0.003,0.004-0.029,0.016-0.092,0.113c-0.045,0.025-0.09,0.355-0.02,0.438l-0.039-0.086
	c-0.077-0.152-0.498-0.465-0.894-0.699c-0.405-0.242-0.839-0.471-1.28-0.682c-0.885-0.428-1.801-0.818-2.723-1.191
	c-3.706-1.469-7.518-2.457-11.355-3.59c-3.84-1.086-7.739-1.477-11.609-2.477h-0.005l0.336-2.268
	c2.864,0.633,5.739,1.063,8.61,1.658l8.625,1.639c2.873,0.576,5.752,1.086,8.636,1.607l8.64,1.604
	c2.875,0.564,5.764,1.049,8.648,1.563l8.658,1.518c1.447,0.225,2.89,0.504,4.334,0.762l4.334,0.785l4.348,0.734
	c1.447,0.248,2.9,0.486,4.357,0.707c0.553,0.084,0.934,0.602,0.85,1.152c-0.084,0.553-0.6,0.936-1.152,0.852
	c-0.033-0.006-0.066-0.014-0.1-0.021l-0.07-0.018c-1.414-0.363-2.832-0.711-4.254-1.047l-4.266-1.016l-4.279-0.965
	c-1.43-0.316-2.852-0.66-4.288-0.943l-8.629-1.664c-2.877-0.549-5.751-1.117-8.638-1.615l-8.655-1.518
	c-2.886-0.506-5.774-0.992-8.67-1.441l-4.341-0.693c-1.446-0.227-2.891-0.475-4.342-0.682c-2.9-0.414-5.795-0.861-8.703-1.24
	c-0.553-0.072-0.941-0.305-0.871-0.855c0.072-0.553,0.58-0.596,1.133-0.596h0.007h0.067h0.006c4.05,1,7.892,1.74,11.742,2.988
	c3.841,1.252,7.656,2.436,11.395,4.012c0.934,0.4,1.862,0.75,2.778,1.217c0.459,0.23,0.913,0.445,1.364,0.729
	c0.228,0.139,0.449,0.277,0.676,0.455c0.121,0.109,0.208,0.146,0.355,0.313c0.141,0.154,0.301,0.375,0.321,0.459l0.04,0.084
	c0.102,0.133,0.047,0.539-0.034,0.611c-0.092,0.154-0.166,0.207-0.22,0.248c-0.072,0.059-0.107,0.072-0.157,0.102
	c-0.185,0.1-0.317,0.141-0.457,0.188c-0.272,0.086-0.528,0.145-0.786,0.199c-0.511,0.109-1.015,0.193-1.519,0.271
	c-1.007,0.152-2.009,0.279-3.013,0.396c-4.012,0.457-8.021,0.787-12.033,1.104c-8.023,0.637-16.047,1.238-24.074,1.771
	l-24.084,1.563c-8.029,0.508-16.059,0.996-24.093,1.438l-12.055,0.635c-4.01,0.189-8.06,0.42-12.124,0.361
	c-8.106-0.105-16.287-0.771-24.23-3.027c-3.957-1.125-7.873-2.742-11.298-5.303c-1.702-1.275-3.271-2.814-4.467-4.654
	c-0.591-0.92-1.129-1.887-1.504-2.922c-0.213-0.498-0.374-1.047-0.52-1.604c-0.178-0.576-0.226-1.035-0.324-1.537
	c-0.355-2.215-0.229-4.451,0.472-6.557c0.687-2.096,1.854-3.977,3.251-5.581c2.814-3.229,6.418-5.429,10.083-7.231
	c7.423-3.509,15.362-5.408,23.293-6.85c7.942-1.469,15.972-2.297,24.005-2.878c2.009-0.136,4.023-0.288,6.03-0.387l3.012-0.156
	c1.013-0.037,2.018-0.036,3.027-0.055L80.131,1c2.016,0.026,4.03,0.154,6.044,0.227c2.016,0.079,4.031,0.152,6.036,0.375l6.025,0.54
	c2.004,0.215,3.997,0.529,5.997,0.789l2.997,0.409c0.998,0.144,1.986,0.347,2.979,0.517l5.955,1.071l5.914,1.278
	c1.979,0.395,3.93,0.91,5.887,1.4c1.953,0.501,3.922,0.954,5.854,1.536c7.787,2.127,15.452,4.694,22.988,7.615
	c3.758,1.495,7.498,3.02,11.164,4.796c0.902,0.405,1.892,0.955,2.837,1.447c0.237,0.126,0.434,0.264,0.653,0.396l0.319,0.199
	l0.159,0.1c0.201,0.152,0.111,0.091,0.182,0.146l0.098,0.085c0.125,0.108,0.272,0.255,0.435,0.471
	c0.095,0.162,0.159,0.195,0.265,0.518c0.039,0.156,0.076,0.225,0.076,0.459c-0.004,0.219-0.053,0.459-0.142,0.64
	c-0.093,0.182-0.228,0.355-0.376,0.49c-0.1,0.078-0.204,0.146-0.314,0.207c-0.225,0.115-0.311,0.123-0.477,0.176
	c-0.229,0.053-0.428,0.074-0.596,0.084c-1.283,0.039-2.248,0.012-3.31-0.092c-1.032-0.121-2.046-0.188-3.106-0.188h-0.01
	c-0.97,0-1.685-1.081-1.598-2.05c0.087-0.969,0.943-1.753,1.913-1.666C165.166,22.992,165.351,22.972,165.514,23.041z"/>
<path fill="#FFFFFF" d="M21.196,16.239c-0.135,0.537-0.223,1.116-0.272,1.682c-0.064,0.571-0.073,1.142-0.078,1.714
	c0.019,0.568,0.022,1.143,0.102,1.703c0.07,0.562,0.137,1.128,0.288,1.666c0.134,0.544,0.292,1.08,0.513,1.575
	c0.22,0.494,0.476,0.973,0.803,1.346l0.24,0.283l0.277,0.213l0.136,0.109l0.034,0.029c-0.075-0.039,0.007,0.004,0.003,0l0.097,0.051
	c0.163,0.098,0.199,0.076,0.232,0.098c0.012-0.008,0.02-0.006,0.03,0.004c-0.021-0.016-0.033,0.006-0.053,0.01
	c-0.053,0.021-0.043,0.055-0.03-0.006c0.036-0.094,0.061-0.332,0.036-0.568c-0.09-0.982-0.496-2.069-0.994-3.045
	c-0.519-0.98-1.12-1.927-1.847-2.762c-1.421-1.688-3.259-3.005-5.229-3.604l0,0l-0.424-0.296c-0.597-0.417-0.743-1.239-0.326-1.835
	c0.301-0.431,0.815-0.626,1.302-0.544c2.357,0.401,4.707,0.566,7.065,0.682l3.544,0.133c0.594,0.025,1.186,0.053,1.793,0.1
	c0.324,0.031,0.572,0.037,1.007,0.124c0.092,0.027,0.11,0.022,0.262,0.083c0.191,0.084,0.546,0.278,0.632,0.462
	c0.007,0.005,0.213,0.255,0.213,0.15v0.007l-0.157,0.014l-0.075,0.027c0.025,0.118,0.002,0.365,0,0.396l-0.004,0.457
	c0.034,1.169,0.07,2.312,0.221,3.445c0.147,1.129,0.357,2.242,0.676,3.294c0.314,1.049,0.75,2.049,1.363,2.806
	c0.606,0.766,1.343,1.213,2.145,1.307c0.767,0.088,1.316,0.781,1.228,1.549c-0.089,0.768-0.782,1.316-1.549,1.229
	c-0.069-0.008-0.138-0.021-0.203-0.037l-0.072-0.021c-1.514-0.416-2.772-1.484-3.493-2.656c-0.733-1.184-1.15-2.414-1.446-3.631
	c-0.287-1.222-0.442-2.442-0.523-3.654c-0.083-1.209-0.11-2.421-0.11-3.604v-0.429c0-0.117,0.007-0.016,0.017-0.044l-0.009-0.027
	l-0.013-0.015v-0.007c0-0.11,0.05,0.136,0.052,0.139c0.055,0.164,0.222,0.337,0.383,0.4c0.083,0.036,0.03,0.016,0.052,0.021
	c-0.141-0.037-0.481-0.069-0.743-0.094c-0.566-0.049-1.148-0.083-1.73-0.114c-1.165-0.064-2.337-0.106-3.511-0.116
	C20.704,16.421,18.348,16.5,16,16.84l0.552-2.676l0,0c1.166,0.622,2.229,1.369,3.161,2.229c0.931,0.863,1.738,1.821,2.45,2.83
	c0.705,1.016,1.318,2.084,1.804,3.215c0.468,1.142,0.905,2.289,0.97,3.646c0.006,0.344,0.003,0.707-0.182,1.156
	c-0.085,0.213-0.27,0.488-0.574,0.656c-0.143,0.082-0.31,0.109-0.468,0.141c-0.136,0-0.274-0.01-0.408-0.027
	c-0.246-0.064-0.492-0.168-0.579-0.229l-0.097-0.051l-0.092-0.055l-0.052-0.041l-0.208-0.164l-0.409-0.334l-0.324-0.387
	c-0.434-0.516-0.723-1.091-0.97-1.664c-0.247-0.576-0.458-1.154-0.618-1.742c-0.165-0.587-0.332-1.17-0.456-1.761
	c-0.126-0.591-0.271-1.178-0.376-1.771l-0.711-3.608l-0.008-0.041c-0.153-0.775,0.352-1.528,1.127-1.681s1.528,0.352,1.681,1.127
	C21.254,15.825,21.245,16.043,21.196,16.239z"/>
<path fill="#FFFFFF" d="M42.486,23.134c0,0,0.084-0.018,0.211-0.044c0.143-0.022,0.334-0.075,0.508-0.137
	c0.178-0.053,0.337-0.114,0.446-0.167c0.095-0.054,0.182-0.082,0.182-0.082l0.509-0.163c0.561-0.18,1.161,0.129,1.341,0.69
	c0.1,0.311,0.047,0.638-0.114,0.895c0,0-0.11,0.174-0.309,0.423c-0.206,0.229-0.503,0.5-0.822,0.715
	c-0.325,0.199-0.657,0.359-0.919,0.457c-0.123,0.051-0.25,0.082-0.351,0.109c-0.075,0.02-0.117,0.029-0.117,0.029
	c-0.746,0.187-1.502-0.266-1.69-1.011c-0.188-0.746,0.265-1.502,1.011-1.69c0.017-0.004,0.034-0.008,0.051-0.012L42.486,23.134z"/>
<path fill="#FFFFFF" d="M56.422,10.561c1.364,0.341,2.764,0.634,4.142,0.861c0.688,0.115,1.379,0.21,2.042,0.246
	c0.328,0.017,0.654,0.016,0.919-0.02c0.119-0.018,0.25-0.049,0.26-0.064c0.014-0.003,0.012-0.003-0.009,0.006l-0.054,0.051
	c-0.015,0.015-0.026,0.033-0.035,0.052l-0.006,0.014c0.015-0.035-0.144,0.344-0.075,0.179l0.002-0.008l0.01-0.033l0.038-0.129
	c-0.001-0.003,0.031-0.084,0.001-0.023c-0.02,0.04-0.033,0.087-0.037,0.135c-0.013,0.095,0.029,0.204,0.062,0.252
	c-0.013,0.042,0.066,0.085,0.047,0.079c-0.005-0.005-0.083-0.035-0.169-0.066c-0.207-0.039-0.458-0.051-0.705-0.004
	c-0.5,0.083-0.919,0.372-1.192,0.773c-0.266,0.411-0.438,0.948-0.431,1.562c-0.002,0.052-0.016,0.199-0.011,0.172l0.018,0.269
	l0.035,0.538c0.028,0.354,0.037,0.724,0.08,1.066c0.126,0.662,0.229,1.321,0.341,1.992l0.497,2.042
	c0.188,0.676,0.42,1.342,0.632,2.013c0.208,0.674,0.515,1.31,0.778,1.962c0.139,0.323,0.266,0.651,0.415,0.971l0.497,0.928
	c0.352,0.605,0.625,1.262,1.039,1.822c0.405,0.563,0.782,1.152,1.204,1.691c0.464,0.504,0.918,1.008,1.389,1.486
	c0.444,0.451,0.438,1.176-0.014,1.621c-0.363,0.355-0.902,0.713-1.331,0.492l-0.173,0.201h-0.001c-0.767-1-1.609-1.555-2.44-2.154
	c-0.847-0.578-1.717-1.256-2.597-1.779c-0.441-0.258-0.887-0.586-1.354-0.771l-1.383-0.648c-0.471-0.195-0.895-0.436-1.39-0.637
	l-0.39-0.191c-0.075-0.037-0.124-0.061-0.218-0.113l-0.128-0.076c-0.055-0.033-0.164-0.115-0.236-0.18l-0.029-0.025
	c-0.04-0.041-0.1-0.111-0.143-0.182c-0.094-0.145-0.156-0.334-0.167-0.506c-0.012-0.16,0.001-0.307,0.117-0.533
	c0.108-0.212,0.323-0.395,0.507-0.471c0.122-0.051,0.106-0.037,0.126-0.045l0.047-0.01l0.096-0.02c0.057-0.01,0.145-0.02,0.177-0.02
	c0.104,0,0.227,0.002,0.293,0.01l0.434,0.045c1.056,0.14,2.048,0.287,3.065,0.396c1.012,0.113,2.024,0.194,3.038,0.265
	c2.027,0.115,4.062,0.129,6.089-0.039c0.321-0.028,0.604,0.209,0.631,0.531c0.026,0.299-0.184,0.566-0.472,0.623
	c-2.074,0.395-4.188,0.57-6.296,0.566c-1.055,0.01-2.108-0.035-3.156-0.111c-1.044-0.07-2.105,0.002-3.104-0.09l-0.339,0.164h-0.095
	c0,0,0.056-0.189,0.081-0.195l0.048-0.104l0.127-0.092c0.171-0.064,0.375-0.262,0.47-0.463c0.098-0.217,0.105-0.363,0.107-0.51
	c-0.004-0.156-0.059-0.337-0.145-0.467c-0.04-0.063-0.096-0.129-0.131-0.162l-0.01-0.014c-0.019-0.024-0.079-0.063-0.079-0.063
	l0.041,0.021c0.017,0.012,0.087,0.042,0.127,0.063l0.315,0.146c0.459,0.198,0.94,0.481,1.401,0.733l1.396,0.771
	c0.472,0.248,0.912,0.529,1.362,0.797c0.896,0.539,1.845,0.996,2.737,1.539c0.914,0.51,1.83,1.012,2.776,1.502h0.001l-1.517,1.73
	c-0.411-0.652-0.839-1.281-1.257-1.912c-0.394-0.639-0.725-1.305-1.086-1.951c-0.392-0.633-0.651-1.322-0.981-1.979
	c-0.33-0.658-0.604-1.335-0.881-2.013c-0.272-0.68-0.588-1.341-0.804-2.041c-0.241-0.69-0.514-1.371-0.737-2.069l-0.619-2.118
	c-0.17-0.736-0.312-1.492-0.451-2.241c-0.052-0.368-0.066-0.718-0.102-1.078l-0.045-0.536l-0.022-0.269
	c-0.016-0.205,0.007-0.237,0.01-0.364c0.011-0.82,0.245-1.728,0.779-2.502c0.538-0.776,1.42-1.333,2.342-1.469
	c0.462-0.076,0.938-0.066,1.432,0.05c0.256,0.082,0.517,0.172,0.799,0.389c0.133,0.089,0.296,0.306,0.404,0.478
	c0.063,0.13,0.116,0.331,0.125,0.512c0.005,0.092,0.002,0.183-0.008,0.267c-0.013,0.104-0.015,0.065-0.023,0.105l-0.041,0.129
	l-0.01,0.032l-0.002,0.008c0.066-0.16-0.092,0.226-0.082,0.194l-0.027,0.041c-0.037,0.054-0.077,0.106-0.119,0.157
	c-0.089,0.112-0.168,0.166-0.254,0.228c-0.09,0.068-0.171,0.111-0.242,0.14c-0.313,0.146-0.542,0.171-0.776,0.208
	c-0.448,0.051-0.843,0.039-1.231,0.016c-0.771-0.054-1.502-0.168-2.229-0.299c-1.448-0.277-2.846-0.642-4.253-1.049
	c-0.393-0.113-0.619-0.524-0.505-0.917c0.111-0.384,0.505-0.609,0.89-0.513L56.422,10.561z"/>
<path fill="#FFFFFF" d="M72.469,19.87c0,0,0.263,0.471,0.712,1.157c0.455,0.679,1.081,1.575,1.768,2.409
	c0.686,0.823,1.416,1.643,2.021,2.021c0.149,0.094,0.284,0.149,0.382,0.174c0.053,0.016,0.073,0,0.102,0.004
	c-0.003-0.024,0.009-0.033-0.039-0.057c-0.086-0.059-0.355-0.011-0.484,0.061c-0.145,0.068-0.195,0.144-0.195,0.144
	c0.4-0.5,1.13-0.581,1.63-0.181c0.5,0.4,0.581,1.13,0.181,1.63c0,0-0.103,0.119-0.346,0.27c-0.229,0.15-0.692,0.258-1.018,0.174
	c-0.167-0.031-0.283-0.088-0.426-0.15c-0.102-0.059-0.232-0.125-0.325-0.195c-0.196-0.141-0.38-0.295-0.556-0.457
	c-0.707-0.639-1.499-1.436-2.262-2.279c-1.509-1.678-3.019-3.355-3.019-3.355l-0.016-0.017c-0.432-0.479-0.393-1.218,0.087-1.65
	s1.219-0.393,1.65,0.087C72.376,19.722,72.428,19.797,72.469,19.87z"/>
<path fill="#FFFFFF" d="M75.075,18.593c0,0,0.064,0.021,0.16,0.054c0.083,0.02,0.253,0.102,0.323,0.09
	c0.169,0.005,0.293,0.022,0.293,0.022l0.124,0.017c0.662,0.09,1.126,0.699,1.036,1.361c-0.089,0.662-0.699,1.126-1.361,1.037
	c-0.203-0.027-0.392-0.107-0.547-0.219c0,0-0.329-0.238-0.613-0.489c-0.161-0.133-0.196-0.213-0.279-0.296
	c-0.066-0.077-0.11-0.128-0.11-0.128c-0.325-0.379-0.282-0.95,0.097-1.276C74.447,18.55,74.783,18.497,75.075,18.593z"/>
<path fill="#FFFFFF" d="M89.74,28.928c-1.39-0.975-2.682-2.031-3.898-3.259c-0.302-0.312-0.6-0.631-0.894-0.978
	c-0.29-0.362-0.57-0.706-0.849-1.266c-0.067-0.13-0.139-0.321-0.195-0.525c-0.029-0.128-0.048-0.283-0.057-0.424
	c0.003-0.195,0.026-0.417,0.115-0.644c0.111-0.257,0.292-0.511,0.486-0.643c0.1-0.076,0.208-0.144,0.316-0.199
	c0.083-0.036,0.156-0.059,0.237-0.083c0.08-0.023,0.16-0.043,0.241-0.059l0.015,0.427l0.142,0.416h0.009h0.02l0.039-0.432
	l0.155-0.221c0.307-0.043,1.106-0.07,1.555,0.034c0.471,0.103,0.918,0.175,1.338,0.332c0.429,0.148,0.83,0.295,1.235,0.466
	c0.799,0.349,1.559,0.74,2.3,1.159c0.739,0.424,1.474,0.837,2.173,1.312c0.703,0.475,1.193,0.937,1.872,1.471l-1.547,1.439v-0.002
	c0-0.49-0.657-0.986-1.031-1.541c-0.186-0.277-0.267-0.563-0.432-0.877c-0.167-0.32-0.281-0.633-0.4-1.143
	c-0.027-0.136-0.033-0.275-0.026-0.505c0.005-0.112,0.019-0.214,0.074-0.393c0.023-0.08,0.057-0.156,0.092-0.232
	c0.05-0.093,0.114-0.184,0.183-0.267c0.135-0.174,0.308-0.273,0.492-0.363c0.172-0.074,0.285-0.085,0.434-0.108
	c0.217-0.015,0.42,0.007,0.537,0.038c0.526,0.127,0.823,0.303,1.143,0.472c0.353,0.213,0.538,0.321,0.85,0.54
	c0.295,0.206,0.579,0.414,0.828,0.624c1.043,0.82,1.872,1.807,2.76,2.5c0.221,0.167,0.445,0.326,0.672,0.429
	c0.226,0.119,0.453,0.201,0.691,0.225c0.119,0.029,0.241,0.021,0.366,0.012c0.125,0.004,0.252-0.02,0.38-0.061
	c0.262-0.047,0.516-0.182,0.782-0.289l0.069-0.027c0.197-0.08,0.422,0.016,0.5,0.213c0.07,0.172,0.006,0.365-0.145,0.463
	c-0.283,0.189-0.548,0.414-0.894,0.541c-0.161,0.082-0.333,0.146-0.521,0.18c-0.183,0.049-0.368,0.09-0.563,0.082
	c-0.383,0.027-0.778-0.037-1.127-0.152c-0.361-0.111-0.677-0.277-0.979-0.447c-1.19-0.705-2.108-1.537-3.095-2.177
	c-0.248-0.17-0.485-0.307-0.716-0.438c-0.21-0.127-0.584-0.303-0.776-0.396c-0.238-0.106-0.514-0.196-0.601-0.195
	c-0.034-0.009,0.009,0.016,0.072,0.005c0.074-0.003,0.104-0.014,0.208-0.052c0.122-0.044,0.208-0.123,0.307-0.223
	c0.045-0.052,0.082-0.112,0.109-0.173c0.022-0.04,0.04-0.078,0.053-0.121c0.024-0.105,0.027-0.128,0.03-0.162
	c0-0.075-0.001-0.057,0.007-0.042c0.034,0.097,0.148,0.352,0.274,0.581l0.429,0.732l0.936,1.517l0.002,0.002
	c0.37,0.395,0.35,1.016-0.046,1.387c-0.319,0.297-0.784,0.342-1.146,0.141l-0.154-0.086c-1.403-0.783-2.842-1.572-4.271-2.291
	c-1.431-0.692-2.913-1.384-4.274-1.709c-0.357-0.053-0.383,0.032-0.902,0.063l-0.156,0.165h-0.039h-0.02h-0.01l0.138-0.174
	c0.03-0.002,0.061-0.088,0.091-0.098c0.032-0.01,0.053-0.063,0.089-0.081c0.066-0.026,0.132-0.083,0.188-0.131
	c0.097-0.086,0.245-0.242,0.298-0.415c0.054-0.131,0.07-0.251,0.063-0.347c0.005-0.039-0.005-0.093-0.016-0.119
	c0.003-0.006-0.006-0.001,0.02,0.054c0.072,0.19,0.29,0.514,0.502,0.805c0.216,0.303,0.458,0.61,0.709,0.914
	c1.006,1.222,2.105,2.452,3.164,3.698l0.009,0.014c0.273,0.32,0.233,0.803-0.088,1.074C90.402,29.115,90.019,29.123,89.74,28.928z"
	/>
<path fill="#FFFFFF" d="M111.188,28.27c0,0-0.09,0.016-0.258,0.043c-0.172,0.025-0.409,0.063-0.719,0.092
	c-0.613,0.055-1.494,0.133-2.574,0.049c-0.541-0.039-1.133-0.117-1.766-0.266c-0.632-0.162-1.313-0.379-1.98-0.813
	c-0.646-0.436-1.331-1.053-1.67-1.9l-0.073-0.15l-0.019-0.037l-0.033-0.093l-0.019-0.058l-0.075-0.245
	c-0.072-0.281-0.113-0.563-0.107-0.835c-0.01-0.561,0.255-1.242,0.688-1.639c0.864-0.8,1.752-0.869,2.51-0.917
	c0.77-0.014,1.484,0.079,2.17,0.264c0.344,0.097,0.681,0.201,1.02,0.357c0.33,0.183,0.73,0.301,1.092,0.867
	c0.086,0.162,0.176,0.348,0.176,0.574v0.04v0.02c0-0.082-0.039,0.135-0.037,0.114l-0.02,0.024l-0.014,0.052l-0.021,0.103
	c-0.01,0.121-0.203,0.608-0.356,0.721c-0.337,0.385-0.747,0.543-1.064,0.625c-0.663,0.164-1.188,0.132-1.655,0.102
	c-0.463-0.042-0.853-0.134-1.182-0.199c-0.648-0.156-1.045-0.332-1.045-0.332l-0.15-0.066c-0.518-0.229-0.75-0.832-0.521-1.348
	s0.831-0.75,1.348-0.521c0.104,0.045,0.197,0.109,0.276,0.181c0,0,0.183,0.166,0.642,0.369c0.228,0.104,0.521,0.194,0.86,0.267
	c0.332,0.07,0.739,0.112,1.049,0.038c0.166-0.022,0.255-0.095,0.271-0.116c0.014-0.007,0.015-0.009-0.006,0.02
	c-0.011,0.012,0.004,0.095,0.018-0.016c0.033-0.279,0.003,0.086,0.054,0.108c0.056,0.076-0.12-0.095-0.332-0.148
	c-0.215-0.075-0.471-0.136-0.737-0.165c-0.535-0.066-1.117-0.054-1.65,0.038c-0.523,0.086-1.025,0.318-1.125,0.464
	c-0.047,0.07-0.041,0.055-0.048,0.156c0.001,0.062,0.015,0.104,0.014,0.146l0.072,0.227l0.021,0.058l0.004,0.015l0.004,0.008
	c0.02,0.058-0.025-0.069-0.021-0.056l0.01,0.017l0.04,0.067c0.145,0.39,0.48,0.663,0.846,0.921c0.387,0.241,0.863,0.407,1.33,0.544
	c0.477,0.123,0.955,0.201,1.408,0.244c0.907,0.082,1.693,0.09,2.237,0.063c0.271-0.014,0.481-0.023,0.626-0.031
	c0.143-0.012,0.217-0.018,0.217-0.018l0.036-0.004c0.55-0.045,1.032,0.365,1.076,0.914C112.059,27.723,111.691,28.182,111.188,28.27
	z"/>
<path fill="#FFFFFF" d="M109.379,18.075c0.012-0.009-0.086,0.073-0.107,0.104c-0.044,0.029-0.11,0.124-0.199,0.25
	c-0.05,0.059-0.063,0.139-0.102,0.215c-0.041,0.077-0.08,0.162-0.082,0.257c-0.018,0.096-0.034,0.195-0.053,0.295l0.045,0.325
	c0.016,0.111,0.008,0.229,0.072,0.336c0.049,0.113,0.096,0.223,0.141,0.329c0.053,0.105,0.074,0.221,0.146,0.31
	c0.067,0.092,0.132,0.178,0.19,0.258c0.24,0.327,0.4,0.545,0.4,0.545l0.045,0.06c0.121,0.166,0.086,0.4-0.08,0.521
	c-0.146,0.107-0.346,0.092-0.475-0.027c0,0-0.229-0.211-0.57-0.527c-0.086-0.081-0.18-0.169-0.279-0.262
	c-0.101-0.091-0.17-0.231-0.262-0.354c-0.086-0.13-0.177-0.266-0.269-0.403c-0.104-0.129-0.147-0.305-0.207-0.473
	c-0.056-0.172-0.108-0.344-0.162-0.513c-0.009-0.184-0.019-0.365-0.026-0.541c-0.017-0.18,0.016-0.347,0.053-0.508
	c0.039-0.158,0.057-0.319,0.115-0.449c0.104-0.263,0.209-0.486,0.332-0.651c0.119-0.179,0.137-0.19,0.145-0.203
	c0.306-0.329,0.818-0.347,1.146-0.042C109.664,17.233,109.684,17.747,109.379,18.075z"/>
<path fill="#FFFFFF" d="M119.601,29.166c-1.005-0.936-1.903-1.938-2.757-3.045c-0.409-0.57-0.81-1.14-1.155-1.871
	c-0.085-0.188-0.167-0.386-0.235-0.626c-0.063-0.243-0.14-0.52-0.07-0.974c0.031-0.211,0.145-0.501,0.338-0.739
	c0.216-0.235,0.479-0.402,0.705-0.454c0.261-0.087,0.393-0.05,0.588-0.051c0.145,0.038,0.275,0.068,0.402,0.131h0.002l-1.035,0.859
	c0.033-0.451,0.065-0.79,0.362-1.292c0.099-0.131,0.173-0.25,0.318-0.372c0.155-0.118,0.302-0.241,0.506-0.295
	c0.407-0.148,0.774-0.083,1.051-0.009c0.253,0.083,0.491,0.202,0.636,0.314c0.18,0.115,0.336,0.235,0.453,0.352
	c0.277,0.237,0.484,0.478,0.699,0.718c0.416,0.479,0.762,0.98,1.083,1.483c0.335,0.501,0.601,0.985,0.904,1.479
	c0.586,0.973,1.138,2.005,1.712,2.845c0.138,0.199,0.293,0.396,0.4,0.482c0.129,0.1,0.104,0.148,0.246,0.131
	c0.14-0.01,0.365-0.117,0.58-0.262c0.217-0.146,0.438-0.316,0.668-0.482l0.012-0.01c0.171-0.123,0.408-0.086,0.531,0.084
	c0.098,0.133,0.096,0.309,0.01,0.438c-0.168,0.248-0.34,0.49-0.551,0.729c-0.211,0.232-0.444,0.484-0.844,0.674
	c-0.203,0.096-0.449,0.139-0.717,0.127c-0.238-0.031-0.504-0.104-0.67-0.207c-0.387-0.203-0.621-0.441-0.859-0.67
	c-0.451-0.459-0.82-0.932-1.174-1.396c-0.347-0.473-0.688-0.936-1.012-1.408l-0.967-1.402c-0.309-0.453-0.631-0.884-0.947-1.284
	c-0.162-0.189-0.325-0.387-0.482-0.524c-0.082-0.089-0.154-0.141-0.218-0.182c-0.079-0.071-0.104-0.06-0.118-0.086
	c0.008-0.002,0.075,0.009,0.213-0.037c0.116-0.055,0.18-0.127,0.17-0.142c-0.019-0.02-0.111,0.218-0.143,0.332l-0.053,0.198
	c-0.117,0.441-0.543,0.718-0.982,0.662H117.2c-0.039,0.056-0.073,0.076-0.095,0.11c0.033,0.035-0.01,0.053,0.1,0.045
	c0.063-0.006,0.199-0.064,0.295-0.184c0.104-0.096,0.137-0.24,0.149-0.283c0.009-0.125-0.017-0.066,0.001,0.013
	c0.012,0.083,0.043,0.198,0.083,0.318c0.172,0.496,0.478,1.063,0.793,1.604c0.619,1.111,1.354,2.214,2.058,3.32l0.008,0.012
	c0.192,0.305,0.104,0.705-0.199,0.896C120.137,29.402,119.813,29.363,119.601,29.166z"/>
<path fill="#FFFFFF" d="M127.148,20.571c0,0,0.229,0.393,0.781,1.042c0.275,0.316,0.621,0.695,1.054,1.071
	c0.425,0.382,0.948,0.771,1.528,1.041c0.291,0.152,0.592,0.199,0.869,0.227c0.065,0,0.125-0.017,0.19-0.02
	c0.015,0.002,0.104-0.014,0.06,0.004l0.149-0.049c0.229-0.063,0.345-0.141,0.478-0.205c0.59-0.319,1.104-1.053,0.847-1.393
	c-0.208-0.38-1.118-0.627-1.991-0.591l-0.682,0.51l-0.086,0.483h-0.021h-0.011c-0.078,0,0.094-0.477,0.07-0.477l-0.047-0.233
	l-0.188-0.099l-0.376-0.017c-0.3,0.015-0.39,0.067-0.532,0.098c-0.146,0.014-0.25,0.11-0.378,0.149
	c-0.198,0.143-0.329,0.198-0.396,0.39c-0.071,0.065-0.051,0.217-0.101,0.33c0.022,0.154-0.026,0.288,0.025,0.464
	c0.104,0.672,0.476,1.421,0.959,2.02c0.506,0.61,1.073,1.047,1.765,1.37c0.809,0.4,1.496,0.631,2.159,0.881
	c0.698,0.207,1.347,0.402,1.935,0.539c0.584,0.15,1.105,0.242,1.533,0.336c0.861,0.162,1.357,0.23,1.357,0.23
	c0.115,0.016,0.197,0.121,0.182,0.236c-0.013,0.094-0.085,0.164-0.172,0.182c0,0-0.516,0.094-1.417,0.145
	c-0.451,0.018-1.004,0.053-1.636,0.016c-0.637-0.004-1.35-0.082-2.135-0.184c-0.396-0.07-0.818-0.152-1.254-0.246
	c-0.449-0.09-0.812-0.238-1.24-0.359c-0.938-0.268-1.94-0.861-2.709-1.652c-0.783-0.797-1.443-1.792-1.723-3.077
	c-0.093-0.305-0.08-0.678-0.104-1.021c0.052-0.374,0.05-0.744,0.225-1.128c0.123-0.389,0.358-0.739,0.64-1.059
	c0.28-0.284,0.631-0.549,0.967-0.698c0.343-0.139,0.688-0.28,1.052-0.31c0.354-0.052,0.758-0.098,0.964-0.05l0.378,0.036
	l0.188,0.018l0.048,0.005c-0.015,0,0.164,0.005,0.095,0.004l0.014,0.003l0.024,0.005l0.103,0.022l0.809,0.18l0.804,0.259
	c0.271,0.124,0.535,0.214,0.798,0.365c0.508,0.282,1.088,0.697,1.36,1.398c0.282,0.713,0.056,1.457-0.255,1.933
	c-0.32,0.498-0.734,0.852-1.182,1.127c-0.254,0.137-0.516,0.264-0.689,0.324l-0.146,0.057c-0.146,0.047-0.16,0.038-0.248,0.059
	c-0.14,0.023-0.283,0.057-0.418,0.063c-0.539,0.009-1.026-0.095-1.432-0.245c-0.831-0.285-1.467-0.689-2.027-1.039
	c-0.549-0.363-1.014-0.693-1.381-0.981c-0.74-0.557-1.174-0.929-1.174-0.929l-0.064-0.057c-0.5-0.429-0.558-1.181-0.129-1.68
	c0.43-0.499,1.182-0.557,1.682-0.127C126.996,20.355,127.082,20.461,127.148,20.571z"/>
<path fill="#FFFFFF" d="M138.289,19.184c0,0,0.498,0.219,1.372,0.502c0.875,0.29,2.13,0.642,3.66,1.019
	c0.771,0.188,1.612,0.333,2.534,0.616c0.232,0.074,0.472,0.157,0.727,0.269c0.258,0.141,0.521,0.233,0.875,0.642
	c0.096,0.159,0.178,0.225,0.237,0.49c0.062,0.238,0.056,0.476-0.033,0.715c-0.17,0.444-0.43,0.614-0.59,0.735l-0.147,0.1
	l-0.076,0.045l-0.156,0.091l-0.344,0.188c-0.862,0.453-1.754,0.92-2.659,1.395c-0.882,0.48-1.784,0.939-2.603,1.46
	c-0.41,0.248-0.809,0.514-1.117,0.779c-0.162,0.131-0.276,0.266-0.346,0.354c-0.084,0.111,0.006,0.039-0.058-0.164
	c-0.085-0.18-0.087-0.104,0.019-0.041c0.094,0.064,0.327,0.168,0.436,0.201c0.48,0.139,0.953,0.277,1.421,0.412
	c0.931,0.258,1.841,0.568,2.676,0.693c0.845,0.174,1.644,0.338,2.379,0.486c0.748,0.131,1.45,0.195,2.063,0.299
	c0.615,0.092,1.16,0.189,1.587,0.197c0.874,0.064,1.373,0.104,1.373,0.104l0.095,0.008c0.247,0.018,0.434,0.232,0.414,0.48
	c-0.018,0.227-0.198,0.4-0.419,0.414c0,0-0.536,0.035-1.476,0.098c-0.48,0.045-1.03,0.012-1.672-0.004
	c-0.643-0.02-1.363-0.037-2.156-0.098c-0.799-0.09-1.662-0.188-2.576-0.291c-0.939-0.074-1.824-0.336-2.779-0.535
	c-0.474-0.107-0.955-0.217-1.443-0.324c-0.371-0.102-0.606-0.189-0.955-0.369c-0.313-0.197-0.756-0.449-0.992-1.131
	c-0.209-0.701,0.072-1.309,0.279-1.607c0.224-0.334,0.459-0.584,0.688-0.789c0.462-0.42,0.924-0.738,1.389-1.041
	c1.858-1.164,3.817-1.936,5.531-2.751l0.3-0.145l0.159-0.082l0.08-0.041c-0.01,0.004,0-0.002,0-0.001
	c0.037-0.004-0.027,0.001-0.118,0.225c-0.034,0.128-0.04,0.25-0.013,0.372c0.061,0.142,0.039,0.123,0.088,0.177
	c0.063,0.041-0.081-0.109-0.215-0.197c-0.148-0.106-0.319-0.209-0.497-0.309c-0.728-0.388-1.505-0.709-2.231-0.938
	c-1.47-0.43-2.75-0.617-3.647-0.697c-0.9-0.082-1.421-0.046-1.421-0.046c-0.568,0.039-1.06-0.39-1.098-0.958
	c-0.039-0.567,0.391-1.059,0.957-1.098c0.17-0.012,0.334,0.019,0.479,0.082L138.289,19.184z"/>
<path fill="#FFFFFF" d="M141.893,24.194c0,0,0.826,0.41,2.05,0.883c0.619,0.238,1.319,0.563,2.129,0.813
	c0.8,0.267,1.651,0.554,2.505,0.839c0.43,0.137,0.852,0.301,1.28,0.414c0.43,0.111,0.853,0.225,1.261,0.332
	c0.819,0.215,1.585,0.416,2.24,0.588c1.314,0.346,2.191,0.576,2.191,0.576l0.017,0.006c0.131,0.033,0.21,0.168,0.175,0.301
	c-0.031,0.121-0.152,0.199-0.275,0.18c0,0-0.899-0.139-2.25-0.348c-0.676-0.105-1.465-0.229-2.313-0.357
	c-0.424-0.066-0.861-0.135-1.307-0.203s-0.887-0.189-1.336-0.283c-0.896-0.199-1.791-0.4-2.631-0.59
	c-0.843-0.164-1.621-0.428-2.295-0.611c-1.363-0.375-2.203-0.689-2.203-0.689l-0.035-0.014c-0.518-0.193-0.779-0.771-0.586-1.289
	c0.193-0.518,0.771-0.78,1.289-0.586C141.829,24.165,141.861,24.179,141.893,24.194z"/>
</svg>
