<svg id="search" xmlns="http://www.w3.org/2000/svg" width="12px" height="12px" viewBox="0 0 12 12">
    <path fill="#D1D1D1" d="M11.833,10.103l-0.072-0.072l0,0L8.868,7.138
        c0.402-0.693,0.636-1.494,0.641-2.353C9.526,2.159,7.411,0.017,4.785,0C4.774,0,4.765,0,4.754,0C2.143,0,0.017,2.108,0,4.724
        c-0.017,2.627,2.099,4.769,4.725,4.785c0.01,0,0.021,0,0.03,0c0.873,0,1.691-0.236,2.395-0.648l2.89,2.892l0.001-0.001l0.072,0.073
        c0.219,0.218,0.572,0.218,0.791,0l0.93-0.931C12.052,10.676,12.052,10.321,11.833,10.103z M4.731,8.297
        C2.779,8.284,1.2,6.685,1.213,4.731c0.012-1.94,1.601-3.519,3.541-3.519h0.023c0.946,0.005,1.833,0.38,2.498,1.054
        c0.665,0.672,1.027,1.564,1.021,2.51c-0.006,0.942-0.378,1.828-1.046,2.49c-0.668,0.664-1.555,1.03-2.496,1.03H4.731z"/>
</svg>