<?xml version="1.0" encoding="utf-8"?>
<!-- Generator: Adobe Illustrator 16.0.0, SVG Export Plug-In . SVG Version: 6.00 Build 0)  -->
<!DOCTYPE svg PUBLIC "-//W3C//DTD SVG 1.1//EN" "http://www.w3.org/Graphics/SVG/1.1/DTD/svg11.dtd">
<svg version="1.1" id="accessKey" xmlns="http://www.w3.org/2000/svg" xmlns:xlink="http://www.w3.org/1999/xlink" x="0px" y="0px"
	 width="16px" height="16px" viewBox="0 0 16 16" enable-background="new 0 0 16 16" xml:space="preserve">
<path fill="#FFFFFF" d="M2.065,13.764h1.383l0.654-0.905c0.061-0.083,0.152-0.14,0.255-0.158l0.88-0.136l0.242-1.051
	c0.04-0.168,0.187-0.286,0.361-0.294l1.047-0.046l0.073-1.008c0.007-0.097,0.052-0.188,0.125-0.255l1.36-1.21
	c0.119-0.108,0.296-0.127,0.438-0.058c0.501,0.25,0.944,0.298,1.604,0.298c2.085,0,3.779-1.659,3.779-3.689
	c0-2.04-1.696-3.687-3.779-3.687c-2.088,0-3.783,1.659-3.783,3.687c0,0.793,0.162,1.384,0.52,1.925
	c0.1,0.152,0.078,0.354-0.053,0.478l-4.969,4.75l-0.143,1.152L2.065,13.764z M3.655,14.916H1.638c-0.109,0-0.216-0.045-0.288-0.126
	c-0.074-0.078-0.109-0.188-0.098-0.295l0.201-1.925c0.009-0.089,0.049-0.172,0.114-0.234l4.865-4.682
	c-0.33-0.599-0.484-1.268-0.484-2.086c0-2.467,2.052-4.484,4.565-4.484c2.523,0,4.564,2.004,4.564,4.484s-2.052,4.496-4.564,4.496
	c-0.645,0-1.178-0.052-1.705-0.271l-1.064,0.949l-0.087,1.199c-0.013,0.193-0.173,0.347-0.37,0.354l-1.098,0.05l-0.237,1.028
	c-0.035,0.155-0.161,0.267-0.318,0.295l-0.979,0.154l-0.677,0.941H3.665L3.655,14.916z"/>
<path fill="#FFFFFF" d="M10.473,7.208c-1.013,0-1.837-0.824-1.837-1.837s0.824-1.837,1.837-1.837c1.014,0,1.838,0.824,1.838,1.837
	S11.486,7.208,10.473,7.208z M10.473,4.109c-0.694,0-1.261,0.565-1.261,1.261s0.566,1.261,1.261,1.261
	c0.695,0,1.261-0.565,1.261-1.261S11.168,4.109,10.473,4.109z"/>
</svg>
