<?xml version="1.0" encoding="utf-8"?>
<!-- Generator: Adobe Illustrator 16.0.0, SVG Export Plug-In . SVG Version: 6.00 Build 0)  -->
<!DOCTYPE svg PUBLIC "-//W3C//DTD SVG 1.1//EN" "http://www.w3.org/Graphics/SVG/1.1/DTD/svg11.dtd">
<svg version="1.1"
	 id="iconos" xmlns:dc="http://purl.org/dc/elements/1.1/" xmlns:cc="http://creativecommons.org/ns#" xmlns:rdf="http://www.w3.org/1999/02/22-rdf-syntax-ns#"
	 xmlns="http://www.w3.org/2000/svg" xmlns:xlink="http://www.w3.org/1999/xlink" x="0px" y="0px" width="54.166px"
	 height="3855.41px" viewBox="0 0 54.166 3855.41" enable-background="new 0 0 54.166 3855.41" xml:space="preserve">
<path fill="#2792D0" d="M6.066,571.993c-1.605,0-2.866,0.102-3.787,0.564C0.662,573.229,0,574.686,0,577.591
	c0,5.396,0.966,6.415,6.083,6.415c1.605,0,2.864-0.1,3.785-0.57c1.619-0.665,2.279-2.123,2.279-5.021
	C12.146,573.013,11.182,571.993,6.066,571.993"/>
<polygon id="close2" fill="#4C4C4C" points="9.6,20 6,24 2.4,20 0,22 3.6,26 0,29.998 2.4,31.998 6,28 9.6,31.998 12,29.998 8.4,26 
	12,22 "/>
<path id="periodic_2_" fill="#B1B1B1" d="M43.951,603.01c-1.179-0.021-3.356,0.391-4.47,1.604l-1.455-1.604v4.521h4.229
	l-1.563-1.705c0.783-0.889,1.979-1.312,3.211-1.312c2.382,0.021,4.47,2.04,4.47,4.521c-0.021,2.521-2.298,4.104-4.64,4.104
	l0.082,1.432c3.754,0,6.183-2.521,6.183-5.795C50,606.271,47.571,603.052,43.951,603.01z"/>
<polygon id="cancelLogin" fill="#FFFFFF" points="6,676.01 1.79,680.01 0,678.01 4.21,674.01 0,670.01 1.79,668.01 6,672.01 
	10.2,668.01 12,670.01 7.79,674.01 12,678.01 10.2,680.01 "/>
<polygon id="cancelLogin_1_" fill="#6E6E6E" points="6,657.994 1.79,661.994 0,659.994 4.21,655.994 0,651.994 1.79,649.994 
	6,653.994 10.2,649.994 12,651.994 7.79,655.994 12,659.994 10.2,661.994 "/>
<rect id="Rectangle-10" y="960.001" fill="#FFFFFF" width="20" height="4"/>
<rect id="Rectangle-10-copy" y="968.001" fill="#FFFFFF" width="20" height="4"/>
<rect id="Rectangle-10-copy-2" y="976.001" fill="#FFFFFF" width="20" height="4"/>
<rect id="Rectangle-10_3_" x="30" y="960.001" width="20" height="4"/>
<rect id="Rectangle-10-copy_3_" x="30" y="968.001" width="20" height="4"/>
<rect id="Rectangle-10-copy-2_3_" x="30" y="976.001" width="20" height="4"/>
<rect id="Rectangle-10_1_" y="992.001" fill="#F06F24" width="20" height="4"/>
<rect id="Rectangle-10-copy_1_" y="1000.001" fill="#F06F24" width="20" height="4"/>
<rect id="Rectangle-10-copy-2_1_" y="1008.001" fill="#F06F24" width="20" height="4"/>
<rect id="Rectangle-10_2_" x="30" y="992.001" fill="#C84527" width="20" height="4"/>
<rect id="Rectangle-10-copy_2_" x="30" y="1000.001" fill="#C84527" width="20" height="4"/>
<rect id="Rectangle-10-copy-2_2_" x="30" y="1008.001" fill="#C84527" width="20" height="4"/>
<polygon id="close_1_" fill="#F06F24" points="12,1407.001 8.4,1403.001 12,1399.001 9.6,1397.001 6,1401.001 2.4,1397.001 
	0,1399.001 3.6,1403.001 0,1407.001 2.4,1409.001 6,1405.001 9.6,1409.001 "/>
<polygon id="close_2_" fill="#C84527" points="12,1379.001 8.4,1375.001 12,1371.001 9.6,1369.001 6,1373.001 2.4,1369.001 
	0,1371.001 3.6,1375.001 0,1379.001 2.4,1381.001 6,1377.001 9.6,1381.001 "/>
<g>
	<path fill="#D1D1D1" d="M7.375,1495.184c0-1.438-0.892-2.379-2.409-2.379c-1.22,0-2.201,0.594-3.063,1.545L0,1492.597
		c1.279-1.521,3.034-2.604,5.205-2.604c3.212,0,5.502,1.688,5.502,4.938c0,3.771-4.64,5.104-4.223,8.938H3.479
		C2.855,1499.556,7.375,1497.854,7.375,1495.184z M4.997,1506.001c1.249,0,2.23,0.979,2.23,2.313s-0.981,2.313-2.23,2.313
		c-1.25,0-2.201-0.979-2.201-2.313S3.747,1506.001,4.997,1506.001z"/>
</g>
<polygon id="close2_1_" fill="#6E6E6E" points="47.601,1397.001 44,1401.001 40.399,1397.001 38,1399.001 41.601,1403.001 
	38,1407.001 40.399,1409.001 44,1405.001 47.601,1409.001 50,1407.001 46.399,1403.001 50,1399.001 "/>
<path fill="#00B315" d="M5.559,1667.649l5.407,10.002H0L5.559,1667.649z"/>
<path fill="#E00000" d="M5.387,1734.32L0,1724.311l10.966,0.021L5.387,1734.32z"/>
<path fill="#333333" d="M5.387,1762.485L0,1752.476l10.966,0.021L5.387,1762.485z"/>
<path fill="#333333" d="M5.578,1780.822l5.387,10.011L0,1790.811L5.578,1780.822z"/>
<path fill="#00B315" d="M44.595,2150.001L50,2160.003H39.035L44.595,2150.001z"/>
<path fill="#E00000" d="M44.422,2210.021l-5.387-10.021L50,2200.021L44.422,2210.021z"/>
<polygon fill="#F06F24" points="20.5,1954.036 25,1950.007 29.5,1954.036 "/>
<path fill="#09535E" d="M19.258,2800.001H2.844c-0.61,0-1.793,1.188-1.793,1.793v16.414c0,0.604,1.183,1.793,1.793,1.793h8.547
	v-7.603H8.636v-2.746h2.756v-2.104c0-2.584,1.955-4.105,4.26-4.105c1.104,0,1.685,0.11,1.962,0.146v2.605l-1.955-0.002
	c-1.254,0-1.487,0.623-1.487,1.496v1.963h3.479l-0.454,2.746h-3.025v7.604h5.087c0.609,0,1.793-1.188,1.793-1.793v-16.414
	C21.051,2801.189,19.867,2800.001,19.258,2800.001z"/>
<path fill="#09535E" d="M22.102,2842.128c-0.813,0.354-1.687,0.604-2.604,0.727c0.936-0.563,1.654-1.444,1.993-2.521
	c-0.876,0.521-1.847,0.896-2.88,1.104c-0.826-0.887-2.005-1.438-3.31-1.438c-2.504,0-4.534,2.021-4.534,4.521
	c0,0.354,0.04,0.695,0.117,1.027c-3.769-0.188-7.109-1.988-9.346-4.732c-0.391,0.67-0.614,1.445-0.614,2.277
	c0,1.563,0.801,2.961,2.018,3.771c-0.743-0.021-1.443-0.229-2.054-0.563c-0.001,0.021-0.001,0.039-0.001,0.063
	c0,2.188,1.563,4.021,3.638,4.438c-0.381,0.104-0.781,0.148-1.195,0.148c-0.292,0-0.576-0.021-0.853-0.082
	c0.577,1.813,2.252,3.104,4.235,3.146c-1.552,1.226-3.507,1.938-5.631,1.938c-0.366,0-0.728-0.021-1.082-0.063
	c2.007,1.277,4.391,2.037,6.951,2.037c8.34,0,12.901-6.899,12.901-12.896c0-0.188-0.005-0.396-0.014-0.586
	C20.726,2843.835,21.494,2843.044,22.102,2842.128z"/>
<path fill="#5D5D5D" d="M6,2964.001c-3.313,0-6,2.688-6,6c0,3.313,2.687,6,6,6s6-2.688,6-6C12,2966.689,9.313,2964.001,6,2964.001z
	 M8.926,2972.059H2.999v-1.684h5.927V2972.059z M8.926,2969.056H2.999v-1.604h5.927V2969.056z"/>
<path fill="#6E6E6E" d="M44,2988.001c-3.313,0-6,2.688-6,6c0,3.313,2.688,6,6,6s6-2.688,6-6
	C50,2990.689,47.313,2988.001,44,2988.001z M46.923,2996.056h-5.925v-1.681h5.925V2996.056z M46.923,2993.056h-5.925v-1.604h5.925
	V2993.056z"/>
<path fill="#116E7D" d="M47.259,2800.001H30.847c-0.609,0-1.793,1.188-1.793,1.793v16.414c0,0.604,1.184,1.793,1.793,1.793h8.547
	v-7.603H36.64v-2.746h2.756v-2.104c0-2.584,1.955-4.105,4.26-4.105c1.104,0,1.689,0.11,1.979,0.146v2.605l-1.948-0.002
	c-1.261,0-1.479,0.623-1.479,1.496v1.963h3.479l-0.447,2.746h-3.057v7.604h5.088c0.606,0,1.795-1.188,1.795-1.793v-16.414
	C49.054,2801.189,47.868,2800.001,47.259,2800.001z"/>
<path fill="#116E7D" d="M50.104,2842.128c-0.813,0.354-1.688,0.604-2.604,0.727c0.938-0.563,1.651-1.444,1.993-2.521
	c-0.876,0.521-1.85,0.896-2.883,1.104c-0.823-0.887-2.006-1.438-3.313-1.438c-2.504,0-4.528,2.021-4.528,4.521
	c0,0.354,0.039,0.695,0.111,1.027c-3.771-0.188-7.104-1.988-9.346-4.732c-0.396,0.67-0.614,1.445-0.614,2.277
	c0,1.563,0.806,2.961,2.021,3.771c-0.729-0.021-1.438-0.229-2.053-0.563c-0.002,0.021-0.002,0.039-0.002,0.063
	c0,2.188,1.563,4.021,3.639,4.438c-0.381,0.104-0.771,0.148-1.188,0.148c-0.292,0-0.572-0.021-0.854-0.082
	c0.578,1.813,2.252,3.104,4.229,3.146c-1.552,1.226-3.507,1.938-5.631,1.938c-0.366,0-0.729-0.021-1.082-0.063
	c2.007,1.277,4.396,2.037,6.945,2.037c8.346,0,12.898-6.899,12.898-12.896c0-0.188-0.021-0.396-0.021-0.586
	C48.729,2843.835,49.495,2843.044,50.104,2842.128z"/>
<path fill="#FFFFFF" d="M9.671,703.635v-0.657c0-0.719-0.048-1.296-0.282-1.763c-0.469-1.1-1.613-1.239-2.56-1.239
	c-0.085,0-0.164,0-0.231,0H6.464c-1.194,0-1.944,0.095-2.482,0.563c-0.632,0.557-0.692,1.454-0.698,2.333l0.001,0.793
	c-0.978,0.552-1.384,1.62-1.384,3.578c0,4.003,0.717,4.762,4.519,4.762c1.192,0,2.128-0.073,2.813-0.426
	c1.202-0.49,1.692-1.571,1.692-3.729C10.925,705.474,10.672,704.242,9.671,703.635 M4.967,701.657
	c0.217-0.188,1.147-0.188,1.497-0.188h0.14c0.066-0.001,0.142-0.001,0.225-0.001c1.05,0,1.141,0.229,1.19,0.344l0.014,0.034
	l0.017,0.03c0.114,0.219,0.127,0.731,0.127,1.103v0.204c-0.499-0.063-1.083-0.089-1.771-0.089c-0.608,0-1.152,0.021-1.628,0.085
	v-0.305C4.78,702.613,4.785,701.816,4.967,701.657 M7.918,706.881H7.226v3.618H5.729v-3.618H4.908v-1.757h3.01V706.881z"/>
<path fill="#FFFFFF" d="M27.471,2744.552c0.023-0.25,0.036-0.502,0.036-0.762c0-4.222-3.241-7.679-7.36-8.007v-0.022h-9.652
	c-4.418,0-8.001,3.596-8.001,8.029c0,0.26,0.013,0.512,0.036,0.762c-0.023,0.248-0.036,0.502-0.036,0.758
	c0,4.438,3.583,8.033,8.001,8.033c0.224,0,0.445-0.014,0.664-0.027h0.359l-0.039,6.938l4.709-4.664l2.083-2.275h0.571
	c0.219,0.021,0.44,0.025,0.664,0.025c0.216,0,0.429-0.013,0.641-0.025c4.119-0.326,7.36-3.785,7.36-8.004
	C27.507,2745.052,27.494,2744.796,27.471,2744.552z"/>
<path fill="#C84527" d="M27.471,2694.552c0.023-0.25,0.036-0.502,0.036-0.762c0-4.222-3.241-7.679-7.36-8.007v-0.022h-9.652
	c-4.418,0-8.001,3.596-8.001,8.029c0,0.26,0.013,0.512,0.036,0.762c-0.023,0.248-0.036,0.502-0.036,0.758
	c0,4.438,3.583,8.033,8.001,8.033c0.224,0,0.445-0.014,0.664-0.027h0.359l-0.039,6.938l4.709-4.664l2.083-2.275h0.571
	c0.219,0.021,0.44,0.025,0.664,0.025c0.216,0,0.429-0.013,0.641-0.025c4.119-0.326,7.36-3.785,7.36-8.004
	C27.507,2695.052,27.494,2694.796,27.471,2694.552z"/>
<path fill="#F06F24" d="M27.471,2455.552c0.023-0.25,0.036-0.502,0.036-0.762c0-4.222-3.241-7.679-7.36-8.007v-0.022h-9.652
	c-4.418,0-8.001,3.596-8.001,8.029c0,0.26,0.013,0.512,0.036,0.762c-0.023,0.248-0.036,0.502-0.036,0.758
	c0,4.438,3.583,8.033,8.001,8.033c0.224,0,0.445-0.014,0.664-0.027h0.359l-0.039,6.938l4.709-4.664l2.083-2.275h0.571
	c0.219,0.021,0.44,0.025,0.664,0.025c0.216,0,0.429-0.013,0.641-0.025c4.119-0.326,7.36-3.785,7.36-8.004
	C27.507,2456.052,27.494,2455.796,27.471,2455.552z"/>
<path fill="#09535E" d="M12.021,237.743c0.01-0.1,0.015-0.201,0.015-0.303c0-1.688-1.296-3.069-2.942-3.2v-0.011H5.233
	c-1.767,0-3.198,1.438-3.198,3.211c0,0.103,0.005,0.203,0.015,0.303c-0.01,0.104-0.015,0.201-0.015,0.303
	c0,1.773,1.433,3.212,3.198,3.212c0.09,0,0.178-0.004,0.266-0.012h0.144l-0.016,2.775l1.883-1.864l0.832-0.911H8.57
	c0.088,0.007,0.176,0.012,0.266,0.012c0.087,0,0.172-0.005,0.256-0.012c1.647-0.131,2.943-1.514,2.943-3.2
	C12.035,237.944,12.029,237.844,12.021,237.743z"/>
<path fill="#116E7D" d="M12.021,267.635c0.01-0.104,0.015-0.2,0.015-0.307c0-1.688-1.296-3.066-2.942-3.201v-0.011H5.233
	c-1.767,0-3.198,1.438-3.198,3.211c0,0.104,0.005,0.203,0.015,0.307c-0.01,0.1-0.015,0.197-0.015,0.303
	c0,1.771,1.433,3.211,3.198,3.211c0.09,0,0.178-0.004,0.266-0.012h0.144l-0.016,2.772l1.883-1.865l0.832-0.907H8.57
	c0.088,0.008,0.176,0.012,0.266,0.012c0.087,0,0.172-0.005,0.256-0.012c1.647-0.135,2.943-1.517,2.943-3.2
	C12.035,267.837,12.029,267.735,12.021,267.635z"/>
<path fill="#DFDCDA" d="M21.968,2034.97c0.02-0.225,0.032-0.438,0.032-0.666c0-3.712-2.851-6.753-6.474-7.041v-0.021H7.037
	c-3.886,0-7.037,3.163-7.037,7.063c0,0.229,0.011,0.441,0.032,0.666C0.011,2035.192,0,2035.41,0,2035.637
	c0,3.897,3.151,7.063,7.037,7.063c0.196,0,0.392-0.012,0.584-0.021h0.316l-0.034,6.104l4.142-4.104l1.832-2.004h0.502
	c0.192,0.019,0.387,0.021,0.584,0.021c0.189,0,0.377-0.015,0.563-0.021c3.623-0.289,6.474-3.33,6.474-7.041
	C22,2035.412,21.988,2035.189,21.968,2034.97z"/>
<path fill="#E3D3C8" d="M49.97,2034.97c0.021-0.225,0.03-0.438,0.03-0.666c0-3.712-2.851-6.753-6.474-7.041v-0.021h-8.489
	c-3.886,0-7.037,3.163-7.037,7.063c0,0.229,0.013,0.441,0.032,0.666c-0.021,0.221-0.032,0.438-0.032,0.666
	c0,3.897,3.151,7.063,7.037,7.063c0.196,0,0.394-0.012,0.584-0.021h0.315l-0.035,6.104l4.144-4.104l1.832-2.004h0.502
	c0.192,0.019,0.39,0.021,0.584,0.021c0.188,0,0.378-0.015,0.563-0.021c3.623-0.289,6.474-3.33,6.474-7.041
	C50,2035.412,49.987,2035.189,49.97,2034.97z"/>
<path fill="#FFFFFF" d="M47.543,2321.249c-1.506,1.567-2.573,2.336-3.543,2.389c-0.97-0.053-2.037-0.813-3.544-2.389l-2.223,0.887
	l0.777,0.813c1.643,1.709,3.313,2.899,4.979,3.271c1.668-0.363,3.345-1.563,4.979-3.271l0.776-0.813L47.543,2321.249z"/>
<g>
	<path fill="#4C4C4C" d="M12.102,60.683l-4.363-4.405c0.264-0.626,0.319-1.361,0.319-2.065c0-1.559-0.134-2.666-0.798-3.363
		c-0.676-0.716-1.74-0.857-3.237-0.857c-0.98,0-1.765,0.064-2.389,0.376C0.195,50.972,0,52.415,0,53.748
		c0,1.562,0.133,2.666,0.797,3.367c0.675,0.711,1.738,0.854,3.236,0.854c0.954,0,1.722-0.063,2.336-0.354
		c1.573,1.576,4.315,4.358,4.377,4.419L12.102,60.683z"/>
	<path fill="#FFFFFF" d="M5.777,56.485l-0.043,0.021c-0.422,0.219-1.11,0.245-1.791,0.245c-1.302,0-1.961-0.134-2.273-0.464
		c-0.321-0.338-0.452-1.045-0.452-2.438c0-1.69,0.454-2.021,0.88-2.193l0.044-0.021c0.421-0.216,1.11-0.243,1.791-0.243
		c1.302,0,1.96,0.133,2.271,0.463c0.323,0.338,0.453,1.045,0.453,2.438C6.658,55.981,6.203,56.31,5.777,56.485"/>
</g>
<g>
	<path fill="#6E6E6E" d="M12.047,813.718l-4.363-4.405c0.264-0.626,0.318-1.356,0.318-2.063c0-1.563-0.134-2.666-0.797-3.363
		c-0.676-0.712-1.74-0.854-3.236-0.854c-0.98,0-1.766,0.063-2.389,0.375c-1.439,0.604-1.635,2.049-1.635,3.382
		c0,1.562,0.133,2.666,0.797,3.366c0.676,0.711,1.738,0.854,3.236,0.854c0.955,0,1.723-0.063,2.337-0.354
		c1.573,1.572,4.315,4.354,4.377,4.42L12.047,813.718z"/>
	<path fill="#FFFFFF" d="M5.723,809.516l-0.043,0.021c-0.422,0.219-1.11,0.245-1.791,0.245c-1.302,0-1.961-0.134-2.273-0.464
		c-0.32-0.338-0.451-1.045-0.451-2.438c0-1.689,0.454-2.021,0.881-2.193l0.043-0.021c0.422-0.216,1.111-0.243,1.791-0.243
		c1.303,0,1.961,0.133,2.271,0.463c0.323,0.338,0.453,1.045,0.453,2.438C6.604,809.013,6.148,809.344,5.723,809.516"/>
</g>
<g>
	<path fill="#6E6E6E" d="M16.186,3344.314l-5.836-5.896c0.353-0.838,0.426-1.819,0.426-2.766c0-2.084-0.179-3.563-1.065-4.502
		c-0.904-0.951-2.328-1.146-4.329-1.146c-1.312,0-2.361,0.086-3.196,0.504C0.26,3331.326,0,3333.255,0,3335.038
		c0,2.086,0.177,3.565,1.066,4.504c0.903,0.951,2.325,1.146,4.328,1.146c1.278,0,2.304-0.082,3.125-0.472
		c2.104,2.104,5.772,5.83,5.854,5.907L16.186,3344.314z"/>
	<path fill="#FFFFFF" d="M7.727,3338.697l-0.058,0.027c-0.564,0.291-1.485,0.324-2.396,0.324c-1.741,0-2.623-0.179-3.04-0.62
		c-0.429-0.448-0.604-1.396-0.604-3.268c0-2.262,0.607-2.697,1.177-2.938l0.059-0.021c0.563-0.291,1.485-0.326,2.396-0.326
		c1.742,0,2.622,0.181,3.037,0.617c0.432,0.45,0.606,1.396,0.606,3.266C8.906,3338.025,8.297,3338.468,7.727,3338.697"/>
</g>
<g>
	<path fill="#4C4C4C" d="M16.186,3454.191l-5.836-5.896c0.353-0.838,0.426-1.819,0.426-2.766c0-2.084-0.179-3.563-1.065-4.502
		c-0.904-0.951-2.328-1.146-4.329-1.146c-1.312,0-2.361,0.086-3.196,0.504C0.26,3441.204,0,3443.135,0,3444.915
		c0,2.088,0.177,3.565,1.066,4.504c0.903,0.952,2.325,1.146,4.328,1.146c1.278,0,2.304-0.08,3.125-0.471
		c2.104,2.104,5.772,5.83,5.854,5.908L16.186,3454.191z"/>
	<path fill="#FFFFFF" d="M7.727,3448.575l-0.058,0.028c-0.564,0.289-1.485,0.323-2.396,0.323c-1.741,0-2.623-0.18-3.04-0.62
		c-0.429-0.447-0.604-1.396-0.604-3.265c0-2.265,0.607-2.7,1.177-2.938l0.059-0.022c0.563-0.289,1.485-0.325,2.396-0.325
		c1.742,0,2.622,0.183,3.037,0.616c0.432,0.451,0.606,1.396,0.606,3.268C8.906,3447.903,8.297,3448.344,7.727,3448.575"/>
</g>
<path fill="#6E6E6E" d="M39.592,12.274c-0.483,0-0.983-0.201-1.495-0.704l-0.775-0.762c-0.899-0.893-1.149-1.792-0.764-2.761
	c0.146-0.449,0.438-0.909,0.965-1.482L37.54,6.55l4.923-4.972c2.187-2.173,3.185-2.124,5.619,0.274l0.479,0.474
	c0.938,0.918,1.813,2.036,1.277,3.359c-0.188,0.604-0.672,1.172-1.438,1.94l-2.523,2.552L45.2,9.513l2.523-2.553
	c0.646-0.654,1.08-1.147,1.211-1.571l0.017-0.043c0.229-0.56,0.139-1.168-1.063-2.35l-0.479-0.474
	c-2.079-2.043-2.479-2.07-4.276-0.281L38.217,7.21c-0.429,0.473-0.661,0.82-0.759,1.14L37.442,8.39
	c-0.176,0.424-0.25,0.964,0.545,1.741l0.772,0.765c0.681,0.667,1.216,0.699,2.771-0.822l3.967-3.97
	c0.254-0.257,0.499-0.521,0.552-0.697l0.019-0.045c0.039-0.096,0.14-0.322-0.236-0.675c-0.063-0.059-0.189-0.182-0.206-0.192
	c-0.5-0.492-0.694-0.661-1.53,0.172l-4.193,4.206l-0.68-0.665l4.193-4.209C44.666,2.754,45.46,3,46.288,3.814
	c0.021,0.022,0.148,0.146,0.188,0.185c0.729,0.686,0.615,1.354,0.479,1.705c-0.112,0.347-0.372,0.655-0.779,1.068l-3.972,3.976
	C41.409,11.52,40.528,12.274,39.592,12.274"/>
<g>
	<path fill="#4C4C4C" d="M10.192,123.017H8.494v3.368h-6.67v-6.684l3.368,0.012v-1.691H2.729c-0.732,0-1.242,0.049-1.594,0.232
		c-0.623,0.257-0.889,0.826-0.889,2.07c0,0.163,0.001,0.314,0.006,0.458v4.247c-0.003,0.089-0.006,0.181-0.006,0.278
		c0,2.282,0.314,2.663,2.363,2.677l0,0h5.549v-0.008c0.499-0.021,0.871-0.082,1.145-0.229c0.623-0.254,0.889-0.826,0.889-2.068
		c0-0.132-0.001-0.255-0.003-0.371h0.003V123.017z"/>
	<path fill="#4C4C4C" d="M9.414,116.348L9.414,116.348H6.155l1.602,1.604H9.05c-1.239,1.239-3.804,3.774-3.858,3.827l1.114,1.116
		l3.893-3.86v1.364l1.572,1.574v-2.67c0.002-0.092,0.005-0.184,0.005-0.278C11.777,116.742,11.462,116.363,9.414,116.348"/>
</g>
<g>
	<path fill="#6E6E6E" d="M10.94,876.027H9.242v3.363h-6.67v-6.684l3.368,0.015v-1.689H3.478c-0.732,0-1.242,0.049-1.594,0.23
		c-0.623,0.256-0.889,0.826-0.889,2.067c0,0.163,0.001,0.314,0.006,0.458v4.247c-0.003,0.089-0.006,0.184-0.006,0.278
		c0,2.279,0.314,2.663,2.363,2.677l0,0h5.549v-0.008c0.499-0.021,0.871-0.082,1.145-0.229c0.623-0.256,0.889-0.825,0.889-2.065
		c0-0.134-0.001-0.257-0.003-0.371h0.003L10.94,876.027L10.94,876.027z"/>
	<path fill="#6E6E6E" d="M10.162,869.358L10.162,869.358H6.903l1.602,1.604h1.294c-1.239,1.236-3.804,3.771-3.858,3.824l1.114,1.116
		l3.893-3.857v1.361l1.572,1.574v-2.67c0.002-0.094,0.005-0.188,0.005-0.278C12.525,869.755,12.21,869.372,10.162,869.358"/>
</g>
<path fill="#D1D1D1" d="M8.971,507.566L8.971,507.566v-0.988H7.266v0.988H4.855v-0.988H3.153v0.988h-0.18
	c-1.731,0-2.973,0.088-2.973,1.805v3.979v1.604v1.333c0,1.72,1.253,2.281,2.975,2.281H8.98c1.73,0,2.973-0.563,2.973-2.281v-1.333
	v-1.604v-3.979C11.953,507.654,10.691,507.566,8.971,507.566"/>
<rect x="2.012" y="511.327" fill="#FFFFFF" width="7.993" height="5.147"/>
<polygon fill="#4C4C4C" points="2.943,157.895 0.018,157.895 0.018,154.973 9.126,145.885 11.986,148.868 "/>
<polygon fill="#6E6E6E" points="2.941,910.89 0.016,910.89 0.016,907.969 9.125,898.884 11.984,901.863 "/>
<polygon fill="#4C4C4C" points="11.914,182 7.973,182 7.973,178.075 4.031,178.075 4.031,182 0.09,182 0.09,185.948 4.031,185.948 
	4.031,185.969 4.031,189.916 7.973,189.916 7.973,185.969 7.973,185.948 11.914,185.948 "/>
<polygon fill="#6E6E6E" points="11.912,935.016 7.97,935.016 7.97,931.094 4.029,931.094 4.029,935.016 0.088,935.016 
	0.088,938.966 4.029,938.966 4.029,938.985 4.029,942.932 7.97,942.932 7.97,938.985 7.97,938.966 11.912,938.966 "/>
<g>
	<path fill="#F06F24" d="M11.146,2506.742l6.444-6.438c-0.519-0.188-1.212-0.255-2.138-0.271H6.954
		c-0.989,0-1.727,0.058-2.275,0.246L11.146,2506.742z"/>
	<path fill="#F06F24" d="M19.106,2503.072c-0.025-1.003-0.122-1.67-0.386-2.11c-0.662,0.662-7.622,7.558-7.622,7.558
		s-6.885-6.948-7.612-7.683c-0.391,0.44-0.564,1.179-0.564,2.39c0,0.216,0.003,2.271,0.008,2.466v2.271
		c-0.005,0.117-0.007,0.238-0.007,0.368c0,3.045,0.384,3.552,2.892,3.57l10.812-0.015c0.609-0.022,1.064-0.106,1.402-0.303
		c0.763-0.343,1.088-1.104,1.088-2.766C19.116,2508.654,19.106,2503.072,19.106,2503.072"/>
</g>
<g>
	<path fill="#D8D8D8" d="M11.146,2594.77l6.444-6.438c-0.519-0.188-1.212-0.258-2.138-0.271H6.954c-0.989,0-1.727,0.056-2.275,0.246
		L11.146,2594.77z"/>
	<path fill="#D8D8D8" d="M19.106,2591.1c-0.025-1.002-0.122-1.67-0.386-2.105c-0.662,0.662-7.622,7.558-7.622,7.558
		s-6.885-6.947-7.612-7.683c-0.391,0.438-0.564,1.179-0.564,2.39c0,0.219,0.003,2.271,0.008,2.467v2.271
		c-0.005,0.116-0.007,0.237-0.007,0.366c0,3.045,0.384,3.554,2.892,3.567l10.812-0.01c0.609-0.027,1.064-0.107,1.402-0.306
		c0.763-0.34,1.088-1.104,1.088-2.764C19.116,2596.682,19.106,2591.1,19.106,2591.1"/>
</g>
<g>
	<path fill="#6E6E6E" d="M7.594,419.965l4.751-4.747c-0.382-0.136-0.894-0.188-1.576-0.195H4.503c-0.729,0-1.273,0.04-1.678,0.181
		L7.594,419.965z"/>
	<path fill="#6E6E6E" d="M13.463,417.259c-0.019-0.736-0.09-1.229-0.284-1.557c-0.488,0.489-5.62,5.571-5.62,5.571
		s-5.076-5.124-5.613-5.663c-0.288,0.326-0.416,0.867-0.416,1.76c0,0.159,0.002,1.675,0.006,1.817v1.677
		c-0.004,0.087-0.005,0.176-0.005,0.272c0,2.245,0.283,2.618,2.132,2.627l7.972-0.007c0.449-0.021,0.785-0.082,1.034-0.226
		c0.563-0.25,0.802-0.813,0.802-2.037C13.47,421.374,13.463,417.259,13.463,417.259"/>
</g>
<path fill="#6E6E6E" d="M6.306,354.681c0.366-0.868,0.064-1.698-1.168-2.931c-1.463-1.461-2.266-2.002-3.206-1.653
	c-0.933,1.017-1.575,1.958-1.77,2.981c-0.459,1.563,0.041,3.173,1.701,5.249l4.807,4.801c3.313,2.771,5.186,2.795,7.897,0.468
	c0.092-0.155,0.162-0.309,0.208-0.454c0.365-0.868,0.063-1.698-1.168-2.931c-2.258-2.256-3.857-1.399-5.901,0.611l-3.539-3.534
	C4.823,356.624,6.15,355.183,6.306,354.681"/>
<path fill="#DFDCDA" d="M10.006,2064.844c0.391-0.932,0.068-1.813-1.251-3.137c-1.567-1.563-2.426-2.146-3.434-1.772
	c-0.999,1.094-1.687,2.103-1.895,3.196c-0.492,1.673,0.044,3.396,1.821,5.62l5.147,5.146c3.548,2.965,5.553,2.989,8.457,0.498
	c0.098-0.165,0.173-0.324,0.223-0.483c0.391-0.933,0.066-1.817-1.25-3.138c-2.419-2.414-4.131-1.5-6.321,0.649l-3.789-3.781
	C8.417,2066.927,9.839,2065.38,10.006,2064.844"/>
<path fill="#E3D3C8" d="M39.013,2064.844c0.391-0.932,0.067-1.813-1.252-3.137c-1.566-1.563-2.427-2.146-3.435-1.772
	c-0.998,1.094-1.687,2.103-1.896,3.196c-0.492,1.673,0.045,3.396,1.815,5.62l5.146,5.146c3.551,2.965,5.557,2.989,8.457,0.498
	c0.102-0.165,0.174-0.324,0.227-0.483c0.395-0.933,0.063-1.817-1.25-3.138c-2.422-2.414-4.133-1.5-6.32,0.649l-3.785-3.781
	C37.422,2066.927,38.845,2065.38,39.013,2064.844"/>
<path fill="#09535E" d="M9.816,2919.842c0.392-0.933,0.068-1.813-1.251-3.138c-1.567-1.563-2.427-2.146-3.434-1.771
	c-0.999,1.094-1.687,2.104-1.895,3.196c-0.491,1.673,0.044,3.396,1.821,5.62l5.147,5.146c3.548,2.966,5.554,2.989,8.457,0.498
	c0.098-0.165,0.173-0.323,0.223-0.483c0.391-0.932,0.066-1.817-1.251-3.137c-2.418-2.416-4.131-1.502-6.32,0.648l-3.789-3.781
	C8.228,2921.921,9.65,2920.376,9.816,2919.842"/>
<path fill="#116E7D" d="M37.821,2919.842c0.395-0.933,0.068-1.813-1.25-3.138c-1.566-1.563-2.428-2.146-3.434-1.771
	c-1,1.094-1.688,2.104-1.896,3.196c-0.491,1.673,0.044,3.396,1.818,5.62l5.146,5.146c3.547,2.966,5.557,2.989,8.457,0.498
	c0.102-0.165,0.172-0.323,0.227-0.483c0.395-0.932,0.063-1.817-1.252-3.137c-2.418-2.416-4.135-1.502-6.32,0.648l-3.789-3.781
	C36.233,2921.921,37.657,2920.376,37.821,2919.842"/>
<path fill="#FFFFFF" d="M8.545,574.729c-0.205-0.503-0.667-0.718-1.672-0.718c-0.131,0-0.222,0.002-0.338,0.005H5.65
	c-0.072-0.002-0.146-0.004-0.225-0.004c-1.843,0-2.148,0.254-2.16,1.909l0.006,4.479c0.017,0.397,0.066,0.697,0.184,0.924
	c0.205,0.503,0.667,0.722,1.672,0.722c0.104,0,1.838-0.009,1.838-0.009c1.459-0.041,1.747-0.354,1.77-1.793v-4.229
	C8.734,575.427,8.694,575.012,8.545,574.729"/>
<path fill="#2792D0" d="M6.001,581.726c-0.224,0-0.404-0.181-0.404-0.398c0-0.227,0.181-0.401,0.404-0.401s0.403,0.185,0.403,0.401
	C6.404,581.548,6.224,581.726,6.001,581.726"/>
<rect x="4.241" y="574.891" fill="#2792D0" width="3.519" height="5.704"/>
<g>
	<path fill="#F06F24" d="M11.774,2548.49c-0.457-1.123-1.488-1.604-3.729-1.604c-0.292,0-0.495,0.005-0.754,0.013H5.319
		c-0.16-0.007-0.326-0.011-0.5-0.011c-4.11,0-4.793,0.563-4.819,4.259l0.014,9.996c0.036,0.896,0.147,1.564,0.409,2.063
		c0.457,1.123,1.488,1.604,3.729,1.604c0.234,0,4.1-0.017,4.1-0.017c3.253-0.093,3.896-0.8,3.947-3.998v-9.438
		C12.198,2550.042,12.108,2549.124,11.774,2548.49"/>
	<path fill="#FFFFFF" d="M6.1,2564.095c-0.498,0-0.901-0.403-0.901-0.896c0-0.496,0.403-0.896,0.901-0.896
		c0.497,0,0.9,0.4,0.9,0.896C7,2563.691,6.597,2564.095,6.1,2564.095"/>
	<rect x="2.176" y="2548.852" fill="#FFFFFF" width="7.847" height="12.727"/>
</g>
<g>
	<path fill="#D8D8D8" d="M11.774,2631.49c-0.457-1.123-1.488-1.604-3.729-1.604c-0.292,0-0.495,0.005-0.754,0.013H5.319
		c-0.16-0.007-0.326-0.011-0.5-0.011c-4.11,0-4.793,0.563-4.819,4.259l0.014,9.996c0.036,0.896,0.147,1.564,0.409,2.063
		c0.457,1.123,1.488,1.604,3.729,1.604c0.234,0,4.1-0.017,4.1-0.017c3.253-0.093,3.896-0.8,3.947-3.998v-9.438
		C12.198,2633.042,12.108,2632.124,11.774,2631.49"/>
	<path fill="#FFFFFF" d="M6.1,2647.095c-0.498,0-0.901-0.403-0.901-0.896c0-0.496,0.403-0.896,0.901-0.896
		c0.497,0,0.9,0.4,0.9,0.896C7,2646.691,6.597,2647.095,6.1,2647.095"/>
	<rect x="2.176" y="2631.852" fill="#FFFFFF" width="7.847" height="12.727"/>
</g>
<path fill="#2792D0" d="M6.066,540.01c-1.605,0-2.866,0.104-3.787,0.566C0.662,541.245,0,542.703,0,545.605
	c0,5.396,0.966,6.41,6.083,6.41c1.605,0,2.864-0.097,3.785-0.565c1.619-0.665,2.279-2.123,2.279-5.021
	C12.146,541.03,11.182,540.01,6.066,540.01"/>
<rect x="5.471" y="542.094" fill="#FFFFFF" width="1.121" height="1.298"/>
<path fill="#FFFFFF" d="M7.724,549.938H4.423v-0.631l1.11-0.112c0.022-0.388,0.033-0.677,0.033-0.87v-1.918
	c0-0.597-0.011-1.021-0.033-1.283L4.49,545.08v-0.63l2.135-0.145c-0.029,0.729-0.043,1.354-0.043,1.874v2.158
	c0,0.171,0.011,0.456,0.034,0.854l1.109,0.112L7.724,549.938L7.724,549.938z"/>
<path fill="#6E6E6E" d="M3.4,3298.122l-1.899-0.73c-0.82-0.313-1.483-0.229-1.501,0.735v11.188
	c-0.018,0.962,0.502,1.513,1.317,1.825l1.899,0.729c0.82,0.313,1.484,0.229,1.502-0.736v-11.188
	C4.737,3298.982,4.217,3298.434,3.4,3298.122"/>
<path fill="#6E6E6E" d="M14.586,3297.323l-1.84-1.022c-0.795-0.438-1.465-0.438-1.489,0.552v11.438
	c-0.023,0.988,0.451,1.637,1.242,2.074l1.84,1.021c0.795,0.443,1.466,0.438,1.49-0.553v-11.438
	C15.851,3298.41,15.376,3297.763,14.586,3297.323"/>
<path fill="#6E6E6E" d="M9.061,3296.702l-1.899,0.837c-0.82,0.361-1.482,0.938-1.501,1.923v11.303
	c-0.02,0.979,0.501,1.038,1.318,0.68l1.898-0.838c0.821-0.354,1.483-0.938,1.502-1.922v-11.303
	C10.397,3296.402,9.876,3296.344,9.061,3296.702"/>
<path fill="#4C4C4C" d="M3.479,3408.079l-1.899-0.73c-0.82-0.313-1.483-0.229-1.501,0.736v11.188
	c-0.018,0.962,0.502,1.512,1.317,1.824l1.899,0.729c0.82,0.313,1.484,0.229,1.502-0.736V3409.9
	C4.816,3408.939,4.296,3408.393,3.479,3408.079"/>
<path fill="#4C4C4C" d="M14.665,3407.281l-1.84-1.022c-0.795-0.443-1.465-0.438-1.489,0.553v11.438
	c-0.023,0.988,0.451,1.637,1.242,2.074l1.84,1.021c0.795,0.443,1.466,0.438,1.49-0.553v-11.438
	C15.93,3408.368,15.456,3407.721,14.665,3407.281"/>
<path fill="#4C4C4C" d="M9.14,3406.66l-1.899,0.837c-0.82,0.36-1.482,0.938-1.501,1.922v11.304c-0.02,0.979,0.501,1.038,1.318,0.681
	l1.898-0.838c0.821-0.354,1.483-0.938,1.502-1.923v-11.304C10.476,3406.36,9.956,3406.302,9.14,3406.66"/>
<path fill="#E3D3C8" d="M35.399,2002.191l-1.897-0.733c-0.819-0.313-1.481-0.228-1.502,0.736v11.188
	c-0.019,0.962,0.502,1.511,1.315,1.822l1.896,0.729c0.819,0.313,1.479,0.229,1.502-0.732v-11.188
	C36.735,2003.052,36.217,2002.508,35.399,2002.191"/>
<path fill="#E3D3C8" d="M46.586,2001.393l-1.84-1.021c-0.795-0.44-1.468-0.438-1.49,0.555v11.438
	c-0.021,0.985,0.451,1.636,1.242,2.071l1.84,1.024c0.795,0.441,1.468,0.438,1.49-0.552v-11.438
	C47.853,2002.48,47.377,2001.835,46.586,2001.393"/>
<path fill="#E3D3C8" d="M41.062,2000.771l-1.896,0.838c-0.817,0.356-1.479,0.938-1.502,1.922v11.302
	c-0.021,0.979,0.501,1.037,1.313,0.682l1.896-0.838c0.818-0.355,1.48-0.938,1.503-1.922v-11.304
	C42.396,2000.472,41.877,2000.413,41.062,2000.771"/>
<path fill="#DFDCDA" d="M6.48,2002.191l-1.898-0.733c-0.82-0.313-1.483-0.228-1.502,0.736v11.188
	c-0.018,0.962,0.502,1.511,1.317,1.822l1.899,0.729c0.82,0.313,1.483,0.229,1.502-0.732v-11.188
	C7.817,2003.052,7.297,2002.508,6.48,2002.191"/>
<path fill="#DFDCDA" d="M17.666,2001.393l-1.84-1.021c-0.795-0.44-1.466-0.438-1.49,0.555v11.438
	c-0.022,0.985,0.451,1.636,1.242,2.071l1.84,1.024c0.795,0.441,1.467,0.438,1.49-0.552v-11.438
	C18.931,2002.48,18.457,2001.835,17.666,2001.393"/>
<path fill="#DFDCDA" d="M12.141,2000.771l-1.898,0.838c-0.82,0.356-1.482,0.938-1.502,1.922v11.302
	c-0.02,0.979,0.501,1.037,1.318,0.682l1.897-0.838c0.821-0.355,1.483-0.938,1.503-1.922v-11.304
	C13.477,2000.472,12.957,2000.413,12.141,2000.771"/>
<g>
	<path fill="#F06F24" d="M12.488,1126.533v2.75c0.551,0.107,1.007,0.271,1.233,0.511c0.771,0.813,0.771,4.104,0.771,5.188
		c0,1.559-0.16,2.696-0.477,3.396c-0.204,0.446-0.442,0.676-0.917,0.867l-0.104,0.044l-0.103,0.052
		c-0.808,0.416-2.41,0.474-3.871,0.474c-0.993,0-4.011,0-4.724-0.751c-0.771-0.813-0.771-4.104-0.771-5.188
		c0-1.563,0.16-2.7,0.477-3.396c0.203-0.441,0.442-0.673,0.916-0.868l0.105-0.043l0.101-0.051c0.119-0.063,0.256-0.113,0.404-0.159
		v-2.785c-0.614,0.116-1.162,0.286-1.641,0.531c-2.184,0.896-3.076,2.86-3.076,6.771c0,7.271,1.304,8.646,8.208,8.646
		c2.165,0,3.867-0.132,5.11-0.771c2.182-0.896,3.073-2.858,3.073-6.771C17.204,1129.156,16.368,1127.115,12.488,1126.533"/>
	<rect x="7.612" y="1124.505" fill="#F06F24" width="2.793" height="8.901"/>
</g>
<g>
	<path fill="#C84527" d="M44.494,1102.057v2.75c0.551,0.112,1.006,0.271,1.231,0.516c0.771,0.813,0.771,4.104,0.771,5.188
		c0,1.563-0.16,2.701-0.479,3.396c-0.205,0.441-0.44,0.673-0.918,0.863L45,1114.814l-0.104,0.053
		c-0.813,0.415-2.41,0.474-3.871,0.474c-0.99,0-4.01,0-4.729-0.752c-0.771-0.813-0.771-4.105-0.771-5.188
		c0-1.558,0.16-2.696,0.479-3.396c0.203-0.445,0.442-0.674,0.916-0.867l0.104-0.043l0.104-0.052c0.119-0.063,0.26-0.112,0.404-0.159
		v-2.784c-0.615,0.115-1.162,0.286-1.645,0.53c-2.188,0.896-3.076,2.861-3.076,6.771c0,7.273,1.307,8.646,8.207,8.646
		c2.166,0,3.867-0.132,5.108-0.771c2.185-0.896,3.071-2.854,3.071-6.771C49.209,1104.68,48.373,1102.639,44.494,1102.057"/>
	<rect x="39.617" y="1100.026" fill="#C84527" width="2.793" height="8.899"/>
</g>
<g>
	<path fill="#FFFFFF" d="M12.48,1102.057v2.75c0.551,0.112,1.006,0.271,1.232,0.516c0.771,0.813,0.771,4.104,0.771,5.188
		c0,1.563-0.16,2.701-0.477,3.396c-0.205,0.441-0.443,0.673-0.918,0.863l-0.104,0.043l-0.104,0.057
		c-0.807,0.415-2.41,0.474-3.871,0.474c-0.992,0-4.01,0-4.723-0.751c-0.771-0.813-0.771-4.104-0.771-5.188
		c0-1.56,0.16-2.698,0.477-3.396c0.203-0.446,0.443-0.674,0.916-0.868l0.105-0.043l0.102-0.052c0.119-0.063,0.256-0.112,0.404-0.158
		v-2.785c-0.615,0.115-1.162,0.286-1.641,0.531c-2.184,0.896-3.076,2.859-3.076,6.771c0,7.272,1.303,8.646,8.207,8.646
		c2.166,0,3.867-0.131,5.111-0.771c2.182-0.896,3.072-2.854,3.072-6.771C17.195,1104.68,16.359,1102.639,12.48,1102.057"/>
	<rect x="7.604" y="1100.026" fill="#FFFFFF" width="2.793" height="8.899"/>
</g>
<g>
	<path fill="#6E6E6E" d="M18.969,3025.855v-2.703h-3.106c-0.071-1.083-0.219-1.938-0.491-2.604l1.781-1.773l-1.913-1.909l-1.85,1.85
		c-0.667-0.229-1.5-0.347-2.537-0.396v-3.271H8.148v3.271c-0.966,0.06-1.779,0.188-2.439,0.485l-1.947-1.94l-1.912,1.906
		l1.861,1.857c-0.299,0.653-0.471,1.479-0.536,2.521H0.032v2.701h3.155c0.06,1.074,0.191,1.934,0.436,2.606l-1.773,1.771
		l1.912,1.907L5.5,3030.4c0.682,0.267,1.549,0.396,2.648,0.453v3.101h2.704v-3.099c1.033-0.058,1.891-0.196,2.577-0.522l1.81,1.811
		l1.913-1.907l-1.769-1.771c0.293-0.681,0.457-1.533,0.511-2.613h3.075V3025.855z"/>
	<rect x="6.688" y="3021.695" fill="#FFFFFF" width="5.623" height="5.617"/>
</g>
<g>
	<path fill="#4C4C4C" d="M18.969,3050.854v-2.698h-3.106c-0.071-1.083-0.219-1.938-0.491-2.604l1.781-1.775l-1.913-1.907l-1.85,1.85
		c-0.667-0.229-1.5-0.347-2.537-0.396v-3.268H8.148v3.271c-0.966,0.062-1.779,0.188-2.439,0.486l-1.947-1.943l-1.912,1.908
		l1.861,1.858c-0.299,0.651-0.471,1.479-0.536,2.521H0.032v2.699h3.155c0.06,1.074,0.191,1.934,0.436,2.605l-1.773,1.771
		l1.912,1.909l1.738-1.735c0.682,0.27,1.549,0.396,2.648,0.455v3.1h2.704v-3.098c1.033-0.057,1.891-0.195,2.577-0.521l1.81,1.811
		l1.913-1.908l-1.769-1.769c0.293-0.683,0.457-1.536,0.511-2.614L18.969,3050.854L18.969,3050.854z"/>
	<rect x="6.688" y="3046.694" fill="#FFFFFF" width="5.623" height="5.616"/>
</g>
<g>
	<rect x="0.012" y="81.957" fill="#4C4C4C" width="3.432" height="12.036"/>
	<rect x="4.452" y="87.129" fill="#4C4C4C" width="3.432" height="6.864"/>
	<rect x="8.893" y="84.64" fill="#4C4C4C" width="3.432" height="9.353"/>
</g>
<g>
	<rect y="835.001" fill="#6E6E6E" width="3.432" height="12.035"/>
	<rect x="4.44" y="840.174" fill="#6E6E6E" width="3.432" height="6.861"/>
	<rect x="8.881" y="837.683" fill="#6E6E6E" width="3.432" height="9.354"/>
</g>
<g>
	<path fill="#5F5F5D" d="M11.303,736.533l0.002-0.002l-1.782-1.776c-0.082-0.134-0.186-0.235-0.318-0.318l-1.43-1.429
		c-0.493-0.493-0.87-0.806-1.232-0.915c-0.591-0.249-1.156-0.043-1.993,0.794c-0.109,0.106-0.21,0.212-0.304,0.313l-2.86,2.854
		c-0.062,0.063-0.125,0.118-0.19,0.187c-1.236,1.231-1.505,1.774-0.848,2.669c0.198-0.271,0.479-0.58,0.848-0.944
		c0.066-0.066,0.129-0.126,0.19-0.186l0.999-0.998c0,0.002,0,0.005,0,0.009v3.354c-0.003,0.084-0.005,0.176-0.005,0.269
		c0,2.171,0.298,2.53,2.251,2.544v0.002h3.25v-0.009c0.475-0.021,0.829-0.078,1.091-0.222c0.595-0.236,0.848-0.78,0.848-1.968
		c0-0.124-0.001-0.239-0.003-0.354H9.82v-2.813l-0.003-0.833l1.489,1.484l-0.002,0.001c0.225,0.229,0.408,0.438,0.549,0.631
		C12.46,738.047,12.267,737.526,11.303,736.533"/>
	<path fill="#FFFFFF" d="M4.455,740.928c-0.892,0-1.245-0.27-1.245-1.065v-2.102h0.577v1.069c0.177-0.146,0.42-0.178,0.777-0.178
		c0.813,0,1.115,0.354,1.115,1.146C5.679,740.682,5.274,740.928,4.455,740.928"/>
	<path fill="#FFFFFF" d="M7.568,740.923l-0.725-0.777c-0.121-0.128-0.169-0.141-0.345-0.141H6.394v0.917H5.807v-3.231h0.592v1.811
		H6.51c0.176,0,0.237-0.028,0.358-0.153l0.695-0.684h0.685l-1.056,1.075l1.136,1.188L7.568,740.923L7.568,740.923z"/>
	<rect x="8.439" y="740.501" fill="#FFFFFF" width="0.427" height="0.43"/>
	<path fill="#5F5F5D" d="M4.42,739.094c-0.472,0-0.658,0.08-0.658,0.646c0,0.667,0.09,0.769,0.683,0.769
		c0.533,0,0.638-0.103,0.638-0.769C5.084,739.173,4.897,739.094,4.42,739.094"/>
</g>
<g>
	<path fill="#6E6E6E" d="M11.303,767.552l0.002-0.002l-1.782-1.779c-0.082-0.131-0.186-0.229-0.318-0.313l-1.43-1.435
		c-0.493-0.488-0.87-0.803-1.232-0.91c-0.591-0.249-1.156-0.045-1.993,0.794c-0.109,0.104-0.21,0.212-0.304,0.313l-2.86,2.854
		c-0.062,0.061-0.125,0.113-0.19,0.185c-1.236,1.233-1.505,1.776-0.848,2.669c0.198-0.271,0.479-0.58,0.848-0.947
		c0.066-0.063,0.129-0.126,0.19-0.183l0.999-0.998c0,0.002,0,0.005,0,0.008v3.357c-0.003,0.084-0.005,0.174-0.005,0.266
		c0,2.17,0.298,2.53,2.251,2.544v0.001h3.25v-0.008c0.475-0.021,0.829-0.078,1.091-0.219c0.595-0.239,0.848-0.783,0.848-1.971
		c0-0.125-0.001-0.236-0.003-0.354H9.82v-2.812l-0.003-0.833l1.489,1.482l-0.002,0.001c0.225,0.23,0.408,0.438,0.549,0.629
		C12.46,769.061,12.267,768.546,11.303,767.552"/>
	<path fill="#FFFFFF" d="M4.455,771.945c-0.892,0-1.245-0.271-1.245-1.067v-2.1h0.577v1.067c0.177-0.146,0.42-0.178,0.777-0.178
		c0.813,0,1.115,0.354,1.115,1.146C5.679,771.699,5.274,771.945,4.455,771.945"/>
	<path fill="#FFFFFF" d="M7.568,771.938l-0.725-0.773c-0.121-0.128-0.169-0.145-0.345-0.145H6.394v0.916H5.807v-3.229h0.592v1.808
		H6.51c0.176,0,0.237-0.025,0.358-0.15l0.695-0.686h0.685l-1.056,1.072l1.136,1.188L7.568,771.938L7.568,771.938z"/>
	<rect x="8.439" y="771.518" fill="#FFFFFF" width="0.427" height="0.432"/>
	<path fill="#6E6E6E" d="M4.42,770.108c-0.472,0-0.658,0.075-0.658,0.646c0,0.667,0.09,0.766,0.683,0.766
		c0.533,0,0.638-0.1,0.638-0.766C5.084,770.188,4.897,770.108,4.42,770.108"/>
</g>
<g>
	<path fill="#2792D0" d="M12.417,1588.852c0.003,0,0.004-0.003,0.005-0.004l-0.056-0.09c-0.009-0.018-0.017-0.029-0.027-0.044
		l-4.889-7.907c-0.191-0.467-0.648-0.795-1.183-0.795c-0.494,0-0.918,0.282-1.131,0.691l-0.011-0.007l-4.842,7.882
		c-0.174,0.22-0.282,0.49-0.282,0.795c0,0.707,0.573,1.326,1.281,1.326h10.006c0.707,0,1.28-0.553,1.28-1.26
		C12.567,1589.229,12.51,1589.03,12.417,1588.852"/>
	<polygon fill="#FFFFFF" points="8.989,1588.799 8.189,1589.596 6.305,1587.723 4.338,1589.656 3.538,1588.854 5.505,1586.925 
		3.589,1585.021 4.39,1584.22 6.305,1586.12 8.229,1584.186 9.029,1584.987 7.105,1586.925 	"/>
</g>
<path fill="#FFFFFF" d="M12.416,392.844c0.004-0.004,0.004-0.006,0.006-0.007l-0.057-0.09c-0.009-0.015-0.017-0.027-0.027-0.044
	l-4.889-7.908c-0.19-0.466-0.648-0.794-1.183-0.794c-0.494,0-0.918,0.282-1.132,0.692l-0.011-0.005l-4.842,7.88
	C0.107,392.79,0,393.063,0,393.365c0,0.707,0.573,1.328,1.281,1.328h10.006c0.707,0,1.279-0.552,1.279-1.259
	C12.566,393.22,12.51,393.022,12.416,392.844 M8.989,392.788l-0.8,0.801l-1.885-1.873l-1.967,1.935l-0.8-0.801l1.967-1.936
	l-1.915-1.896l0.8-0.805l1.915,1.899l1.924-1.935l0.801,0.801l-1.924,1.935L8.989,392.788z"/>
<path fill="#09535E" d="M7.36,2888.796c-1.134,0-1.909,0.098-2.474,0.563v-3.41H3.052v6.677c0,2.557,1.12,3.402,3.959,3.402
	c2.607,0,3.897-0.781,3.897-3.574C10.909,2889.929,9.947,2888.796,7.36,2888.796 M6.983,2894.677c-1.889,0-2.174-0.313-2.174-2.438
	c0-1.812,0.589-2.063,2.095-2.063c1.516,0,2.109,0.252,2.109,2.063C9.013,2894.357,8.681,2894.677,6.983,2894.677"/>
<path fill="#09535E" d="M13.285,2889.706c0-1.216,0-2.173-0.708-2.877c-0.705-0.705-1.664-0.707-2.881-0.707l0.058,1.388
	c0.825,0,1.367,0.089,1.697,0.444c0.358,0.332,0.447,0.873,0.447,1.693L13.285,2889.706z"/>
<path fill="#09535E" d="M13.427,2885.35c1.021,1.021,1.221,2.336,1.262,3.945l1.488,0.063c0-2.193,0.001-3.923-1.275-5.195
	c-1.276-1.271-3.008-1.271-5.205-1.271l0.051,1.207C11.237,2884.15,12.461,2884.385,13.427,2885.35"/>
<path fill="#09535E" d="M15.878,2883.052c1.531,1.53,1.748,3.528,1.779,6.002l1.394,0.063c0-3.075,0.001-5.495-1.787-7.282
	c-1.788-1.781-4.215-1.782-7.293-1.782l0.051,1.229C12.426,2881.316,14.379,2881.555,15.878,2883.052"/>
<path fill="#116E7D" d="M35.36,2888.796c-1.135,0-1.908,0.098-2.475,0.563v-3.41H31.05v6.677c0,2.557,1.119,3.402,3.963,3.402
	c2.604,0,3.896-0.781,3.896-3.574C38.909,2889.929,37.946,2888.796,35.36,2888.796 M34.981,2894.677
	c-1.895,0-2.174-0.313-2.174-2.438c0-1.812,0.59-2.063,2.096-2.063c1.518,0,2.109,0.252,2.109,2.063
	C37.017,2894.357,36.683,2894.677,34.981,2894.677"/>
<path fill="#116E7D" d="M41.286,2889.706c0-1.216,0-2.173-0.708-2.877c-0.705-0.705-1.664-0.707-2.884-0.707l0.061,1.388
	c0.824,0,1.367,0.089,1.697,0.444c0.355,0.332,0.445,0.873,0.445,1.693L41.286,2889.706z"/>
<path fill="#116E7D" d="M41.429,2885.35c1.021,1.021,1.223,2.336,1.262,3.945l1.488,0.063c0-2.193,0.002-3.923-1.275-5.195
	c-1.271-1.271-3.008-1.271-5.199-1.271l0.051,1.207C39.235,2884.15,40.462,2884.385,41.429,2885.35"/>
<path fill="#116E7D" d="M43.879,2883.052c1.531,1.53,1.748,3.528,1.779,6.002l1.396,0.063c0-3.075,0.002-5.495-1.787-7.282
	c-1.787-1.781-4.217-1.782-7.293-1.782l0.051,1.229C40.429,2881.316,42.38,2881.555,43.879,2883.052"/>
<path fill="#6E6E6E" d="M7.955,3110.013H4.453c-0.135-0.005-0.273-0.009-0.418-0.009c-3.442,0-4.013,0.475-4.034,3.563l0.01,8.361
	c0.031,0.752,0.125,1.313,0.343,1.729c0.384,0.938,1.246,1.344,3.122,1.344c0.196,0,5.427-0.013,5.427-0.013
	c2.724-0.075,3.261-0.669,3.304-3.353v-7.385L7.955,3110.013z"/>
<path fill="#FFFFFF" d="M10.583,3123.167l-8.962,0.004l0.011-11.537c0,0,0.763-0.015,2.403-0.015c0.111,0,0.225,0.003,0.359,0.009
	h0.029h0.03h2.833l0.023,0.022c0.004,1.054,0.082,1.793,0.354,2.312c0.369,0.904,1.188,1.313,2.929,1.336L10.583,3123.167z"/>
<path fill="#63412A" d="M12.729,1439.016H7.125c-0.215-0.008-0.438-0.014-0.67-0.014c-5.508,0-6.421,0.758-6.455,5.7l0.016,13.389
	c0.05,1.204,0.2,2.101,0.55,2.761c0.613,1.504,1.992,2.146,4.994,2.146c0.314,0,8.685-0.021,8.685-0.021
	c4.356-0.124,5.217-1.065,5.285-5.354v-11.813L12.729,1439.016z"/>
<path fill="#FFFFFF" d="M16.933,1460.063l-14.339,0.01l0.016-18.46c0,0,1.222-0.021,3.846-0.021c0.178,0,0.361,0.004,0.573,0.013
	h0.047h0.05h4.532l0.037,0.037c0.006,1.688,0.131,2.871,0.566,3.697c0.59,1.445,1.903,2.095,4.688,2.141L16.933,1460.063z"/>
<rect x="3.975" y="1448.23" fill="#63412A" width="11.027" height="1.945"/>
<rect x="3.975" y="1452.133" fill="#63412A" width="11.027" height="1.947"/>
<rect x="3.975" y="1455.686" fill="#63412A" width="11.027" height="1.952"/>
<path fill="#6E6E6E" d="M7.366,3120.302L7.366,3120.302l2.168-2.164H7.403l-0.861,0.856c0-1.646,0.024-4.854,0.024-4.922H5.083
	l-0.024,4.968l-0.907-0.903h-2.09l1.773,1.771c0.058,0.063,0.117,0.123,0.181,0.188C5.533,3121.609,5.993,3121.653,7.366,3120.302"
	/>
<g>
	<path fill="#6E6E6E" d="M45.38,31.121l2.098-3.696c0.174-0.245,0.195-0.505,0.195-0.827c0-0.843-0.68-1.521-1.52-1.521h-4.588
		c-0.838,0-1.521,0.681-1.521,1.521c0,0.398,0.139,0.713,0.354,0.972l1.996,3.554l-2.041,3.483c-0.205,0.276-0.311,0.58-0.311,0.902
		c0,0.842,0.684,1.521,1.521,1.521l2.271-0.014l0.001,0.014h2.313c0.84,0,1.521-0.681,1.521-1.521c0-0.399-0.133-0.713-0.354-0.972
		L45.38,31.121z"/>
	<path fill="#FFFFFF" d="M40.838,34.922l0.017-0.023l2.039-3.483l0.168-0.285l-0.162-0.288l-1.996-3.554
		c0,0-0.174-0.363-0.193-0.479c-0.02-0.294,0.508-0.273,0.859-0.273h4.594c0,0,0.846-0.071,0.938,0.253
		c0.021,0.133-0.115,0.357-0.115,0.357l-2.102,3.693l-0.156,0.285l0.156,0.284l1.942,3.417l0.021,0.046l0.032,0.04
		c0.082,0.098,0.142,0.197,0.177,0.308c-0.256,0.188-0.563,0.299-0.902,0.299H43.84V35.5l-2.271,0.016
		c-0.334,0-0.646-0.108-0.896-0.292c0.031-0.096,0.08-0.186,0.146-0.274L40.838,34.922z"/>
</g>
<g>
	<path fill="#6E6E6E" d="M5.991,320.047c-1.587,0-2.831,0.1-3.742,0.564c-1.6,0.658-2.253,2.103-2.253,4.974
		c0,5.346,0.955,6.354,6.012,6.354c1.587,0,2.833-0.099,3.743-0.564c1.6-0.657,2.253-2.102,2.253-4.975
		C12.004,321.056,11.048,320.047,5.991,320.047"/>
	<polygon fill="#FFFFFF" points="9.903,328.697 8.749,329.853 6.03,327.151 3.192,329.938 2.038,328.782 4.876,325.994 
		2.112,323.255 3.267,322.098 6.03,324.839 8.807,322.046 9.961,323.202 7.185,325.994 	"/>
</g>
<g>
	<path fill="#4C4C4C" d="M5.991,300.052c-1.587,0-2.831,0.097-3.742,0.563c-1.6,0.658-2.253,2.104-2.253,4.974
		c0,5.346,0.955,6.354,6.012,6.354c1.587,0,2.833-0.096,3.743-0.564c1.6-0.654,2.253-2.102,2.253-4.975
		C12.004,301.061,11.048,300.052,5.991,300.052"/>
	<polygon fill="#FFFFFF" points="9.903,308.702 8.749,309.858 6.03,307.156 3.192,309.943 2.038,308.787 4.876,305.999 
		2.112,303.26 3.267,302.103 6.03,304.844 8.807,302.051 9.961,303.207 7.185,305.999 	"/>
</g>
<g>
	<path fill="#D7D7D7" d="M5.991,476.065c-1.587,0-2.831,0.097-3.742,0.563c-1.6,0.655-2.253,2.104-2.253,4.974
		c0,5.348,0.955,6.354,6.012,6.354c1.587,0,2.833-0.096,3.743-0.563c1.6-0.652,2.253-2.104,2.253-4.977
		C12.004,477.075,11.048,476.065,5.991,476.065"/>
	<polygon fill="#FFFFFF" points="9.903,484.719 8.749,485.872 6.03,483.173 3.192,485.957 2.038,484.802 4.876,482.012 
		2.112,479.273 3.267,478.117 6.03,480.857 8.807,478.064 9.961,479.22 7.185,482.012 	"/>
</g>
<g>
	<path fill="#6E6E6E" d="M13.852,3267.76c-0.059-2.125-0.522-2.545-2.616-2.579h-6.17c-0.862,0-1.462,0.063-1.877,0.274
		c-0.733,0.301-1.048,0.975-1.048,2.438c0,0.189,0.002,3.725,0.002,3.834c0,2.688,0.37,3.137,2.784,3.146h0.331L8,3278.41
		l2.751-3.541l0.714-0.001c0.587-0.021,1.024-0.097,1.348-0.271c0.734-0.3,1.047-0.976,1.047-2.438
		C13.86,3272.012,13.852,3267.76,13.852,3267.76"/>
	<rect x="3.552" y="3270.653" fill="#FFFFFF" width="8.897" height="1.623"/>
	<rect x="3.552" y="3267.469" fill="#FFFFFF" width="8.897" height="1.624"/>
</g>
<g>
	<path fill="#4C4C4C" d="M13.852,3377.656c-0.059-2.125-0.522-2.545-2.616-2.579h-6.17c-0.862,0-1.462,0.063-1.877,0.272
		c-0.733,0.303-1.048,0.977-1.048,2.438c0,0.188,0.002,3.72,0.002,3.834c0,2.688,0.37,3.132,2.784,3.146h0.331L8,3388.306
		l2.751-3.541l0.714-0.001c0.587-0.021,1.024-0.098,1.348-0.27c0.734-0.3,1.047-0.978,1.047-2.438
		C13.86,3381.909,13.852,3377.656,13.852,3377.656"/>
	<rect x="3.552" y="3380.552" fill="#FFFFFF" width="8.897" height="1.623"/>
	<rect x="3.552" y="3377.365" fill="#FFFFFF" width="8.897" height="1.624"/>
</g>
<g>
	<path fill="#2792D0" d="M12.416,452.4c0.004-0.001,0.004-0.003,0.006-0.004l-0.057-0.096c-0.009-0.018-0.017-0.024-0.027-0.044
		l-4.889-7.907c-0.19-0.466-0.648-0.795-1.183-0.795c-0.494,0-0.918,0.282-1.131,0.689l-0.011-0.005l-4.842,7.88
		C0.108,452.345,0,452.619,0,452.924c0,0.707,0.573,1.325,1.281,1.325h10.006c0.707,0,1.279-0.553,1.279-1.259
		C12.566,452.776,12.51,452.577,12.416,452.4"/>
	<polygon fill="#FFFFFF" points="8.989,452.344 8.189,453.144 6.305,451.271 4.338,453.203 3.538,452.402 5.505,450.469 
		3.589,448.57 4.39,447.768 6.305,449.671 8.229,447.733 9.029,448.534 7.105,450.469 	"/>
</g>
<g>
	<path fill="#09535E" d="M20.64,3077.878l0.124-0.801l-2.071-0.322c-0.189-4.146-1.163-5.773-4.292-6.313v-0.423l-7.234,0.001
		l0.002,0.467c-0.498,0.111-0.947,0.268-1.347,0.471c-0.818,0.335-1.449,0.822-1.916,1.521c-1.052,1.392-1.236,3.283-1.236,5.083
		h0.172c0,0.012,0,0.016,0,0.021l-1.215,0.188l0.102,0.665c-0.857,0.281-0.906,0.781-0.714,2.072
		c0.077,0.521,0.168,0.932,0.37,1.209c0.183,0.305,0.496,0.469,0.933,0.521l0.112,0.729l2.688-0.469l-0.02-0.13h0.066
		c-0.042-0.104-0.08-0.216-0.117-0.33l-0.34-4.466l-0.123-0.01H4.73c0-3.229,0.787-4.207,1.97-4.685l0.078-0.034
		c0.929-0.466,2.416-0.522,3.883-0.522c2.856,0,4.245,0.28,4.952,1.019c0.719,0.737,0.999,2.188,0.999,5.149
		c0,3.229-0.787,4.207-1.971,4.685l-0.078,0.032c-0.928,0.468-2.416,0.531-3.882,0.531v0.03l-2.342,0.002l0.001,3.847l5.257-0.002
		v-1.853c0.83-0.104,1.548-0.295,2.153-0.604c1.345-0.555,2.183-1.521,2.615-3.135l1.597,0.246l0.109-0.707
		c0.32-0.07,0.559-0.229,0.708-0.479c0.201-0.278,0.294-0.688,0.371-1.209C21.323,3078.691,21.297,3078.175,20.64,3077.878"/>
	<path fill="#09535E" d="M15.311,3075.936c0,0.748-0.607,1.354-1.354,1.354s-1.352-0.604-1.352-1.354
		c0-0.746,0.605-1.354,1.352-1.354S15.311,3075.189,15.311,3075.936"/>
	<path fill="#09535E" d="M9.557,3075.936c0,0.748-0.605,1.354-1.352,1.354c-0.748,0-1.353-0.604-1.353-1.354
		c0-0.746,0.605-1.354,1.353-1.354C8.952,3074.585,9.557,3075.189,9.557,3075.936"/>
	<path fill="#09535E" d="M11.629,3080.816L11.629,3080.816l0.757-0.761h-0.745l-0.56,0.563l-0.577-0.563h-0.73
		c0,0,0.66,0.66,0.682,0.688C10.988,3081.273,11.149,3081.29,11.629,3080.816"/>
</g>
<g>
	<path fill="#116E7D" d="M48.642,3077.878l0.123-0.801l-2.07-0.322c-0.188-4.146-1.164-5.773-4.293-6.313v-0.423l-7.229,0.001
		l0.003,0.467c-0.495,0.111-0.938,0.268-1.347,0.471c-0.818,0.335-1.449,0.822-1.916,1.521c-1.061,1.392-1.236,3.283-1.236,5.083
		h0.178c0,0.012,0,0.016,0,0.021l-1.221,0.188l0.104,0.665c-0.854,0.281-0.902,0.781-0.715,2.072
		c0.076,0.521,0.17,0.932,0.371,1.209c0.185,0.305,0.491,0.469,0.935,0.521l0.11,0.729l2.688-0.469l-0.021-0.13h0.063
		c-0.042-0.104-0.08-0.216-0.115-0.33l-0.342-4.466l-0.122-0.01h0.146c0-3.229,0.787-4.207,1.974-4.685l0.076-0.034
		c0.93-0.466,2.416-0.522,3.884-0.522c2.854,0,4.245,0.28,4.952,1.019c0.719,0.737,0.998,2.188,0.998,5.149
		c0,3.229-0.787,4.207-1.974,4.685l-0.078,0.032c-0.93,0.468-2.416,0.531-3.881,0.531v0.03l-2.348,0.002l0.001,3.847l5.263-0.002
		v-1.853c0.826-0.104,1.547-0.295,2.147-0.604c1.351-0.555,2.188-1.521,2.61-3.135l1.603,0.246l0.104-0.707
		c0.32-0.07,0.563-0.229,0.707-0.479c0.201-0.278,0.295-0.688,0.371-1.209C49.321,3078.691,49.297,3078.175,48.642,3077.878"/>
	<path fill="#116E7D" d="M43.312,3075.936c0,0.748-0.604,1.354-1.354,1.354s-1.354-0.604-1.354-1.354
		c0-0.746,0.604-1.354,1.354-1.354S43.312,3075.189,43.312,3075.936"/>
	<path fill="#116E7D" d="M37.558,3075.936c0,0.748-0.604,1.354-1.353,1.354s-1.354-0.604-1.354-1.354
		c0-0.746,0.604-1.354,1.354-1.354C36.951,3074.585,37.558,3075.189,37.558,3075.936"/>
	<path fill="#116E7D" d="M39.629,3080.816L39.629,3080.816l0.759-0.761h-0.744l-0.562,0.563l-0.576-0.563h-0.729
		c0,0,0.66,0.66,0.688,0.688C38.987,3081.273,39.147,3081.29,39.629,3080.816"/>
</g>
<path fill="#5F5F5D" d="M5.323,1042.908L5.323,1042.908l6.098,6.093v-5.983l-4.513-4.512l4.513-4.626v-5.876
	c0,0-5.336,5.313-5.518,5.491C1.637,1037.759,1.516,1039.052,5.323,1042.908"/>
<path fill="#5F5F5D" d="M8.679,1065.777L8.679,1065.777l-6.098-6.098v5.983l4.513,4.515l-4.513,4.626v5.876
	c0,0,5.336-5.313,5.518-5.493C12.365,1070.929,12.486,1069.636,8.679,1065.777"/>
<path fill="#63544A" d="M46.519,1824.96h0.002l3.479-3.482l-3.421,0.001l-2.578,2.578l-2.645-2.579H38c0,0,3.034,3.055,3.14,3.15
	C43.574,1827.064,44.313,1827.135,46.519,1824.96"/>
<path fill="#63412A" d="M46.519,1854.688h0.002l3.479-3.48l-3.421,0.002l-2.578,2.577l-2.645-2.579H38c0,0,3.034,3.053,3.14,3.149
	C43.574,1856.794,44.313,1856.863,46.519,1854.688"/>
<path fill="#63544A" d="M44.959,1883.483v-0.002l-3.483-3.479v3.421l2.578,2.578l-2.578,2.646v3.354c0,0,3.049-3.034,3.151-3.142
	C47.063,1886.427,47.134,1885.688,44.959,1883.483"/>
<path fill="#63412A" d="M41.481,2103.042h-0.002L38,2106.527l3.421-0.001l2.578-2.578l2.645,2.58H50c0,0-3.034-3.051-3.14-3.151
	C44.426,2100.936,43.688,2100.867,41.481,2103.042"/>
<path fill="#FFFFFF" d="M6.064,2165.816v0.002l6.472,6.463l-0.002-6.354l-4.787-4.787l4.789-4.906v-6.229
	c0,0-5.663,5.636-5.855,5.826C2.155,2160.35,2.026,2161.723,6.064,2165.816"/>
<path fill="#FFFFFF" d="M9.626,2196.469v-0.003l-6.472-6.463l0.002,6.354l4.787,4.787l-4.789,4.906v6.229
	c0,0,5.663-5.635,5.855-5.826C13.536,2201.932,13.665,2200.559,9.626,2196.469"/>
<path d="M6.064,2245.816v0.002l6.472,6.463l-0.002-6.354l-4.787-4.787l4.789-4.906v-6.229c0,0-5.663,5.636-5.855,5.826
	C2.155,2240.35,2.026,2241.723,6.064,2245.816"/>
<path d="M9.626,2276.469v-0.003l-6.472-6.463l0.002,6.354l4.787,4.787l-4.789,4.906v6.229c0,0,5.663-5.635,5.855-5.826
	C13.536,2281.932,13.665,2280.559,9.626,2276.469"/>
<path fill="#F06F24" d="M6.064,2325.816v0.002l6.472,6.463l-0.002-6.354l-4.787-4.787l4.789-4.906v-6.229
	c0,0-5.663,5.636-5.855,5.826C2.155,2320.35,2.026,2321.723,6.064,2325.816"/>
<path fill="#F06F24" d="M46.467,2295.188L46.467,2295.188l3.414-3.418h-3.354L44,2294.299l-2.592-2.528h-3.292
	c0,0,2.975,2.99,3.074,3.096C43.58,2297.251,44.306,2297.32,46.467,2295.188"/>
<path fill="#C84527" d="M46.467,2369.941L46.467,2369.941l3.414-3.418l-3.354,0.002L44,2369.048l-2.592-2.527h-3.292
	c0,0,2.975,2.99,3.074,3.095C43.58,2372.009,44.306,2372.075,46.467,2369.941"/>
<path d="M46.467,2404.941L46.467,2404.941l3.414-3.418l-3.354,0.002L44,2404.048l-2.592-2.527h-3.292c0,0,2.975,2.99,3.074,3.095
	C43.58,2407.009,44.306,2407.075,46.467,2404.941"/>
<path fill="#F06F24" d="M9.626,2356.469v-0.003l-6.472-6.463l0.002,6.354l4.787,4.787l-4.789,4.906v6.229
	c0,0,5.663-5.635,5.855-5.826C13.536,2361.932,13.665,2360.559,9.626,2356.469"/>
<path fill="#4C4C4C" d="M40.563,544.535v-0.004h-0.929c-0.965,0-1.741,0.775-1.741,1.734v3.464c0,0.959,0.776,1.736,1.741,1.736
	h0.929v-0.006c0.906-0.063,1.621-0.813,1.621-1.73v-3.464C42.188,545.348,41.472,544.596,40.563,544.535"/>
<rect x="39.179" y="545.427" fill="#FFFFFF" width="1.727" height="5.125"/>
<path fill="#4C4C4C" d="M49.985,545.414c-0.242-0.71-0.532-0.927-1.238-0.927h-0.838h-0.77l0.146-0.449
	c0.205-0.612,0.408-1.229,0.615-1.844c0.088-0.259,0.117-0.507,0.099-0.762c-0.063-0.714-0.54-1.214-1.161-1.214
	c-0.095,0-0.188,0.014-0.285,0.036c-0.285,0.068-0.525,0.229-0.723,0.479c-0.334,0.43-0.662,0.854-0.982,1.271
	c-0.578,0.739-1.123,1.439-1.664,2.146c-0.359,0.471-0.545,1.021-0.547,1.626c-0.01,1.229-0.01,2.479-0.008,3.685l0.001,0.813
	c0.004,0.744,0.519,1.308,1.196,1.31c0.672,0,1.343,0,2.018,0c0.694,0,1.395,0,2.094,0c0.646,0,1.189-0.496,1.308-1.181
	c0.118-0.724,0.233-1.446,0.353-2.17c0.082-0.51,0.164-1.02,0.248-1.527c0.029-0.19,0.065-0.392,0.104-0.581
	c0.017-0.09,0.028-0.18,0.049-0.271v-0.026v-0.373L49.985,545.414z"/>
<path fill="#FFFFFF" d="M47.06,545.671c0.219,0.001,0.438,0.001,0.654,0.001h1.11c0.036,0,0.063,0.001,0.084,0.003
	c-0.003,0.021-0.007,0.049-0.013,0.088c-0.235,1.465-0.82,4.599-0.82,4.599l-4.342,0.019c0,0,0-4.013,0-4.532
	c0.002-0.361,0.097-0.688,0.308-0.958c0.61-0.791,2.759-3.493,2.797-3.493c0.011,0-0.679,2.58-0.746,2.785L47.06,545.671z"/>
<rect x="41.115" y="52.115" fill="#6E6E6E" width="8.885" height="8.885"/>
<rect x="41.923" y="52.923" fill="#FFFFFF" width="7.271" height="7.271"/>
<rect x="39.5" y="50.5" fill="#6E6E6E" width="8.886" height="8.888"/>
<rect x="40.31" y="51.308" fill="#FFFFFF" width="7.271" height="7.27"/>
<g>
	<path fill="#2792D0" d="M18.479,3470.71c-4.89,0-8.731,0.314-11.536,1.73C2.017,3474.469,0,3478.91,0,3487.751
		c0,16.438,2.942,19.527,18.529,19.527c4.888,0,8.726-0.295,11.531-1.724c4.93-2.024,6.939-6.466,6.939-15.302
		C37,3473.814,34.062,3470.71,18.479,3470.71"/>
	<rect x="16.665" y="3477.052" fill="#FFFFFF" width="3.415" height="3.954"/>
	<path fill="#FFFFFF" d="M23.531,3500.951H13.473v-1.923l3.382-0.341c0.065-1.184,0.101-2.063,0.101-2.65v-5.843
		c0-1.818-0.036-3.107-0.101-3.909l-3.177-0.135v-1.918l6.502-0.44c-0.089,2.229-0.131,4.134-0.131,5.709v6.573
		c0,0.521,0.033,1.39,0.104,2.603l3.377,0.343L23.531,3500.951L23.531,3500.951z"/>
</g>
<g>
	<path fill="#4C4C4C" d="M8.16,3547.768v-0.012H5.325c-2.949,0-5.325,2.37-5.325,5.301v10.588c0,2.931,2.376,5.307,5.325,5.307H8.16
		v-0.018c2.77-0.191,4.955-2.484,4.955-5.289v-10.588C13.121,3550.258,10.93,3547.958,8.16,3547.768"/>
	<rect x="3.922" y="3550.494" fill="#FFFFFF" width="5.277" height="15.665"/>
	<path fill="#4C4C4C" d="M36.958,3550.456c-0.743-2.17-1.63-2.834-3.787-2.834h-2.563h-2.348l0.448-1.373
		c0.627-1.877,1.251-3.754,1.886-5.635c0.266-0.791,0.355-1.549,0.297-2.328c-0.189-2.183-1.648-3.709-3.55-3.709
		c-0.289,0-0.576,0.041-0.875,0.109c-0.87,0.215-1.604,0.707-2.205,1.467c-1.021,1.313-2.024,2.607-3.005,3.887
		c-1.768,2.266-3.433,4.404-5.086,6.558c-1.102,1.438-1.666,3.117-1.672,4.971c-0.027,3.757-0.027,7.569-0.021,11.257l0.002,2.481
		c0.012,2.274,1.583,3.997,3.656,4.003c2.054,0,4.104,0,6.163,0c2.126,0,4.267,0,6.4,0c1.97-0.004,3.639-1.52,3.993-3.607
		c0.363-2.211,0.717-4.42,1.074-6.634c0.25-1.558,0.5-3.114,0.758-4.668c0.094-0.589,0.201-1.196,0.318-1.774
		c0.051-0.273,0.094-0.549,0.149-0.826l0.003-0.078v-1.14L36.958,3550.456z"/>
	<path fill="#FFFFFF" d="M28.01,3551.233c0.669,0.004,1.341,0.004,2.003,0.004h3.396c0.112,0,0.196,0.004,0.257,0.009
		c-0.006,0.063-0.02,0.149-0.036,0.271c-0.724,4.477-2.51,14.055-2.51,14.055l-13.268,0.052c0,0,0-12.259,0-13.854
		c0.006-1.104,0.292-2.1,0.937-2.93c1.869-2.418,8.433-10.678,8.549-10.678c0.03,0-2.074,7.887-2.28,8.514L28.01,3551.233z"/>
</g>
<g>
	<path fill="#2792D0" d="M18.479,3596.598c-4.891,0-8.73,0.303-11.536,1.719C2.017,3600.364,0,3604.802,0,3613.641
		c0,16.436,2.942,19.541,18.529,19.541c4.887,0,8.725-0.297,11.529-1.736c4.93-2.023,6.939-6.467,6.939-15.297
		C36.998,3599.706,34.06,3596.598,18.479,3596.598"/>
	<path fill="#FFFFFF" d="M26.028,3604.932c-0.625-1.531-2.032-2.188-5.093-2.188c-0.398,0-0.679,0.008-1.029,0.016h-2.695
		c-0.22-0.008-0.446-0.014-0.687-0.014c-5.613,0-6.542,0.773-6.577,5.816l0.018,13.646c0.051,1.211,0.199,2.125,0.56,2.814
		c0.625,1.53,2.031,2.189,5.093,2.189c0.315,0,5.598-0.02,5.598-0.02c4.444-0.125,5.322-1.086,5.391-5.461v-12.882
		C26.605,3607.053,26.48,3605.796,26.028,3604.932"/>
	<path fill="#2792D0" d="M18.279,3626.245c-0.682,0-1.229-0.549-1.229-1.213c0-0.688,0.547-1.229,1.229-1.229
		c0.681,0,1.229,0.563,1.229,1.229S18.96,3626.245,18.279,3626.245"/>
	<rect x="12.919" y="3605.427" fill="#2792D0" width="10.718" height="17.375"/>
</g>
<g>
	<path fill="#2792D0" d="M27.664,3685.628c0.006,0,0.009-0.007,0.011-0.009l-0.124-0.2c-0.021-0.032-0.038-0.063-0.061-0.099
		l-10.893-17.617c-0.427-1.04-1.444-1.771-2.636-1.771c-1.101,0-2.045,0.629-2.52,1.541l-0.025-0.012l-10.788,17.558
		C0.24,3685.51,0,3686.115,0,3686.79c0,1.575,1.277,2.957,2.854,2.957h22.294c1.575,0,2.852-1.229,2.852-2.806
		C27.998,3686.469,27.872,3686.023,27.664,3685.628"/>
	<polygon fill="#FFFFFF" points="20.025,3685.505 18.243,3687.285 14.046,3683.112 9.663,3687.419 7.881,3685.635 12.263,3681.328 
		7.994,3677.094 9.779,3675.307 14.046,3679.54 18.333,3675.231 20.114,3677.015 15.828,3681.328 	"/>
</g>
</svg>
