<?xml version="1.0" encoding="UTF-8" standalone="no"?>
<svg width="12px" height="12px" viewBox="0 0 12 12" version="1.1" xmlns="http://www.w3.org/2000/svg" xmlns:xlink="http://www.w3.org/1999/xlink" xmlns:sketch="http://www.bohemiancoding.com/sketch/ns">
    <title>icon-clip</title>
    <description>Created with Sketch (http://www.bohemiancoding.com/sketch)</description>
    <defs></defs>
    <g id="Page-1" stroke="none" stroke-width="1" fill="none" fill-rule="evenodd" sketch:type="MSPage">
        <g id="Cuenta" sketch:type="MSArtboardGroup" transform="translate(-139.000000, -488.000000)" fill="#BBBBBB">
            <path d="M141.393326,499.983766 C140.78589,499.983952 140.173129,499.721065 139.706425,499.208653 C139.239467,498.696024 138.999861,498.023003 139.000002,497.356137 C138.999185,496.728426 139.214735,496.095704 139.648847,495.619879 L145.736087,488.936096 C146.305861,488.309653 147.06234,487.998859 147.816425,488.000003 C148.617946,487.999632 149.428199,488.346611 150.046791,489.025539 C150.664735,489.704374 150.980707,490.593519 150.980538,491.473508 C150.981326,492.301756 150.698397,493.132106 150.127918,493.757993 L144.727073,499.687787 L143.978904,498.866374 L149.379974,492.936519 C149.741721,492.538446 149.921664,492.017714 149.922481,491.473508 C149.922369,490.896859 149.716199,490.305704 149.298481,489.846952 C148.880622,489.388044 148.341918,489.161838 147.816425,489.161436 C147.320988,489.162519 146.846763,489.359962 146.484481,489.757323 L140.396847,496.441137 C140.171157,496.68955 140.058988,497.012776 140.058002,497.356137 C140.058397,497.719879 140.187974,498.094601 140.454566,498.387426 C140.720904,498.67957 141.061974,498.821745 141.393326,498.822147 C141.706059,498.821096 142.000397,498.698003 142.226791,498.450178 L146.818538,493.408972 C146.903523,493.314952 146.94589,493.195385 146.946678,493.058529 C146.946678,492.914251 146.895467,492.76255 146.785495,492.641776 C146.675242,492.520663 146.537073,492.464684 146.405777,492.464251 C146.281129,492.465457 146.172425,492.511972 146.08665,492.605436 L142.181608,496.893024 L141.433411,496.07158 L145.338228,491.784395 C145.631411,491.461508 146.022425,491.301797 146.405777,491.302849 C146.813298,491.302477 147.222932,491.479261 147.53389,491.82055 C147.843946,492.161498 148.004876,492.610879 148.004876,493.058529 C148.005692,493.479117 147.860397,493.908426 147.566594,494.230385 L142.974763,499.271776 C142.541974,499.747354 141.967214,499.98389 141.396678,499.983766 L141.393326,499.983766" id="Imported-Layers-copy-2" sketch:type="MSShapeGroup"></path>
        </g>
    </g>
</svg>