<?xml version="1.0" encoding="UTF-8" standalone="no"?>
<svg width="116px" height="18px" viewBox="0 0 116 18" version="1.1" xmlns="http://www.w3.org/2000/svg" xmlns:xlink="http://www.w3.org/1999/xlink" xmlns:sketch="http://www.bohemiancoding.com/sketch/ns">
  <title>logo</title>
  <description>Created with Sketch (http://www.bohemiancoding.com/sketch)</description>
  <defs></defs>
  <g id="Page-1" stroke="none" stroke-width="1" fill="none" fill-rule="evenodd" sketch:type="MSPage">
    <g id="Artboard-2" sketch:type="MSArtboardGroup" transform="translate(-27.000000, -25.000000)" fill="#FFFFFF">
      <path d="M121.611262,37.5264031 C121.812305,38.9816298 122.506817,39.8325089 124.926238,39.8325089 C126.988249,39.8325089 129.140019,39.5197753 130.753643,38.9393904 L130.753643,41.0213028 C129.56485,41.6711389 126.921641,42.098 125.016809,42.098 C119.974081,42.098 118.316593,40.8409733 118.316593,35.8230202 C118.316593,31.4427188 119.751106,29.7961965 124.949389,29.7961965 C129.253741,29.7961965 131.15573,31.2412696 131.200812,33.6793734 C131.200812,36.6974559 129.140019,37.435426 121.611262,37.5264031 C121.611262,37.5264031 129.140019,37.435426 121.611262,37.5264031 L121.611262,37.5264031 L121.611262,37.5264031 Z M86.9924623,25 L90.1311706,25 L90.1311706,28.0205194 L86.9924623,28.0205194 L86.9924623,28.0205194 L86.9924623,25 L86.9924623,25 Z M48.5436912,39.7654946 C50.8404557,39.7654946 51.5122237,39.4296105 51.5122237,38.2883359 L51.5122237,36.4285862 L48.7012765,36.5613965 C45.8777386,36.719794 45.2274964,37.124317 45.2274964,38.0645486 C45.2274964,39.4771298 45.6539513,39.7654946 48.5436912,39.7654946 C48.5436912,39.7654946 45.6539513,39.7654946 48.5436912,39.7654946 L48.5436912,39.7654946 L48.5436912,39.7654946 Z M86.9924623,30.0650662 L90.1311706,30.0650662 L90.1311706,41.8953324 L86.9924623,41.8953324 L86.9924623,41.8953324 L86.9924623,30.0650662 L86.9924623,30.0650662 Z M133.575557,33.8743242 C133.575557,30.6698199 135.906438,29.750708 138.017999,29.750708 C138.999657,29.750708 141.591285,29.8851429 142.128212,29.9976457 L142.128212,32.2493278 L138.798208,32.2493278 C137.094825,32.2493278 136.669995,32.4061008 136.669995,34.0534353 L136.669995,41.8957385 L133.575557,41.8957385 L133.575557,33.8743242 L133.575557,33.8743242 L133.575557,33.8743242 L133.575557,33.8743242 Z M33.6433556,39.7654946 C30.4502235,39.7654946 29.9685325,39.2297859 29.9685325,35.6422845 C29.9685325,32.5860241 30.9656248,32.1595692 33.5089208,32.1595692 C36.0704935,32.1595692 37.0720534,32.5860241 37.0720534,35.6422845 C37.0720534,39.2297859 36.5107574,39.7654946 33.6433556,39.7654946 L33.6433556,39.7654946 L33.6433556,39.7654946 L33.6433556,39.7654946 Z M116.52467,32.4292512 L111.348319,32.4292512 L111.348319,38.1989834 C111.348319,39.2744622 112.132996,39.6992925 113.411143,39.6992925 C114.844437,39.6992925 115.852496,39.5664823 116.592497,39.386965 L116.592497,41.5147721 C115.359839,41.8510623 114.081286,42.0521053 113.029364,42.0521053 C109.601479,42.0521053 108.300588,40.6184044 108.300588,38.4678531 L108.300588,26.3447546 L111.348319,26.3447546 L111.348319,30.1548248 L116.52467,30.1548248 L116.52467,32.4292512 L116.52467,32.4292512 L116.52467,32.4292512 L116.52467,32.4292512 Z M96.0231533,41.8957385 L96.0231533,34.4567398 C96.0231533,32.6530385 96.6502451,32.1595692 99.2723338,32.1595692 C101.983775,32.1595692 102.565378,32.6530385 102.565378,34.4567398 L102.565378,41.8957385 L105.680936,41.8957385 L105.680936,34.3450492 C105.680936,30.9719937 103.21562,29.8640232 99.831599,29.8640232 L98.7780522,29.8640232 C95.3733172,29.8640232 92.9311519,30.9719937 92.9311519,34.3450492 L92.9311519,41.8957385 L96.0231533,41.8957385 L96.0231533,41.8957385 L96.0231533,41.8957385 L96.0231533,41.8957385 Z M60.2171844,41.8957385 L60.2171844,34.4567398 C60.2171844,32.6530385 60.8450885,32.1595692 63.4781431,32.1595692 C66.1660277,32.1595692 66.7711876,32.6530385 66.7711876,34.4567398 L66.7711876,41.8957385 L69.8631889,41.8957385 L69.8631889,34.3450492 C69.8631889,30.9719937 67.4214298,29.8640232 64.0260362,29.8640232 L62.9842677,29.8640232 C59.5787204,29.8640232 57.125183,30.9719937 57.125183,34.3450492 L57.125183,41.8957385 L60.2171844,41.8957385 L60.2171844,41.8957385 L60.2171844,41.8957385 L60.2171844,41.8957385 Z M75.7442056,37.0979174 L75.7442056,41.8957385 L72.6757608,41.8957385 L72.6757608,25 L75.7669499,25 L75.7669499,34.435214 L76.3497716,34.435214 C77.2684774,34.435214 77.5828356,34.2772226 78.2212996,33.6269803 L81.8514465,30.0646601 L85.425545,30.0646601 L79.9129042,35.6881792 L85.8511877,41.8957385 L81.8729723,41.8957385 L78.0860524,37.8403551 C77.4492131,37.1669625 77.2018692,37.0979174 76.2823511,37.0979174 L75.7442056,37.0979174 L75.7442056,37.0979174 L75.7442056,37.0979174 L75.7442056,37.0979174 Z M51.5122237,34.3669812 L51.5122237,33.8073098 C51.5122237,32.4511831 50.6158561,32.1595692 48.2524834,32.1595692 C46.0267948,32.1595692 44.0447947,32.6307004 43.0208967,32.9771442 L43.0208967,30.7705445 C44.802666,30.0878105 46.8293423,29.8185347 48.3645801,29.8185347 C51.7587553,29.8185347 54.6265632,30.3558679 54.6265632,34.1886824 L54.6265632,37.7952727 C54.6265632,42.0248934 51.1767458,42.0521053 48.3645801,42.0521053 C44.1288672,42.0521053 42.0615761,40.8653422 42.0615761,38.4678531 C42.0615761,35.2410107 44.1288672,34.6127005 51.5122237,34.3669812 C51.5122237,34.3669812 44.1288672,34.6127005 51.5122237,34.3669812 L51.5122237,34.3669812 L51.5122237,34.3669812 Z M33.6888442,42.0521053 C38.0963575,42.0521053 40.2757453,40.7305012 40.2757453,36.0029436 C40.2757453,31.7347388 38.6511551,29.8185347 34.2814135,29.8185347 C32.3656154,29.8185347 31.0553834,29.9761199 30.1001243,30.7705445 L30.1001243,25 L27,25 L27,36.2941514 C27,40.6184044 28.8922415,42.0521053 33.6888442,42.0521053 C33.6888442,42.0521053 28.8922415,42.0521053 33.6888442,42.0521053 L33.6888442,42.0521053 L33.6888442,42.0521053 Z M139.012654,38.8874035 L142.128212,38.8874035 L142.128212,41.8953324 L139.012654,41.8953324 L139.012654,41.8953324 L139.012654,38.8874035 L139.012654,38.8874035 Z M123.2456,35.2182665 C127.301795,35.0395615 127.953256,34.7028652 127.953256,33.7606029 C127.953256,32.6530385 127.212849,32.1152991 124.906337,32.1152991 C121.948364,32.1152991 121.566992,32.6680659 121.566992,35.3088374 L123.2456,35.2182665 L123.2456,35.2182665 Z" id="logo" sketch:type="MSShapeGroup"></path>
    </g>
  </g>
</svg>
