<?xml version="1.0" encoding="utf-8"?>
<!-- Generator: Adobe Illustrator 16.0.0, SVG Export Plug-In . SVG Version: 6.00 Build 0)  -->
<!DOCTYPE svg PUBLIC "-//W3C//DTD SVG 1.1//EN" "http://www.w3.org/Graphics/SVG/1.1/DTD/svg11.dtd">
<svg version="1.1" id="logout" xmlns="http://www.w3.org/2000/svg" xmlns:xlink="http://www.w3.org/1999/xlink" x="0px" y="0px"
	 width="16px" height="16px" viewBox="0 0 16 16" enable-background="new 0 0 16 16" xml:space="preserve">
<path id="path3" fill="#FFFFFF" d="M8.01,8.618C7.344,8.618,6.8,8.1,6.8,7.462V1.375c0-0.639,0.54-1.157,1.21-1.157
	c0.668,0,1.211,0.517,1.211,1.157v6.087C9.221,8.098,8.676,8.618,8.01,8.618z M13.3,13.754c-1.5,1.345-3.38,1.964-5.29,1.964H8.005
	c-1.91,0-3.84-0.619-5.3-1.964c-1.46-1.343-2.2-3.1-2.2-4.836c0-1.736,0.73-3.472,2.2-4.805c0.446-0.402,1.17-0.402,1.61,0
	c0.446,0.402,0.446,1.054,0,1.458c-1.02,0.927-1.53,2.128-1.53,3.347c0,1.22,0.507,2.418,1.53,3.349
	c1.02,0.927,2.35,1.385,3.69,1.385s2.67-0.46,3.69-1.385c1.02-0.925,1.529-2.129,1.529-3.349c0-1.219-0.508-2.417-1.529-3.337
	c-0.447-0.403-0.447-1.054,0-1.457c0.442-0.403,1.17-0.403,1.609,0c1.46,1.323,2.2,3.069,2.2,4.805
	c0.001,1.735-0.735,3.482-2.2,4.805L13.3,13.754z"/>
</svg>
