<svg  id="time" xmlns="http://www.w3.org/2000/svg" 
	 width="14px" height="14px" viewBox="0 0 14 14">
<path fill="#D0D0D1" d="M7,0c3.866,0,7,3.134,7,7s-3.134,7-7,7c-3.866,0-7-3.134-7-7S3.134,0,7,0 M7,2.125
	C4.312,2.125,2.125,4.312,2.125,7S4.312,11.875,7,11.875c2.688,0,4.875-2.188,4.875-4.875S9.688,2.125,7,2.125L7,2.125z"/>
<path fill="#D0D0D1" d="M7.966,10.174l-1.87-1.93V4.359c0-0.333,0.27-0.603,0.603-0.603l0,0c0.333,0,0.603,0.27,0.603,0.603l0,0
	v3.397l1.53,1.58c0.232,0.238,0.226,0.621-0.013,0.852l0,0c-0.118,0.114-0.269,0.17-0.42,0.17l0,0
	C8.242,10.358,8.084,10.297,7.966,10.174L7.966,10.174z"/>
</svg>